solid OpenSCAD_Model
  facet normal 0.99786 -0.0653848 0
    outer loop
      vertex 4.3 13 7
      vertex 4.31454 13.2219 0
      vertex 4.31454 13.2219 7
    endloop
  endfacet
  facet normal 0.99786 -0.0653848 0
    outer loop
      vertex 4.31454 13.2219 0
      vertex 4.3 13 7
      vertex 4.3 13 0
    endloop
  endfacet
  facet normal 0.659291 0.751888 -0
    outer loop
      vertex 4.96511 11.6513 0
      vertex 4.79792 11.7979 7
      vertex 4.96511 11.6513 7
    endloop
  endfacet
  facet normal 0.659291 0.751888 0
    outer loop
      vertex 4.79792 11.7979 7
      vertex 4.96511 11.6513 0
      vertex 4.79792 11.7979 0
    endloop
  endfacet
  facet normal 0.0652057 -0.997872 0
    outer loop
      vertex 5.7781 14.6855 0
      vertex 6 14.7 7
      vertex 5.7781 14.6855 7
    endloop
  endfacet
  facet normal 0.0652057 -0.997872 0
    outer loop
      vertex 6 14.7 7
      vertex 5.7781 14.6855 0
      vertex 6 14.7 0
    endloop
  endfacet
  facet normal 0.751863 -0.659319 0
    outer loop
      vertex 4.6513 14.0349 7
      vertex 4.79792 14.2021 0
      vertex 4.79792 14.2021 7
    endloop
  endfacet
  facet normal 0.751863 -0.659319 0
    outer loop
      vertex 4.79792 14.2021 0
      vertex 4.6513 14.0349 7
      vertex 4.6513 14.0349 0
    endloop
  endfacet
  facet normal 0 1 -0
    outer loop
      vertex 16 11.3 0
      vertex 6 11.3 7
      vertex 16 11.3 7
    endloop
  endfacet
  facet normal 0 1 0
    outer loop
      vertex 6 11.3 7
      vertex 16 11.3 0
      vertex 6 11.3 0
    endloop
  endfacet
  facet normal -0.946915 0.321484 0
    outer loop
      vertex 17.5706 12.3494 0
      vertex 17.6421 12.56 7
      vertex 17.6421 12.56 0
    endloop
  endfacet
  facet normal -0.946915 0.321484 0
    outer loop
      vertex 17.6421 12.56 7
      vertex 17.5706 12.3494 0
      vertex 17.5706 12.3494 7
    endloop
  endfacet
  facet normal -0.831566 -0.555426 0
    outer loop
      vertex 17.4722 13.85 0
      vertex 17.3487 14.0349 7
      vertex 17.3487 14.0349 0
    endloop
  endfacet
  facet normal -0.831566 -0.555426 0
    outer loop
      vertex 17.3487 14.0349 7
      vertex 17.4722 13.85 0
      vertex 17.4722 13.85 7
    endloop
  endfacet
  facet normal 0 -1 0
    outer loop
      vertex 6 14.7 0
      vertex 16 14.7 7
      vertex 6 14.7 7
    endloop
  endfacet
  facet normal 0 -1 -0
    outer loop
      vertex 16 14.7 7
      vertex 6 14.7 0
      vertex 16 14.7 0
    endloop
  endfacet
  facet normal 0.946956 0.321363 0
    outer loop
      vertex 4.4294 12.3494 7
      vertex 4.35793 12.56 0
      vertex 4.35793 12.56 7
    endloop
  endfacet
  facet normal 0.946956 0.321363 0
    outer loop
      vertex 4.35793 12.56 0
      vertex 4.4294 12.3494 7
      vertex 4.4294 12.3494 0
    endloop
  endfacet
  facet normal 0.442459 0.896789 -0
    outer loop
      vertex 5.34944 11.4294 0
      vertex 5.15 11.5278 7
      vertex 5.34944 11.4294 7
    endloop
  endfacet
  facet normal 0.442459 0.896789 0
    outer loop
      vertex 5.15 11.5278 7
      vertex 5.34944 11.4294 0
      vertex 5.15 11.5278 0
    endloop
  endfacet
  facet normal 0.321525 0.946901 -0
    outer loop
      vertex 5.56001 11.3579 0
      vertex 5.34944 11.4294 7
      vertex 5.56001 11.3579 7
    endloop
  endfacet
  facet normal 0.321525 0.946901 0
    outer loop
      vertex 5.34944 11.4294 7
      vertex 5.56001 11.3579 0
      vertex 5.34944 11.4294 0
    endloop
  endfacet
  facet normal 0.195173 0.980769 -0
    outer loop
      vertex 5.7781 11.3145 0
      vertex 5.56001 11.3579 7
      vertex 5.7781 11.3145 7
    endloop
  endfacet
  facet normal 0.195173 0.980769 0
    outer loop
      vertex 5.56001 11.3579 7
      vertex 5.7781 11.3145 0
      vertex 5.56001 11.3579 0
    endloop
  endfacet
  facet normal -0.659268 0.751908 0
    outer loop
      vertex 17.2021 11.7979 0
      vertex 17.0349 11.6513 7
      vertex 17.2021 11.7979 7
    endloop
  endfacet
  facet normal -0.659268 0.751908 0
    outer loop
      vertex 17.0349 11.6513 7
      vertex 17.2021 11.7979 0
      vertex 17.0349 11.6513 0
    endloop
  endfacet
  facet normal -0.0652057 0.997872 0
    outer loop
      vertex 16.2219 11.3145 0
      vertex 16 11.3 7
      vertex 16.2219 11.3145 7
    endloop
  endfacet
  facet normal -0.0652057 0.997872 0
    outer loop
      vertex 16 11.3 7
      vertex 16.2219 11.3145 0
      vertex 16 11.3 0
    endloop
  endfacet
  facet normal 0.946956 -0.321363 0
    outer loop
      vertex 4.35793 13.44 7
      vertex 4.4294 13.6506 0
      vertex 4.4294 13.6506 7
    endloop
  endfacet
  facet normal 0.946956 -0.321363 0
    outer loop
      vertex 4.4294 13.6506 0
      vertex 4.35793 13.44 7
      vertex 4.35793 13.44 0
    endloop
  endfacet
  facet normal 0.659291 -0.751888 0
    outer loop
      vertex 4.79792 14.2021 0
      vertex 4.96511 14.3487 7
      vertex 4.79792 14.2021 7
    endloop
  endfacet
  facet normal 0.659291 -0.751888 0
    outer loop
      vertex 4.96511 14.3487 7
      vertex 4.79792 14.2021 0
      vertex 4.96511 14.3487 0
    endloop
  endfacet
  facet normal 0.99786 0.0653848 0
    outer loop
      vertex 4.31454 12.7781 7
      vertex 4.3 13 0
      vertex 4.3 13 7
    endloop
  endfacet
  facet normal 0.99786 0.0653848 0
    outer loop
      vertex 4.3 13 0
      vertex 4.31454 12.7781 7
      vertex 4.31454 12.7781 0
    endloop
  endfacet
  facet normal 0.896825 0.442386 0
    outer loop
      vertex 4.52776 12.15 7
      vertex 4.4294 12.3494 0
      vertex 4.4294 12.3494 7
    endloop
  endfacet
  facet normal 0.896825 0.442386 0
    outer loop
      vertex 4.4294 12.3494 0
      vertex 4.52776 12.15 7
      vertex 4.52776 12.15 0
    endloop
  endfacet
  facet normal 0.751863 0.659319 0
    outer loop
      vertex 4.79792 11.7979 7
      vertex 4.6513 11.9651 0
      vertex 4.6513 11.9651 7
    endloop
  endfacet
  facet normal 0.751863 0.659319 0
    outer loop
      vertex 4.6513 11.9651 0
      vertex 4.79792 11.7979 7
      vertex 4.79792 11.7979 0
    endloop
  endfacet
  facet normal 0.555447 0.831552 -0
    outer loop
      vertex 5.15 11.5278 0
      vertex 4.96511 11.6513 7
      vertex 5.15 11.5278 7
    endloop
  endfacet
  facet normal 0.555447 0.831552 0
    outer loop
      vertex 4.96511 11.6513 7
      vertex 5.15 11.5278 0
      vertex 4.96511 11.6513 0
    endloop
  endfacet
  facet normal -0.98077 0.195165 0
    outer loop
      vertex 17.6421 12.56 0
      vertex 17.6855 12.7781 7
      vertex 17.6855 12.7781 0
    endloop
  endfacet
  facet normal -0.98077 0.195165 0
    outer loop
      vertex 17.6855 12.7781 7
      vertex 17.6421 12.56 0
      vertex 17.6421 12.56 7
    endloop
  endfacet
  facet normal -0.751908 0.659268 0
    outer loop
      vertex 17.2021 11.7979 0
      vertex 17.3487 11.9651 7
      vertex 17.3487 11.9651 0
    endloop
  endfacet
  facet normal -0.751908 0.659268 0
    outer loop
      vertex 17.3487 11.9651 7
      vertex 17.2021 11.7979 0
      vertex 17.2021 11.7979 7
    endloop
  endfacet
  facet normal -0.195165 0.98077 0
    outer loop
      vertex 16.44 11.3579 0
      vertex 16.2219 11.3145 7
      vertex 16.44 11.3579 7
    endloop
  endfacet
  facet normal -0.195165 0.98077 0
    outer loop
      vertex 16.2219 11.3145 7
      vertex 16.44 11.3579 0
      vertex 16.2219 11.3145 0
    endloop
  endfacet
  facet normal -0.0652057 -0.997872 0
    outer loop
      vertex 16 14.7 0
      vertex 16.2219 14.6855 7
      vertex 16 14.7 7
    endloop
  endfacet
  facet normal -0.0652057 -0.997872 -0
    outer loop
      vertex 16.2219 14.6855 7
      vertex 16 14.7 0
      vertex 16.2219 14.6855 0
    endloop
  endfacet
  facet normal -0.321484 -0.946915 0
    outer loop
      vertex 16.44 14.6421 0
      vertex 16.6506 14.5706 7
      vertex 16.44 14.6421 7
    endloop
  endfacet
  facet normal -0.321484 -0.946915 -0
    outer loop
      vertex 16.6506 14.5706 7
      vertex 16.44 14.6421 0
      vertex 16.6506 14.5706 0
    endloop
  endfacet
  facet normal -0.44253 -0.896754 0
    outer loop
      vertex 16.6506 14.5706 0
      vertex 16.85 14.4722 7
      vertex 16.6506 14.5706 7
    endloop
  endfacet
  facet normal -0.44253 -0.896754 -0
    outer loop
      vertex 16.85 14.4722 7
      vertex 16.6506 14.5706 0
      vertex 16.85 14.4722 0
    endloop
  endfacet
  facet normal -0.997872 0.0652057 0
    outer loop
      vertex 17.6855 12.7781 0
      vertex 17.7 13 7
      vertex 17.7 13 0
    endloop
  endfacet
  facet normal -0.997872 0.0652057 0
    outer loop
      vertex 17.7 13 7
      vertex 17.6855 12.7781 0
      vertex 17.6855 12.7781 7
    endloop
  endfacet
  facet normal -0.946915 -0.321484 0
    outer loop
      vertex 17.6421 13.44 0
      vertex 17.5706 13.6506 7
      vertex 17.5706 13.6506 0
    endloop
  endfacet
  facet normal -0.946915 -0.321484 0
    outer loop
      vertex 17.5706 13.6506 7
      vertex 17.6421 13.44 0
      vertex 17.6421 13.44 7
    endloop
  endfacet
  facet normal -0.98077 -0.195165 0
    outer loop
      vertex 17.6855 13.2219 0
      vertex 17.6421 13.44 7
      vertex 17.6421 13.44 0
    endloop
  endfacet
  facet normal -0.98077 -0.195165 0
    outer loop
      vertex 17.6421 13.44 7
      vertex 17.6855 13.2219 0
      vertex 17.6855 13.2219 7
    endloop
  endfacet
  facet normal 0.831483 -0.555551 0
    outer loop
      vertex 4.52776 13.85 7
      vertex 4.6513 14.0349 0
      vertex 4.6513 14.0349 7
    endloop
  endfacet
  facet normal 0.831483 -0.555551 0
    outer loop
      vertex 4.6513 14.0349 0
      vertex 4.52776 13.85 7
      vertex 4.52776 13.85 0
    endloop
  endfacet
  facet normal 0.980779 -0.195122 0
    outer loop
      vertex 4.31454 13.2219 7
      vertex 4.35793 13.44 0
      vertex 4.35793 13.44 7
    endloop
  endfacet
  facet normal 0.980779 -0.195122 0
    outer loop
      vertex 4.35793 13.44 0
      vertex 4.31454 13.2219 7
      vertex 4.31454 13.2219 0
    endloop
  endfacet
  facet normal 0.831483 0.555551 0
    outer loop
      vertex 4.6513 11.9651 7
      vertex 4.52776 12.15 0
      vertex 4.52776 12.15 7
    endloop
  endfacet
  facet normal 0.831483 0.555551 0
    outer loop
      vertex 4.52776 12.15 0
      vertex 4.6513 11.9651 7
      vertex 4.6513 11.9651 0
    endloop
  endfacet
  facet normal 0.980779 0.195122 0
    outer loop
      vertex 4.35793 12.56 7
      vertex 4.31454 12.7781 0
      vertex 4.31454 12.7781 7
    endloop
  endfacet
  facet normal 0.980779 0.195122 0
    outer loop
      vertex 4.31454 12.7781 0
      vertex 4.35793 12.56 7
      vertex 4.35793 12.56 0
    endloop
  endfacet
  facet normal 0.0652057 0.997872 -0
    outer loop
      vertex 6 11.3 0
      vertex 5.7781 11.3145 7
      vertex 6 11.3 7
    endloop
  endfacet
  facet normal 0.0652057 0.997872 0
    outer loop
      vertex 5.7781 11.3145 7
      vertex 6 11.3 0
      vertex 5.7781 11.3145 0
    endloop
  endfacet
  facet normal -0.896754 0.44253 0
    outer loop
      vertex 17.4722 12.15 0
      vertex 17.5706 12.3494 7
      vertex 17.5706 12.3494 0
    endloop
  endfacet
  facet normal -0.896754 0.44253 0
    outer loop
      vertex 17.5706 12.3494 7
      vertex 17.4722 12.15 0
      vertex 17.4722 12.15 7
    endloop
  endfacet
  facet normal -0.195165 -0.98077 0
    outer loop
      vertex 16.2219 14.6855 0
      vertex 16.44 14.6421 7
      vertex 16.2219 14.6855 7
    endloop
  endfacet
  facet normal -0.195165 -0.98077 -0
    outer loop
      vertex 16.44 14.6421 7
      vertex 16.2219 14.6855 0
      vertex 16.44 14.6421 0
    endloop
  endfacet
  facet normal -0.555426 -0.831566 0
    outer loop
      vertex 16.85 14.4722 0
      vertex 17.0349 14.3487 7
      vertex 16.85 14.4722 7
    endloop
  endfacet
  facet normal -0.555426 -0.831566 -0
    outer loop
      vertex 17.0349 14.3487 7
      vertex 16.85 14.4722 0
      vertex 17.0349 14.3487 0
    endloop
  endfacet
  facet normal -0.659268 -0.751908 0
    outer loop
      vertex 17.0349 14.3487 0
      vertex 17.2021 14.2021 7
      vertex 17.0349 14.3487 7
    endloop
  endfacet
  facet normal -0.659268 -0.751908 -0
    outer loop
      vertex 17.2021 14.2021 7
      vertex 17.0349 14.3487 0
      vertex 17.2021 14.2021 0
    endloop
  endfacet
  facet normal -0.751908 -0.659268 0
    outer loop
      vertex 17.3487 14.0349 0
      vertex 17.2021 14.2021 7
      vertex 17.2021 14.2021 0
    endloop
  endfacet
  facet normal -0.751908 -0.659268 0
    outer loop
      vertex 17.2021 14.2021 7
      vertex 17.3487 14.0349 0
      vertex 17.3487 14.0349 7
    endloop
  endfacet
  facet normal -0.896754 -0.44253 0
    outer loop
      vertex 17.5706 13.6506 0
      vertex 17.4722 13.85 7
      vertex 17.4722 13.85 0
    endloop
  endfacet
  facet normal -0.896754 -0.44253 0
    outer loop
      vertex 17.4722 13.85 7
      vertex 17.5706 13.6506 0
      vertex 17.5706 13.6506 7
    endloop
  endfacet
  facet normal -0.997872 -0.0652057 0
    outer loop
      vertex 17.7 13 0
      vertex 17.6855 13.2219 7
      vertex 17.6855 13.2219 0
    endloop
  endfacet
  facet normal -0.997872 -0.0652057 0
    outer loop
      vertex 17.6855 13.2219 7
      vertex 17.7 13 0
      vertex 17.7 13 7
    endloop
  endfacet
  facet normal 0.896825 -0.442386 0
    outer loop
      vertex 4.4294 13.6506 7
      vertex 4.52776 13.85 0
      vertex 4.52776 13.85 7
    endloop
  endfacet
  facet normal 0.896825 -0.442386 0
    outer loop
      vertex 4.52776 13.85 0
      vertex 4.4294 13.6506 7
      vertex 4.4294 13.6506 0
    endloop
  endfacet
  facet normal 0.442459 -0.896789 0
    outer loop
      vertex 5.15 14.4722 0
      vertex 5.34944 14.5706 7
      vertex 5.15 14.4722 7
    endloop
  endfacet
  facet normal 0.442459 -0.896789 0
    outer loop
      vertex 5.34944 14.5706 7
      vertex 5.15 14.4722 0
      vertex 5.34944 14.5706 0
    endloop
  endfacet
  facet normal -0.831566 0.555426 0
    outer loop
      vertex 17.3487 11.9651 0
      vertex 17.4722 12.15 7
      vertex 17.4722 12.15 0
    endloop
  endfacet
  facet normal -0.831566 0.555426 0
    outer loop
      vertex 17.4722 12.15 7
      vertex 17.3487 11.9651 0
      vertex 17.3487 11.9651 7
    endloop
  endfacet
  facet normal -0.555426 0.831566 0
    outer loop
      vertex 17.0349 11.6513 0
      vertex 16.85 11.5278 7
      vertex 17.0349 11.6513 7
    endloop
  endfacet
  facet normal -0.555426 0.831566 0
    outer loop
      vertex 16.85 11.5278 7
      vertex 17.0349 11.6513 0
      vertex 16.85 11.5278 0
    endloop
  endfacet
  facet normal 0.321525 -0.946901 0
    outer loop
      vertex 5.34944 14.5706 0
      vertex 5.56001 14.6421 7
      vertex 5.34944 14.5706 7
    endloop
  endfacet
  facet normal 0.321525 -0.946901 0
    outer loop
      vertex 5.56001 14.6421 7
      vertex 5.34944 14.5706 0
      vertex 5.56001 14.6421 0
    endloop
  endfacet
  facet normal 0.195173 -0.980769 0
    outer loop
      vertex 5.56001 14.6421 0
      vertex 5.7781 14.6855 7
      vertex 5.56001 14.6421 7
    endloop
  endfacet
  facet normal 0.195173 -0.980769 0
    outer loop
      vertex 5.7781 14.6855 7
      vertex 5.56001 14.6421 0
      vertex 5.7781 14.6855 0
    endloop
  endfacet
  facet normal 0.555447 -0.831552 0
    outer loop
      vertex 4.96511 14.3487 0
      vertex 5.15 14.4722 7
      vertex 4.96511 14.3487 7
    endloop
  endfacet
  facet normal 0.555447 -0.831552 0
    outer loop
      vertex 5.15 14.4722 7
      vertex 4.96511 14.3487 0
      vertex 5.15 14.4722 0
    endloop
  endfacet
  facet normal -0.44253 0.896754 0
    outer loop
      vertex 16.85 11.5278 0
      vertex 16.6506 11.4294 7
      vertex 16.85 11.5278 7
    endloop
  endfacet
  facet normal -0.44253 0.896754 0
    outer loop
      vertex 16.6506 11.4294 7
      vertex 16.85 11.5278 0
      vertex 16.6506 11.4294 0
    endloop
  endfacet
  facet normal -0.321484 0.946915 0
    outer loop
      vertex 16.6506 11.4294 0
      vertex 16.44 11.3579 7
      vertex 16.6506 11.4294 7
    endloop
  endfacet
  facet normal -0.321484 0.946915 0
    outer loop
      vertex 16.44 11.3579 7
      vertex 16.6506 11.4294 0
      vertex 16.44 11.3579 0
    endloop
  endfacet
  facet normal 0.997872 -0.0652057 0
    outer loop
      vertex 60.3 13 7
      vertex 60.3145 13.2219 0
      vertex 60.3145 13.2219 7
    endloop
  endfacet
  facet normal 0.997872 -0.0652057 0
    outer loop
      vertex 60.3145 13.2219 0
      vertex 60.3 13 7
      vertex 60.3 13 0
    endloop
  endfacet
  facet normal 0.997872 0.0652057 0
    outer loop
      vertex 60.3145 12.7781 7
      vertex 60.3 13 0
      vertex 60.3 13 7
    endloop
  endfacet
  facet normal 0.997872 0.0652057 0
    outer loop
      vertex 60.3 13 0
      vertex 60.3145 12.7781 7
      vertex 60.3145 12.7781 0
    endloop
  endfacet
  facet normal -0.98077 0.195165 0
    outer loop
      vertex 73.6421 12.56 0
      vertex 73.6855 12.7781 7
      vertex 73.6855 12.7781 0
    endloop
  endfacet
  facet normal -0.98077 0.195165 0
    outer loop
      vertex 73.6855 12.7781 7
      vertex 73.6421 12.56 0
      vertex 73.6421 12.56 7
    endloop
  endfacet
  facet normal 0 1 -0
    outer loop
      vertex 72 11.3 0
      vertex 62 11.3 7
      vertex 72 11.3 7
    endloop
  endfacet
  facet normal 0 1 0
    outer loop
      vertex 62 11.3 7
      vertex 72 11.3 0
      vertex 62 11.3 0
    endloop
  endfacet
  facet normal 0.0652057 -0.997872 0
    outer loop
      vertex 61.7781 14.6855 0
      vertex 62 14.7 7
      vertex 61.7781 14.6855 7
    endloop
  endfacet
  facet normal 0.0652057 -0.997872 0
    outer loop
      vertex 62 14.7 7
      vertex 61.7781 14.6855 0
      vertex 62 14.7 0
    endloop
  endfacet
  facet normal 0 -1 0
    outer loop
      vertex 62 14.7 0
      vertex 72 14.7 7
      vertex 62 14.7 7
    endloop
  endfacet
  facet normal 0 -1 -0
    outer loop
      vertex 72 14.7 7
      vertex 62 14.7 0
      vertex 72 14.7 0
    endloop
  endfacet
  facet normal 0.195165 -0.98077 0
    outer loop
      vertex 61.56 14.6421 0
      vertex 61.7781 14.6855 7
      vertex 61.56 14.6421 7
    endloop
  endfacet
  facet normal 0.195165 -0.98077 0
    outer loop
      vertex 61.7781 14.6855 7
      vertex 61.56 14.6421 0
      vertex 61.7781 14.6855 0
    endloop
  endfacet
  facet normal 0.321484 0.946915 -0
    outer loop
      vertex 61.56 11.3579 0
      vertex 61.3494 11.4294 7
      vertex 61.56 11.3579 7
    endloop
  endfacet
  facet normal 0.321484 0.946915 0
    outer loop
      vertex 61.3494 11.4294 7
      vertex 61.56 11.3579 0
      vertex 61.3494 11.4294 0
    endloop
  endfacet
  facet normal 0.0652057 0.997872 -0
    outer loop
      vertex 62 11.3 0
      vertex 61.7781 11.3145 7
      vertex 62 11.3 7
    endloop
  endfacet
  facet normal 0.0652057 0.997872 0
    outer loop
      vertex 61.7781 11.3145 7
      vertex 62 11.3 0
      vertex 61.7781 11.3145 0
    endloop
  endfacet
  facet normal 0.44253 0.896754 -0
    outer loop
      vertex 61.3494 11.4294 0
      vertex 61.15 11.5278 7
      vertex 61.3494 11.4294 7
    endloop
  endfacet
  facet normal 0.44253 0.896754 0
    outer loop
      vertex 61.15 11.5278 7
      vertex 61.3494 11.4294 0
      vertex 61.15 11.5278 0
    endloop
  endfacet
  facet normal 0.659268 0.751908 -0
    outer loop
      vertex 60.9651 11.6513 0
      vertex 60.7979 11.7979 7
      vertex 60.9651 11.6513 7
    endloop
  endfacet
  facet normal 0.659268 0.751908 0
    outer loop
      vertex 60.7979 11.7979 7
      vertex 60.9651 11.6513 0
      vertex 60.7979 11.7979 0
    endloop
  endfacet
  facet normal -0.44253 0.896754 0
    outer loop
      vertex 72.85 11.5278 0
      vertex 72.6506 11.4294 7
      vertex 72.85 11.5278 7
    endloop
  endfacet
  facet normal -0.44253 0.896754 0
    outer loop
      vertex 72.6506 11.4294 7
      vertex 72.85 11.5278 0
      vertex 72.6506 11.4294 0
    endloop
  endfacet
  facet normal -0.751908 0.659268 0
    outer loop
      vertex 73.2021 11.7979 0
      vertex 73.3487 11.9651 7
      vertex 73.3487 11.9651 0
    endloop
  endfacet
  facet normal -0.751908 0.659268 0
    outer loop
      vertex 73.3487 11.9651 7
      vertex 73.2021 11.7979 0
      vertex 73.2021 11.7979 7
    endloop
  endfacet
  facet normal -0.0652057 0.997872 0
    outer loop
      vertex 72.2219 11.3145 0
      vertex 72 11.3 7
      vertex 72.2219 11.3145 7
    endloop
  endfacet
  facet normal -0.0652057 0.997872 0
    outer loop
      vertex 72 11.3 7
      vertex 72.2219 11.3145 0
      vertex 72 11.3 0
    endloop
  endfacet
  facet normal -0.751908 -0.659268 0
    outer loop
      vertex 73.3487 14.0349 0
      vertex 73.2021 14.2021 7
      vertex 73.2021 14.2021 0
    endloop
  endfacet
  facet normal -0.751908 -0.659268 0
    outer loop
      vertex 73.2021 14.2021 7
      vertex 73.3487 14.0349 0
      vertex 73.3487 14.0349 7
    endloop
  endfacet
  facet normal 0.555426 -0.831566 0
    outer loop
      vertex 60.9651 14.3487 0
      vertex 61.15 14.4722 7
      vertex 60.9651 14.3487 7
    endloop
  endfacet
  facet normal 0.555426 -0.831566 0
    outer loop
      vertex 61.15 14.4722 7
      vertex 60.9651 14.3487 0
      vertex 61.15 14.4722 0
    endloop
  endfacet
  facet normal 0.946915 0.321484 0
    outer loop
      vertex 60.4294 12.3494 7
      vertex 60.3579 12.56 0
      vertex 60.3579 12.56 7
    endloop
  endfacet
  facet normal 0.946915 0.321484 0
    outer loop
      vertex 60.3579 12.56 0
      vertex 60.4294 12.3494 7
      vertex 60.4294 12.3494 0
    endloop
  endfacet
  facet normal 0.98077 0.195165 0
    outer loop
      vertex 60.3579 12.56 7
      vertex 60.3145 12.7781 0
      vertex 60.3145 12.7781 7
    endloop
  endfacet
  facet normal 0.98077 0.195165 0
    outer loop
      vertex 60.3145 12.7781 0
      vertex 60.3579 12.56 7
      vertex 60.3579 12.56 0
    endloop
  endfacet
  facet normal 0.896754 0.44253 0
    outer loop
      vertex 60.5278 12.15 7
      vertex 60.4294 12.3494 0
      vertex 60.4294 12.3494 7
    endloop
  endfacet
  facet normal 0.896754 0.44253 0
    outer loop
      vertex 60.4294 12.3494 0
      vertex 60.5278 12.15 7
      vertex 60.5278 12.15 0
    endloop
  endfacet
  facet normal 0.751908 0.659268 0
    outer loop
      vertex 60.7979 11.7979 7
      vertex 60.6513 11.9651 0
      vertex 60.6513 11.9651 7
    endloop
  endfacet
  facet normal 0.751908 0.659268 0
    outer loop
      vertex 60.6513 11.9651 0
      vertex 60.7979 11.7979 7
      vertex 60.7979 11.7979 0
    endloop
  endfacet
  facet normal 0.831566 0.555426 0
    outer loop
      vertex 60.6513 11.9651 7
      vertex 60.5278 12.15 0
      vertex 60.5278 12.15 7
    endloop
  endfacet
  facet normal 0.831566 0.555426 0
    outer loop
      vertex 60.5278 12.15 0
      vertex 60.6513 11.9651 7
      vertex 60.6513 11.9651 0
    endloop
  endfacet
  facet normal 0.195165 0.98077 -0
    outer loop
      vertex 61.7781 11.3145 0
      vertex 61.56 11.3579 7
      vertex 61.7781 11.3145 7
    endloop
  endfacet
  facet normal 0.195165 0.98077 0
    outer loop
      vertex 61.56 11.3579 7
      vertex 61.7781 11.3145 0
      vertex 61.56 11.3579 0
    endloop
  endfacet
  facet normal 0.555426 0.831566 -0
    outer loop
      vertex 61.15 11.5278 0
      vertex 60.9651 11.6513 7
      vertex 61.15 11.5278 7
    endloop
  endfacet
  facet normal 0.555426 0.831566 0
    outer loop
      vertex 60.9651 11.6513 7
      vertex 61.15 11.5278 0
      vertex 60.9651 11.6513 0
    endloop
  endfacet
  facet normal -0.195165 0.98077 0
    outer loop
      vertex 72.44 11.3579 0
      vertex 72.2219 11.3145 7
      vertex 72.44 11.3579 7
    endloop
  endfacet
  facet normal -0.195165 0.98077 0
    outer loop
      vertex 72.2219 11.3145 7
      vertex 72.44 11.3579 0
      vertex 72.2219 11.3145 0
    endloop
  endfacet
  facet normal -0.321484 0.946915 0
    outer loop
      vertex 72.6506 11.4294 0
      vertex 72.44 11.3579 7
      vertex 72.6506 11.4294 7
    endloop
  endfacet
  facet normal -0.321484 0.946915 0
    outer loop
      vertex 72.44 11.3579 7
      vertex 72.6506 11.4294 0
      vertex 72.44 11.3579 0
    endloop
  endfacet
  facet normal -0.555426 -0.831566 0
    outer loop
      vertex 72.85 14.4722 0
      vertex 73.0349 14.3487 7
      vertex 72.85 14.4722 7
    endloop
  endfacet
  facet normal -0.555426 -0.831566 -0
    outer loop
      vertex 73.0349 14.3487 7
      vertex 72.85 14.4722 0
      vertex 73.0349 14.3487 0
    endloop
  endfacet
  facet normal -0.659268 -0.751908 0
    outer loop
      vertex 73.0349 14.3487 0
      vertex 73.2021 14.2021 7
      vertex 73.0349 14.3487 7
    endloop
  endfacet
  facet normal -0.659268 -0.751908 -0
    outer loop
      vertex 73.2021 14.2021 7
      vertex 73.0349 14.3487 0
      vertex 73.2021 14.2021 0
    endloop
  endfacet
  facet normal -0.321484 -0.946915 0
    outer loop
      vertex 72.44 14.6421 0
      vertex 72.6506 14.5706 7
      vertex 72.44 14.6421 7
    endloop
  endfacet
  facet normal -0.321484 -0.946915 -0
    outer loop
      vertex 72.6506 14.5706 7
      vertex 72.44 14.6421 0
      vertex 72.6506 14.5706 0
    endloop
  endfacet
  facet normal -0.946915 -0.321484 0
    outer loop
      vertex 73.6421 13.44 0
      vertex 73.5706 13.6506 7
      vertex 73.5706 13.6506 0
    endloop
  endfacet
  facet normal -0.946915 -0.321484 0
    outer loop
      vertex 73.5706 13.6506 7
      vertex 73.6421 13.44 0
      vertex 73.6421 13.44 7
    endloop
  endfacet
  facet normal -0.997872 0.0652057 0
    outer loop
      vertex 73.6855 12.7781 0
      vertex 73.7 13 7
      vertex 73.7 13 0
    endloop
  endfacet
  facet normal -0.997872 0.0652057 0
    outer loop
      vertex 73.7 13 7
      vertex 73.6855 12.7781 0
      vertex 73.6855 12.7781 7
    endloop
  endfacet
  facet normal 0.44253 -0.896754 0
    outer loop
      vertex 61.15 14.4722 0
      vertex 61.3494 14.5706 7
      vertex 61.15 14.4722 7
    endloop
  endfacet
  facet normal 0.44253 -0.896754 0
    outer loop
      vertex 61.3494 14.5706 7
      vertex 61.15 14.4722 0
      vertex 61.3494 14.5706 0
    endloop
  endfacet
  facet normal 0.659268 -0.751908 0
    outer loop
      vertex 60.7979 14.2021 0
      vertex 60.9651 14.3487 7
      vertex 60.7979 14.2021 7
    endloop
  endfacet
  facet normal 0.659268 -0.751908 0
    outer loop
      vertex 60.9651 14.3487 7
      vertex 60.7979 14.2021 0
      vertex 60.9651 14.3487 0
    endloop
  endfacet
  facet normal 0.896754 -0.44253 0
    outer loop
      vertex 60.4294 13.6506 7
      vertex 60.5278 13.85 0
      vertex 60.5278 13.85 7
    endloop
  endfacet
  facet normal 0.896754 -0.44253 0
    outer loop
      vertex 60.5278 13.85 0
      vertex 60.4294 13.6506 7
      vertex 60.4294 13.6506 0
    endloop
  endfacet
  facet normal -0.659268 0.751908 0
    outer loop
      vertex 73.2021 11.7979 0
      vertex 73.0349 11.6513 7
      vertex 73.2021 11.7979 7
    endloop
  endfacet
  facet normal -0.659268 0.751908 0
    outer loop
      vertex 73.0349 11.6513 7
      vertex 73.2021 11.7979 0
      vertex 73.0349 11.6513 0
    endloop
  endfacet
  facet normal -0.831566 0.555426 0
    outer loop
      vertex 73.3487 11.9651 0
      vertex 73.4722 12.15 7
      vertex 73.4722 12.15 0
    endloop
  endfacet
  facet normal -0.831566 0.555426 0
    outer loop
      vertex 73.4722 12.15 7
      vertex 73.3487 11.9651 0
      vertex 73.3487 11.9651 7
    endloop
  endfacet
  facet normal -0.44253 -0.896754 0
    outer loop
      vertex 72.6506 14.5706 0
      vertex 72.85 14.4722 7
      vertex 72.6506 14.5706 7
    endloop
  endfacet
  facet normal -0.44253 -0.896754 -0
    outer loop
      vertex 72.85 14.4722 7
      vertex 72.6506 14.5706 0
      vertex 72.85 14.4722 0
    endloop
  endfacet
  facet normal -0.0652057 -0.997872 0
    outer loop
      vertex 72 14.7 0
      vertex 72.2219 14.6855 7
      vertex 72 14.7 7
    endloop
  endfacet
  facet normal -0.0652057 -0.997872 -0
    outer loop
      vertex 72.2219 14.6855 7
      vertex 72 14.7 0
      vertex 72.2219 14.6855 0
    endloop
  endfacet
  facet normal -0.195165 -0.98077 0
    outer loop
      vertex 72.2219 14.6855 0
      vertex 72.44 14.6421 7
      vertex 72.2219 14.6855 7
    endloop
  endfacet
  facet normal -0.195165 -0.98077 -0
    outer loop
      vertex 72.44 14.6421 7
      vertex 72.2219 14.6855 0
      vertex 72.44 14.6421 0
    endloop
  endfacet
  facet normal -0.831566 -0.555426 0
    outer loop
      vertex 73.4722 13.85 0
      vertex 73.3487 14.0349 7
      vertex 73.3487 14.0349 0
    endloop
  endfacet
  facet normal -0.831566 -0.555426 0
    outer loop
      vertex 73.3487 14.0349 7
      vertex 73.4722 13.85 0
      vertex 73.4722 13.85 7
    endloop
  endfacet
  facet normal -0.896754 -0.44253 0
    outer loop
      vertex 73.5706 13.6506 0
      vertex 73.4722 13.85 7
      vertex 73.4722 13.85 0
    endloop
  endfacet
  facet normal -0.896754 -0.44253 0
    outer loop
      vertex 73.4722 13.85 7
      vertex 73.5706 13.6506 0
      vertex 73.5706 13.6506 7
    endloop
  endfacet
  facet normal -0.98077 -0.195165 0
    outer loop
      vertex 73.6855 13.2219 0
      vertex 73.6421 13.44 7
      vertex 73.6421 13.44 0
    endloop
  endfacet
  facet normal -0.98077 -0.195165 0
    outer loop
      vertex 73.6421 13.44 7
      vertex 73.6855 13.2219 0
      vertex 73.6855 13.2219 7
    endloop
  endfacet
  facet normal -0.997872 -0.0652057 0
    outer loop
      vertex 73.7 13 0
      vertex 73.6855 13.2219 7
      vertex 73.6855 13.2219 0
    endloop
  endfacet
  facet normal -0.997872 -0.0652057 0
    outer loop
      vertex 73.6855 13.2219 7
      vertex 73.7 13 0
      vertex 73.7 13 7
    endloop
  endfacet
  facet normal 0.751908 -0.659268 0
    outer loop
      vertex 60.6513 14.0349 7
      vertex 60.7979 14.2021 0
      vertex 60.7979 14.2021 7
    endloop
  endfacet
  facet normal 0.751908 -0.659268 0
    outer loop
      vertex 60.7979 14.2021 0
      vertex 60.6513 14.0349 7
      vertex 60.6513 14.0349 0
    endloop
  endfacet
  facet normal 0.321484 -0.946915 0
    outer loop
      vertex 61.3494 14.5706 0
      vertex 61.56 14.6421 7
      vertex 61.3494 14.5706 7
    endloop
  endfacet
  facet normal 0.321484 -0.946915 0
    outer loop
      vertex 61.56 14.6421 7
      vertex 61.3494 14.5706 0
      vertex 61.56 14.6421 0
    endloop
  endfacet
  facet normal 0.98077 -0.195165 0
    outer loop
      vertex 60.3145 13.2219 7
      vertex 60.3579 13.44 0
      vertex 60.3579 13.44 7
    endloop
  endfacet
  facet normal 0.98077 -0.195165 0
    outer loop
      vertex 60.3579 13.44 0
      vertex 60.3145 13.2219 7
      vertex 60.3145 13.2219 0
    endloop
  endfacet
  facet normal 0.946915 -0.321484 0
    outer loop
      vertex 60.3579 13.44 7
      vertex 60.4294 13.6506 0
      vertex 60.4294 13.6506 7
    endloop
  endfacet
  facet normal 0.946915 -0.321484 0
    outer loop
      vertex 60.4294 13.6506 0
      vertex 60.3579 13.44 7
      vertex 60.3579 13.44 0
    endloop
  endfacet
  facet normal 0.831566 -0.555426 0
    outer loop
      vertex 60.5278 13.85 7
      vertex 60.6513 14.0349 0
      vertex 60.6513 14.0349 7
    endloop
  endfacet
  facet normal 0.831566 -0.555426 0
    outer loop
      vertex 60.6513 14.0349 0
      vertex 60.5278 13.85 7
      vertex 60.5278 13.85 0
    endloop
  endfacet
  facet normal -0.555426 0.831566 0
    outer loop
      vertex 73.0349 11.6513 0
      vertex 72.85 11.5278 7
      vertex 73.0349 11.6513 7
    endloop
  endfacet
  facet normal -0.555426 0.831566 0
    outer loop
      vertex 72.85 11.5278 7
      vertex 73.0349 11.6513 0
      vertex 72.85 11.5278 0
    endloop
  endfacet
  facet normal -0.896754 0.44253 0
    outer loop
      vertex 73.4722 12.15 0
      vertex 73.5706 12.3494 7
      vertex 73.5706 12.3494 0
    endloop
  endfacet
  facet normal -0.896754 0.44253 0
    outer loop
      vertex 73.5706 12.3494 7
      vertex 73.4722 12.15 0
      vertex 73.4722 12.15 7
    endloop
  endfacet
  facet normal -0.946915 0.321484 0
    outer loop
      vertex 73.5706 12.3494 0
      vertex 73.6421 12.56 7
      vertex 73.6421 12.56 0
    endloop
  endfacet
  facet normal -0.946915 0.321484 0
    outer loop
      vertex 73.6421 12.56 7
      vertex 73.5706 12.3494 0
      vertex 73.5706 12.3494 7
    endloop
  endfacet
  facet normal 1 -0 0
    outer loop
      vertex 78 3 7
      vertex 78 23 0
      vertex 78 23 7
    endloop
  endfacet
  facet normal 1 0 0
    outer loop
      vertex 78 23 0
      vertex 78 3 7
      vertex 78 3 0
    endloop
  endfacet
  facet normal -0.980788 0.195079 0
    outer loop
      vertex 0.0256653 23.3916 0
      vertex 0.102222 23.7765 7
      vertex 0.102222 23.7765 0
    endloop
  endfacet
  facet normal -0.980788 0.195079 0
    outer loop
      vertex 0.102222 23.7765 7
      vertex 0.0256653 23.3916 0
      vertex 0.0256653 23.3916 7
    endloop
  endfacet
  facet normal 0.0654873 0.997853 -0
    outer loop
      vertex 75.3916 25.9743 0
      vertex 75 26 7
      vertex 75.3916 25.9743 7
    endloop
  endfacet
  facet normal 0.0654873 0.997853 0
    outer loop
      vertex 75 26 7
      vertex 75.3916 25.9743 0
      vertex 75 26 0
    endloop
  endfacet
  facet normal 0.0653993 -0.997859 0
    outer loop
      vertex 75 0 0
      vertex 75.3916 0.0256653 7
      vertex 75 0 7
    endloop
  endfacet
  facet normal 0.0653993 -0.997859 0
    outer loop
      vertex 75.3916 0.0256653 7
      vertex 75 0 0
      vertex 75.3916 0.0256653 0
    endloop
  endfacet
  facet normal 0.997853 -0.0654906 0
    outer loop
      vertex 77.9743 2.60842 7
      vertex 78 3 0
      vertex 78 3 7
    endloop
  endfacet
  facet normal 0.997853 -0.0654906 0
    outer loop
      vertex 78 3 0
      vertex 77.9743 2.60842 7
      vertex 77.9743 2.60842 0
    endloop
  endfacet
  facet normal 0 0 -1
    outer loop
      vertex 75 0 0
      vertex 78 3 0
      vertex 77.9743 2.60842 0
    endloop
  endfacet
  facet normal 0 0 -1
    outer loop
      vertex 78 3 0
      vertex 73.7 13 0
      vertex 78 23 0
    endloop
  endfacet
  facet normal 0 0 -1
    outer loop
      vertex 75 0 0
      vertex 77.9743 2.60842 0
      vertex 77.8978 2.22354 0
    endloop
  endfacet
  facet normal 0 0 -1
    outer loop
      vertex 73.6855 13.2219 0
      vertex 78 23 0
      vertex 73.7 13 0
    endloop
  endfacet
  facet normal 0 0 -1
    outer loop
      vertex 75 0 0
      vertex 77.8978 2.22354 0
      vertex 77.7716 1.85195 0
    endloop
  endfacet
  facet normal 0 0 -1
    outer loop
      vertex 73.6421 13.44 0
      vertex 78 23 0
      vertex 73.6855 13.2219 0
    endloop
  endfacet
  facet normal 0 0 -1
    outer loop
      vertex 75 0 0
      vertex 77.7716 1.85195 0
      vertex 77.5981 1.5 0
    endloop
  endfacet
  facet normal 0 0 -1
    outer loop
      vertex 73.5706 13.6506 0
      vertex 78 23 0
      vertex 73.6421 13.44 0
    endloop
  endfacet
  facet normal 0 0 -1
    outer loop
      vertex 75 0 0
      vertex 77.5981 1.5 0
      vertex 77.3801 1.17372 0
    endloop
  endfacet
  facet normal 0 0 -1
    outer loop
      vertex 73.4722 13.85 0
      vertex 78 23 0
      vertex 73.5706 13.6506 0
    endloop
  endfacet
  facet normal 0 0 -1
    outer loop
      vertex 75 0 0
      vertex 77.3801 1.17372 0
      vertex 77.1213 0.878679 0
    endloop
  endfacet
  facet normal 0 0 -1
    outer loop
      vertex 73.3487 14.0349 0
      vertex 78 23 0
      vertex 73.4722 13.85 0
    endloop
  endfacet
  facet normal 0 0 -1
    outer loop
      vertex 75 0 0
      vertex 77.1213 0.878679 0
      vertex 76.8263 0.61994 0
    endloop
  endfacet
  facet normal 0 0 -1
    outer loop
      vertex 73.2021 14.2021 0
      vertex 78 23 0
      vertex 73.3487 14.0349 0
    endloop
  endfacet
  facet normal 0 0 -1
    outer loop
      vertex 75 0 0
      vertex 76.8263 0.61994 0
      vertex 76.5 0.401923 0
    endloop
  endfacet
  facet normal 0 0 -1
    outer loop
      vertex 73.0349 14.3487 0
      vertex 78 23 0
      vertex 73.2021 14.2021 0
    endloop
  endfacet
  facet normal 0 0 -1
    outer loop
      vertex 75 0 0
      vertex 76.5 0.401923 0
      vertex 76.148 0.228361 0
    endloop
  endfacet
  facet normal 0 0 -1
    outer loop
      vertex 72.85 14.4722 0
      vertex 78 23 0
      vertex 73.0349 14.3487 0
    endloop
  endfacet
  facet normal 0 0 -1
    outer loop
      vertex 75 0 0
      vertex 76.148 0.228361 0
      vertex 75.7765 0.102222 0
    endloop
  endfacet
  facet normal 0 0 -1
    outer loop
      vertex 72.6506 14.5706 0
      vertex 78 23 0
      vertex 72.85 14.4722 0
    endloop
  endfacet
  facet normal 0 0 -1
    outer loop
      vertex 75 0 0
      vertex 75.7765 0.102222 0
      vertex 75.3916 0.0256653 0
    endloop
  endfacet
  facet normal 0 0 -1
    outer loop
      vertex 72.44 14.6421 0
      vertex 78 23 0
      vertex 72.6506 14.5706 0
    endloop
  endfacet
  facet normal -0 0 -1
    outer loop
      vertex 78 3 0
      vertex 75 0 0
      vertex 72.2219 11.3145 0
    endloop
  endfacet
  facet normal 0 0 -1
    outer loop
      vertex 72.2219 14.6855 0
      vertex 78 23 0
      vertex 72.44 14.6421 0
    endloop
  endfacet
  facet normal 0 -0 -1
    outer loop
      vertex 75 26 0
      vertex 78 23 0
      vertex 72.2219 14.6855 0
    endloop
  endfacet
  facet normal 0 0 -1
    outer loop
      vertex 78 3 0
      vertex 73.6855 12.7781 0
      vertex 73.7 13 0
    endloop
  endfacet
  facet normal 0 0 -1
    outer loop
      vertex 78 3 0
      vertex 73.6421 12.56 0
      vertex 73.6855 12.7781 0
    endloop
  endfacet
  facet normal 0 0 -1
    outer loop
      vertex 78 3 0
      vertex 73.5706 12.3494 0
      vertex 73.6421 12.56 0
    endloop
  endfacet
  facet normal 0 0 -1
    outer loop
      vertex 78 3 0
      vertex 73.4722 12.15 0
      vertex 73.5706 12.3494 0
    endloop
  endfacet
  facet normal 0 0 -1
    outer loop
      vertex 78 3 0
      vertex 73.3487 11.9651 0
      vertex 73.4722 12.15 0
    endloop
  endfacet
  facet normal 0 0 -1
    outer loop
      vertex 78 3 0
      vertex 73.2021 11.7979 0
      vertex 73.3487 11.9651 0
    endloop
  endfacet
  facet normal 0 0 -1
    outer loop
      vertex 78 3 0
      vertex 73.0349 11.6513 0
      vertex 73.2021 11.7979 0
    endloop
  endfacet
  facet normal 0 0 -1
    outer loop
      vertex 78 3 0
      vertex 72.85 11.5278 0
      vertex 73.0349 11.6513 0
    endloop
  endfacet
  facet normal 0 0 -1
    outer loop
      vertex 78 3 0
      vertex 72.6506 11.4294 0
      vertex 72.85 11.5278 0
    endloop
  endfacet
  facet normal 0 0 -1
    outer loop
      vertex 78 3 0
      vertex 72.44 11.3579 0
      vertex 72.6506 11.4294 0
    endloop
  endfacet
  facet normal 0 0 -1
    outer loop
      vertex 78 3 0
      vertex 72.2219 11.3145 0
      vertex 72.44 11.3579 0
    endloop
  endfacet
  facet normal 0 0 -1
    outer loop
      vertex 75 0 0
      vertex 72 11.3 0
      vertex 72.2219 11.3145 0
    endloop
  endfacet
  facet normal 0 0 -1
    outer loop
      vertex 75 0 0
      vertex 62 11.3 0
      vertex 72 11.3 0
    endloop
  endfacet
  facet normal 0 0 -1
    outer loop
      vertex 75 0 0
      vertex 61.7781 11.3145 0
      vertex 62 11.3 0
    endloop
  endfacet
  facet normal 0 0 -1
    outer loop
      vertex 75 0 0
      vertex 61.56 11.3579 0
      vertex 61.7781 11.3145 0
    endloop
  endfacet
  facet normal 0 0 -1
    outer loop
      vertex 75 0 0
      vertex 61.3494 11.4294 0
      vertex 61.56 11.3579 0
    endloop
  endfacet
  facet normal 0 0 -1
    outer loop
      vertex 75 0 0
      vertex 61.15 11.5278 0
      vertex 61.3494 11.4294 0
    endloop
  endfacet
  facet normal 0 0 -1
    outer loop
      vertex 16.85 11.5278 0
      vertex 61.15 11.5278 0
      vertex 75 0 0
    endloop
  endfacet
  facet normal 0 0 -1
    outer loop
      vertex 60.3145 12.7781 0
      vertex 17.7 13 0
      vertex 60.3 13 0
    endloop
  endfacet
  facet normal 0 0 -1
    outer loop
      vertex 17.6855 12.7781 0
      vertex 60.3145 12.7781 0
      vertex 60.3579 12.56 0
    endloop
  endfacet
  facet normal 0 0 -1
    outer loop
      vertex 17.6421 12.56 0
      vertex 60.3579 12.56 0
      vertex 60.4294 12.3494 0
    endloop
  endfacet
  facet normal 0 0 -1
    outer loop
      vertex 17.5706 12.3494 0
      vertex 60.4294 12.3494 0
      vertex 60.5278 12.15 0
    endloop
  endfacet
  facet normal 0 0 -1
    outer loop
      vertex 17.4722 12.15 0
      vertex 60.5278 12.15 0
      vertex 60.6513 11.9651 0
    endloop
  endfacet
  facet normal 0 0 -1
    outer loop
      vertex 17.3487 11.9651 0
      vertex 60.6513 11.9651 0
      vertex 60.7979 11.7979 0
    endloop
  endfacet
  facet normal 0 0 -1
    outer loop
      vertex 17.2021 11.7979 0
      vertex 60.7979 11.7979 0
      vertex 60.9651 11.6513 0
    endloop
  endfacet
  facet normal 0 0 -1
    outer loop
      vertex 61.15 11.5278 0
      vertex 16.85 11.5278 0
      vertex 60.9651 11.6513 0
    endloop
  endfacet
  facet normal 0 0 -1
    outer loop
      vertex 60.3145 12.7781 0
      vertex 17.6855 12.7781 0
      vertex 17.7 13 0
    endloop
  endfacet
  facet normal 0 0 -1
    outer loop
      vertex 60.3579 12.56 0
      vertex 17.6421 12.56 0
      vertex 17.6855 12.7781 0
    endloop
  endfacet
  facet normal 0 0 -1
    outer loop
      vertex 60.4294 12.3494 0
      vertex 17.5706 12.3494 0
      vertex 17.6421 12.56 0
    endloop
  endfacet
  facet normal 0 0 -1
    outer loop
      vertex 60.5278 12.15 0
      vertex 17.4722 12.15 0
      vertex 17.5706 12.3494 0
    endloop
  endfacet
  facet normal 0 0 -1
    outer loop
      vertex 60.6513 11.9651 0
      vertex 17.3487 11.9651 0
      vertex 17.4722 12.15 0
    endloop
  endfacet
  facet normal 0 0 -1
    outer loop
      vertex 60.7979 11.7979 0
      vertex 17.2021 11.7979 0
      vertex 17.3487 11.9651 0
    endloop
  endfacet
  facet normal 0 0 -1
    outer loop
      vertex 60.9651 11.6513 0
      vertex 17.0349 11.6513 0
      vertex 17.2021 11.7979 0
    endloop
  endfacet
  facet normal -0 0 -1
    outer loop
      vertex 60.9651 11.6513 0
      vertex 16.85 11.5278 0
      vertex 17.0349 11.6513 0
    endloop
  endfacet
  facet normal 0 0 -1
    outer loop
      vertex 3 0 0
      vertex 16.85 11.5278 0
      vertex 75 0 0
    endloop
  endfacet
  facet normal 0 0 -1
    outer loop
      vertex 16.85 11.5278 0
      vertex 3 0 0
      vertex 16.6506 11.4294 0
    endloop
  endfacet
  facet normal 0 0 -1
    outer loop
      vertex 16.6506 11.4294 0
      vertex 3 0 0
      vertex 16.44 11.3579 0
    endloop
  endfacet
  facet normal 0 0 -1
    outer loop
      vertex 16.44 11.3579 0
      vertex 3 0 0
      vertex 16.2219 11.3145 0
    endloop
  endfacet
  facet normal 0 0 -1
    outer loop
      vertex 16.2219 11.3145 0
      vertex 3 0 0
      vertex 16 11.3 0
    endloop
  endfacet
  facet normal -0 0 -1
    outer loop
      vertex 16 11.3 0
      vertex 3 0 0
      vertex 6 11.3 0
    endloop
  endfacet
  facet normal -0 0 -1
    outer loop
      vertex 4.35793 12.56 0
      vertex 0 3 0
      vertex 4.31454 12.7781 0
    endloop
  endfacet
  facet normal -0 0 -1
    outer loop
      vertex 4.4294 12.3494 0
      vertex 0 3 0
      vertex 4.35793 12.56 0
    endloop
  endfacet
  facet normal -0 0 -1
    outer loop
      vertex 4.52776 12.15 0
      vertex 0 3 0
      vertex 4.4294 12.3494 0
    endloop
  endfacet
  facet normal -0 0 -1
    outer loop
      vertex 4.6513 11.9651 0
      vertex 0 3 0
      vertex 4.52776 12.15 0
    endloop
  endfacet
  facet normal -0 0 -1
    outer loop
      vertex 4.79792 11.7979 0
      vertex 0 3 0
      vertex 4.6513 11.9651 0
    endloop
  endfacet
  facet normal -0 0 -1
    outer loop
      vertex 4.96511 11.6513 0
      vertex 0 3 0
      vertex 4.79792 11.7979 0
    endloop
  endfacet
  facet normal -0 0 -1
    outer loop
      vertex 5.15 11.5278 0
      vertex 0 3 0
      vertex 4.96511 11.6513 0
    endloop
  endfacet
  facet normal -0 0 -1
    outer loop
      vertex 5.34944 11.4294 0
      vertex 0 3 0
      vertex 5.15 11.5278 0
    endloop
  endfacet
  facet normal -0 0 -1
    outer loop
      vertex 5.56001 11.3579 0
      vertex 0 3 0
      vertex 5.34944 11.4294 0
    endloop
  endfacet
  facet normal -0 0 -1
    outer loop
      vertex 5.7781 11.3145 0
      vertex 0 3 0
      vertex 5.56001 11.3579 0
    endloop
  endfacet
  facet normal 0 0 -1
    outer loop
      vertex 0 3 0
      vertex 5.7781 11.3145 0
      vertex 3 0 0
    endloop
  endfacet
  facet normal -0 0 -1
    outer loop
      vertex 6 11.3 0
      vertex 3 0 0
      vertex 5.7781 11.3145 0
    endloop
  endfacet
  facet normal 0 0 -1
    outer loop
      vertex 78 23 0
      vertex 75 26 0
      vertex 77.9743 23.3916 0
    endloop
  endfacet
  facet normal 0 0 -1
    outer loop
      vertex 77.9743 23.3916 0
      vertex 75 26 0
      vertex 77.8978 23.7765 0
    endloop
  endfacet
  facet normal 0 0 -1
    outer loop
      vertex 77.7716 24.148 0
      vertex 75 26 0
      vertex 77.5981 24.5 0
    endloop
  endfacet
  facet normal 0 0 -1
    outer loop
      vertex 77.5981 24.5 0
      vertex 75 26 0
      vertex 77.3801 24.8263 0
    endloop
  endfacet
  facet normal 0 0 -1
    outer loop
      vertex 77.3801 24.8263 0
      vertex 75 26 0
      vertex 77.1213 25.1213 0
    endloop
  endfacet
  facet normal 0 0 -1
    outer loop
      vertex 77.1213 25.1213 0
      vertex 75 26 0
      vertex 76.8263 25.3801 0
    endloop
  endfacet
  facet normal 0 0 -1
    outer loop
      vertex 76.5 25.5981 0
      vertex 75 26 0
      vertex 76.148 25.7716 0
    endloop
  endfacet
  facet normal 0 0 -1
    outer loop
      vertex 76.148 25.7716 0
      vertex 75 26 0
      vertex 75.7765 25.8978 0
    endloop
  endfacet
  facet normal 0 0 -1
    outer loop
      vertex 75.7765 25.8978 0
      vertex 75 26 0
      vertex 75.3916 25.9743 0
    endloop
  endfacet
  facet normal 0 0 -1
    outer loop
      vertex 76.8263 25.3801 0
      vertex 75 26 0
      vertex 76.5 25.5981 0
    endloop
  endfacet
  facet normal 0 0 -1
    outer loop
      vertex 77.8978 23.7765 0
      vertex 75 26 0
      vertex 77.7716 24.148 0
    endloop
  endfacet
  facet normal 0 0 -1
    outer loop
      vertex 72 14.7 0
      vertex 75 26 0
      vertex 72.2219 14.6855 0
    endloop
  endfacet
  facet normal 0 0 -1
    outer loop
      vertex 62 14.7 0
      vertex 75 26 0
      vertex 72 14.7 0
    endloop
  endfacet
  facet normal 0 0 -1
    outer loop
      vertex 61.7781 14.6855 0
      vertex 75 26 0
      vertex 62 14.7 0
    endloop
  endfacet
  facet normal 0 0 -1
    outer loop
      vertex 61.56 14.6421 0
      vertex 75 26 0
      vertex 61.7781 14.6855 0
    endloop
  endfacet
  facet normal 0 0 -1
    outer loop
      vertex 61.3494 14.5706 0
      vertex 75 26 0
      vertex 61.56 14.6421 0
    endloop
  endfacet
  facet normal 0 0 -1
    outer loop
      vertex 61.15 14.4722 0
      vertex 75 26 0
      vertex 61.3494 14.5706 0
    endloop
  endfacet
  facet normal 0 0 -1
    outer loop
      vertex 16.85 14.4722 0
      vertex 61.15 14.4722 0
      vertex 60.9651 14.3487 0
    endloop
  endfacet
  facet normal 0 0 -1
    outer loop
      vertex 17.7 13 0
      vertex 60.3145 13.2219 0
      vertex 60.3 13 0
    endloop
  endfacet
  facet normal 0 0 -1
    outer loop
      vertex 17.6855 13.2219 0
      vertex 60.3145 13.2219 0
      vertex 17.7 13 0
    endloop
  endfacet
  facet normal 0 0 -1
    outer loop
      vertex 60.3145 13.2219 0
      vertex 17.6855 13.2219 0
      vertex 60.3579 13.44 0
    endloop
  endfacet
  facet normal 0 0 -1
    outer loop
      vertex 17.6421 13.44 0
      vertex 60.3579 13.44 0
      vertex 17.6855 13.2219 0
    endloop
  endfacet
  facet normal 0 0 -1
    outer loop
      vertex 60.3579 13.44 0
      vertex 17.6421 13.44 0
      vertex 60.4294 13.6506 0
    endloop
  endfacet
  facet normal 0 0 -1
    outer loop
      vertex 17.5706 13.6506 0
      vertex 60.4294 13.6506 0
      vertex 17.6421 13.44 0
    endloop
  endfacet
  facet normal 0 0 -1
    outer loop
      vertex 60.4294 13.6506 0
      vertex 17.5706 13.6506 0
      vertex 60.5278 13.85 0
    endloop
  endfacet
  facet normal 0 0 -1
    outer loop
      vertex 17.4722 13.85 0
      vertex 60.5278 13.85 0
      vertex 17.5706 13.6506 0
    endloop
  endfacet
  facet normal 0 0 -1
    outer loop
      vertex 60.5278 13.85 0
      vertex 17.4722 13.85 0
      vertex 60.6513 14.0349 0
    endloop
  endfacet
  facet normal 0 0 -1
    outer loop
      vertex 17.3487 14.0349 0
      vertex 60.6513 14.0349 0
      vertex 17.4722 13.85 0
    endloop
  endfacet
  facet normal 0 0 -1
    outer loop
      vertex 60.6513 14.0349 0
      vertex 17.3487 14.0349 0
      vertex 60.7979 14.2021 0
    endloop
  endfacet
  facet normal 0 0 -1
    outer loop
      vertex 17.2021 14.2021 0
      vertex 60.7979 14.2021 0
      vertex 17.3487 14.0349 0
    endloop
  endfacet
  facet normal 0 0 -1
    outer loop
      vertex 60.7979 14.2021 0
      vertex 17.2021 14.2021 0
      vertex 60.9651 14.3487 0
    endloop
  endfacet
  facet normal 0 0 -1
    outer loop
      vertex 17.0349 14.3487 0
      vertex 60.9651 14.3487 0
      vertex 17.2021 14.2021 0
    endloop
  endfacet
  facet normal 0 0 -1
    outer loop
      vertex 16.85 14.4722 0
      vertex 60.9651 14.3487 0
      vertex 17.0349 14.3487 0
    endloop
  endfacet
  facet normal 0 0 -1
    outer loop
      vertex 61.15 14.4722 0
      vertex 16.85 14.4722 0
      vertex 75 26 0
    endloop
  endfacet
  facet normal 0 0 -1
    outer loop
      vertex 3 26 0
      vertex 16.85 14.4722 0
      vertex 16.6506 14.5706 0
    endloop
  endfacet
  facet normal 0 0 -1
    outer loop
      vertex 3 26 0
      vertex 16.6506 14.5706 0
      vertex 16.44 14.6421 0
    endloop
  endfacet
  facet normal 0 0 -1
    outer loop
      vertex 3 26 0
      vertex 16.44 14.6421 0
      vertex 16.2219 14.6855 0
    endloop
  endfacet
  facet normal 0 0 -1
    outer loop
      vertex 3 26 0
      vertex 16.2219 14.6855 0
      vertex 16 14.7 0
    endloop
  endfacet
  facet normal 0 0 -1
    outer loop
      vertex 3 26 0
      vertex 16 14.7 0
      vertex 6 14.7 0
    endloop
  endfacet
  facet normal 0 0 -1
    outer loop
      vertex 3 26 0
      vertex 6 14.7 0
      vertex 5.7781 14.6855 0
    endloop
  endfacet
  facet normal -0 0 -1
    outer loop
      vertex 4.31454 12.7781 0
      vertex 0 3 0
      vertex 4.3 13 0
    endloop
  endfacet
  facet normal 0 0 -1
    outer loop
      vertex 16.85 14.4722 0
      vertex 3 26 0
      vertex 75 26 0
    endloop
  endfacet
  facet normal 0 0 -1
    outer loop
      vertex 0 23 0
      vertex 5.7781 14.6855 0
      vertex 5.56001 14.6421 0
    endloop
  endfacet
  facet normal 0 0 -1
    outer loop
      vertex 0 23 0
      vertex 5.56001 14.6421 0
      vertex 5.34944 14.5706 0
    endloop
  endfacet
  facet normal 0 0 -1
    outer loop
      vertex 0 23 0
      vertex 5.34944 14.5706 0
      vertex 5.15 14.4722 0
    endloop
  endfacet
  facet normal 0 0 -1
    outer loop
      vertex 0 23 0
      vertex 5.15 14.4722 0
      vertex 4.96511 14.3487 0
    endloop
  endfacet
  facet normal 0 0 -1
    outer loop
      vertex 0 23 0
      vertex 4.96511 14.3487 0
      vertex 4.79792 14.2021 0
    endloop
  endfacet
  facet normal 0 0 -1
    outer loop
      vertex 0 23 0
      vertex 4.79792 14.2021 0
      vertex 4.6513 14.0349 0
    endloop
  endfacet
  facet normal 0 0 -1
    outer loop
      vertex 0 23 0
      vertex 4.6513 14.0349 0
      vertex 4.52776 13.85 0
    endloop
  endfacet
  facet normal 0 0 -1
    outer loop
      vertex 0 23 0
      vertex 4.52776 13.85 0
      vertex 4.4294 13.6506 0
    endloop
  endfacet
  facet normal 0 0 -1
    outer loop
      vertex 0 23 0
      vertex 4.4294 13.6506 0
      vertex 4.35793 13.44 0
    endloop
  endfacet
  facet normal 0 0 -1
    outer loop
      vertex 0 23 0
      vertex 4.35793 13.44 0
      vertex 4.31454 13.2219 0
    endloop
  endfacet
  facet normal 0 0 -1
    outer loop
      vertex 0 23 0
      vertex 4.3 13 0
      vertex 0 3 0
    endloop
  endfacet
  facet normal 0 0 -1
    outer loop
      vertex 0 3 0
      vertex 3 0 0
      vertex 2.60842 0.0256653 0
    endloop
  endfacet
  facet normal 0 0 -1
    outer loop
      vertex 4.3 13 0
      vertex 0 23 0
      vertex 4.31454 13.2219 0
    endloop
  endfacet
  facet normal 0 0 -1
    outer loop
      vertex 0 3 0
      vertex 2.60842 0.0256653 0
      vertex 2.22354 0.102222 0
    endloop
  endfacet
  facet normal 0 0 -1
    outer loop
      vertex 5.7781 14.6855 0
      vertex 0 23 0
      vertex 3 26 0
    endloop
  endfacet
  facet normal 0 0 -1
    outer loop
      vertex 0 3 0
      vertex 2.22354 0.102222 0
      vertex 1.85195 0.228361 0
    endloop
  endfacet
  facet normal 0 0 -1
    outer loop
      vertex 3 26 0
      vertex 0 23 0
      vertex 2.60842 25.9743 0
    endloop
  endfacet
  facet normal 0 0 -1
    outer loop
      vertex 0 3 0
      vertex 1.85195 0.228361 0
      vertex 1.5 0.401923 0
    endloop
  endfacet
  facet normal 0 0 -1
    outer loop
      vertex 2.60842 25.9743 0
      vertex 0 23 0
      vertex 2.22354 25.8978 0
    endloop
  endfacet
  facet normal 0 0 -1
    outer loop
      vertex 0 3 0
      vertex 1.5 0.401923 0
      vertex 1.17372 0.61994 0
    endloop
  endfacet
  facet normal 0 0 -1
    outer loop
      vertex 2.22354 25.8978 0
      vertex 0 23 0
      vertex 1.85195 25.7716 0
    endloop
  endfacet
  facet normal 0 0 -1
    outer loop
      vertex 0 3 0
      vertex 1.17372 0.61994 0
      vertex 0.878679 0.878679 0
    endloop
  endfacet
  facet normal 0 0 -1
    outer loop
      vertex 1.85195 25.7716 0
      vertex 0 23 0
      vertex 1.5 25.5981 0
    endloop
  endfacet
  facet normal 0 0 -1
    outer loop
      vertex 0 3 0
      vertex 0.878679 0.878679 0
      vertex 0.61994 1.17372 0
    endloop
  endfacet
  facet normal 0 0 -1
    outer loop
      vertex 1.5 25.5981 0
      vertex 0 23 0
      vertex 1.17372 25.3801 0
    endloop
  endfacet
  facet normal 0 0 -1
    outer loop
      vertex 0 3 0
      vertex 0.61994 1.17372 0
      vertex 0.401923 1.5 0
    endloop
  endfacet
  facet normal 0 0 -1
    outer loop
      vertex 1.17372 25.3801 0
      vertex 0 23 0
      vertex 0.878679 25.1213 0
    endloop
  endfacet
  facet normal 0 0 -1
    outer loop
      vertex 0 3 0
      vertex 0.401923 1.5 0
      vertex 0.228361 1.85195 0
    endloop
  endfacet
  facet normal 0 0 -1
    outer loop
      vertex 0.878679 25.1213 0
      vertex 0 23 0
      vertex 0.61994 24.8263 0
    endloop
  endfacet
  facet normal 0 0 -1
    outer loop
      vertex 0 3 0
      vertex 0.228361 1.85195 0
      vertex 0.102222 2.22354 0
    endloop
  endfacet
  facet normal 0 0 -1
    outer loop
      vertex 0.61994 24.8263 0
      vertex 0 23 0
      vertex 0.401923 24.5 0
    endloop
  endfacet
  facet normal 0 0 -1
    outer loop
      vertex 0 3 0
      vertex 0.102222 2.22354 0
      vertex 0.0256653 2.60842 0
    endloop
  endfacet
  facet normal 0 0 -1
    outer loop
      vertex 0.401923 24.5 0
      vertex 0 23 0
      vertex 0.228361 24.148 0
    endloop
  endfacet
  facet normal 0 0 -1
    outer loop
      vertex 0.228361 24.148 0
      vertex 0 23 0
      vertex 0.102222 23.7765 0
    endloop
  endfacet
  facet normal 0 0 -1
    outer loop
      vertex 0.102222 23.7765 0
      vertex 0 23 0
      vertex 0.0256653 23.3916 0
    endloop
  endfacet
  facet normal -0.659426 0.751769 0
    outer loop
      vertex 1.17372 25.3801 0
      vertex 0.878679 25.1213 7
      vertex 1.17372 25.3801 7
    endloop
  endfacet
  facet normal -0.659426 0.751769 0
    outer loop
      vertex 0.878679 25.1213 7
      vertex 1.17372 25.3801 0
      vertex 0.878679 25.1213 0
    endloop
  endfacet
  facet normal -0.751846 -0.659339 0
    outer loop
      vertex 0.878679 0.878679 0
      vertex 0.61994 1.17372 7
      vertex 0.61994 1.17372 0
    endloop
  endfacet
  facet normal -0.751846 -0.659339 0
    outer loop
      vertex 0.61994 1.17372 7
      vertex 0.878679 0.878679 0
      vertex 0.878679 0.878679 7
    endloop
  endfacet
  facet normal -0.831465 -0.555577 0
    outer loop
      vertex 0.61994 1.17372 0
      vertex 0.401923 1.5 7
      vertex 0.401923 1.5 0
    endloop
  endfacet
  facet normal -0.831465 -0.555577 0
    outer loop
      vertex 0.401923 1.5 7
      vertex 0.61994 1.17372 0
      vertex 0.61994 1.17372 7
    endloop
  endfacet
  facet normal 0 1 -0
    outer loop
      vertex 75 26 0
      vertex 3 26 7
      vertex 75 26 7
    endloop
  endfacet
  facet normal 0 1 0
    outer loop
      vertex 3 26 7
      vertex 75 26 0
      vertex 3 26 0
    endloop
  endfacet
  facet normal 0.980815 0.19494 0
    outer loop
      vertex 77.9743 23.3916 7
      vertex 77.8978 23.7765 0
      vertex 77.8978 23.7765 7
    endloop
  endfacet
  facet normal 0.980815 0.19494 0
    outer loop
      vertex 77.8978 23.7765 0
      vertex 77.9743 23.3916 7
      vertex 77.9743 23.3916 0
    endloop
  endfacet
  facet normal 0.997853 0.0654873 0
    outer loop
      vertex 78 23 7
      vertex 77.9743 23.3916 0
      vertex 77.9743 23.3916 7
    endloop
  endfacet
  facet normal 0.997853 0.0654873 0
    outer loop
      vertex 77.9743 23.3916 0
      vertex 78 23 7
      vertex 78 23 0
    endloop
  endfacet
  facet normal 0.442237 -0.896898 0
    outer loop
      vertex 76.148 0.228361 0
      vertex 76.5 0.401923 7
      vertex 76.148 0.228361 7
    endloop
  endfacet
  facet normal 0.442237 -0.896898 0
    outer loop
      vertex 76.5 0.401923 7
      vertex 76.148 0.228361 0
      vertex 76.5 0.401923 0
    endloop
  endfacet
  facet normal -0.997859 -0.0654026 0
    outer loop
      vertex 0.0256653 2.60842 0
      vertex 0 3 7
      vertex 0 3 0
    endloop
  endfacet
  facet normal -0.997859 -0.0654026 0
    outer loop
      vertex 0 3 7
      vertex 0.0256653 2.60842 0
      vertex 0.0256653 2.60842 7
    endloop
  endfacet
  facet normal -1 0 0
    outer loop
      vertex 0 3 0
      vertex 0 23 7
      vertex 0 23 0
    endloop
  endfacet
  facet normal -1 -0 0
    outer loop
      vertex 0 23 7
      vertex 0 3 0
      vertex 0 3 7
    endloop
  endfacet
  facet normal 0 0 1
    outer loop
      vertex 75 26 7
      vertex 78 23 7
      vertex 77.9743 23.3916 7
    endloop
  endfacet
  facet normal 0 0 1
    outer loop
      vertex 78 23 7
      vertex 73.7 13 7
      vertex 78 3 7
    endloop
  endfacet
  facet normal 0 0 1
    outer loop
      vertex 75 26 7
      vertex 77.9743 23.3916 7
      vertex 77.8978 23.7765 7
    endloop
  endfacet
  facet normal -0 0 1
    outer loop
      vertex 73.6855 12.7781 7
      vertex 78 3 7
      vertex 73.7 13 7
    endloop
  endfacet
  facet normal 0 0 1
    outer loop
      vertex 75 26 7
      vertex 77.8978 23.7765 7
      vertex 77.7716 24.148 7
    endloop
  endfacet
  facet normal -0 0 1
    outer loop
      vertex 73.6421 12.56 7
      vertex 78 3 7
      vertex 73.6855 12.7781 7
    endloop
  endfacet
  facet normal 0 0 1
    outer loop
      vertex 75 26 7
      vertex 77.7716 24.148 7
      vertex 77.5981 24.5 7
    endloop
  endfacet
  facet normal -0 0 1
    outer loop
      vertex 73.5706 12.3494 7
      vertex 78 3 7
      vertex 73.6421 12.56 7
    endloop
  endfacet
  facet normal 0 0 1
    outer loop
      vertex 75 26 7
      vertex 77.5981 24.5 7
      vertex 77.3801 24.8263 7
    endloop
  endfacet
  facet normal -0 0 1
    outer loop
      vertex 73.4722 12.15 7
      vertex 78 3 7
      vertex 73.5706 12.3494 7
    endloop
  endfacet
  facet normal 0 0 1
    outer loop
      vertex 75 26 7
      vertex 77.3801 24.8263 7
      vertex 77.1213 25.1213 7
    endloop
  endfacet
  facet normal -0 0 1
    outer loop
      vertex 73.3487 11.9651 7
      vertex 78 3 7
      vertex 73.4722 12.15 7
    endloop
  endfacet
  facet normal 0 0 1
    outer loop
      vertex 75 26 7
      vertex 77.1213 25.1213 7
      vertex 76.8263 25.3801 7
    endloop
  endfacet
  facet normal -0 0 1
    outer loop
      vertex 73.2021 11.7979 7
      vertex 78 3 7
      vertex 73.3487 11.9651 7
    endloop
  endfacet
  facet normal 0 0 1
    outer loop
      vertex 75 26 7
      vertex 76.8263 25.3801 7
      vertex 76.5 25.5981 7
    endloop
  endfacet
  facet normal -0 0 1
    outer loop
      vertex 73.0349 11.6513 7
      vertex 78 3 7
      vertex 73.2021 11.7979 7
    endloop
  endfacet
  facet normal 0 0 1
    outer loop
      vertex 75 26 7
      vertex 76.5 25.5981 7
      vertex 76.148 25.7716 7
    endloop
  endfacet
  facet normal -0 0 1
    outer loop
      vertex 72.85 11.5278 7
      vertex 78 3 7
      vertex 73.0349 11.6513 7
    endloop
  endfacet
  facet normal 0 0 1
    outer loop
      vertex 75 26 7
      vertex 76.148 25.7716 7
      vertex 75.7765 25.8978 7
    endloop
  endfacet
  facet normal -0 0 1
    outer loop
      vertex 72.6506 11.4294 7
      vertex 78 3 7
      vertex 72.85 11.5278 7
    endloop
  endfacet
  facet normal 0 0 1
    outer loop
      vertex 75 26 7
      vertex 75.7765 25.8978 7
      vertex 75.3916 25.9743 7
    endloop
  endfacet
  facet normal -0 0 1
    outer loop
      vertex 72.44 11.3579 7
      vertex 78 3 7
      vertex 72.6506 11.4294 7
    endloop
  endfacet
  facet normal 0 0 1
    outer loop
      vertex 78 23 7
      vertex 75 26 7
      vertex 72.2219 14.6855 7
    endloop
  endfacet
  facet normal -0 0 1
    outer loop
      vertex 72.2219 11.3145 7
      vertex 78 3 7
      vertex 72.44 11.3579 7
    endloop
  endfacet
  facet normal 0 -0 1
    outer loop
      vertex 75 0 7
      vertex 78 3 7
      vertex 72.2219 11.3145 7
    endloop
  endfacet
  facet normal 0 0 1
    outer loop
      vertex 78 23 7
      vertex 73.6855 13.2219 7
      vertex 73.7 13 7
    endloop
  endfacet
  facet normal 0 0 1
    outer loop
      vertex 78 23 7
      vertex 73.6421 13.44 7
      vertex 73.6855 13.2219 7
    endloop
  endfacet
  facet normal 0 0 1
    outer loop
      vertex 78 23 7
      vertex 73.5706 13.6506 7
      vertex 73.6421 13.44 7
    endloop
  endfacet
  facet normal 0 0 1
    outer loop
      vertex 78 23 7
      vertex 73.4722 13.85 7
      vertex 73.5706 13.6506 7
    endloop
  endfacet
  facet normal 0 0 1
    outer loop
      vertex 78 23 7
      vertex 73.3487 14.0349 7
      vertex 73.4722 13.85 7
    endloop
  endfacet
  facet normal 0 0 1
    outer loop
      vertex 78 23 7
      vertex 73.2021 14.2021 7
      vertex 73.3487 14.0349 7
    endloop
  endfacet
  facet normal 0 0 1
    outer loop
      vertex 78 23 7
      vertex 73.0349 14.3487 7
      vertex 73.2021 14.2021 7
    endloop
  endfacet
  facet normal 0 0 1
    outer loop
      vertex 78 23 7
      vertex 72.85 14.4722 7
      vertex 73.0349 14.3487 7
    endloop
  endfacet
  facet normal 0 0 1
    outer loop
      vertex 78 23 7
      vertex 72.6506 14.5706 7
      vertex 72.85 14.4722 7
    endloop
  endfacet
  facet normal 0 0 1
    outer loop
      vertex 78 23 7
      vertex 72.44 14.6421 7
      vertex 72.6506 14.5706 7
    endloop
  endfacet
  facet normal 0 0 1
    outer loop
      vertex 78 23 7
      vertex 72.2219 14.6855 7
      vertex 72.44 14.6421 7
    endloop
  endfacet
  facet normal 0 0 1
    outer loop
      vertex 75 26 7
      vertex 72 14.7 7
      vertex 72.2219 14.6855 7
    endloop
  endfacet
  facet normal 0 0 1
    outer loop
      vertex 75 26 7
      vertex 62 14.7 7
      vertex 72 14.7 7
    endloop
  endfacet
  facet normal 0 0 1
    outer loop
      vertex 75 26 7
      vertex 61.7781 14.6855 7
      vertex 62 14.7 7
    endloop
  endfacet
  facet normal 0 0 1
    outer loop
      vertex 75 26 7
      vertex 61.56 14.6421 7
      vertex 61.7781 14.6855 7
    endloop
  endfacet
  facet normal 0 0 1
    outer loop
      vertex 75 26 7
      vertex 61.3494 14.5706 7
      vertex 61.56 14.6421 7
    endloop
  endfacet
  facet normal 0 0 1
    outer loop
      vertex 75 26 7
      vertex 61.15 14.4722 7
      vertex 61.3494 14.5706 7
    endloop
  endfacet
  facet normal 0 0 1
    outer loop
      vertex 16.85 14.4722 7
      vertex 61.15 14.4722 7
      vertex 75 26 7
    endloop
  endfacet
  facet normal 0 0 1
    outer loop
      vertex 60.3145 13.2219 7
      vertex 17.7 13 7
      vertex 60.3 13 7
    endloop
  endfacet
  facet normal 0 0 1
    outer loop
      vertex 17.6855 13.2219 7
      vertex 60.3145 13.2219 7
      vertex 60.3579 13.44 7
    endloop
  endfacet
  facet normal 0 0 1
    outer loop
      vertex 17.6421 13.44 7
      vertex 60.3579 13.44 7
      vertex 60.4294 13.6506 7
    endloop
  endfacet
  facet normal 0 0 1
    outer loop
      vertex 17.5706 13.6506 7
      vertex 60.4294 13.6506 7
      vertex 60.5278 13.85 7
    endloop
  endfacet
  facet normal 0 0 1
    outer loop
      vertex 17.4722 13.85 7
      vertex 60.5278 13.85 7
      vertex 60.6513 14.0349 7
    endloop
  endfacet
  facet normal 0 0 1
    outer loop
      vertex 17.3487 14.0349 7
      vertex 60.6513 14.0349 7
      vertex 60.7979 14.2021 7
    endloop
  endfacet
  facet normal 0 0 1
    outer loop
      vertex 17.2021 14.2021 7
      vertex 60.7979 14.2021 7
      vertex 60.9651 14.3487 7
    endloop
  endfacet
  facet normal 0 0 1
    outer loop
      vertex 61.15 14.4722 7
      vertex 16.85 14.4722 7
      vertex 60.9651 14.3487 7
    endloop
  endfacet
  facet normal 0 0 1
    outer loop
      vertex 60.3145 13.2219 7
      vertex 17.6855 13.2219 7
      vertex 17.7 13 7
    endloop
  endfacet
  facet normal 0 0 1
    outer loop
      vertex 60.3579 13.44 7
      vertex 17.6421 13.44 7
      vertex 17.6855 13.2219 7
    endloop
  endfacet
  facet normal 0 0 1
    outer loop
      vertex 60.4294 13.6506 7
      vertex 17.5706 13.6506 7
      vertex 17.6421 13.44 7
    endloop
  endfacet
  facet normal 0 0 1
    outer loop
      vertex 60.5278 13.85 7
      vertex 17.4722 13.85 7
      vertex 17.5706 13.6506 7
    endloop
  endfacet
  facet normal 0 0 1
    outer loop
      vertex 60.6513 14.0349 7
      vertex 17.3487 14.0349 7
      vertex 17.4722 13.85 7
    endloop
  endfacet
  facet normal 0 0 1
    outer loop
      vertex 60.7979 14.2021 7
      vertex 17.2021 14.2021 7
      vertex 17.3487 14.0349 7
    endloop
  endfacet
  facet normal 0 0 1
    outer loop
      vertex 60.9651 14.3487 7
      vertex 17.0349 14.3487 7
      vertex 17.2021 14.2021 7
    endloop
  endfacet
  facet normal 0 0 1
    outer loop
      vertex 60.9651 14.3487 7
      vertex 16.85 14.4722 7
      vertex 17.0349 14.3487 7
    endloop
  endfacet
  facet normal -0 0 1
    outer loop
      vertex 3 26 7
      vertex 16.85 14.4722 7
      vertex 75 26 7
    endloop
  endfacet
  facet normal 0 0 1
    outer loop
      vertex 16.85 14.4722 7
      vertex 3 26 7
      vertex 16.6506 14.5706 7
    endloop
  endfacet
  facet normal 0 0 1
    outer loop
      vertex 16.6506 14.5706 7
      vertex 3 26 7
      vertex 16.44 14.6421 7
    endloop
  endfacet
  facet normal 0 0 1
    outer loop
      vertex 16.44 14.6421 7
      vertex 3 26 7
      vertex 16.2219 14.6855 7
    endloop
  endfacet
  facet normal 0 0 1
    outer loop
      vertex 16.2219 14.6855 7
      vertex 3 26 7
      vertex 16 14.7 7
    endloop
  endfacet
  facet normal 0 0 1
    outer loop
      vertex 16 14.7 7
      vertex 3 26 7
      vertex 6 14.7 7
    endloop
  endfacet
  facet normal 0 0 1
    outer loop
      vertex 4.35793 13.44 7
      vertex 0 23 7
      vertex 4.31454 13.2219 7
    endloop
  endfacet
  facet normal 0 0 1
    outer loop
      vertex 4.4294 13.6506 7
      vertex 0 23 7
      vertex 4.35793 13.44 7
    endloop
  endfacet
  facet normal 0 0 1
    outer loop
      vertex 4.52776 13.85 7
      vertex 0 23 7
      vertex 4.4294 13.6506 7
    endloop
  endfacet
  facet normal 0 0 1
    outer loop
      vertex 4.6513 14.0349 7
      vertex 0 23 7
      vertex 4.52776 13.85 7
    endloop
  endfacet
  facet normal 0 0 1
    outer loop
      vertex 4.79792 14.2021 7
      vertex 0 23 7
      vertex 4.6513 14.0349 7
    endloop
  endfacet
  facet normal 0 0 1
    outer loop
      vertex 4.96511 14.3487 7
      vertex 0 23 7
      vertex 4.79792 14.2021 7
    endloop
  endfacet
  facet normal 0 0 1
    outer loop
      vertex 5.15 14.4722 7
      vertex 0 23 7
      vertex 4.96511 14.3487 7
    endloop
  endfacet
  facet normal 0 0 1
    outer loop
      vertex 5.34944 14.5706 7
      vertex 0 23 7
      vertex 5.15 14.4722 7
    endloop
  endfacet
  facet normal 0 0 1
    outer loop
      vertex 5.56001 14.6421 7
      vertex 0 23 7
      vertex 5.34944 14.5706 7
    endloop
  endfacet
  facet normal 0 0 1
    outer loop
      vertex 5.7781 14.6855 7
      vertex 0 23 7
      vertex 5.56001 14.6421 7
    endloop
  endfacet
  facet normal -0 0 1
    outer loop
      vertex 0 23 7
      vertex 5.7781 14.6855 7
      vertex 3 26 7
    endloop
  endfacet
  facet normal 0 0 1
    outer loop
      vertex 6 14.7 7
      vertex 3 26 7
      vertex 5.7781 14.6855 7
    endloop
  endfacet
  facet normal 0 0 1
    outer loop
      vertex 78 3 7
      vertex 75 0 7
      vertex 77.9743 2.60842 7
    endloop
  endfacet
  facet normal 0 0 1
    outer loop
      vertex 77.9743 2.60842 7
      vertex 75 0 7
      vertex 77.8978 2.22354 7
    endloop
  endfacet
  facet normal 0 0 1
    outer loop
      vertex 77.7716 1.85195 7
      vertex 75 0 7
      vertex 77.5981 1.5 7
    endloop
  endfacet
  facet normal 0 0 1
    outer loop
      vertex 77.5981 1.5 7
      vertex 75 0 7
      vertex 77.3801 1.17372 7
    endloop
  endfacet
  facet normal 0 0 1
    outer loop
      vertex 77.3801 1.17372 7
      vertex 75 0 7
      vertex 77.1213 0.878679 7
    endloop
  endfacet
  facet normal 0 0 1
    outer loop
      vertex 77.1213 0.878679 7
      vertex 75 0 7
      vertex 76.8263 0.61994 7
    endloop
  endfacet
  facet normal 0 0 1
    outer loop
      vertex 76.5 0.401923 7
      vertex 75 0 7
      vertex 76.148 0.228361 7
    endloop
  endfacet
  facet normal 0 0 1
    outer loop
      vertex 76.148 0.228361 7
      vertex 75 0 7
      vertex 75.7765 0.102222 7
    endloop
  endfacet
  facet normal 0 0 1
    outer loop
      vertex 75.7765 0.102222 7
      vertex 75 0 7
      vertex 75.3916 0.0256653 7
    endloop
  endfacet
  facet normal 0 0 1
    outer loop
      vertex 76.8263 0.61994 7
      vertex 75 0 7
      vertex 76.5 0.401923 7
    endloop
  endfacet
  facet normal 0 0 1
    outer loop
      vertex 77.8978 2.22354 7
      vertex 75 0 7
      vertex 77.7716 1.85195 7
    endloop
  endfacet
  facet normal -0 0 1
    outer loop
      vertex 72 11.3 7
      vertex 75 0 7
      vertex 72.2219 11.3145 7
    endloop
  endfacet
  facet normal -0 0 1
    outer loop
      vertex 62 11.3 7
      vertex 75 0 7
      vertex 72 11.3 7
    endloop
  endfacet
  facet normal 0 0 1
    outer loop
      vertex 61.7781 11.3145 7
      vertex 75 0 7
      vertex 62 11.3 7
    endloop
  endfacet
  facet normal 0 0 1
    outer loop
      vertex 61.56 11.3579 7
      vertex 75 0 7
      vertex 61.7781 11.3145 7
    endloop
  endfacet
  facet normal 0 0 1
    outer loop
      vertex 61.3494 11.4294 7
      vertex 75 0 7
      vertex 61.56 11.3579 7
    endloop
  endfacet
  facet normal 0 0 1
    outer loop
      vertex 61.15 11.5278 7
      vertex 75 0 7
      vertex 61.3494 11.4294 7
    endloop
  endfacet
  facet normal 0 0 1
    outer loop
      vertex 16.85 11.5278 7
      vertex 61.15 11.5278 7
      vertex 60.9651 11.6513 7
    endloop
  endfacet
  facet normal -0 0 1
    outer loop
      vertex 17.7 13 7
      vertex 60.3145 12.7781 7
      vertex 60.3 13 7
    endloop
  endfacet
  facet normal 0 0 1
    outer loop
      vertex 17.6855 12.7781 7
      vertex 60.3145 12.7781 7
      vertex 17.7 13 7
    endloop
  endfacet
  facet normal 0 0 1
    outer loop
      vertex 60.3145 12.7781 7
      vertex 17.6855 12.7781 7
      vertex 60.3579 12.56 7
    endloop
  endfacet
  facet normal 0 0 1
    outer loop
      vertex 17.6421 12.56 7
      vertex 60.3579 12.56 7
      vertex 17.6855 12.7781 7
    endloop
  endfacet
  facet normal 0 0 1
    outer loop
      vertex 60.3579 12.56 7
      vertex 17.6421 12.56 7
      vertex 60.4294 12.3494 7
    endloop
  endfacet
  facet normal 0 0 1
    outer loop
      vertex 17.5706 12.3494 7
      vertex 60.4294 12.3494 7
      vertex 17.6421 12.56 7
    endloop
  endfacet
  facet normal 0 0 1
    outer loop
      vertex 60.4294 12.3494 7
      vertex 17.5706 12.3494 7
      vertex 60.5278 12.15 7
    endloop
  endfacet
  facet normal 0 0 1
    outer loop
      vertex 17.4722 12.15 7
      vertex 60.5278 12.15 7
      vertex 17.5706 12.3494 7
    endloop
  endfacet
  facet normal 0 0 1
    outer loop
      vertex 60.5278 12.15 7
      vertex 17.4722 12.15 7
      vertex 60.6513 11.9651 7
    endloop
  endfacet
  facet normal 0 0 1
    outer loop
      vertex 17.3487 11.9651 7
      vertex 60.6513 11.9651 7
      vertex 17.4722 12.15 7
    endloop
  endfacet
  facet normal 0 0 1
    outer loop
      vertex 60.6513 11.9651 7
      vertex 17.3487 11.9651 7
      vertex 60.7979 11.7979 7
    endloop
  endfacet
  facet normal 0 0 1
    outer loop
      vertex 17.2021 11.7979 7
      vertex 60.7979 11.7979 7
      vertex 17.3487 11.9651 7
    endloop
  endfacet
  facet normal 0 0 1
    outer loop
      vertex 60.7979 11.7979 7
      vertex 17.2021 11.7979 7
      vertex 60.9651 11.6513 7
    endloop
  endfacet
  facet normal 0 0 1
    outer loop
      vertex 17.0349 11.6513 7
      vertex 60.9651 11.6513 7
      vertex 17.2021 11.7979 7
    endloop
  endfacet
  facet normal 0 0 1
    outer loop
      vertex 16.85 11.5278 7
      vertex 60.9651 11.6513 7
      vertex 17.0349 11.6513 7
    endloop
  endfacet
  facet normal 0 0 1
    outer loop
      vertex 61.15 11.5278 7
      vertex 16.85 11.5278 7
      vertex 75 0 7
    endloop
  endfacet
  facet normal 0 0 1
    outer loop
      vertex 3 0 7
      vertex 16.85 11.5278 7
      vertex 16.6506 11.4294 7
    endloop
  endfacet
  facet normal 0 0 1
    outer loop
      vertex 3 0 7
      vertex 16.6506 11.4294 7
      vertex 16.44 11.3579 7
    endloop
  endfacet
  facet normal 0 0 1
    outer loop
      vertex 3 0 7
      vertex 16.44 11.3579 7
      vertex 16.2219 11.3145 7
    endloop
  endfacet
  facet normal 0 0 1
    outer loop
      vertex 3 0 7
      vertex 16.2219 11.3145 7
      vertex 16 11.3 7
    endloop
  endfacet
  facet normal 0 0 1
    outer loop
      vertex 3 0 7
      vertex 16 11.3 7
      vertex 6 11.3 7
    endloop
  endfacet
  facet normal 0 0 1
    outer loop
      vertex 3 0 7
      vertex 6 11.3 7
      vertex 5.7781 11.3145 7
    endloop
  endfacet
  facet normal 0 0 1
    outer loop
      vertex 4.31454 13.2219 7
      vertex 0 23 7
      vertex 4.3 13 7
    endloop
  endfacet
  facet normal 0 0 1
    outer loop
      vertex 16.85 11.5278 7
      vertex 3 0 7
      vertex 75 0 7
    endloop
  endfacet
  facet normal 0 0 1
    outer loop
      vertex 0 3 7
      vertex 5.7781 11.3145 7
      vertex 5.56001 11.3579 7
    endloop
  endfacet
  facet normal 0 0 1
    outer loop
      vertex 0 3 7
      vertex 5.56001 11.3579 7
      vertex 5.34944 11.4294 7
    endloop
  endfacet
  facet normal 0 0 1
    outer loop
      vertex 0 3 7
      vertex 5.34944 11.4294 7
      vertex 5.15 11.5278 7
    endloop
  endfacet
  facet normal 0 0 1
    outer loop
      vertex 0 3 7
      vertex 5.15 11.5278 7
      vertex 4.96511 11.6513 7
    endloop
  endfacet
  facet normal 0 0 1
    outer loop
      vertex 0 3 7
      vertex 4.96511 11.6513 7
      vertex 4.79792 11.7979 7
    endloop
  endfacet
  facet normal 0 0 1
    outer loop
      vertex 0 3 7
      vertex 4.79792 11.7979 7
      vertex 4.6513 11.9651 7
    endloop
  endfacet
  facet normal 0 0 1
    outer loop
      vertex 0 3 7
      vertex 4.6513 11.9651 7
      vertex 4.52776 12.15 7
    endloop
  endfacet
  facet normal 0 0 1
    outer loop
      vertex 0 3 7
      vertex 4.52776 12.15 7
      vertex 4.4294 12.3494 7
    endloop
  endfacet
  facet normal 0 0 1
    outer loop
      vertex 0 3 7
      vertex 4.4294 12.3494 7
      vertex 4.35793 12.56 7
    endloop
  endfacet
  facet normal 0 0 1
    outer loop
      vertex 0 3 7
      vertex 4.35793 12.56 7
      vertex 4.31454 12.7781 7
    endloop
  endfacet
  facet normal 0 0 1
    outer loop
      vertex 0 3 7
      vertex 4.3 13 7
      vertex 0 23 7
    endloop
  endfacet
  facet normal 0 0 1
    outer loop
      vertex 0 23 7
      vertex 3 26 7
      vertex 2.60842 25.9743 7
    endloop
  endfacet
  facet normal 0 0 1
    outer loop
      vertex 4.3 13 7
      vertex 0 3 7
      vertex 4.31454 12.7781 7
    endloop
  endfacet
  facet normal 0 0 1
    outer loop
      vertex 0 23 7
      vertex 2.60842 25.9743 7
      vertex 2.22354 25.8978 7
    endloop
  endfacet
  facet normal 0 0 1
    outer loop
      vertex 5.7781 11.3145 7
      vertex 0 3 7
      vertex 3 0 7
    endloop
  endfacet
  facet normal 0 0 1
    outer loop
      vertex 0 23 7
      vertex 2.22354 25.8978 7
      vertex 1.85195 25.7716 7
    endloop
  endfacet
  facet normal 0 0 1
    outer loop
      vertex 3 0 7
      vertex 0 3 7
      vertex 2.60842 0.0256653 7
    endloop
  endfacet
  facet normal 0 0 1
    outer loop
      vertex 0 23 7
      vertex 1.85195 25.7716 7
      vertex 1.5 25.5981 7
    endloop
  endfacet
  facet normal 0 0 1
    outer loop
      vertex 2.60842 0.0256653 7
      vertex 0 3 7
      vertex 2.22354 0.102222 7
    endloop
  endfacet
  facet normal 0 0 1
    outer loop
      vertex 0 23 7
      vertex 1.5 25.5981 7
      vertex 1.17372 25.3801 7
    endloop
  endfacet
  facet normal 0 0 1
    outer loop
      vertex 2.22354 0.102222 7
      vertex 0 3 7
      vertex 1.85195 0.228361 7
    endloop
  endfacet
  facet normal 0 0 1
    outer loop
      vertex 0 23 7
      vertex 1.17372 25.3801 7
      vertex 0.878679 25.1213 7
    endloop
  endfacet
  facet normal 0 0 1
    outer loop
      vertex 1.85195 0.228361 7
      vertex 0 3 7
      vertex 1.5 0.401923 7
    endloop
  endfacet
  facet normal 0 0 1
    outer loop
      vertex 0 23 7
      vertex 0.878679 25.1213 7
      vertex 0.61994 24.8263 7
    endloop
  endfacet
  facet normal 0 0 1
    outer loop
      vertex 1.5 0.401923 7
      vertex 0 3 7
      vertex 1.17372 0.61994 7
    endloop
  endfacet
  facet normal 0 0 1
    outer loop
      vertex 0 23 7
      vertex 0.61994 24.8263 7
      vertex 0.401923 24.5 7
    endloop
  endfacet
  facet normal 0 0 1
    outer loop
      vertex 1.17372 0.61994 7
      vertex 0 3 7
      vertex 0.878679 0.878679 7
    endloop
  endfacet
  facet normal 0 0 1
    outer loop
      vertex 0 23 7
      vertex 0.401923 24.5 7
      vertex 0.228361 24.148 7
    endloop
  endfacet
  facet normal 0 0 1
    outer loop
      vertex 0.878679 0.878679 7
      vertex 0 3 7
      vertex 0.61994 1.17372 7
    endloop
  endfacet
  facet normal 0 0 1
    outer loop
      vertex 0 23 7
      vertex 0.228361 24.148 7
      vertex 0.102222 23.7765 7
    endloop
  endfacet
  facet normal 0 0 1
    outer loop
      vertex 0.61994 1.17372 7
      vertex 0 3 7
      vertex 0.401923 1.5 7
    endloop
  endfacet
  facet normal 0 0 1
    outer loop
      vertex 0 23 7
      vertex 0.102222 23.7765 7
      vertex 0.0256653 23.3916 7
    endloop
  endfacet
  facet normal 0 0 1
    outer loop
      vertex 0.401923 1.5 7
      vertex 0 3 7
      vertex 0.228361 1.85195 7
    endloop
  endfacet
  facet normal 0 0 1
    outer loop
      vertex 0.228361 1.85195 7
      vertex 0 3 7
      vertex 0.102222 2.22354 7
    endloop
  endfacet
  facet normal 0 0 1
    outer loop
      vertex 0.102222 2.22354 7
      vertex 0 3 7
      vertex 0.0256653 2.60842 7
    endloop
  endfacet
  facet normal -0.997859 0.0653993 0
    outer loop
      vertex 0 23 0
      vertex 0.0256653 23.3916 7
      vertex 0.0256653 23.3916 0
    endloop
  endfacet
  facet normal -0.997859 0.0653993 0
    outer loop
      vertex 0.0256653 23.3916 7
      vertex 0 23 0
      vertex 0 23 7
    endloop
  endfacet
  facet normal -0.44216 0.896936 0
    outer loop
      vertex 1.85195 25.7716 0
      vertex 1.5 25.5981 7
      vertex 1.85195 25.7716 7
    endloop
  endfacet
  facet normal -0.44216 0.896936 0
    outer loop
      vertex 1.5 25.5981 7
      vertex 1.85195 25.7716 0
      vertex 1.5 25.5981 0
    endloop
  endfacet
  facet normal -0.0654026 -0.997859 0
    outer loop
      vertex 2.60842 0.0256653 0
      vertex 3 0 7
      vertex 2.60842 0.0256653 7
    endloop
  endfacet
  facet normal -0.0654026 -0.997859 -0
    outer loop
      vertex 3 0 7
      vertex 2.60842 0.0256653 0
      vertex 3 0 0
    endloop
  endfacet
  facet normal 0 -1 0
    outer loop
      vertex 3 0 0
      vertex 75 0 7
      vertex 3 0 7
    endloop
  endfacet
  facet normal 0 -1 -0
    outer loop
      vertex 75 0 7
      vertex 3 0 0
      vertex 75 0 0
    endloop
  endfacet
  facet normal -0.980786 -0.195089 0
    outer loop
      vertex 0.102222 2.22354 0
      vertex 0.0256653 2.60842 7
      vertex 0.0256653 2.60842 0
    endloop
  endfacet
  facet normal -0.980786 -0.195089 0
    outer loop
      vertex 0.0256653 2.60842 7
      vertex 0.102222 2.22354 0
      vertex 0.102222 2.22354 7
    endloop
  endfacet
  facet normal -0.946929 -0.321442 0
    outer loop
      vertex 0.228361 1.85195 0
      vertex 0.102222 2.22354 7
      vertex 0.102222 2.22354 0
    endloop
  endfacet
  facet normal -0.946929 -0.321442 0
    outer loop
      vertex 0.102222 2.22354 7
      vertex 0.228361 1.85195 0
      vertex 0.228361 1.85195 7
    endloop
  endfacet
  facet normal -0.19495 0.980813 0
    outer loop
      vertex 2.60842 25.9743 0
      vertex 2.22354 25.8978 7
      vertex 2.60842 25.9743 7
    endloop
  endfacet
  facet normal -0.19495 0.980813 0
    outer loop
      vertex 2.22354 25.8978 7
      vertex 2.60842 25.9743 0
      vertex 2.22354 25.8978 0
    endloop
  endfacet
  facet normal -0.0654906 0.997853 0
    outer loop
      vertex 3 26 0
      vertex 2.60842 25.9743 7
      vertex 3 26 7
    endloop
  endfacet
  facet normal -0.0654906 0.997853 0
    outer loop
      vertex 2.60842 25.9743 7
      vertex 3 26 0
      vertex 2.60842 25.9743 0
    endloop
  endfacet
  facet normal 0.195079 -0.980788 0
    outer loop
      vertex 75.3916 0.0256653 0
      vertex 75.7765 0.102222 7
      vertex 75.3916 0.0256653 7
    endloop
  endfacet
  facet normal 0.195079 -0.980788 0
    outer loop
      vertex 75.7765 0.102222 7
      vertex 75.3916 0.0256653 0
      vertex 75.7765 0.102222 0
    endloop
  endfacet
  facet normal 0.555553 -0.831481 0
    outer loop
      vertex 76.5 0.401923 0
      vertex 76.8263 0.61994 7
      vertex 76.5 0.401923 7
    endloop
  endfacet
  facet normal 0.555553 -0.831481 0
    outer loop
      vertex 76.8263 0.61994 7
      vertex 76.5 0.401923 0
      vertex 76.8263 0.61994 0
    endloop
  endfacet
  facet normal 0.321512 -0.946905 0
    outer loop
      vertex 75.7765 0.102222 0
      vertex 76.148 0.228361 7
      vertex 75.7765 0.102222 7
    endloop
  endfacet
  facet normal 0.321512 -0.946905 0
    outer loop
      vertex 76.148 0.228361 7
      vertex 75.7765 0.102222 0
      vertex 76.148 0.228361 0
    endloop
  endfacet
  facet normal 0.751769 -0.659426 0
    outer loop
      vertex 77.1213 0.878679 7
      vertex 77.3801 1.17372 0
      vertex 77.3801 1.17372 7
    endloop
  endfacet
  facet normal 0.751769 -0.659426 0
    outer loop
      vertex 77.3801 1.17372 0
      vertex 77.1213 0.878679 7
      vertex 77.1213 0.878679 0
    endloop
  endfacet
  facet normal 0.980813 -0.19495 0
    outer loop
      vertex 77.8978 2.22354 7
      vertex 77.9743 2.60842 0
      vertex 77.9743 2.60842 7
    endloop
  endfacet
  facet normal 0.980813 -0.19495 0
    outer loop
      vertex 77.9743 2.60842 0
      vertex 77.8978 2.22354 7
      vertex 77.8978 2.22354 0
    endloop
  endfacet
  facet normal -0.831481 0.555553 0
    outer loop
      vertex 0.401923 24.5 0
      vertex 0.61994 24.8263 7
      vertex 0.61994 24.8263 0
    endloop
  endfacet
  facet normal -0.831481 0.555553 0
    outer loop
      vertex 0.61994 24.8263 7
      vertex 0.401923 24.5 0
      vertex 0.401923 24.5 7
    endloop
  endfacet
  facet normal -0.751801 0.65939 0
    outer loop
      vertex 0.61994 24.8263 0
      vertex 0.878679 25.1213 7
      vertex 0.878679 25.1213 0
    endloop
  endfacet
  facet normal -0.751801 0.65939 0
    outer loop
      vertex 0.878679 25.1213 7
      vertex 0.61994 24.8263 0
      vertex 0.61994 24.8263 7
    endloop
  endfacet
  facet normal -0.555547 0.831485 0
    outer loop
      vertex 1.5 25.5981 0
      vertex 1.17372 25.3801 7
      vertex 1.5 25.5981 7
    endloop
  endfacet
  facet normal -0.555547 0.831485 0
    outer loop
      vertex 1.17372 25.3801 7
      vertex 1.5 25.5981 0
      vertex 1.17372 25.3801 0
    endloop
  endfacet
  facet normal -0.321582 0.946882 0
    outer loop
      vertex 2.22354 25.8978 0
      vertex 1.85195 25.7716 7
      vertex 2.22354 25.8978 7
    endloop
  endfacet
  facet normal -0.321582 0.946882 0
    outer loop
      vertex 1.85195 25.7716 7
      vertex 2.22354 25.8978 0
      vertex 1.85195 25.7716 0
    endloop
  endfacet
  facet normal -0.442288 -0.896873 0
    outer loop
      vertex 1.5 0.401923 0
      vertex 1.85195 0.228361 7
      vertex 1.5 0.401923 7
    endloop
  endfacet
  facet normal -0.442288 -0.896873 -0
    outer loop
      vertex 1.85195 0.228361 7
      vertex 1.5 0.401923 0
      vertex 1.85195 0.228361 0
    endloop
  endfacet
  facet normal -0.321442 -0.946929 0
    outer loop
      vertex 1.85195 0.228361 0
      vertex 2.22354 0.102222 7
      vertex 1.85195 0.228361 7
    endloop
  endfacet
  facet normal -0.321442 -0.946929 -0
    outer loop
      vertex 2.22354 0.102222 7
      vertex 1.85195 0.228361 0
      vertex 2.22354 0.102222 0
    endloop
  endfacet
  facet normal -0.195089 -0.980786 0
    outer loop
      vertex 2.22354 0.102222 0
      vertex 2.60842 0.0256653 7
      vertex 2.22354 0.102222 7
    endloop
  endfacet
  facet normal -0.195089 -0.980786 -0
    outer loop
      vertex 2.60842 0.0256653 7
      vertex 2.22354 0.102222 0
      vertex 2.60842 0.0256653 0
    endloop
  endfacet
  facet normal 0.946858 0.321651 0
    outer loop
      vertex 77.8978 23.7765 7
      vertex 77.7716 24.148 0
      vertex 77.7716 24.148 7
    endloop
  endfacet
  facet normal 0.946858 0.321651 0
    outer loop
      vertex 77.7716 24.148 0
      vertex 77.8978 23.7765 7
      vertex 77.8978 23.7765 0
    endloop
  endfacet
  facet normal 0.321651 0.946858 -0
    outer loop
      vertex 76.148 25.7716 0
      vertex 75.7765 25.8978 7
      vertex 76.148 25.7716 7
    endloop
  endfacet
  facet normal 0.321651 0.946858 0
    outer loop
      vertex 75.7765 25.8978 7
      vertex 76.148 25.7716 0
      vertex 75.7765 25.8978 0
    endloop
  endfacet
  facet normal 0.44211 0.896961 -0
    outer loop
      vertex 76.5 25.5981 0
      vertex 76.148 25.7716 7
      vertex 76.5 25.5981 7
    endloop
  endfacet
  facet normal 0.44211 0.896961 0
    outer loop
      vertex 76.148 25.7716 7
      vertex 76.5 25.5981 0
      vertex 76.148 25.7716 0
    endloop
  endfacet
  facet normal 0.751724 0.659478 0
    outer loop
      vertex 77.3801 24.8263 7
      vertex 77.1213 25.1213 0
      vertex 77.1213 25.1213 7
    endloop
  endfacet
  facet normal 0.751724 0.659478 0
    outer loop
      vertex 77.1213 25.1213 0
      vertex 77.3801 24.8263 7
      vertex 77.3801 24.8263 0
    endloop
  endfacet
  facet normal 0.65939 -0.751801 0
    outer loop
      vertex 76.8263 0.61994 0
      vertex 77.1213 0.878679 7
      vertex 76.8263 0.61994 7
    endloop
  endfacet
  facet normal 0.65939 -0.751801 0
    outer loop
      vertex 77.1213 0.878679 7
      vertex 76.8263 0.61994 0
      vertex 77.1213 0.878679 0
    endloop
  endfacet
  facet normal 0.831485 -0.555547 0
    outer loop
      vertex 77.3801 1.17372 7
      vertex 77.5981 1.5 0
      vertex 77.5981 1.5 7
    endloop
  endfacet
  facet normal 0.831485 -0.555547 0
    outer loop
      vertex 77.5981 1.5 0
      vertex 77.3801 1.17372 7
      vertex 77.3801 1.17372 0
    endloop
  endfacet
  facet normal 0.946882 -0.321582 0
    outer loop
      vertex 77.7716 1.85195 7
      vertex 77.8978 2.22354 0
      vertex 77.8978 2.22354 7
    endloop
  endfacet
  facet normal 0.946882 -0.321582 0
    outer loop
      vertex 77.8978 2.22354 0
      vertex 77.7716 1.85195 7
      vertex 77.7716 1.85195 0
    endloop
  endfacet
  facet normal 0.896936 -0.44216 0
    outer loop
      vertex 77.5981 1.5 7
      vertex 77.7716 1.85195 0
      vertex 77.7716 1.85195 7
    endloop
  endfacet
  facet normal 0.896936 -0.44216 0
    outer loop
      vertex 77.7716 1.85195 0
      vertex 77.5981 1.5 7
      vertex 77.5981 1.5 0
    endloop
  endfacet
  facet normal -0.896898 0.442237 0
    outer loop
      vertex 0.228361 24.148 0
      vertex 0.401923 24.5 7
      vertex 0.401923 24.5 0
    endloop
  endfacet
  facet normal -0.896898 0.442237 0
    outer loop
      vertex 0.401923 24.5 7
      vertex 0.228361 24.148 0
      vertex 0.228361 24.148 7
    endloop
  endfacet
  facet normal -0.946905 0.321512 0
    outer loop
      vertex 0.102222 23.7765 0
      vertex 0.228361 24.148 7
      vertex 0.228361 24.148 0
    endloop
  endfacet
  facet normal -0.946905 0.321512 0
    outer loop
      vertex 0.228361 24.148 7
      vertex 0.102222 23.7765 0
      vertex 0.102222 23.7765 7
    endloop
  endfacet
  facet normal -0.555577 -0.831465 0
    outer loop
      vertex 1.17372 0.61994 0
      vertex 1.5 0.401923 7
      vertex 1.17372 0.61994 7
    endloop
  endfacet
  facet normal -0.555577 -0.831465 -0
    outer loop
      vertex 1.5 0.401923 7
      vertex 1.17372 0.61994 0
      vertex 1.5 0.401923 0
    endloop
  endfacet
  facet normal -0.659339 -0.751846 0
    outer loop
      vertex 0.878679 0.878679 0
      vertex 1.17372 0.61994 7
      vertex 0.878679 0.878679 7
    endloop
  endfacet
  facet normal -0.659339 -0.751846 -0
    outer loop
      vertex 1.17372 0.61994 7
      vertex 0.878679 0.878679 0
      vertex 1.17372 0.61994 0
    endloop
  endfacet
  facet normal -0.896873 -0.442288 0
    outer loop
      vertex 0.401923 1.5 0
      vertex 0.228361 1.85195 7
      vertex 0.228361 1.85195 0
    endloop
  endfacet
  facet normal -0.896873 -0.442288 0
    outer loop
      vertex 0.228361 1.85195 7
      vertex 0.401923 1.5 0
      vertex 0.401923 1.5 7
    endloop
  endfacet
  facet normal 0.19494 0.980815 -0
    outer loop
      vertex 75.7765 25.8978 0
      vertex 75.3916 25.9743 7
      vertex 75.7765 25.8978 7
    endloop
  endfacet
  facet normal 0.19494 0.980815 0
    outer loop
      vertex 75.3916 25.9743 7
      vertex 75.7765 25.8978 0
      vertex 75.3916 25.9743 0
    endloop
  endfacet
  facet normal 0.555523 0.831501 -0
    outer loop
      vertex 76.8263 25.3801 0
      vertex 76.5 25.5981 7
      vertex 76.8263 25.3801 7
    endloop
  endfacet
  facet normal 0.555523 0.831501 0
    outer loop
      vertex 76.5 25.5981 7
      vertex 76.8263 25.3801 0
      vertex 76.5 25.5981 0
    endloop
  endfacet
  facet normal 0.659478 0.751724 -0
    outer loop
      vertex 77.1213 25.1213 0
      vertex 76.8263 25.3801 7
      vertex 77.1213 25.1213 7
    endloop
  endfacet
  facet normal 0.659478 0.751724 0
    outer loop
      vertex 76.8263 25.3801 7
      vertex 77.1213 25.1213 0
      vertex 76.8263 25.3801 0
    endloop
  endfacet
  facet normal 0.896961 0.44211 0
    outer loop
      vertex 77.7716 24.148 7
      vertex 77.5981 24.5 0
      vertex 77.5981 24.5 7
    endloop
  endfacet
  facet normal 0.896961 0.44211 0
    outer loop
      vertex 77.5981 24.5 0
      vertex 77.7716 24.148 7
      vertex 77.7716 24.148 0
    endloop
  endfacet
  facet normal 0.831501 0.555523 0
    outer loop
      vertex 77.5981 24.5 7
      vertex 77.3801 24.8263 0
      vertex 77.3801 24.8263 7
    endloop
  endfacet
  facet normal 0.831501 0.555523 0
    outer loop
      vertex 77.3801 24.8263 0
      vertex 77.5981 24.5 7
      vertex 77.5981 24.5 0
    endloop
  endfacet
endsolid OpenSCAD_Model
