solid OpenSCAD_Model
  facet normal 0.99786 -0.0653848 0
    outer loop
      vertex 5.3 13 7
      vertex 5.31454 13.2219 0
      vertex 5.31454 13.2219 7
    endloop
  endfacet
  facet normal 0.99786 -0.0653848 0
    outer loop
      vertex 5.31454 13.2219 0
      vertex 5.3 13 7
      vertex 5.3 13 0
    endloop
  endfacet
  facet normal 0.980779 -0.195122 0
    outer loop
      vertex 5.31454 13.2219 7
      vertex 5.35793 13.44 0
      vertex 5.35793 13.44 7
    endloop
  endfacet
  facet normal 0.980779 -0.195122 0
    outer loop
      vertex 5.35793 13.44 0
      vertex 5.31454 13.2219 7
      vertex 5.31454 13.2219 0
    endloop
  endfacet
  facet normal -0.0652057 0.997872 0
    outer loop
      vertex 17.2219 11.3145 0
      vertex 17 11.3 7
      vertex 17.2219 11.3145 7
    endloop
  endfacet
  facet normal -0.0652057 0.997872 0
    outer loop
      vertex 17 11.3 7
      vertex 17.2219 11.3145 0
      vertex 17 11.3 0
    endloop
  endfacet
  facet normal 0.751863 0.659319 0
    outer loop
      vertex 5.79792 11.7979 7
      vertex 5.6513 11.9651 0
      vertex 5.6513 11.9651 7
    endloop
  endfacet
  facet normal 0.751863 0.659319 0
    outer loop
      vertex 5.6513 11.9651 0
      vertex 5.79792 11.7979 7
      vertex 5.79792 11.7979 0
    endloop
  endfacet
  facet normal -0.98077 0.195165 0
    outer loop
      vertex 18.6421 12.56 0
      vertex 18.6855 12.7781 7
      vertex 18.6855 12.7781 0
    endloop
  endfacet
  facet normal -0.98077 0.195165 0
    outer loop
      vertex 18.6855 12.7781 7
      vertex 18.6421 12.56 0
      vertex 18.6421 12.56 7
    endloop
  endfacet
  facet normal 0.946956 -0.321363 0
    outer loop
      vertex 5.35793 13.44 7
      vertex 5.4294 13.6506 0
      vertex 5.4294 13.6506 7
    endloop
  endfacet
  facet normal 0.946956 -0.321363 0
    outer loop
      vertex 5.4294 13.6506 0
      vertex 5.35793 13.44 7
      vertex 5.35793 13.44 0
    endloop
  endfacet
  facet normal 0 -1 0
    outer loop
      vertex 7 14.7 0
      vertex 17 14.7 7
      vertex 7 14.7 7
    endloop
  endfacet
  facet normal 0 -1 -0
    outer loop
      vertex 17 14.7 7
      vertex 7 14.7 0
      vertex 17 14.7 0
    endloop
  endfacet
  facet normal -0.98077 -0.195165 0
    outer loop
      vertex 18.6855 13.2219 0
      vertex 18.6421 13.44 7
      vertex 18.6421 13.44 0
    endloop
  endfacet
  facet normal -0.98077 -0.195165 0
    outer loop
      vertex 18.6421 13.44 7
      vertex 18.6855 13.2219 0
      vertex 18.6855 13.2219 7
    endloop
  endfacet
  facet normal -0.659268 0.751908 0
    outer loop
      vertex 18.2021 11.7979 0
      vertex 18.0349 11.6513 7
      vertex 18.2021 11.7979 7
    endloop
  endfacet
  facet normal -0.659268 0.751908 0
    outer loop
      vertex 18.0349 11.6513 7
      vertex 18.2021 11.7979 0
      vertex 18.0349 11.6513 0
    endloop
  endfacet
  facet normal 0 1 -0
    outer loop
      vertex 17 11.3 0
      vertex 7 11.3 7
      vertex 17 11.3 7
    endloop
  endfacet
  facet normal 0 1 0
    outer loop
      vertex 7 11.3 7
      vertex 17 11.3 0
      vertex 7 11.3 0
    endloop
  endfacet
  facet normal 0.896825 -0.442386 0
    outer loop
      vertex 5.4294 13.6506 7
      vertex 5.52776 13.85 0
      vertex 5.52776 13.85 7
    endloop
  endfacet
  facet normal 0.896825 -0.442386 0
    outer loop
      vertex 5.52776 13.85 0
      vertex 5.4294 13.6506 7
      vertex 5.4294 13.6506 0
    endloop
  endfacet
  facet normal 0.831483 -0.555551 0
    outer loop
      vertex 5.52776 13.85 7
      vertex 5.6513 14.0349 0
      vertex 5.6513 14.0349 7
    endloop
  endfacet
  facet normal 0.831483 -0.555551 0
    outer loop
      vertex 5.6513 14.0349 0
      vertex 5.52776 13.85 7
      vertex 5.52776 13.85 0
    endloop
  endfacet
  facet normal 0.195173 -0.980769 0
    outer loop
      vertex 6.56001 14.6421 0
      vertex 6.7781 14.6855 7
      vertex 6.56001 14.6421 7
    endloop
  endfacet
  facet normal 0.195173 -0.980769 0
    outer loop
      vertex 6.7781 14.6855 7
      vertex 6.56001 14.6421 0
      vertex 6.7781 14.6855 0
    endloop
  endfacet
  facet normal -0.0652057 -0.997872 0
    outer loop
      vertex 17 14.7 0
      vertex 17.2219 14.6855 7
      vertex 17 14.7 7
    endloop
  endfacet
  facet normal -0.0652057 -0.997872 -0
    outer loop
      vertex 17.2219 14.6855 7
      vertex 17 14.7 0
      vertex 17.2219 14.6855 0
    endloop
  endfacet
  facet normal 0.751863 -0.659319 0
    outer loop
      vertex 5.6513 14.0349 7
      vertex 5.79792 14.2021 0
      vertex 5.79792 14.2021 7
    endloop
  endfacet
  facet normal 0.751863 -0.659319 0
    outer loop
      vertex 5.79792 14.2021 0
      vertex 5.6513 14.0349 7
      vertex 5.6513 14.0349 0
    endloop
  endfacet
  facet normal 0.321525 -0.946901 0
    outer loop
      vertex 6.34944 14.5706 0
      vertex 6.56001 14.6421 7
      vertex 6.34944 14.5706 7
    endloop
  endfacet
  facet normal 0.321525 -0.946901 0
    outer loop
      vertex 6.56001 14.6421 7
      vertex 6.34944 14.5706 0
      vertex 6.56001 14.6421 0
    endloop
  endfacet
  facet normal 0.555447 -0.831552 0
    outer loop
      vertex 5.96511 14.3487 0
      vertex 6.15 14.4722 7
      vertex 5.96511 14.3487 7
    endloop
  endfacet
  facet normal 0.555447 -0.831552 0
    outer loop
      vertex 6.15 14.4722 7
      vertex 5.96511 14.3487 0
      vertex 6.15 14.4722 0
    endloop
  endfacet
  facet normal 0.0652057 -0.997872 0
    outer loop
      vertex 6.7781 14.6855 0
      vertex 7 14.7 7
      vertex 6.7781 14.6855 7
    endloop
  endfacet
  facet normal 0.0652057 -0.997872 0
    outer loop
      vertex 7 14.7 7
      vertex 6.7781 14.6855 0
      vertex 7 14.7 0
    endloop
  endfacet
  facet normal -0.946915 -0.321484 0
    outer loop
      vertex 18.6421 13.44 0
      vertex 18.5706 13.6506 7
      vertex 18.5706 13.6506 0
    endloop
  endfacet
  facet normal -0.946915 -0.321484 0
    outer loop
      vertex 18.5706 13.6506 7
      vertex 18.6421 13.44 0
      vertex 18.6421 13.44 7
    endloop
  endfacet
  facet normal -0.555426 -0.831566 0
    outer loop
      vertex 17.85 14.4722 0
      vertex 18.0349 14.3487 7
      vertex 17.85 14.4722 7
    endloop
  endfacet
  facet normal -0.555426 -0.831566 -0
    outer loop
      vertex 18.0349 14.3487 7
      vertex 17.85 14.4722 0
      vertex 18.0349 14.3487 0
    endloop
  endfacet
  facet normal -0.946915 0.321484 0
    outer loop
      vertex 18.5706 12.3494 0
      vertex 18.6421 12.56 7
      vertex 18.6421 12.56 0
    endloop
  endfacet
  facet normal -0.946915 0.321484 0
    outer loop
      vertex 18.6421 12.56 7
      vertex 18.5706 12.3494 0
      vertex 18.5706 12.3494 7
    endloop
  endfacet
  facet normal -0.195165 0.98077 0
    outer loop
      vertex 17.44 11.3579 0
      vertex 17.2219 11.3145 7
      vertex 17.44 11.3579 7
    endloop
  endfacet
  facet normal -0.195165 0.98077 0
    outer loop
      vertex 17.2219 11.3145 7
      vertex 17.44 11.3579 0
      vertex 17.2219 11.3145 0
    endloop
  endfacet
  facet normal 0.321525 0.946901 -0
    outer loop
      vertex 6.56001 11.3579 0
      vertex 6.34944 11.4294 7
      vertex 6.56001 11.3579 7
    endloop
  endfacet
  facet normal 0.321525 0.946901 0
    outer loop
      vertex 6.34944 11.4294 7
      vertex 6.56001 11.3579 0
      vertex 6.34944 11.4294 0
    endloop
  endfacet
  facet normal -0.997872 -0.0652057 0
    outer loop
      vertex 18.7 13 0
      vertex 18.6855 13.2219 7
      vertex 18.6855 13.2219 0
    endloop
  endfacet
  facet normal -0.997872 -0.0652057 0
    outer loop
      vertex 18.6855 13.2219 7
      vertex 18.7 13 0
      vertex 18.7 13 7
    endloop
  endfacet
  facet normal -0.997872 0.0652057 0
    outer loop
      vertex 18.6855 12.7781 0
      vertex 18.7 13 7
      vertex 18.7 13 0
    endloop
  endfacet
  facet normal -0.997872 0.0652057 0
    outer loop
      vertex 18.7 13 7
      vertex 18.6855 12.7781 0
      vertex 18.6855 12.7781 7
    endloop
  endfacet
  facet normal 0.659291 -0.751888 0
    outer loop
      vertex 5.79792 14.2021 0
      vertex 5.96511 14.3487 7
      vertex 5.79792 14.2021 7
    endloop
  endfacet
  facet normal 0.659291 -0.751888 0
    outer loop
      vertex 5.96511 14.3487 7
      vertex 5.79792 14.2021 0
      vertex 5.96511 14.3487 0
    endloop
  endfacet
  facet normal 0.442459 -0.896789 0
    outer loop
      vertex 6.15 14.4722 0
      vertex 6.34944 14.5706 7
      vertex 6.15 14.4722 7
    endloop
  endfacet
  facet normal 0.442459 -0.896789 0
    outer loop
      vertex 6.34944 14.5706 7
      vertex 6.15 14.4722 0
      vertex 6.34944 14.5706 0
    endloop
  endfacet
  facet normal -0.831566 -0.555426 0
    outer loop
      vertex 18.4722 13.85 0
      vertex 18.3487 14.0349 7
      vertex 18.3487 14.0349 0
    endloop
  endfacet
  facet normal -0.831566 -0.555426 0
    outer loop
      vertex 18.3487 14.0349 7
      vertex 18.4722 13.85 0
      vertex 18.4722 13.85 7
    endloop
  endfacet
  facet normal -0.195165 -0.98077 0
    outer loop
      vertex 17.2219 14.6855 0
      vertex 17.44 14.6421 7
      vertex 17.2219 14.6855 7
    endloop
  endfacet
  facet normal -0.195165 -0.98077 -0
    outer loop
      vertex 17.44 14.6421 7
      vertex 17.2219 14.6855 0
      vertex 17.44 14.6421 0
    endloop
  endfacet
  facet normal -0.659268 -0.751908 0
    outer loop
      vertex 18.0349 14.3487 0
      vertex 18.2021 14.2021 7
      vertex 18.0349 14.3487 7
    endloop
  endfacet
  facet normal -0.659268 -0.751908 -0
    outer loop
      vertex 18.2021 14.2021 7
      vertex 18.0349 14.3487 0
      vertex 18.2021 14.2021 0
    endloop
  endfacet
  facet normal -0.751908 -0.659268 0
    outer loop
      vertex 18.3487 14.0349 0
      vertex 18.2021 14.2021 7
      vertex 18.2021 14.2021 0
    endloop
  endfacet
  facet normal -0.751908 -0.659268 0
    outer loop
      vertex 18.2021 14.2021 7
      vertex 18.3487 14.0349 0
      vertex 18.3487 14.0349 7
    endloop
  endfacet
  facet normal -0.896754 0.44253 0
    outer loop
      vertex 18.4722 12.15 0
      vertex 18.5706 12.3494 7
      vertex 18.5706 12.3494 0
    endloop
  endfacet
  facet normal -0.896754 0.44253 0
    outer loop
      vertex 18.5706 12.3494 7
      vertex 18.4722 12.15 0
      vertex 18.4722 12.15 7
    endloop
  endfacet
  facet normal -0.831566 0.555426 0
    outer loop
      vertex 18.3487 11.9651 0
      vertex 18.4722 12.15 7
      vertex 18.4722 12.15 0
    endloop
  endfacet
  facet normal -0.831566 0.555426 0
    outer loop
      vertex 18.4722 12.15 7
      vertex 18.3487 11.9651 0
      vertex 18.3487 11.9651 7
    endloop
  endfacet
  facet normal -0.44253 0.896754 0
    outer loop
      vertex 17.85 11.5278 0
      vertex 17.6506 11.4294 7
      vertex 17.85 11.5278 7
    endloop
  endfacet
  facet normal -0.44253 0.896754 0
    outer loop
      vertex 17.6506 11.4294 7
      vertex 17.85 11.5278 0
      vertex 17.6506 11.4294 0
    endloop
  endfacet
  facet normal -0.751908 0.659268 0
    outer loop
      vertex 18.2021 11.7979 0
      vertex 18.3487 11.9651 7
      vertex 18.3487 11.9651 0
    endloop
  endfacet
  facet normal -0.751908 0.659268 0
    outer loop
      vertex 18.3487 11.9651 7
      vertex 18.2021 11.7979 0
      vertex 18.2021 11.7979 7
    endloop
  endfacet
  facet normal -0.321484 0.946915 0
    outer loop
      vertex 17.6506 11.4294 0
      vertex 17.44 11.3579 7
      vertex 17.6506 11.4294 7
    endloop
  endfacet
  facet normal -0.321484 0.946915 0
    outer loop
      vertex 17.44 11.3579 7
      vertex 17.6506 11.4294 0
      vertex 17.44 11.3579 0
    endloop
  endfacet
  facet normal 0.659291 0.751888 -0
    outer loop
      vertex 5.96511 11.6513 0
      vertex 5.79792 11.7979 7
      vertex 5.96511 11.6513 7
    endloop
  endfacet
  facet normal 0.659291 0.751888 0
    outer loop
      vertex 5.79792 11.7979 7
      vertex 5.96511 11.6513 0
      vertex 5.79792 11.7979 0
    endloop
  endfacet
  facet normal 0.195173 0.980769 -0
    outer loop
      vertex 6.7781 11.3145 0
      vertex 6.56001 11.3579 7
      vertex 6.7781 11.3145 7
    endloop
  endfacet
  facet normal 0.195173 0.980769 0
    outer loop
      vertex 6.56001 11.3579 7
      vertex 6.7781 11.3145 0
      vertex 6.56001 11.3579 0
    endloop
  endfacet
  facet normal 0.0652057 0.997872 -0
    outer loop
      vertex 7 11.3 0
      vertex 6.7781 11.3145 7
      vertex 7 11.3 7
    endloop
  endfacet
  facet normal 0.0652057 0.997872 0
    outer loop
      vertex 6.7781 11.3145 7
      vertex 7 11.3 0
      vertex 6.7781 11.3145 0
    endloop
  endfacet
  facet normal -0.896754 -0.44253 0
    outer loop
      vertex 18.5706 13.6506 0
      vertex 18.4722 13.85 7
      vertex 18.4722 13.85 0
    endloop
  endfacet
  facet normal -0.896754 -0.44253 0
    outer loop
      vertex 18.4722 13.85 7
      vertex 18.5706 13.6506 0
      vertex 18.5706 13.6506 7
    endloop
  endfacet
  facet normal -0.321484 -0.946915 0
    outer loop
      vertex 17.44 14.6421 0
      vertex 17.6506 14.5706 7
      vertex 17.44 14.6421 7
    endloop
  endfacet
  facet normal -0.321484 -0.946915 -0
    outer loop
      vertex 17.6506 14.5706 7
      vertex 17.44 14.6421 0
      vertex 17.6506 14.5706 0
    endloop
  endfacet
  facet normal -0.44253 -0.896754 0
    outer loop
      vertex 17.6506 14.5706 0
      vertex 17.85 14.4722 7
      vertex 17.6506 14.5706 7
    endloop
  endfacet
  facet normal -0.44253 -0.896754 -0
    outer loop
      vertex 17.85 14.4722 7
      vertex 17.6506 14.5706 0
      vertex 17.85 14.4722 0
    endloop
  endfacet
  facet normal -0.555426 0.831566 0
    outer loop
      vertex 18.0349 11.6513 0
      vertex 17.85 11.5278 7
      vertex 18.0349 11.6513 7
    endloop
  endfacet
  facet normal -0.555426 0.831566 0
    outer loop
      vertex 17.85 11.5278 7
      vertex 18.0349 11.6513 0
      vertex 17.85 11.5278 0
    endloop
  endfacet
  facet normal 0.896825 0.442386 0
    outer loop
      vertex 5.52776 12.15 7
      vertex 5.4294 12.3494 0
      vertex 5.4294 12.3494 7
    endloop
  endfacet
  facet normal 0.896825 0.442386 0
    outer loop
      vertex 5.4294 12.3494 0
      vertex 5.52776 12.15 7
      vertex 5.52776 12.15 0
    endloop
  endfacet
  facet normal 0.946956 0.321363 0
    outer loop
      vertex 5.4294 12.3494 7
      vertex 5.35793 12.56 0
      vertex 5.35793 12.56 7
    endloop
  endfacet
  facet normal 0.946956 0.321363 0
    outer loop
      vertex 5.35793 12.56 0
      vertex 5.4294 12.3494 7
      vertex 5.4294 12.3494 0
    endloop
  endfacet
  facet normal 0.99786 0.0653848 0
    outer loop
      vertex 5.31454 12.7781 7
      vertex 5.3 13 0
      vertex 5.3 13 7
    endloop
  endfacet
  facet normal 0.99786 0.0653848 0
    outer loop
      vertex 5.3 13 0
      vertex 5.31454 12.7781 7
      vertex 5.31454 12.7781 0
    endloop
  endfacet
  facet normal 0.980779 0.195122 0
    outer loop
      vertex 5.35793 12.56 7
      vertex 5.31454 12.7781 0
      vertex 5.31454 12.7781 7
    endloop
  endfacet
  facet normal 0.980779 0.195122 0
    outer loop
      vertex 5.31454 12.7781 0
      vertex 5.35793 12.56 7
      vertex 5.35793 12.56 0
    endloop
  endfacet
  facet normal 0.442459 0.896789 -0
    outer loop
      vertex 6.34944 11.4294 0
      vertex 6.15 11.5278 7
      vertex 6.34944 11.4294 7
    endloop
  endfacet
  facet normal 0.442459 0.896789 0
    outer loop
      vertex 6.15 11.5278 7
      vertex 6.34944 11.4294 0
      vertex 6.15 11.5278 0
    endloop
  endfacet
  facet normal 0.555447 0.831552 -0
    outer loop
      vertex 6.15 11.5278 0
      vertex 5.96511 11.6513 7
      vertex 6.15 11.5278 7
    endloop
  endfacet
  facet normal 0.555447 0.831552 0
    outer loop
      vertex 5.96511 11.6513 7
      vertex 6.15 11.5278 0
      vertex 5.96511 11.6513 0
    endloop
  endfacet
  facet normal 0.831483 0.555551 0
    outer loop
      vertex 5.6513 11.9651 7
      vertex 5.52776 12.15 0
      vertex 5.52776 12.15 7
    endloop
  endfacet
  facet normal 0.831483 0.555551 0
    outer loop
      vertex 5.52776 12.15 0
      vertex 5.6513 11.9651 7
      vertex 5.6513 11.9651 0
    endloop
  endfacet
  facet normal 0.997723 -0.0674441 0
    outer loop
      vertex 131.3 13 7
      vertex 131.315 13.2219 0
      vertex 131.315 13.2219 7
    endloop
  endfacet
  facet normal 0.997723 -0.0674441 0
    outer loop
      vertex 131.315 13.2219 0
      vertex 131.3 13 7
      vertex 131.3 13 0
    endloop
  endfacet
  facet normal 0.981113 -0.193434 0
    outer loop
      vertex 131.315 13.2219 7
      vertex 131.358 13.44 0
      vertex 131.358 13.44 7
    endloop
  endfacet
  facet normal 0.981113 -0.193434 0
    outer loop
      vertex 131.358 13.44 0
      vertex 131.315 13.2219 7
      vertex 131.315 13.2219 0
    endloop
  endfacet
  facet normal -0.0651764 0.997874 0
    outer loop
      vertex 143.222 11.3145 0
      vertex 143 11.3 7
      vertex 143.222 11.3145 7
    endloop
  endfacet
  facet normal -0.0651764 0.997874 0
    outer loop
      vertex 143 11.3 7
      vertex 143.222 11.3145 0
      vertex 143 11.3 0
    endloop
  endfacet
  facet normal 0.751016 0.660284 0
    outer loop
      vertex 131.798 11.7979 7
      vertex 131.651 11.9651 0
      vertex 131.651 11.9651 7
    endloop
  endfacet
  facet normal 0.751016 0.660284 0
    outer loop
      vertex 131.651 11.9651 0
      vertex 131.798 11.7979 7
      vertex 131.798 11.7979 0
    endloop
  endfacet
  facet normal 0.947598 -0.319466 0
    outer loop
      vertex 131.358 13.44 7
      vertex 131.429 13.6506 0
      vertex 131.429 13.6506 7
    endloop
  endfacet
  facet normal 0.947598 -0.319466 0
    outer loop
      vertex 131.429 13.6506 0
      vertex 131.358 13.44 7
      vertex 131.358 13.44 0
    endloop
  endfacet
  facet normal 0 -1 0
    outer loop
      vertex 133 14.7 0
      vertex 143 14.7 7
      vertex 133 14.7 7
    endloop
  endfacet
  facet normal 0 -1 -0
    outer loop
      vertex 143 14.7 7
      vertex 133 14.7 0
      vertex 143 14.7 0
    endloop
  endfacet
  facet normal -0.981113 -0.193434 0
    outer loop
      vertex 144.685 13.2219 0
      vertex 144.642 13.44 7
      vertex 144.642 13.44 0
    endloop
  endfacet
  facet normal -0.981113 -0.193434 0
    outer loop
      vertex 144.642 13.44 7
      vertex 144.685 13.2219 0
      vertex 144.685 13.2219 7
    endloop
  endfacet
  facet normal -0.659714 0.751516 0
    outer loop
      vertex 144.202 11.7979 0
      vertex 144.035 11.6513 7
      vertex 144.202 11.7979 7
    endloop
  endfacet
  facet normal -0.659714 0.751516 0
    outer loop
      vertex 144.035 11.6513 7
      vertex 144.202 11.7979 0
      vertex 144.035 11.6513 0
    endloop
  endfacet
  facet normal 0 1 -0
    outer loop
      vertex 143 11.3 0
      vertex 133 11.3 7
      vertex 143 11.3 7
    endloop
  endfacet
  facet normal 0 1 0
    outer loop
      vertex 133 11.3 7
      vertex 143 11.3 0
      vertex 133 11.3 0
    endloop
  endfacet
  facet normal 0.895681 -0.444696 0
    outer loop
      vertex 131.429 13.6506 7
      vertex 131.528 13.85 0
      vertex 131.528 13.85 7
    endloop
  endfacet
  facet normal 0.895681 -0.444696 0
    outer loop
      vertex 131.528 13.85 0
      vertex 131.429 13.6506 7
      vertex 131.429 13.6506 0
    endloop
  endfacet
  facet normal 0.832604 -0.553869 0
    outer loop
      vertex 131.528 13.85 7
      vertex 131.651 14.0349 0
      vertex 131.651 14.0349 7
    endloop
  endfacet
  facet normal 0.832604 -0.553869 0
    outer loop
      vertex 131.651 14.0349 0
      vertex 131.528 13.85 7
      vertex 131.528 13.85 0
    endloop
  endfacet
  facet normal 0.195251 -0.980753 0
    outer loop
      vertex 132.56 14.6421 0
      vertex 132.778 14.6855 7
      vertex 132.56 14.6421 7
    endloop
  endfacet
  facet normal 0.195251 -0.980753 0
    outer loop
      vertex 132.778 14.6855 7
      vertex 132.56 14.6421 0
      vertex 132.778 14.6855 0
    endloop
  endfacet
  facet normal -0.0651764 -0.997874 0
    outer loop
      vertex 143 14.7 0
      vertex 143.222 14.6855 7
      vertex 143 14.7 7
    endloop
  endfacet
  facet normal -0.0651764 -0.997874 -0
    outer loop
      vertex 143.222 14.6855 7
      vertex 143 14.7 0
      vertex 143.222 14.6855 0
    endloop
  endfacet
  facet normal 0.751016 -0.660284 0
    outer loop
      vertex 131.651 14.0349 7
      vertex 131.798 14.2021 0
      vertex 131.798 14.2021 7
    endloop
  endfacet
  facet normal 0.751016 -0.660284 0
    outer loop
      vertex 131.798 14.2021 0
      vertex 131.651 14.0349 7
      vertex 131.651 14.0349 0
    endloop
  endfacet
  facet normal 0.320937 -0.947101 0
    outer loop
      vertex 132.349 14.5706 0
      vertex 132.56 14.6421 7
      vertex 132.349 14.5706 7
    endloop
  endfacet
  facet normal 0.320937 -0.947101 0
    outer loop
      vertex 132.56 14.6421 7
      vertex 132.349 14.5706 0
      vertex 132.56 14.6421 0
    endloop
  endfacet
  facet normal 0.555219 -0.831704 0
    outer loop
      vertex 131.965 14.3487 0
      vertex 132.15 14.4722 7
      vertex 131.965 14.3487 7
    endloop
  endfacet
  facet normal 0.555219 -0.831704 0
    outer loop
      vertex 132.15 14.4722 7
      vertex 131.965 14.3487 0
      vertex 132.15 14.4722 0
    endloop
  endfacet
  facet normal 0.0651764 -0.997874 0
    outer loop
      vertex 132.778 14.6855 0
      vertex 133 14.7 7
      vertex 132.778 14.6855 7
    endloop
  endfacet
  facet normal 0.0651764 -0.997874 0
    outer loop
      vertex 133 14.7 7
      vertex 132.778 14.6855 0
      vertex 133 14.7 0
    endloop
  endfacet
  facet normal -0.947598 -0.319466 0
    outer loop
      vertex 144.642 13.44 0
      vertex 144.571 13.6506 7
      vertex 144.571 13.6506 0
    endloop
  endfacet
  facet normal -0.947598 -0.319466 0
    outer loop
      vertex 144.571 13.6506 7
      vertex 144.642 13.44 0
      vertex 144.642 13.44 7
    endloop
  endfacet
  facet normal -0.555219 -0.831704 0
    outer loop
      vertex 143.85 14.4722 0
      vertex 144.035 14.3487 7
      vertex 143.85 14.4722 7
    endloop
  endfacet
  facet normal -0.555219 -0.831704 -0
    outer loop
      vertex 144.035 14.3487 7
      vertex 143.85 14.4722 0
      vertex 144.035 14.3487 0
    endloop
  endfacet
  facet normal -0.947598 0.319466 0
    outer loop
      vertex 144.571 12.3494 0
      vertex 144.642 12.56 7
      vertex 144.642 12.56 0
    endloop
  endfacet
  facet normal -0.947598 0.319466 0
    outer loop
      vertex 144.642 12.56 7
      vertex 144.571 12.3494 0
      vertex 144.571 12.3494 7
    endloop
  endfacet
  facet normal -0.195251 0.980753 0
    outer loop
      vertex 143.44 11.3579 0
      vertex 143.222 11.3145 7
      vertex 143.44 11.3579 7
    endloop
  endfacet
  facet normal -0.195251 0.980753 0
    outer loop
      vertex 143.222 11.3145 7
      vertex 143.44 11.3579 0
      vertex 143.222 11.3145 0
    endloop
  endfacet
  facet normal 0.320937 0.947101 -0
    outer loop
      vertex 132.56 11.3579 0
      vertex 132.349 11.4294 7
      vertex 132.56 11.3579 7
    endloop
  endfacet
  facet normal 0.320937 0.947101 0
    outer loop
      vertex 132.349 11.4294 7
      vertex 132.56 11.3579 0
      vertex 132.349 11.4294 0
    endloop
  endfacet
  facet normal -0.997723 -0.0674441 0
    outer loop
      vertex 144.7 13 0
      vertex 144.685 13.2219 7
      vertex 144.685 13.2219 0
    endloop
  endfacet
  facet normal -0.997723 -0.0674441 0
    outer loop
      vertex 144.685 13.2219 7
      vertex 144.7 13 0
      vertex 144.7 13 7
    endloop
  endfacet
  facet normal -0.997723 0.0674441 0
    outer loop
      vertex 144.685 12.7781 0
      vertex 144.7 13 7
      vertex 144.7 13 0
    endloop
  endfacet
  facet normal -0.997723 0.0674441 0
    outer loop
      vertex 144.7 13 7
      vertex 144.685 12.7781 0
      vertex 144.685 12.7781 7
    endloop
  endfacet
  facet normal -0.981113 0.193434 0
    outer loop
      vertex 144.642 12.56 0
      vertex 144.685 12.7781 7
      vertex 144.685 12.7781 0
    endloop
  endfacet
  facet normal -0.981113 0.193434 0
    outer loop
      vertex 144.685 12.7781 7
      vertex 144.642 12.56 0
      vertex 144.642 12.56 7
    endloop
  endfacet
  facet normal 0.659714 -0.751516 0
    outer loop
      vertex 131.798 14.2021 0
      vertex 131.965 14.3487 7
      vertex 131.798 14.2021 7
    endloop
  endfacet
  facet normal 0.659714 -0.751516 0
    outer loop
      vertex 131.965 14.3487 7
      vertex 131.798 14.2021 0
      vertex 131.965 14.3487 0
    endloop
  endfacet
  facet normal 0.443245 -0.8964 0
    outer loop
      vertex 132.15 14.4722 0
      vertex 132.349 14.5706 7
      vertex 132.15 14.4722 7
    endloop
  endfacet
  facet normal 0.443245 -0.8964 0
    outer loop
      vertex 132.349 14.5706 7
      vertex 132.15 14.4722 0
      vertex 132.349 14.5706 0
    endloop
  endfacet
  facet normal -0.832604 -0.553869 0
    outer loop
      vertex 144.472 13.85 0
      vertex 144.349 14.0349 7
      vertex 144.349 14.0349 0
    endloop
  endfacet
  facet normal -0.832604 -0.553869 0
    outer loop
      vertex 144.349 14.0349 7
      vertex 144.472 13.85 0
      vertex 144.472 13.85 7
    endloop
  endfacet
  facet normal -0.195251 -0.980753 0
    outer loop
      vertex 143.222 14.6855 0
      vertex 143.44 14.6421 7
      vertex 143.222 14.6855 7
    endloop
  endfacet
  facet normal -0.195251 -0.980753 -0
    outer loop
      vertex 143.44 14.6421 7
      vertex 143.222 14.6855 0
      vertex 143.44 14.6421 0
    endloop
  endfacet
  facet normal -0.659714 -0.751516 0
    outer loop
      vertex 144.035 14.3487 0
      vertex 144.202 14.2021 7
      vertex 144.035 14.3487 7
    endloop
  endfacet
  facet normal -0.659714 -0.751516 -0
    outer loop
      vertex 144.202 14.2021 7
      vertex 144.035 14.3487 0
      vertex 144.202 14.2021 0
    endloop
  endfacet
  facet normal -0.751016 -0.660284 0
    outer loop
      vertex 144.349 14.0349 0
      vertex 144.202 14.2021 7
      vertex 144.202 14.2021 0
    endloop
  endfacet
  facet normal -0.751016 -0.660284 0
    outer loop
      vertex 144.202 14.2021 7
      vertex 144.349 14.0349 0
      vertex 144.349 14.0349 7
    endloop
  endfacet
  facet normal -0.895681 0.444696 0
    outer loop
      vertex 144.472 12.15 0
      vertex 144.571 12.3494 7
      vertex 144.571 12.3494 0
    endloop
  endfacet
  facet normal -0.895681 0.444696 0
    outer loop
      vertex 144.571 12.3494 7
      vertex 144.472 12.15 0
      vertex 144.472 12.15 7
    endloop
  endfacet
  facet normal -0.832604 0.553869 0
    outer loop
      vertex 144.349 11.9651 0
      vertex 144.472 12.15 7
      vertex 144.472 12.15 0
    endloop
  endfacet
  facet normal -0.832604 0.553869 0
    outer loop
      vertex 144.472 12.15 7
      vertex 144.349 11.9651 0
      vertex 144.349 11.9651 7
    endloop
  endfacet
  facet normal -0.443245 0.8964 0
    outer loop
      vertex 143.85 11.5278 0
      vertex 143.651 11.4294 7
      vertex 143.85 11.5278 7
    endloop
  endfacet
  facet normal -0.443245 0.8964 0
    outer loop
      vertex 143.651 11.4294 7
      vertex 143.85 11.5278 0
      vertex 143.651 11.4294 0
    endloop
  endfacet
  facet normal -0.751016 0.660284 0
    outer loop
      vertex 144.202 11.7979 0
      vertex 144.349 11.9651 7
      vertex 144.349 11.9651 0
    endloop
  endfacet
  facet normal -0.751016 0.660284 0
    outer loop
      vertex 144.349 11.9651 7
      vertex 144.202 11.7979 0
      vertex 144.202 11.7979 7
    endloop
  endfacet
  facet normal -0.320937 0.947101 0
    outer loop
      vertex 143.651 11.4294 0
      vertex 143.44 11.3579 7
      vertex 143.651 11.4294 7
    endloop
  endfacet
  facet normal -0.320937 0.947101 0
    outer loop
      vertex 143.44 11.3579 7
      vertex 143.651 11.4294 0
      vertex 143.44 11.3579 0
    endloop
  endfacet
  facet normal 0.659714 0.751516 -0
    outer loop
      vertex 131.965 11.6513 0
      vertex 131.798 11.7979 7
      vertex 131.965 11.6513 7
    endloop
  endfacet
  facet normal 0.659714 0.751516 0
    outer loop
      vertex 131.798 11.7979 7
      vertex 131.965 11.6513 0
      vertex 131.798 11.7979 0
    endloop
  endfacet
  facet normal 0.195251 0.980753 -0
    outer loop
      vertex 132.778 11.3145 0
      vertex 132.56 11.3579 7
      vertex 132.778 11.3145 7
    endloop
  endfacet
  facet normal 0.195251 0.980753 0
    outer loop
      vertex 132.56 11.3579 7
      vertex 132.778 11.3145 0
      vertex 132.56 11.3579 0
    endloop
  endfacet
  facet normal 0.0651764 0.997874 -0
    outer loop
      vertex 133 11.3 0
      vertex 132.778 11.3145 7
      vertex 133 11.3 7
    endloop
  endfacet
  facet normal 0.0651764 0.997874 0
    outer loop
      vertex 132.778 11.3145 7
      vertex 133 11.3 0
      vertex 132.778 11.3145 0
    endloop
  endfacet
  facet normal -0.895681 -0.444696 0
    outer loop
      vertex 144.571 13.6506 0
      vertex 144.472 13.85 7
      vertex 144.472 13.85 0
    endloop
  endfacet
  facet normal -0.895681 -0.444696 0
    outer loop
      vertex 144.472 13.85 7
      vertex 144.571 13.6506 0
      vertex 144.571 13.6506 7
    endloop
  endfacet
  facet normal -0.320937 -0.947101 0
    outer loop
      vertex 143.44 14.6421 0
      vertex 143.651 14.5706 7
      vertex 143.44 14.6421 7
    endloop
  endfacet
  facet normal -0.320937 -0.947101 -0
    outer loop
      vertex 143.651 14.5706 7
      vertex 143.44 14.6421 0
      vertex 143.651 14.5706 0
    endloop
  endfacet
  facet normal -0.443245 -0.8964 0
    outer loop
      vertex 143.651 14.5706 0
      vertex 143.85 14.4722 7
      vertex 143.651 14.5706 7
    endloop
  endfacet
  facet normal -0.443245 -0.8964 -0
    outer loop
      vertex 143.85 14.4722 7
      vertex 143.651 14.5706 0
      vertex 143.85 14.4722 0
    endloop
  endfacet
  facet normal -0.555219 0.831704 0
    outer loop
      vertex 144.035 11.6513 0
      vertex 143.85 11.5278 7
      vertex 144.035 11.6513 7
    endloop
  endfacet
  facet normal -0.555219 0.831704 0
    outer loop
      vertex 143.85 11.5278 7
      vertex 144.035 11.6513 0
      vertex 143.85 11.5278 0
    endloop
  endfacet
  facet normal 0.895681 0.444696 0
    outer loop
      vertex 131.528 12.15 7
      vertex 131.429 12.3494 0
      vertex 131.429 12.3494 7
    endloop
  endfacet
  facet normal 0.895681 0.444696 0
    outer loop
      vertex 131.429 12.3494 0
      vertex 131.528 12.15 7
      vertex 131.528 12.15 0
    endloop
  endfacet
  facet normal 0.947598 0.319466 0
    outer loop
      vertex 131.429 12.3494 7
      vertex 131.358 12.56 0
      vertex 131.358 12.56 7
    endloop
  endfacet
  facet normal 0.947598 0.319466 0
    outer loop
      vertex 131.358 12.56 0
      vertex 131.429 12.3494 7
      vertex 131.429 12.3494 0
    endloop
  endfacet
  facet normal 0.997723 0.0674441 0
    outer loop
      vertex 131.315 12.7781 7
      vertex 131.3 13 0
      vertex 131.3 13 7
    endloop
  endfacet
  facet normal 0.997723 0.0674441 0
    outer loop
      vertex 131.3 13 0
      vertex 131.315 12.7781 7
      vertex 131.315 12.7781 0
    endloop
  endfacet
  facet normal 0.981113 0.193434 0
    outer loop
      vertex 131.358 12.56 7
      vertex 131.315 12.7781 0
      vertex 131.315 12.7781 7
    endloop
  endfacet
  facet normal 0.981113 0.193434 0
    outer loop
      vertex 131.315 12.7781 0
      vertex 131.358 12.56 7
      vertex 131.358 12.56 0
    endloop
  endfacet
  facet normal 0.443245 0.8964 -0
    outer loop
      vertex 132.349 11.4294 0
      vertex 132.15 11.5278 7
      vertex 132.349 11.4294 7
    endloop
  endfacet
  facet normal 0.443245 0.8964 0
    outer loop
      vertex 132.15 11.5278 7
      vertex 132.349 11.4294 0
      vertex 132.15 11.5278 0
    endloop
  endfacet
  facet normal 0.555219 0.831704 -0
    outer loop
      vertex 132.15 11.5278 0
      vertex 131.965 11.6513 7
      vertex 132.15 11.5278 7
    endloop
  endfacet
  facet normal 0.555219 0.831704 0
    outer loop
      vertex 131.965 11.6513 7
      vertex 132.15 11.5278 0
      vertex 131.965 11.6513 0
    endloop
  endfacet
  facet normal 0.832604 0.553869 0
    outer loop
      vertex 131.651 11.9651 7
      vertex 131.528 12.15 0
      vertex 131.528 12.15 7
    endloop
  endfacet
  facet normal 0.832604 0.553869 0
    outer loop
      vertex 131.528 12.15 0
      vertex 131.651 11.9651 7
      vertex 131.651 11.9651 0
    endloop
  endfacet
  facet normal -0.997859 -0.0654026 0
    outer loop
      vertex 0.0256653 2.60842 0
      vertex 0 3 7
      vertex 0 3 0
    endloop
  endfacet
  facet normal -0.997859 -0.0654026 0
    outer loop
      vertex 0 3 7
      vertex 0.0256653 2.60842 0
      vertex 0.0256653 2.60842 7
    endloop
  endfacet
  facet normal -0.321442 -0.946929 0
    outer loop
      vertex 1.85195 0.228361 0
      vertex 2.22354 0.102222 7
      vertex 1.85195 0.228361 7
    endloop
  endfacet
  facet normal -0.321442 -0.946929 -0
    outer loop
      vertex 2.22354 0.102222 7
      vertex 1.85195 0.228361 0
      vertex 2.22354 0.102222 0
    endloop
  endfacet
  facet normal 0.997803 0.0662484 0
    outer loop
      vertex 150 23 7
      vertex 149.974 23.3916 0
      vertex 149.974 23.3916 7
    endloop
  endfacet
  facet normal 0.997803 0.0662484 0
    outer loop
      vertex 149.974 23.3916 0
      vertex 150 23 7
      vertex 150 23 0
    endloop
  endfacet
  facet normal 0.0653328 -0.997864 0
    outer loop
      vertex 147 0 0
      vertex 147.392 0.0256653 7
      vertex 147 0 7
    endloop
  endfacet
  facet normal 0.0653328 -0.997864 0
    outer loop
      vertex 147.392 0.0256653 7
      vertex 147 0 0
      vertex 147.392 0.0256653 0
    endloop
  endfacet
  facet normal -0.19495 0.980813 0
    outer loop
      vertex 2.60842 25.9743 0
      vertex 2.22354 25.8978 7
      vertex 2.60842 25.9743 7
    endloop
  endfacet
  facet normal -0.19495 0.980813 0
    outer loop
      vertex 2.22354 25.8978 7
      vertex 2.60842 25.9743 0
      vertex 2.22354 25.8978 0
    endloop
  endfacet
  facet normal -0.0654026 -0.997859 0
    outer loop
      vertex 2.60842 0.0256653 0
      vertex 3 0 7
      vertex 2.60842 0.0256653 7
    endloop
  endfacet
  facet normal -0.0654026 -0.997859 -0
    outer loop
      vertex 3 0 7
      vertex 2.60842 0.0256653 0
      vertex 3 0 0
    endloop
  endfacet
  facet normal -0.0654906 0.997853 0
    outer loop
      vertex 3 26 0
      vertex 2.60842 25.9743 7
      vertex 3 26 7
    endloop
  endfacet
  facet normal -0.0654906 0.997853 0
    outer loop
      vertex 2.60842 25.9743 7
      vertex 3 26 0
      vertex 2.60842 25.9743 0
    endloop
  endfacet
  facet normal 0.997803 -0.0662518 0
    outer loop
      vertex 149.974 2.60842 7
      vertex 150 3 0
      vertex 150 3 7
    endloop
  endfacet
  facet normal 0.997803 -0.0662518 0
    outer loop
      vertex 150 3 0
      vertex 149.974 2.60842 7
      vertex 149.974 2.60842 0
    endloop
  endfacet
  facet normal -0.997859 0.0653993 0
    outer loop
      vertex 0 23 0
      vertex 0.0256653 23.3916 7
      vertex 0.0256653 23.3916 0
    endloop
  endfacet
  facet normal -0.997859 0.0653993 0
    outer loop
      vertex 0.0256653 23.3916 7
      vertex 0 23 0
      vertex 0 23 7
    endloop
  endfacet
  facet normal 0 0 1
    outer loop
      vertex 147 26 7
      vertex 150 23 7
      vertex 149.974 23.3916 7
    endloop
  endfacet
  facet normal 0 0 1
    outer loop
      vertex 150 23 7
      vertex 144.7 13 7
      vertex 150 3 7
    endloop
  endfacet
  facet normal 0 0 1
    outer loop
      vertex 147 26 7
      vertex 149.974 23.3916 7
      vertex 149.898 23.7765 7
    endloop
  endfacet
  facet normal -0 0 1
    outer loop
      vertex 144.685 12.7781 7
      vertex 150 3 7
      vertex 144.7 13 7
    endloop
  endfacet
  facet normal 0 0 1
    outer loop
      vertex 147 26 7
      vertex 149.898 23.7765 7
      vertex 149.772 24.148 7
    endloop
  endfacet
  facet normal -0 0 1
    outer loop
      vertex 144.642 12.56 7
      vertex 150 3 7
      vertex 144.685 12.7781 7
    endloop
  endfacet
  facet normal 0 0 1
    outer loop
      vertex 147 26 7
      vertex 149.772 24.148 7
      vertex 149.598 24.5 7
    endloop
  endfacet
  facet normal -0 0 1
    outer loop
      vertex 144.571 12.3494 7
      vertex 150 3 7
      vertex 144.642 12.56 7
    endloop
  endfacet
  facet normal 0 0 1
    outer loop
      vertex 147 26 7
      vertex 149.598 24.5 7
      vertex 149.38 24.8263 7
    endloop
  endfacet
  facet normal -0 0 1
    outer loop
      vertex 144.472 12.15 7
      vertex 150 3 7
      vertex 144.571 12.3494 7
    endloop
  endfacet
  facet normal 0 0 1
    outer loop
      vertex 147 26 7
      vertex 149.38 24.8263 7
      vertex 149.121 25.1213 7
    endloop
  endfacet
  facet normal -0 0 1
    outer loop
      vertex 144.349 11.9651 7
      vertex 150 3 7
      vertex 144.472 12.15 7
    endloop
  endfacet
  facet normal 0 0 1
    outer loop
      vertex 147 26 7
      vertex 149.121 25.1213 7
      vertex 148.826 25.3801 7
    endloop
  endfacet
  facet normal -0 0 1
    outer loop
      vertex 144.202 11.7979 7
      vertex 150 3 7
      vertex 144.349 11.9651 7
    endloop
  endfacet
  facet normal 0 0 1
    outer loop
      vertex 147 26 7
      vertex 148.826 25.3801 7
      vertex 148.5 25.5981 7
    endloop
  endfacet
  facet normal -0 0 1
    outer loop
      vertex 144.035 11.6513 7
      vertex 150 3 7
      vertex 144.202 11.7979 7
    endloop
  endfacet
  facet normal 0 0 1
    outer loop
      vertex 147 26 7
      vertex 148.5 25.5981 7
      vertex 148.148 25.7716 7
    endloop
  endfacet
  facet normal -0 0 1
    outer loop
      vertex 143.85 11.5278 7
      vertex 150 3 7
      vertex 144.035 11.6513 7
    endloop
  endfacet
  facet normal 0 0 1
    outer loop
      vertex 147 26 7
      vertex 148.148 25.7716 7
      vertex 147.776 25.8978 7
    endloop
  endfacet
  facet normal -0 0 1
    outer loop
      vertex 143.651 11.4294 7
      vertex 150 3 7
      vertex 143.85 11.5278 7
    endloop
  endfacet
  facet normal 0 0 1
    outer loop
      vertex 147 26 7
      vertex 147.776 25.8978 7
      vertex 147.392 25.9743 7
    endloop
  endfacet
  facet normal -0 0 1
    outer loop
      vertex 143.44 11.3579 7
      vertex 150 3 7
      vertex 143.651 11.4294 7
    endloop
  endfacet
  facet normal 0 0 1
    outer loop
      vertex 150 23 7
      vertex 147 26 7
      vertex 143.44 14.6421 7
    endloop
  endfacet
  facet normal 0 -0 1
    outer loop
      vertex 147 0 7
      vertex 150 3 7
      vertex 143.44 11.3579 7
    endloop
  endfacet
  facet normal 0 0 1
    outer loop
      vertex 150 3 7
      vertex 147 0 7
      vertex 149.974 2.60842 7
    endloop
  endfacet
  facet normal 0 0 1
    outer loop
      vertex 150 23 7
      vertex 144.685 13.2219 7
      vertex 144.7 13 7
    endloop
  endfacet
  facet normal 0 0 1
    outer loop
      vertex 150 23 7
      vertex 144.642 13.44 7
      vertex 144.685 13.2219 7
    endloop
  endfacet
  facet normal 0 0 1
    outer loop
      vertex 150 23 7
      vertex 144.571 13.6506 7
      vertex 144.642 13.44 7
    endloop
  endfacet
  facet normal 0 0 1
    outer loop
      vertex 150 23 7
      vertex 144.472 13.85 7
      vertex 144.571 13.6506 7
    endloop
  endfacet
  facet normal 0 0 1
    outer loop
      vertex 150 23 7
      vertex 144.349 14.0349 7
      vertex 144.472 13.85 7
    endloop
  endfacet
  facet normal 0 0 1
    outer loop
      vertex 150 23 7
      vertex 144.202 14.2021 7
      vertex 144.349 14.0349 7
    endloop
  endfacet
  facet normal 0 0 1
    outer loop
      vertex 150 23 7
      vertex 144.035 14.3487 7
      vertex 144.202 14.2021 7
    endloop
  endfacet
  facet normal 0 0 1
    outer loop
      vertex 150 23 7
      vertex 143.85 14.4722 7
      vertex 144.035 14.3487 7
    endloop
  endfacet
  facet normal 0 0 1
    outer loop
      vertex 150 23 7
      vertex 143.651 14.5706 7
      vertex 143.85 14.4722 7
    endloop
  endfacet
  facet normal 0 0 1
    outer loop
      vertex 150 23 7
      vertex 143.44 14.6421 7
      vertex 143.651 14.5706 7
    endloop
  endfacet
  facet normal 0 0 1
    outer loop
      vertex 147 26 7
      vertex 143.222 14.6855 7
      vertex 143.44 14.6421 7
    endloop
  endfacet
  facet normal 0 0 1
    outer loop
      vertex 147 26 7
      vertex 143 14.7 7
      vertex 143.222 14.6855 7
    endloop
  endfacet
  facet normal 0 0 1
    outer loop
      vertex 147 26 7
      vertex 133 14.7 7
      vertex 143 14.7 7
    endloop
  endfacet
  facet normal 0 0 1
    outer loop
      vertex 147 26 7
      vertex 132.778 14.6855 7
      vertex 133 14.7 7
    endloop
  endfacet
  facet normal 0 0 1
    outer loop
      vertex 147 26 7
      vertex 132.56 14.6421 7
      vertex 132.778 14.6855 7
    endloop
  endfacet
  facet normal 0 0 1
    outer loop
      vertex 147 26 7
      vertex 132.349 14.5706 7
      vertex 132.56 14.6421 7
    endloop
  endfacet
  facet normal 0 0 1
    outer loop
      vertex 147 26 7
      vertex 132.15 14.4722 7
      vertex 132.349 14.5706 7
    endloop
  endfacet
  facet normal 0 0 1
    outer loop
      vertex 17.85 14.4722 7
      vertex 132.15 14.4722 7
      vertex 147 26 7
    endloop
  endfacet
  facet normal 0 0 1
    outer loop
      vertex 131.315 13.2219 7
      vertex 18.7 13 7
      vertex 131.3 13 7
    endloop
  endfacet
  facet normal 0 0 1
    outer loop
      vertex 18.6855 13.2219 7
      vertex 131.315 13.2219 7
      vertex 131.358 13.44 7
    endloop
  endfacet
  facet normal 0 0 1
    outer loop
      vertex 18.6421 13.44 7
      vertex 131.358 13.44 7
      vertex 131.429 13.6506 7
    endloop
  endfacet
  facet normal 0 0 1
    outer loop
      vertex 18.5706 13.6506 7
      vertex 131.429 13.6506 7
      vertex 131.528 13.85 7
    endloop
  endfacet
  facet normal 0 0 1
    outer loop
      vertex 18.4722 13.85 7
      vertex 131.528 13.85 7
      vertex 131.651 14.0349 7
    endloop
  endfacet
  facet normal 0 0 1
    outer loop
      vertex 18.3487 14.0349 7
      vertex 131.651 14.0349 7
      vertex 131.798 14.2021 7
    endloop
  endfacet
  facet normal 0 0 1
    outer loop
      vertex 18.2021 14.2021 7
      vertex 131.798 14.2021 7
      vertex 131.965 14.3487 7
    endloop
  endfacet
  facet normal 0 0 1
    outer loop
      vertex 132.15 14.4722 7
      vertex 17.85 14.4722 7
      vertex 131.965 14.3487 7
    endloop
  endfacet
  facet normal 0 0 1
    outer loop
      vertex 131.315 13.2219 7
      vertex 18.6855 13.2219 7
      vertex 18.7 13 7
    endloop
  endfacet
  facet normal 0 0 1
    outer loop
      vertex 131.358 13.44 7
      vertex 18.6421 13.44 7
      vertex 18.6855 13.2219 7
    endloop
  endfacet
  facet normal 0 0 1
    outer loop
      vertex 131.429 13.6506 7
      vertex 18.5706 13.6506 7
      vertex 18.6421 13.44 7
    endloop
  endfacet
  facet normal 0 0 1
    outer loop
      vertex 131.528 13.85 7
      vertex 18.4722 13.85 7
      vertex 18.5706 13.6506 7
    endloop
  endfacet
  facet normal 0 0 1
    outer loop
      vertex 131.651 14.0349 7
      vertex 18.3487 14.0349 7
      vertex 18.4722 13.85 7
    endloop
  endfacet
  facet normal 0 0 1
    outer loop
      vertex 131.798 14.2021 7
      vertex 18.2021 14.2021 7
      vertex 18.3487 14.0349 7
    endloop
  endfacet
  facet normal 0 0 1
    outer loop
      vertex 131.965 14.3487 7
      vertex 18.0349 14.3487 7
      vertex 18.2021 14.2021 7
    endloop
  endfacet
  facet normal 0 0 1
    outer loop
      vertex 131.965 14.3487 7
      vertex 17.85 14.4722 7
      vertex 18.0349 14.3487 7
    endloop
  endfacet
  facet normal -0 0 1
    outer loop
      vertex 3 26 7
      vertex 17.85 14.4722 7
      vertex 147 26 7
    endloop
  endfacet
  facet normal 0 0 1
    outer loop
      vertex 17.85 14.4722 7
      vertex 3 26 7
      vertex 17.6506 14.5706 7
    endloop
  endfacet
  facet normal 0 0 1
    outer loop
      vertex 17.6506 14.5706 7
      vertex 3 26 7
      vertex 17.44 14.6421 7
    endloop
  endfacet
  facet normal 0 0 1
    outer loop
      vertex 17.44 14.6421 7
      vertex 3 26 7
      vertex 17.2219 14.6855 7
    endloop
  endfacet
  facet normal 0 0 1
    outer loop
      vertex 17.2219 14.6855 7
      vertex 3 26 7
      vertex 17 14.7 7
    endloop
  endfacet
  facet normal 0 0 1
    outer loop
      vertex 17 14.7 7
      vertex 3 26 7
      vertex 7 14.7 7
    endloop
  endfacet
  facet normal 0 0 1
    outer loop
      vertex 5.35793 13.44 7
      vertex 0 23 7
      vertex 5.31454 13.2219 7
    endloop
  endfacet
  facet normal 0 0 1
    outer loop
      vertex 5.4294 13.6506 7
      vertex 0 23 7
      vertex 5.35793 13.44 7
    endloop
  endfacet
  facet normal 0 0 1
    outer loop
      vertex 5.52776 13.85 7
      vertex 0 23 7
      vertex 5.4294 13.6506 7
    endloop
  endfacet
  facet normal 0 0 1
    outer loop
      vertex 5.6513 14.0349 7
      vertex 0 23 7
      vertex 5.52776 13.85 7
    endloop
  endfacet
  facet normal 0 0 1
    outer loop
      vertex 5.79792 14.2021 7
      vertex 0 23 7
      vertex 5.6513 14.0349 7
    endloop
  endfacet
  facet normal 0 0 1
    outer loop
      vertex 5.96511 14.3487 7
      vertex 0 23 7
      vertex 5.79792 14.2021 7
    endloop
  endfacet
  facet normal 0 0 1
    outer loop
      vertex 6.15 14.4722 7
      vertex 0 23 7
      vertex 5.96511 14.3487 7
    endloop
  endfacet
  facet normal 0 0 1
    outer loop
      vertex 6.34944 14.5706 7
      vertex 0 23 7
      vertex 6.15 14.4722 7
    endloop
  endfacet
  facet normal 0 0 1
    outer loop
      vertex 6.56001 14.6421 7
      vertex 0 23 7
      vertex 6.34944 14.5706 7
    endloop
  endfacet
  facet normal -0 0 1
    outer loop
      vertex 0 23 7
      vertex 6.56001 14.6421 7
      vertex 3 26 7
    endloop
  endfacet
  facet normal 0 0 1
    outer loop
      vertex 6.7781 14.6855 7
      vertex 3 26 7
      vertex 6.56001 14.6421 7
    endloop
  endfacet
  facet normal 0 0 1
    outer loop
      vertex 7 14.7 7
      vertex 3 26 7
      vertex 6.7781 14.6855 7
    endloop
  endfacet
  facet normal 0 0 1
    outer loop
      vertex 149.974 2.60842 7
      vertex 147 0 7
      vertex 149.898 2.22354 7
    endloop
  endfacet
  facet normal 0 0 1
    outer loop
      vertex 149.772 1.85195 7
      vertex 147 0 7
      vertex 149.598 1.5 7
    endloop
  endfacet
  facet normal 0 0 1
    outer loop
      vertex 149.598 1.5 7
      vertex 147 0 7
      vertex 149.38 1.17372 7
    endloop
  endfacet
  facet normal 0 0 1
    outer loop
      vertex 149.38 1.17372 7
      vertex 147 0 7
      vertex 149.121 0.878679 7
    endloop
  endfacet
  facet normal 0 0 1
    outer loop
      vertex 149.121 0.878679 7
      vertex 147 0 7
      vertex 148.826 0.61994 7
    endloop
  endfacet
  facet normal 0 0 1
    outer loop
      vertex 148.5 0.401923 7
      vertex 147 0 7
      vertex 148.148 0.228361 7
    endloop
  endfacet
  facet normal 0 0 1
    outer loop
      vertex 148.148 0.228361 7
      vertex 147 0 7
      vertex 147.776 0.102222 7
    endloop
  endfacet
  facet normal 0 0 1
    outer loop
      vertex 147.776 0.102222 7
      vertex 147 0 7
      vertex 147.392 0.0256653 7
    endloop
  endfacet
  facet normal 0 0 1
    outer loop
      vertex 148.826 0.61994 7
      vertex 147 0 7
      vertex 148.5 0.401923 7
    endloop
  endfacet
  facet normal 0 0 1
    outer loop
      vertex 149.898 2.22354 7
      vertex 147 0 7
      vertex 149.772 1.85195 7
    endloop
  endfacet
  facet normal -0 0 1
    outer loop
      vertex 143.222 11.3145 7
      vertex 147 0 7
      vertex 143.44 11.3579 7
    endloop
  endfacet
  facet normal -0 0 1
    outer loop
      vertex 143 11.3 7
      vertex 147 0 7
      vertex 143.222 11.3145 7
    endloop
  endfacet
  facet normal -0 0 1
    outer loop
      vertex 133 11.3 7
      vertex 147 0 7
      vertex 143 11.3 7
    endloop
  endfacet
  facet normal 0 0 1
    outer loop
      vertex 132.778 11.3145 7
      vertex 147 0 7
      vertex 133 11.3 7
    endloop
  endfacet
  facet normal 0 0 1
    outer loop
      vertex 132.56 11.3579 7
      vertex 147 0 7
      vertex 132.778 11.3145 7
    endloop
  endfacet
  facet normal 0 0 1
    outer loop
      vertex 132.349 11.4294 7
      vertex 147 0 7
      vertex 132.56 11.3579 7
    endloop
  endfacet
  facet normal 0 0 1
    outer loop
      vertex 132.15 11.5278 7
      vertex 147 0 7
      vertex 132.349 11.4294 7
    endloop
  endfacet
  facet normal 0 0 1
    outer loop
      vertex 17.85 11.5278 7
      vertex 132.15 11.5278 7
      vertex 131.965 11.6513 7
    endloop
  endfacet
  facet normal -0 0 1
    outer loop
      vertex 18.7 13 7
      vertex 131.315 12.7781 7
      vertex 131.3 13 7
    endloop
  endfacet
  facet normal 0 0 1
    outer loop
      vertex 18.6855 12.7781 7
      vertex 131.315 12.7781 7
      vertex 18.7 13 7
    endloop
  endfacet
  facet normal 0 0 1
    outer loop
      vertex 131.315 12.7781 7
      vertex 18.6855 12.7781 7
      vertex 131.358 12.56 7
    endloop
  endfacet
  facet normal 0 0 1
    outer loop
      vertex 18.6421 12.56 7
      vertex 131.358 12.56 7
      vertex 18.6855 12.7781 7
    endloop
  endfacet
  facet normal 0 0 1
    outer loop
      vertex 131.358 12.56 7
      vertex 18.6421 12.56 7
      vertex 131.429 12.3494 7
    endloop
  endfacet
  facet normal 0 0 1
    outer loop
      vertex 18.5706 12.3494 7
      vertex 131.429 12.3494 7
      vertex 18.6421 12.56 7
    endloop
  endfacet
  facet normal 0 0 1
    outer loop
      vertex 131.429 12.3494 7
      vertex 18.5706 12.3494 7
      vertex 131.528 12.15 7
    endloop
  endfacet
  facet normal 0 0 1
    outer loop
      vertex 18.4722 12.15 7
      vertex 131.528 12.15 7
      vertex 18.5706 12.3494 7
    endloop
  endfacet
  facet normal 0 0 1
    outer loop
      vertex 131.528 12.15 7
      vertex 18.4722 12.15 7
      vertex 131.651 11.9651 7
    endloop
  endfacet
  facet normal 0 0 1
    outer loop
      vertex 18.3487 11.9651 7
      vertex 131.651 11.9651 7
      vertex 18.4722 12.15 7
    endloop
  endfacet
  facet normal 0 0 1
    outer loop
      vertex 131.651 11.9651 7
      vertex 18.3487 11.9651 7
      vertex 131.798 11.7979 7
    endloop
  endfacet
  facet normal 0 0 1
    outer loop
      vertex 18.2021 11.7979 7
      vertex 131.798 11.7979 7
      vertex 18.3487 11.9651 7
    endloop
  endfacet
  facet normal 0 0 1
    outer loop
      vertex 131.798 11.7979 7
      vertex 18.2021 11.7979 7
      vertex 131.965 11.6513 7
    endloop
  endfacet
  facet normal 0 0 1
    outer loop
      vertex 18.0349 11.6513 7
      vertex 131.965 11.6513 7
      vertex 18.2021 11.7979 7
    endloop
  endfacet
  facet normal 0 0 1
    outer loop
      vertex 17.85 11.5278 7
      vertex 131.965 11.6513 7
      vertex 18.0349 11.6513 7
    endloop
  endfacet
  facet normal 0 0 1
    outer loop
      vertex 132.15 11.5278 7
      vertex 17.85 11.5278 7
      vertex 147 0 7
    endloop
  endfacet
  facet normal 0 0 1
    outer loop
      vertex 3 0 7
      vertex 17.85 11.5278 7
      vertex 17.6506 11.4294 7
    endloop
  endfacet
  facet normal 0 0 1
    outer loop
      vertex 3 0 7
      vertex 17.6506 11.4294 7
      vertex 17.44 11.3579 7
    endloop
  endfacet
  facet normal 0 0 1
    outer loop
      vertex 3 0 7
      vertex 17.44 11.3579 7
      vertex 17.2219 11.3145 7
    endloop
  endfacet
  facet normal 0 0 1
    outer loop
      vertex 3 0 7
      vertex 17.2219 11.3145 7
      vertex 17 11.3 7
    endloop
  endfacet
  facet normal 0 0 1
    outer loop
      vertex 3 0 7
      vertex 17 11.3 7
      vertex 7 11.3 7
    endloop
  endfacet
  facet normal 0 0 1
    outer loop
      vertex 3 0 7
      vertex 7 11.3 7
      vertex 6.7781 11.3145 7
    endloop
  endfacet
  facet normal 0 0 1
    outer loop
      vertex 5.31454 13.2219 7
      vertex 0 23 7
      vertex 5.3 13 7
    endloop
  endfacet
  facet normal 0 0 1
    outer loop
      vertex 17.85 11.5278 7
      vertex 3 0 7
      vertex 147 0 7
    endloop
  endfacet
  facet normal 0 0 1
    outer loop
      vertex 6.56001 11.3579 7
      vertex 3 0 7
      vertex 6.7781 11.3145 7
    endloop
  endfacet
  facet normal 0 0 1
    outer loop
      vertex 0 3 7
      vertex 6.56001 11.3579 7
      vertex 6.34944 11.4294 7
    endloop
  endfacet
  facet normal 0 0 1
    outer loop
      vertex 0 3 7
      vertex 6.34944 11.4294 7
      vertex 6.15 11.5278 7
    endloop
  endfacet
  facet normal 0 0 1
    outer loop
      vertex 0 3 7
      vertex 6.15 11.5278 7
      vertex 5.96511 11.6513 7
    endloop
  endfacet
  facet normal 0 0 1
    outer loop
      vertex 0 3 7
      vertex 5.96511 11.6513 7
      vertex 5.79792 11.7979 7
    endloop
  endfacet
  facet normal 0 0 1
    outer loop
      vertex 0 3 7
      vertex 5.79792 11.7979 7
      vertex 5.6513 11.9651 7
    endloop
  endfacet
  facet normal 0 0 1
    outer loop
      vertex 0 3 7
      vertex 5.6513 11.9651 7
      vertex 5.52776 12.15 7
    endloop
  endfacet
  facet normal 0 0 1
    outer loop
      vertex 0 3 7
      vertex 5.52776 12.15 7
      vertex 5.4294 12.3494 7
    endloop
  endfacet
  facet normal 0 0 1
    outer loop
      vertex 0 3 7
      vertex 5.4294 12.3494 7
      vertex 5.35793 12.56 7
    endloop
  endfacet
  facet normal 0 0 1
    outer loop
      vertex 0 3 7
      vertex 5.35793 12.56 7
      vertex 5.31454 12.7781 7
    endloop
  endfacet
  facet normal 0 0 1
    outer loop
      vertex 0 3 7
      vertex 5.3 13 7
      vertex 0 23 7
    endloop
  endfacet
  facet normal 0 0 1
    outer loop
      vertex 0 23 7
      vertex 3 26 7
      vertex 2.60842 25.9743 7
    endloop
  endfacet
  facet normal 0 0 1
    outer loop
      vertex 5.3 13 7
      vertex 0 3 7
      vertex 5.31454 12.7781 7
    endloop
  endfacet
  facet normal 0 0 1
    outer loop
      vertex 0 23 7
      vertex 2.60842 25.9743 7
      vertex 2.22354 25.8978 7
    endloop
  endfacet
  facet normal 0 0 1
    outer loop
      vertex 6.56001 11.3579 7
      vertex 0 3 7
      vertex 3 0 7
    endloop
  endfacet
  facet normal 0 0 1
    outer loop
      vertex 0 23 7
      vertex 2.22354 25.8978 7
      vertex 1.85195 25.7716 7
    endloop
  endfacet
  facet normal 0 0 1
    outer loop
      vertex 3 0 7
      vertex 0 3 7
      vertex 2.60842 0.0256653 7
    endloop
  endfacet
  facet normal 0 0 1
    outer loop
      vertex 0 23 7
      vertex 1.85195 25.7716 7
      vertex 1.5 25.5981 7
    endloop
  endfacet
  facet normal 0 0 1
    outer loop
      vertex 2.60842 0.0256653 7
      vertex 0 3 7
      vertex 2.22354 0.102222 7
    endloop
  endfacet
  facet normal 0 0 1
    outer loop
      vertex 0 23 7
      vertex 1.5 25.5981 7
      vertex 1.17372 25.3801 7
    endloop
  endfacet
  facet normal 0 0 1
    outer loop
      vertex 2.22354 0.102222 7
      vertex 0 3 7
      vertex 1.85195 0.228361 7
    endloop
  endfacet
  facet normal 0 0 1
    outer loop
      vertex 0 23 7
      vertex 1.17372 25.3801 7
      vertex 0.878679 25.1213 7
    endloop
  endfacet
  facet normal 0 0 1
    outer loop
      vertex 1.85195 0.228361 7
      vertex 0 3 7
      vertex 1.5 0.401923 7
    endloop
  endfacet
  facet normal 0 0 1
    outer loop
      vertex 0 23 7
      vertex 0.878679 25.1213 7
      vertex 0.61994 24.8263 7
    endloop
  endfacet
  facet normal 0 0 1
    outer loop
      vertex 1.5 0.401923 7
      vertex 0 3 7
      vertex 1.17372 0.61994 7
    endloop
  endfacet
  facet normal 0 0 1
    outer loop
      vertex 0 23 7
      vertex 0.61994 24.8263 7
      vertex 0.401923 24.5 7
    endloop
  endfacet
  facet normal 0 0 1
    outer loop
      vertex 1.17372 0.61994 7
      vertex 0 3 7
      vertex 0.878679 0.878679 7
    endloop
  endfacet
  facet normal 0 0 1
    outer loop
      vertex 0 23 7
      vertex 0.401923 24.5 7
      vertex 0.228361 24.148 7
    endloop
  endfacet
  facet normal 0 0 1
    outer loop
      vertex 0.878679 0.878679 7
      vertex 0 3 7
      vertex 0.61994 1.17372 7
    endloop
  endfacet
  facet normal 0 0 1
    outer loop
      vertex 0 23 7
      vertex 0.228361 24.148 7
      vertex 0.102222 23.7765 7
    endloop
  endfacet
  facet normal 0 0 1
    outer loop
      vertex 0.61994 1.17372 7
      vertex 0 3 7
      vertex 0.401923 1.5 7
    endloop
  endfacet
  facet normal 0 0 1
    outer loop
      vertex 0 23 7
      vertex 0.102222 23.7765 7
      vertex 0.0256653 23.3916 7
    endloop
  endfacet
  facet normal 0 0 1
    outer loop
      vertex 0.401923 1.5 7
      vertex 0 3 7
      vertex 0.228361 1.85195 7
    endloop
  endfacet
  facet normal 0 0 1
    outer loop
      vertex 0.228361 1.85195 7
      vertex 0 3 7
      vertex 0.102222 2.22354 7
    endloop
  endfacet
  facet normal 0 0 1
    outer loop
      vertex 0.102222 2.22354 7
      vertex 0 3 7
      vertex 0.0256653 2.60842 7
    endloop
  endfacet
  facet normal -0.659339 -0.751846 0
    outer loop
      vertex 0.878679 0.878679 0
      vertex 1.17372 0.61994 7
      vertex 0.878679 0.878679 7
    endloop
  endfacet
  facet normal -0.659339 -0.751846 -0
    outer loop
      vertex 1.17372 0.61994 7
      vertex 0.878679 0.878679 0
      vertex 1.17372 0.61994 0
    endloop
  endfacet
  facet normal 0 -1 0
    outer loop
      vertex 3 0 0
      vertex 147 0 7
      vertex 3 0 7
    endloop
  endfacet
  facet normal 0 -1 -0
    outer loop
      vertex 147 0 7
      vertex 3 0 0
      vertex 147 0 0
    endloop
  endfacet
  facet normal 0 1 -0
    outer loop
      vertex 147 26 0
      vertex 3 26 7
      vertex 147 26 7
    endloop
  endfacet
  facet normal 0 1 0
    outer loop
      vertex 3 26 7
      vertex 147 26 0
      vertex 3 26 0
    endloop
  endfacet
  facet normal 0.981056 -0.193723 0
    outer loop
      vertex 149.898 2.22354 7
      vertex 149.974 2.60842 0
      vertex 149.974 2.60842 7
    endloop
  endfacet
  facet normal 0.981056 -0.193723 0
    outer loop
      vertex 149.974 2.60842 0
      vertex 149.898 2.22354 7
      vertex 149.898 2.22354 0
    endloop
  endfacet
  facet normal 0.321124 -0.947037 0
    outer loop
      vertex 147.776 0.102222 0
      vertex 148.148 0.228361 7
      vertex 147.776 0.102222 7
    endloop
  endfacet
  facet normal 0.321124 -0.947037 0
    outer loop
      vertex 148.148 0.228361 7
      vertex 147.776 0.102222 0
      vertex 148.148 0.228361 0
    endloop
  endfacet
  facet normal -1 0 0
    outer loop
      vertex 0 3 0
      vertex 0 23 7
      vertex 0 23 0
    endloop
  endfacet
  facet normal -1 -0 0
    outer loop
      vertex 0 23 7
      vertex 0 3 0
      vertex 0 3 7
    endloop
  endfacet
  facet normal 0 0 -1
    outer loop
      vertex 147 0 0
      vertex 150 3 0
      vertex 149.974 2.60842 0
    endloop
  endfacet
  facet normal 0 0 -1
    outer loop
      vertex 150 3 0
      vertex 144.7 13 0
      vertex 150 23 0
    endloop
  endfacet
  facet normal 0 0 -1
    outer loop
      vertex 147 0 0
      vertex 149.974 2.60842 0
      vertex 149.898 2.22354 0
    endloop
  endfacet
  facet normal 0 0 -1
    outer loop
      vertex 144.685 13.2219 0
      vertex 150 23 0
      vertex 144.7 13 0
    endloop
  endfacet
  facet normal 0 0 -1
    outer loop
      vertex 147 0 0
      vertex 149.898 2.22354 0
      vertex 149.772 1.85195 0
    endloop
  endfacet
  facet normal 0 0 -1
    outer loop
      vertex 144.642 13.44 0
      vertex 150 23 0
      vertex 144.685 13.2219 0
    endloop
  endfacet
  facet normal 0 0 -1
    outer loop
      vertex 147 0 0
      vertex 149.772 1.85195 0
      vertex 149.598 1.5 0
    endloop
  endfacet
  facet normal 0 0 -1
    outer loop
      vertex 144.571 13.6506 0
      vertex 150 23 0
      vertex 144.642 13.44 0
    endloop
  endfacet
  facet normal 0 0 -1
    outer loop
      vertex 147 0 0
      vertex 149.598 1.5 0
      vertex 149.38 1.17372 0
    endloop
  endfacet
  facet normal 0 0 -1
    outer loop
      vertex 144.472 13.85 0
      vertex 150 23 0
      vertex 144.571 13.6506 0
    endloop
  endfacet
  facet normal 0 0 -1
    outer loop
      vertex 147 0 0
      vertex 149.38 1.17372 0
      vertex 149.121 0.878679 0
    endloop
  endfacet
  facet normal 0 0 -1
    outer loop
      vertex 144.349 14.0349 0
      vertex 150 23 0
      vertex 144.472 13.85 0
    endloop
  endfacet
  facet normal 0 0 -1
    outer loop
      vertex 147 0 0
      vertex 149.121 0.878679 0
      vertex 148.826 0.61994 0
    endloop
  endfacet
  facet normal 0 0 -1
    outer loop
      vertex 144.202 14.2021 0
      vertex 150 23 0
      vertex 144.349 14.0349 0
    endloop
  endfacet
  facet normal 0 0 -1
    outer loop
      vertex 147 0 0
      vertex 148.826 0.61994 0
      vertex 148.5 0.401923 0
    endloop
  endfacet
  facet normal 0 0 -1
    outer loop
      vertex 144.035 14.3487 0
      vertex 150 23 0
      vertex 144.202 14.2021 0
    endloop
  endfacet
  facet normal 0 0 -1
    outer loop
      vertex 147 0 0
      vertex 148.5 0.401923 0
      vertex 148.148 0.228361 0
    endloop
  endfacet
  facet normal 0 0 -1
    outer loop
      vertex 143.85 14.4722 0
      vertex 150 23 0
      vertex 144.035 14.3487 0
    endloop
  endfacet
  facet normal 0 0 -1
    outer loop
      vertex 147 0 0
      vertex 148.148 0.228361 0
      vertex 147.776 0.102222 0
    endloop
  endfacet
  facet normal 0 0 -1
    outer loop
      vertex 143.651 14.5706 0
      vertex 150 23 0
      vertex 143.85 14.4722 0
    endloop
  endfacet
  facet normal 0 0 -1
    outer loop
      vertex 147 0 0
      vertex 147.776 0.102222 0
      vertex 147.392 0.0256653 0
    endloop
  endfacet
  facet normal 0 0 -1
    outer loop
      vertex 143.44 14.6421 0
      vertex 150 23 0
      vertex 143.651 14.5706 0
    endloop
  endfacet
  facet normal -0 0 -1
    outer loop
      vertex 150 3 0
      vertex 147 0 0
      vertex 143.44 11.3579 0
    endloop
  endfacet
  facet normal 0 -0 -1
    outer loop
      vertex 147 26 0
      vertex 150 23 0
      vertex 143.44 14.6421 0
    endloop
  endfacet
  facet normal 0 0 -1
    outer loop
      vertex 150 23 0
      vertex 147 26 0
      vertex 149.974 23.3916 0
    endloop
  endfacet
  facet normal 0 0 -1
    outer loop
      vertex 150 3 0
      vertex 144.685 12.7781 0
      vertex 144.7 13 0
    endloop
  endfacet
  facet normal 0 0 -1
    outer loop
      vertex 150 3 0
      vertex 144.642 12.56 0
      vertex 144.685 12.7781 0
    endloop
  endfacet
  facet normal 0 0 -1
    outer loop
      vertex 150 3 0
      vertex 144.571 12.3494 0
      vertex 144.642 12.56 0
    endloop
  endfacet
  facet normal 0 0 -1
    outer loop
      vertex 150 3 0
      vertex 144.472 12.15 0
      vertex 144.571 12.3494 0
    endloop
  endfacet
  facet normal 0 0 -1
    outer loop
      vertex 150 3 0
      vertex 144.349 11.9651 0
      vertex 144.472 12.15 0
    endloop
  endfacet
  facet normal 0 0 -1
    outer loop
      vertex 150 3 0
      vertex 144.202 11.7979 0
      vertex 144.349 11.9651 0
    endloop
  endfacet
  facet normal 0 0 -1
    outer loop
      vertex 150 3 0
      vertex 144.035 11.6513 0
      vertex 144.202 11.7979 0
    endloop
  endfacet
  facet normal 0 0 -1
    outer loop
      vertex 150 3 0
      vertex 143.85 11.5278 0
      vertex 144.035 11.6513 0
    endloop
  endfacet
  facet normal 0 0 -1
    outer loop
      vertex 150 3 0
      vertex 143.651 11.4294 0
      vertex 143.85 11.5278 0
    endloop
  endfacet
  facet normal 0 0 -1
    outer loop
      vertex 150 3 0
      vertex 143.44 11.3579 0
      vertex 143.651 11.4294 0
    endloop
  endfacet
  facet normal 0 0 -1
    outer loop
      vertex 147 0 0
      vertex 143.222 11.3145 0
      vertex 143.44 11.3579 0
    endloop
  endfacet
  facet normal 0 0 -1
    outer loop
      vertex 147 0 0
      vertex 143 11.3 0
      vertex 143.222 11.3145 0
    endloop
  endfacet
  facet normal 0 0 -1
    outer loop
      vertex 147 0 0
      vertex 133 11.3 0
      vertex 143 11.3 0
    endloop
  endfacet
  facet normal 0 0 -1
    outer loop
      vertex 147 0 0
      vertex 132.778 11.3145 0
      vertex 133 11.3 0
    endloop
  endfacet
  facet normal 0 0 -1
    outer loop
      vertex 147 0 0
      vertex 132.56 11.3579 0
      vertex 132.778 11.3145 0
    endloop
  endfacet
  facet normal 0 0 -1
    outer loop
      vertex 147 0 0
      vertex 132.349 11.4294 0
      vertex 132.56 11.3579 0
    endloop
  endfacet
  facet normal 0 0 -1
    outer loop
      vertex 147 0 0
      vertex 132.15 11.5278 0
      vertex 132.349 11.4294 0
    endloop
  endfacet
  facet normal 0 0 -1
    outer loop
      vertex 17.85 11.5278 0
      vertex 132.15 11.5278 0
      vertex 147 0 0
    endloop
  endfacet
  facet normal 0 0 -1
    outer loop
      vertex 131.315 12.7781 0
      vertex 18.7 13 0
      vertex 131.3 13 0
    endloop
  endfacet
  facet normal 0 0 -1
    outer loop
      vertex 18.6855 12.7781 0
      vertex 131.315 12.7781 0
      vertex 131.358 12.56 0
    endloop
  endfacet
  facet normal 0 0 -1
    outer loop
      vertex 18.6421 12.56 0
      vertex 131.358 12.56 0
      vertex 131.429 12.3494 0
    endloop
  endfacet
  facet normal 0 0 -1
    outer loop
      vertex 18.5706 12.3494 0
      vertex 131.429 12.3494 0
      vertex 131.528 12.15 0
    endloop
  endfacet
  facet normal 0 0 -1
    outer loop
      vertex 18.4722 12.15 0
      vertex 131.528 12.15 0
      vertex 131.651 11.9651 0
    endloop
  endfacet
  facet normal 0 0 -1
    outer loop
      vertex 18.3487 11.9651 0
      vertex 131.651 11.9651 0
      vertex 131.798 11.7979 0
    endloop
  endfacet
  facet normal 0 0 -1
    outer loop
      vertex 18.2021 11.7979 0
      vertex 131.798 11.7979 0
      vertex 131.965 11.6513 0
    endloop
  endfacet
  facet normal 0 0 -1
    outer loop
      vertex 132.15 11.5278 0
      vertex 17.85 11.5278 0
      vertex 131.965 11.6513 0
    endloop
  endfacet
  facet normal 0 0 -1
    outer loop
      vertex 131.315 12.7781 0
      vertex 18.6855 12.7781 0
      vertex 18.7 13 0
    endloop
  endfacet
  facet normal 0 0 -1
    outer loop
      vertex 131.358 12.56 0
      vertex 18.6421 12.56 0
      vertex 18.6855 12.7781 0
    endloop
  endfacet
  facet normal 0 0 -1
    outer loop
      vertex 131.429 12.3494 0
      vertex 18.5706 12.3494 0
      vertex 18.6421 12.56 0
    endloop
  endfacet
  facet normal 0 0 -1
    outer loop
      vertex 131.528 12.15 0
      vertex 18.4722 12.15 0
      vertex 18.5706 12.3494 0
    endloop
  endfacet
  facet normal 0 0 -1
    outer loop
      vertex 131.651 11.9651 0
      vertex 18.3487 11.9651 0
      vertex 18.4722 12.15 0
    endloop
  endfacet
  facet normal 0 0 -1
    outer loop
      vertex 131.798 11.7979 0
      vertex 18.2021 11.7979 0
      vertex 18.3487 11.9651 0
    endloop
  endfacet
  facet normal 0 0 -1
    outer loop
      vertex 131.965 11.6513 0
      vertex 18.0349 11.6513 0
      vertex 18.2021 11.7979 0
    endloop
  endfacet
  facet normal -0 0 -1
    outer loop
      vertex 131.965 11.6513 0
      vertex 17.85 11.5278 0
      vertex 18.0349 11.6513 0
    endloop
  endfacet
  facet normal 0 0 -1
    outer loop
      vertex 3 0 0
      vertex 17.85 11.5278 0
      vertex 147 0 0
    endloop
  endfacet
  facet normal 0 0 -1
    outer loop
      vertex 17.85 11.5278 0
      vertex 3 0 0
      vertex 17.6506 11.4294 0
    endloop
  endfacet
  facet normal 0 0 -1
    outer loop
      vertex 17.6506 11.4294 0
      vertex 3 0 0
      vertex 17.44 11.3579 0
    endloop
  endfacet
  facet normal 0 0 -1
    outer loop
      vertex 17.44 11.3579 0
      vertex 3 0 0
      vertex 17.2219 11.3145 0
    endloop
  endfacet
  facet normal 0 0 -1
    outer loop
      vertex 17.2219 11.3145 0
      vertex 3 0 0
      vertex 17 11.3 0
    endloop
  endfacet
  facet normal -0 0 -1
    outer loop
      vertex 17 11.3 0
      vertex 3 0 0
      vertex 7 11.3 0
    endloop
  endfacet
  facet normal -0 0 -1
    outer loop
      vertex 5.35793 12.56 0
      vertex 0 3 0
      vertex 5.31454 12.7781 0
    endloop
  endfacet
  facet normal -0 0 -1
    outer loop
      vertex 5.4294 12.3494 0
      vertex 0 3 0
      vertex 5.35793 12.56 0
    endloop
  endfacet
  facet normal -0 0 -1
    outer loop
      vertex 5.52776 12.15 0
      vertex 0 3 0
      vertex 5.4294 12.3494 0
    endloop
  endfacet
  facet normal -0 0 -1
    outer loop
      vertex 5.6513 11.9651 0
      vertex 0 3 0
      vertex 5.52776 12.15 0
    endloop
  endfacet
  facet normal -0 0 -1
    outer loop
      vertex 5.79792 11.7979 0
      vertex 0 3 0
      vertex 5.6513 11.9651 0
    endloop
  endfacet
  facet normal -0 0 -1
    outer loop
      vertex 5.96511 11.6513 0
      vertex 0 3 0
      vertex 5.79792 11.7979 0
    endloop
  endfacet
  facet normal -0 0 -1
    outer loop
      vertex 6.15 11.5278 0
      vertex 0 3 0
      vertex 5.96511 11.6513 0
    endloop
  endfacet
  facet normal -0 0 -1
    outer loop
      vertex 6.34944 11.4294 0
      vertex 0 3 0
      vertex 6.15 11.5278 0
    endloop
  endfacet
  facet normal -0 0 -1
    outer loop
      vertex 6.56001 11.3579 0
      vertex 0 3 0
      vertex 6.34944 11.4294 0
    endloop
  endfacet
  facet normal 0 0 -1
    outer loop
      vertex 0 3 0
      vertex 6.56001 11.3579 0
      vertex 3 0 0
    endloop
  endfacet
  facet normal -0 0 -1
    outer loop
      vertex 6.7781 11.3145 0
      vertex 3 0 0
      vertex 6.56001 11.3579 0
    endloop
  endfacet
  facet normal -0 0 -1
    outer loop
      vertex 7 11.3 0
      vertex 3 0 0
      vertex 6.7781 11.3145 0
    endloop
  endfacet
  facet normal 0 0 -1
    outer loop
      vertex 149.974 23.3916 0
      vertex 147 26 0
      vertex 149.898 23.7765 0
    endloop
  endfacet
  facet normal 0 0 -1
    outer loop
      vertex 149.772 24.148 0
      vertex 147 26 0
      vertex 149.598 24.5 0
    endloop
  endfacet
  facet normal 0 0 -1
    outer loop
      vertex 149.598 24.5 0
      vertex 147 26 0
      vertex 149.38 24.8263 0
    endloop
  endfacet
  facet normal 0 0 -1
    outer loop
      vertex 149.38 24.8263 0
      vertex 147 26 0
      vertex 149.121 25.1213 0
    endloop
  endfacet
  facet normal 0 0 -1
    outer loop
      vertex 149.121 25.1213 0
      vertex 147 26 0
      vertex 148.826 25.3801 0
    endloop
  endfacet
  facet normal 0 0 -1
    outer loop
      vertex 148.5 25.5981 0
      vertex 147 26 0
      vertex 148.148 25.7716 0
    endloop
  endfacet
  facet normal 0 0 -1
    outer loop
      vertex 148.148 25.7716 0
      vertex 147 26 0
      vertex 147.776 25.8978 0
    endloop
  endfacet
  facet normal 0 0 -1
    outer loop
      vertex 147.776 25.8978 0
      vertex 147 26 0
      vertex 147.392 25.9743 0
    endloop
  endfacet
  facet normal 0 0 -1
    outer loop
      vertex 148.826 25.3801 0
      vertex 147 26 0
      vertex 148.5 25.5981 0
    endloop
  endfacet
  facet normal 0 0 -1
    outer loop
      vertex 149.898 23.7765 0
      vertex 147 26 0
      vertex 149.772 24.148 0
    endloop
  endfacet
  facet normal 0 0 -1
    outer loop
      vertex 143.222 14.6855 0
      vertex 147 26 0
      vertex 143.44 14.6421 0
    endloop
  endfacet
  facet normal 0 0 -1
    outer loop
      vertex 143 14.7 0
      vertex 147 26 0
      vertex 143.222 14.6855 0
    endloop
  endfacet
  facet normal 0 0 -1
    outer loop
      vertex 133 14.7 0
      vertex 147 26 0
      vertex 143 14.7 0
    endloop
  endfacet
  facet normal 0 0 -1
    outer loop
      vertex 132.778 14.6855 0
      vertex 147 26 0
      vertex 133 14.7 0
    endloop
  endfacet
  facet normal 0 0 -1
    outer loop
      vertex 132.56 14.6421 0
      vertex 147 26 0
      vertex 132.778 14.6855 0
    endloop
  endfacet
  facet normal 0 0 -1
    outer loop
      vertex 132.349 14.5706 0
      vertex 147 26 0
      vertex 132.56 14.6421 0
    endloop
  endfacet
  facet normal 0 0 -1
    outer loop
      vertex 132.15 14.4722 0
      vertex 147 26 0
      vertex 132.349 14.5706 0
    endloop
  endfacet
  facet normal 0 0 -1
    outer loop
      vertex 17.85 14.4722 0
      vertex 132.15 14.4722 0
      vertex 131.965 14.3487 0
    endloop
  endfacet
  facet normal 0 0 -1
    outer loop
      vertex 18.7 13 0
      vertex 131.315 13.2219 0
      vertex 131.3 13 0
    endloop
  endfacet
  facet normal 0 0 -1
    outer loop
      vertex 18.6855 13.2219 0
      vertex 131.315 13.2219 0
      vertex 18.7 13 0
    endloop
  endfacet
  facet normal 0 0 -1
    outer loop
      vertex 131.315 13.2219 0
      vertex 18.6855 13.2219 0
      vertex 131.358 13.44 0
    endloop
  endfacet
  facet normal 0 0 -1
    outer loop
      vertex 18.6421 13.44 0
      vertex 131.358 13.44 0
      vertex 18.6855 13.2219 0
    endloop
  endfacet
  facet normal 0 0 -1
    outer loop
      vertex 131.358 13.44 0
      vertex 18.6421 13.44 0
      vertex 131.429 13.6506 0
    endloop
  endfacet
  facet normal 0 0 -1
    outer loop
      vertex 18.5706 13.6506 0
      vertex 131.429 13.6506 0
      vertex 18.6421 13.44 0
    endloop
  endfacet
  facet normal 0 0 -1
    outer loop
      vertex 131.429 13.6506 0
      vertex 18.5706 13.6506 0
      vertex 131.528 13.85 0
    endloop
  endfacet
  facet normal 0 0 -1
    outer loop
      vertex 18.4722 13.85 0
      vertex 131.528 13.85 0
      vertex 18.5706 13.6506 0
    endloop
  endfacet
  facet normal 0 0 -1
    outer loop
      vertex 131.528 13.85 0
      vertex 18.4722 13.85 0
      vertex 131.651 14.0349 0
    endloop
  endfacet
  facet normal 0 0 -1
    outer loop
      vertex 18.3487 14.0349 0
      vertex 131.651 14.0349 0
      vertex 18.4722 13.85 0
    endloop
  endfacet
  facet normal 0 0 -1
    outer loop
      vertex 131.651 14.0349 0
      vertex 18.3487 14.0349 0
      vertex 131.798 14.2021 0
    endloop
  endfacet
  facet normal 0 0 -1
    outer loop
      vertex 18.2021 14.2021 0
      vertex 131.798 14.2021 0
      vertex 18.3487 14.0349 0
    endloop
  endfacet
  facet normal 0 0 -1
    outer loop
      vertex 131.798 14.2021 0
      vertex 18.2021 14.2021 0
      vertex 131.965 14.3487 0
    endloop
  endfacet
  facet normal 0 0 -1
    outer loop
      vertex 18.0349 14.3487 0
      vertex 131.965 14.3487 0
      vertex 18.2021 14.2021 0
    endloop
  endfacet
  facet normal 0 0 -1
    outer loop
      vertex 17.85 14.4722 0
      vertex 131.965 14.3487 0
      vertex 18.0349 14.3487 0
    endloop
  endfacet
  facet normal 0 0 -1
    outer loop
      vertex 132.15 14.4722 0
      vertex 17.85 14.4722 0
      vertex 147 26 0
    endloop
  endfacet
  facet normal 0 0 -1
    outer loop
      vertex 3 26 0
      vertex 17.85 14.4722 0
      vertex 17.6506 14.5706 0
    endloop
  endfacet
  facet normal 0 0 -1
    outer loop
      vertex 3 26 0
      vertex 17.6506 14.5706 0
      vertex 17.44 14.6421 0
    endloop
  endfacet
  facet normal 0 0 -1
    outer loop
      vertex 3 26 0
      vertex 17.44 14.6421 0
      vertex 17.2219 14.6855 0
    endloop
  endfacet
  facet normal 0 0 -1
    outer loop
      vertex 3 26 0
      vertex 17.2219 14.6855 0
      vertex 17 14.7 0
    endloop
  endfacet
  facet normal 0 0 -1
    outer loop
      vertex 3 26 0
      vertex 17 14.7 0
      vertex 7 14.7 0
    endloop
  endfacet
  facet normal 0 0 -1
    outer loop
      vertex 3 26 0
      vertex 7 14.7 0
      vertex 6.7781 14.6855 0
    endloop
  endfacet
  facet normal -0 0 -1
    outer loop
      vertex 5.31454 12.7781 0
      vertex 0 3 0
      vertex 5.3 13 0
    endloop
  endfacet
  facet normal 0 0 -1
    outer loop
      vertex 17.85 14.4722 0
      vertex 3 26 0
      vertex 147 26 0
    endloop
  endfacet
  facet normal 0 0 -1
    outer loop
      vertex 6.56001 14.6421 0
      vertex 3 26 0
      vertex 6.7781 14.6855 0
    endloop
  endfacet
  facet normal 0 0 -1
    outer loop
      vertex 0 23 0
      vertex 6.56001 14.6421 0
      vertex 6.34944 14.5706 0
    endloop
  endfacet
  facet normal 0 0 -1
    outer loop
      vertex 0 23 0
      vertex 6.34944 14.5706 0
      vertex 6.15 14.4722 0
    endloop
  endfacet
  facet normal 0 0 -1
    outer loop
      vertex 0 23 0
      vertex 6.15 14.4722 0
      vertex 5.96511 14.3487 0
    endloop
  endfacet
  facet normal 0 0 -1
    outer loop
      vertex 0 23 0
      vertex 5.96511 14.3487 0
      vertex 5.79792 14.2021 0
    endloop
  endfacet
  facet normal 0 0 -1
    outer loop
      vertex 0 23 0
      vertex 5.79792 14.2021 0
      vertex 5.6513 14.0349 0
    endloop
  endfacet
  facet normal 0 0 -1
    outer loop
      vertex 0 23 0
      vertex 5.6513 14.0349 0
      vertex 5.52776 13.85 0
    endloop
  endfacet
  facet normal 0 0 -1
    outer loop
      vertex 0 23 0
      vertex 5.52776 13.85 0
      vertex 5.4294 13.6506 0
    endloop
  endfacet
  facet normal 0 0 -1
    outer loop
      vertex 0 23 0
      vertex 5.4294 13.6506 0
      vertex 5.35793 13.44 0
    endloop
  endfacet
  facet normal 0 0 -1
    outer loop
      vertex 0 23 0
      vertex 5.35793 13.44 0
      vertex 5.31454 13.2219 0
    endloop
  endfacet
  facet normal 0 0 -1
    outer loop
      vertex 0 23 0
      vertex 5.3 13 0
      vertex 0 3 0
    endloop
  endfacet
  facet normal 0 0 -1
    outer loop
      vertex 0 3 0
      vertex 3 0 0
      vertex 2.60842 0.0256653 0
    endloop
  endfacet
  facet normal 0 0 -1
    outer loop
      vertex 5.3 13 0
      vertex 0 23 0
      vertex 5.31454 13.2219 0
    endloop
  endfacet
  facet normal 0 0 -1
    outer loop
      vertex 0 3 0
      vertex 2.60842 0.0256653 0
      vertex 2.22354 0.102222 0
    endloop
  endfacet
  facet normal 0 0 -1
    outer loop
      vertex 6.56001 14.6421 0
      vertex 0 23 0
      vertex 3 26 0
    endloop
  endfacet
  facet normal 0 0 -1
    outer loop
      vertex 0 3 0
      vertex 2.22354 0.102222 0
      vertex 1.85195 0.228361 0
    endloop
  endfacet
  facet normal 0 0 -1
    outer loop
      vertex 3 26 0
      vertex 0 23 0
      vertex 2.60842 25.9743 0
    endloop
  endfacet
  facet normal 0 0 -1
    outer loop
      vertex 0 3 0
      vertex 1.85195 0.228361 0
      vertex 1.5 0.401923 0
    endloop
  endfacet
  facet normal 0 0 -1
    outer loop
      vertex 2.60842 25.9743 0
      vertex 0 23 0
      vertex 2.22354 25.8978 0
    endloop
  endfacet
  facet normal 0 0 -1
    outer loop
      vertex 0 3 0
      vertex 1.5 0.401923 0
      vertex 1.17372 0.61994 0
    endloop
  endfacet
  facet normal 0 0 -1
    outer loop
      vertex 2.22354 25.8978 0
      vertex 0 23 0
      vertex 1.85195 25.7716 0
    endloop
  endfacet
  facet normal 0 0 -1
    outer loop
      vertex 0 3 0
      vertex 1.17372 0.61994 0
      vertex 0.878679 0.878679 0
    endloop
  endfacet
  facet normal 0 0 -1
    outer loop
      vertex 1.85195 25.7716 0
      vertex 0 23 0
      vertex 1.5 25.5981 0
    endloop
  endfacet
  facet normal 0 0 -1
    outer loop
      vertex 0 3 0
      vertex 0.878679 0.878679 0
      vertex 0.61994 1.17372 0
    endloop
  endfacet
  facet normal 0 0 -1
    outer loop
      vertex 1.5 25.5981 0
      vertex 0 23 0
      vertex 1.17372 25.3801 0
    endloop
  endfacet
  facet normal 0 0 -1
    outer loop
      vertex 0 3 0
      vertex 0.61994 1.17372 0
      vertex 0.401923 1.5 0
    endloop
  endfacet
  facet normal 0 0 -1
    outer loop
      vertex 1.17372 25.3801 0
      vertex 0 23 0
      vertex 0.878679 25.1213 0
    endloop
  endfacet
  facet normal 0 0 -1
    outer loop
      vertex 0 3 0
      vertex 0.401923 1.5 0
      vertex 0.228361 1.85195 0
    endloop
  endfacet
  facet normal 0 0 -1
    outer loop
      vertex 0.878679 25.1213 0
      vertex 0 23 0
      vertex 0.61994 24.8263 0
    endloop
  endfacet
  facet normal 0 0 -1
    outer loop
      vertex 0 3 0
      vertex 0.228361 1.85195 0
      vertex 0.102222 2.22354 0
    endloop
  endfacet
  facet normal 0 0 -1
    outer loop
      vertex 0.61994 24.8263 0
      vertex 0 23 0
      vertex 0.401923 24.5 0
    endloop
  endfacet
  facet normal 0 0 -1
    outer loop
      vertex 0 3 0
      vertex 0.102222 2.22354 0
      vertex 0.0256653 2.60842 0
    endloop
  endfacet
  facet normal 0 0 -1
    outer loop
      vertex 0.401923 24.5 0
      vertex 0 23 0
      vertex 0.228361 24.148 0
    endloop
  endfacet
  facet normal 0 0 -1
    outer loop
      vertex 0.228361 24.148 0
      vertex 0 23 0
      vertex 0.102222 23.7765 0
    endloop
  endfacet
  facet normal 0 0 -1
    outer loop
      vertex 0.102222 23.7765 0
      vertex 0 23 0
      vertex 0.0256653 23.3916 0
    endloop
  endfacet
  facet normal -0.946905 0.321512 0
    outer loop
      vertex 0.102222 23.7765 0
      vertex 0.228361 24.148 7
      vertex 0.228361 24.148 0
    endloop
  endfacet
  facet normal -0.946905 0.321512 0
    outer loop
      vertex 0.228361 24.148 7
      vertex 0.102222 23.7765 0
      vertex 0.102222 23.7765 7
    endloop
  endfacet
  facet normal -0.442288 -0.896873 0
    outer loop
      vertex 1.5 0.401923 0
      vertex 1.85195 0.228361 7
      vertex 1.5 0.401923 7
    endloop
  endfacet
  facet normal -0.442288 -0.896873 -0
    outer loop
      vertex 1.85195 0.228361 7
      vertex 1.5 0.401923 0
      vertex 1.85195 0.228361 0
    endloop
  endfacet
  facet normal -0.751846 -0.659339 0
    outer loop
      vertex 0.878679 0.878679 0
      vertex 0.61994 1.17372 7
      vertex 0.61994 1.17372 0
    endloop
  endfacet
  facet normal -0.751846 -0.659339 0
    outer loop
      vertex 0.61994 1.17372 7
      vertex 0.878679 0.878679 0
      vertex 0.878679 0.878679 7
    endloop
  endfacet
  facet normal -0.831465 -0.555577 0
    outer loop
      vertex 0.61994 1.17372 0
      vertex 0.401923 1.5 7
      vertex 0.401923 1.5 0
    endloop
  endfacet
  facet normal -0.831465 -0.555577 0
    outer loop
      vertex 0.401923 1.5 7
      vertex 0.61994 1.17372 0
      vertex 0.61994 1.17372 7
    endloop
  endfacet
  facet normal -0.946929 -0.321442 0
    outer loop
      vertex 0.228361 1.85195 0
      vertex 0.102222 2.22354 7
      vertex 0.102222 2.22354 0
    endloop
  endfacet
  facet normal -0.946929 -0.321442 0
    outer loop
      vertex 0.102222 2.22354 7
      vertex 0.228361 1.85195 0
      vertex 0.228361 1.85195 7
    endloop
  endfacet
  facet normal -0.980786 -0.195089 0
    outer loop
      vertex 0.102222 2.22354 0
      vertex 0.0256653 2.60842 7
      vertex 0.0256653 2.60842 0
    endloop
  endfacet
  facet normal -0.980786 -0.195089 0
    outer loop
      vertex 0.0256653 2.60842 7
      vertex 0.102222 2.22354 0
      vertex 0.102222 2.22354 7
    endloop
  endfacet
  facet normal 0.44211 0.896961 -0
    outer loop
      vertex 148.5 25.5981 0
      vertex 148.148 25.7716 7
      vertex 148.5 25.5981 7
    endloop
  endfacet
  facet normal 0.44211 0.896961 0
    outer loop
      vertex 148.148 25.7716 7
      vertex 148.5 25.5981 0
      vertex 148.148 25.7716 0
    endloop
  endfacet
  facet normal 0.831501 0.555523 0
    outer loop
      vertex 149.598 24.5 7
      vertex 149.38 24.8263 0
      vertex 149.38 24.8263 7
    endloop
  endfacet
  facet normal 0.831501 0.555523 0
    outer loop
      vertex 149.38 24.8263 0
      vertex 149.598 24.5 7
      vertex 149.598 24.5 0
    endloop
  endfacet
  facet normal 0.896455 0.443134 0
    outer loop
      vertex 149.772 24.148 7
      vertex 149.598 24.5 0
      vertex 149.598 24.5 7
    endloop
  endfacet
  facet normal 0.896455 0.443134 0
    outer loop
      vertex 149.598 24.5 0
      vertex 149.772 24.148 7
      vertex 149.772 24.148 0
    endloop
  endfacet
  facet normal 1 -0 0
    outer loop
      vertex 150 3 7
      vertex 150 23 0
      vertex 150 23 7
    endloop
  endfacet
  facet normal 1 0 0
    outer loop
      vertex 150 23 0
      vertex 150 3 7
      vertex 150 3 0
    endloop
  endfacet
  facet normal 0.831485 -0.555547 0
    outer loop
      vertex 149.38 1.17372 7
      vertex 149.598 1.5 0
      vertex 149.598 1.5 7
    endloop
  endfacet
  facet normal 0.831485 -0.555547 0
    outer loop
      vertex 149.598 1.5 0
      vertex 149.38 1.17372 7
      vertex 149.38 1.17372 0
    endloop
  endfacet
  facet normal 0.751516 -0.659714 0
    outer loop
      vertex 149.121 0.878679 7
      vertex 149.38 1.17372 0
      vertex 149.38 1.17372 7
    endloop
  endfacet
  facet normal 0.751516 -0.659714 0
    outer loop
      vertex 149.38 1.17372 0
      vertex 149.121 0.878679 7
      vertex 149.121 0.878679 0
    endloop
  endfacet
  facet normal 0.555906 -0.831245 0
    outer loop
      vertex 148.5 0.401923 0
      vertex 148.826 0.61994 7
      vertex 148.5 0.401923 7
    endloop
  endfacet
  facet normal 0.555906 -0.831245 0
    outer loop
      vertex 148.826 0.61994 7
      vertex 148.5 0.401923 0
      vertex 148.826 0.61994 0
    endloop
  endfacet
  facet normal 0.65939 -0.751801 0
    outer loop
      vertex 148.826 0.61994 0
      vertex 149.121 0.878679 7
      vertex 148.826 0.61994 7
    endloop
  endfacet
  facet normal 0.65939 -0.751801 0
    outer loop
      vertex 149.121 0.878679 7
      vertex 148.826 0.61994 0
      vertex 149.121 0.878679 0
    endloop
  endfacet
  facet normal 0.195519 -0.9807 0
    outer loop
      vertex 147.392 0.0256653 0
      vertex 147.776 0.102222 7
      vertex 147.392 0.0256653 7
    endloop
  endfacet
  facet normal 0.195519 -0.9807 0
    outer loop
      vertex 147.776 0.102222 7
      vertex 147.392 0.0256653 0
      vertex 147.776 0.102222 0
    endloop
  endfacet
  facet normal -0.321582 0.946882 0
    outer loop
      vertex 2.22354 25.8978 0
      vertex 1.85195 25.7716 7
      vertex 2.22354 25.8978 7
    endloop
  endfacet
  facet normal -0.321582 0.946882 0
    outer loop
      vertex 1.85195 25.7716 7
      vertex 2.22354 25.8978 0
      vertex 1.85195 25.7716 0
    endloop
  endfacet
  facet normal -0.980788 0.195079 0
    outer loop
      vertex 0.0256653 23.3916 0
      vertex 0.102222 23.7765 7
      vertex 0.102222 23.7765 0
    endloop
  endfacet
  facet normal -0.980788 0.195079 0
    outer loop
      vertex 0.102222 23.7765 7
      vertex 0.0256653 23.3916 0
      vertex 0.0256653 23.3916 7
    endloop
  endfacet
  facet normal -0.555547 0.831485 0
    outer loop
      vertex 1.5 25.5981 0
      vertex 1.17372 25.3801 7
      vertex 1.5 25.5981 7
    endloop
  endfacet
  facet normal -0.555547 0.831485 0
    outer loop
      vertex 1.17372 25.3801 7
      vertex 1.5 25.5981 0
      vertex 1.17372 25.3801 0
    endloop
  endfacet
  facet normal -0.659426 0.751769 0
    outer loop
      vertex 1.17372 25.3801 0
      vertex 0.878679 25.1213 7
      vertex 1.17372 25.3801 7
    endloop
  endfacet
  facet normal -0.659426 0.751769 0
    outer loop
      vertex 0.878679 25.1213 7
      vertex 1.17372 25.3801 0
      vertex 0.878679 25.1213 0
    endloop
  endfacet
  facet normal -0.751801 0.65939 0
    outer loop
      vertex 0.61994 24.8263 0
      vertex 0.878679 25.1213 7
      vertex 0.878679 25.1213 0
    endloop
  endfacet
  facet normal -0.751801 0.65939 0
    outer loop
      vertex 0.878679 25.1213 7
      vertex 0.61994 24.8263 0
      vertex 0.61994 24.8263 7
    endloop
  endfacet
  facet normal -0.831481 0.555553 0
    outer loop
      vertex 0.401923 24.5 0
      vertex 0.61994 24.8263 7
      vertex 0.61994 24.8263 0
    endloop
  endfacet
  facet normal -0.831481 0.555553 0
    outer loop
      vertex 0.61994 24.8263 7
      vertex 0.401923 24.5 0
      vertex 0.401923 24.5 7
    endloop
  endfacet
  facet normal -0.896873 -0.442288 0
    outer loop
      vertex 0.401923 1.5 0
      vertex 0.228361 1.85195 7
      vertex 0.228361 1.85195 0
    endloop
  endfacet
  facet normal -0.896873 -0.442288 0
    outer loop
      vertex 0.228361 1.85195 7
      vertex 0.401923 1.5 0
      vertex 0.401923 1.5 7
    endloop
  endfacet
  facet normal 0.659478 0.751724 -0
    outer loop
      vertex 149.121 25.1213 0
      vertex 148.826 25.3801 7
      vertex 149.121 25.1213 7
    endloop
  endfacet
  facet normal 0.659478 0.751724 0
    outer loop
      vertex 148.826 25.3801 7
      vertex 149.121 25.1213 0
      vertex 148.826 25.3801 0
    endloop
  endfacet
  facet normal 0.321264 0.94699 -0
    outer loop
      vertex 148.148 25.7716 0
      vertex 147.776 25.8978 7
      vertex 148.148 25.7716 7
    endloop
  endfacet
  facet normal 0.321264 0.94699 0
    outer loop
      vertex 147.776 25.8978 7
      vertex 148.148 25.7716 0
      vertex 147.776 25.8978 0
    endloop
  endfacet
  facet normal 0.751471 0.659766 0
    outer loop
      vertex 149.38 24.8263 7
      vertex 149.121 25.1213 0
      vertex 149.121 25.1213 7
    endloop
  endfacet
  facet normal 0.751471 0.659766 0
    outer loop
      vertex 149.121 25.1213 0
      vertex 149.38 24.8263 7
      vertex 149.38 24.8263 0
    endloop
  endfacet
  facet normal 0.981058 0.193714 0
    outer loop
      vertex 149.974 23.3916 7
      vertex 149.898 23.7765 0
      vertex 149.898 23.7765 7
    endloop
  endfacet
  facet normal 0.981058 0.193714 0
    outer loop
      vertex 149.898 23.7765 0
      vertex 149.974 23.3916 7
      vertex 149.974 23.3916 0
    endloop
  endfacet
  facet normal 0.89643 -0.443185 0
    outer loop
      vertex 149.598 1.5 7
      vertex 149.772 1.85195 0
      vertex 149.772 1.85195 7
    endloop
  endfacet
  facet normal 0.89643 -0.443185 0
    outer loop
      vertex 149.772 1.85195 0
      vertex 149.598 1.5 7
      vertex 149.598 1.5 0
    endloop
  endfacet
  facet normal 0.442237 -0.896898 0
    outer loop
      vertex 148.148 0.228361 0
      vertex 148.5 0.401923 7
      vertex 148.148 0.228361 7
    endloop
  endfacet
  facet normal 0.442237 -0.896898 0
    outer loop
      vertex 148.5 0.401923 7
      vertex 148.148 0.228361 0
      vertex 148.5 0.401923 0
    endloop
  endfacet
  facet normal -0.44216 0.896936 0
    outer loop
      vertex 1.85195 25.7716 0
      vertex 1.5 25.5981 7
      vertex 1.85195 25.7716 7
    endloop
  endfacet
  facet normal -0.44216 0.896936 0
    outer loop
      vertex 1.5 25.5981 7
      vertex 1.85195 25.7716 0
      vertex 1.5 25.5981 0
    endloop
  endfacet
  facet normal -0.896898 0.442237 0
    outer loop
      vertex 0.228361 24.148 0
      vertex 0.401923 24.5 7
      vertex 0.401923 24.5 0
    endloop
  endfacet
  facet normal -0.896898 0.442237 0
    outer loop
      vertex 0.401923 24.5 7
      vertex 0.228361 24.148 0
      vertex 0.228361 24.148 7
    endloop
  endfacet
  facet normal -0.195089 -0.980786 0
    outer loop
      vertex 2.22354 0.102222 0
      vertex 2.60842 0.0256653 7
      vertex 2.22354 0.102222 7
    endloop
  endfacet
  facet normal -0.195089 -0.980786 -0
    outer loop
      vertex 2.60842 0.0256653 7
      vertex 2.22354 0.102222 0
      vertex 2.60842 0.0256653 0
    endloop
  endfacet
  facet normal -0.555577 -0.831465 0
    outer loop
      vertex 1.17372 0.61994 0
      vertex 1.5 0.401923 7
      vertex 1.17372 0.61994 7
    endloop
  endfacet
  facet normal -0.555577 -0.831465 -0
    outer loop
      vertex 1.5 0.401923 7
      vertex 1.17372 0.61994 0
      vertex 1.5 0.401923 0
    endloop
  endfacet
  facet normal 0.555877 0.831265 -0
    outer loop
      vertex 148.826 25.3801 0
      vertex 148.5 25.5981 7
      vertex 148.826 25.3801 7
    endloop
  endfacet
  facet normal 0.555877 0.831265 0
    outer loop
      vertex 148.5 25.5981 7
      vertex 148.826 25.3801 0
      vertex 148.5 25.5981 0
    endloop
  endfacet
  facet normal 0.0654208 0.997858 -0
    outer loop
      vertex 147.392 25.9743 0
      vertex 147 26 7
      vertex 147.392 25.9743 7
    endloop
  endfacet
  facet normal 0.0654208 0.997858 0
    outer loop
      vertex 147 26 7
      vertex 147.392 25.9743 0
      vertex 147 26 0
    endloop
  endfacet
  facet normal 0.195379 0.980728 -0
    outer loop
      vertex 147.776 25.8978 0
      vertex 147.392 25.9743 7
      vertex 147.776 25.8978 7
    endloop
  endfacet
  facet normal 0.195379 0.980728 0
    outer loop
      vertex 147.392 25.9743 7
      vertex 147.776 25.8978 0
      vertex 147.392 25.9743 0
    endloop
  endfacet
  facet normal 0.947013 0.321194 0
    outer loop
      vertex 149.898 23.7765 7
      vertex 149.772 24.148 0
      vertex 149.772 24.148 7
    endloop
  endfacet
  facet normal 0.947013 0.321194 0
    outer loop
      vertex 149.772 24.148 0
      vertex 149.898 23.7765 7
      vertex 149.898 23.7765 0
    endloop
  endfacet
  facet normal 0.947037 -0.321125 0
    outer loop
      vertex 149.772 1.85195 7
      vertex 149.898 2.22354 0
      vertex 149.898 2.22354 7
    endloop
  endfacet
  facet normal 0.947037 -0.321125 0
    outer loop
      vertex 149.898 2.22354 0
      vertex 149.772 1.85195 7
      vertex 149.772 1.85195 0
    endloop
  endfacet
endsolid OpenSCAD_Model
