solid OpenSCAD_Model
  facet normal 0.99786 -0.0653877 0
    outer loop
      vertex 4.3 9 5
      vertex 4.31454 9.22189 0
      vertex 4.31454 9.22189 5
    endloop
  endfacet
  facet normal 0.99786 -0.0653877 0
    outer loop
      vertex 4.31454 9.22189 0
      vertex 4.3 9 5
      vertex 4.3 9 0
    endloop
  endfacet
  facet normal 0.99786 0.0653848 0
    outer loop
      vertex 4.31454 8.7781 5
      vertex 4.3 9 0
      vertex 4.3 9 5
    endloop
  endfacet
  facet normal 0.99786 0.0653848 0
    outer loop
      vertex 4.3 9 0
      vertex 4.31454 8.7781 5
      vertex 4.31454 8.7781 0
    endloop
  endfacet
  facet normal -0.980769 0.195173 0
    outer loop
      vertex 41.6421 8.56001 0
      vertex 41.6855 8.7781 5
      vertex 41.6855 8.7781 0
    endloop
  endfacet
  facet normal -0.980769 0.195173 0
    outer loop
      vertex 41.6855 8.7781 5
      vertex 41.6421 8.56001 0
      vertex 41.6421 8.56001 5
    endloop
  endfacet
  facet normal 0 1 -0
    outer loop
      vertex 40 7.3 0
      vertex 6 7.3 5
      vertex 40 7.3 5
    endloop
  endfacet
  facet normal 0 1 0
    outer loop
      vertex 6 7.3 5
      vertex 40 7.3 0
      vertex 6 7.3 0
    endloop
  endfacet
  facet normal 0 -1 0
    outer loop
      vertex 6 10.7 0
      vertex 40 10.7 5
      vertex 6 10.7 5
    endloop
  endfacet
  facet normal 0 -1 -0
    outer loop
      vertex 40 10.7 5
      vertex 6 10.7 0
      vertex 40 10.7 0
    endloop
  endfacet
  facet normal 0.321404 0.946942 -0
    outer loop
      vertex 5.56001 7.35793 0
      vertex 5.34944 7.4294 5
      vertex 5.56001 7.35793 5
    endloop
  endfacet
  facet normal 0.321404 0.946942 0
    outer loop
      vertex 5.34944 7.4294 5
      vertex 5.56001 7.35793 0
      vertex 5.34944 7.4294 0
    endloop
  endfacet
  facet normal 0.442314 0.89686 -0
    outer loop
      vertex 5.34944 7.4294 0
      vertex 5.15 7.52776 5
      vertex 5.34944 7.4294 5
    endloop
  endfacet
  facet normal 0.442314 0.89686 0
    outer loop
      vertex 5.15 7.52776 5
      vertex 5.34944 7.4294 0
      vertex 5.15 7.52776 0
    endloop
  endfacet
  facet normal 0.659342 0.751844 -0
    outer loop
      vertex 4.96511 7.6513 0
      vertex 4.79792 7.79792 5
      vertex 4.96511 7.6513 5
    endloop
  endfacet
  facet normal 0.659342 0.751844 0
    outer loop
      vertex 4.79792 7.79792 5
      vertex 4.96511 7.6513 0
      vertex 4.79792 7.79792 0
    endloop
  endfacet
  facet normal -0.321363 0.946956 0
    outer loop
      vertex 40.6506 7.4294 0
      vertex 40.44 7.35793 5
      vertex 40.6506 7.4294 5
    endloop
  endfacet
  facet normal -0.321363 0.946956 0
    outer loop
      vertex 40.44 7.35793 5
      vertex 40.6506 7.4294 0
      vertex 40.44 7.35793 0
    endloop
  endfacet
  facet normal -0.751908 -0.659268 0
    outer loop
      vertex 41.3487 10.0349 0
      vertex 41.2021 10.2021 5
      vertex 41.2021 10.2021 0
    endloop
  endfacet
  facet normal -0.751908 -0.659268 0
    outer loop
      vertex 41.2021 10.2021 5
      vertex 41.3487 10.0349 0
      vertex 41.3487 10.0349 5
    endloop
  endfacet
  facet normal -0.997872 0.0652057 0
    outer loop
      vertex 41.6855 8.7781 0
      vertex 41.7 9 5
      vertex 41.7 9 0
    endloop
  endfacet
  facet normal -0.997872 0.0652057 0
    outer loop
      vertex 41.7 9 5
      vertex 41.6855 8.7781 0
      vertex 41.6855 8.7781 5
    endloop
  endfacet
  facet normal 0.659291 -0.751888 0
    outer loop
      vertex 4.79792 10.2021 0
      vertex 4.96511 10.3487 5
      vertex 4.79792 10.2021 5
    endloop
  endfacet
  facet normal 0.659291 -0.751888 0
    outer loop
      vertex 4.96511 10.3487 5
      vertex 4.79792 10.2021 0
      vertex 4.96511 10.3487 0
    endloop
  endfacet
  facet normal 0.751863 -0.659319 0
    outer loop
      vertex 4.6513 10.0349 5
      vertex 4.79792 10.2021 0
      vertex 4.79792 10.2021 5
    endloop
  endfacet
  facet normal 0.751863 -0.659319 0
    outer loop
      vertex 4.79792 10.2021 0
      vertex 4.6513 10.0349 5
      vertex 4.6513 10.0349 0
    endloop
  endfacet
  facet normal 0.980779 -0.195122 0
    outer loop
      vertex 4.31454 9.22189 5
      vertex 4.35793 9.43999 0
      vertex 4.35793 9.43999 5
    endloop
  endfacet
  facet normal 0.980779 -0.195122 0
    outer loop
      vertex 4.35793 9.43999 0
      vertex 4.31454 9.22189 5
      vertex 4.31454 9.22189 0
    endloop
  endfacet
  facet normal 0.946942 0.321404 0
    outer loop
      vertex 4.4294 8.34944 5
      vertex 4.35793 8.56001 0
      vertex 4.35793 8.56001 5
    endloop
  endfacet
  facet normal 0.946942 0.321404 0
    outer loop
      vertex 4.35793 8.56001 0
      vertex 4.4294 8.34944 5
      vertex 4.4294 8.34944 0
    endloop
  endfacet
  facet normal 0.89686 0.442314 0
    outer loop
      vertex 4.52776 8.15 5
      vertex 4.4294 8.34944 0
      vertex 4.4294 8.34944 5
    endloop
  endfacet
  facet normal 0.89686 0.442314 0
    outer loop
      vertex 4.4294 8.34944 0
      vertex 4.52776 8.15 5
      vertex 4.52776 8.15 0
    endloop
  endfacet
  facet normal 0.751844 0.659342 0
    outer loop
      vertex 4.79792 7.79792 5
      vertex 4.6513 7.96511 0
      vertex 4.6513 7.96511 5
    endloop
  endfacet
  facet normal 0.751844 0.659342 0
    outer loop
      vertex 4.6513 7.96511 0
      vertex 4.79792 7.79792 5
      vertex 4.79792 7.79792 0
    endloop
  endfacet
  facet normal 0.831469 0.555572 0
    outer loop
      vertex 4.6513 7.96511 5
      vertex 4.52776 8.15 0
      vertex 4.52776 8.15 5
    endloop
  endfacet
  facet normal 0.831469 0.555572 0
    outer loop
      vertex 4.52776 8.15 0
      vertex 4.6513 7.96511 5
      vertex 4.6513 7.96511 0
    endloop
  endfacet
  facet normal 0.19513 0.980777 -0
    outer loop
      vertex 5.7781 7.31454 0
      vertex 5.56001 7.35793 5
      vertex 5.7781 7.31454 5
    endloop
  endfacet
  facet normal 0.19513 0.980777 0
    outer loop
      vertex 5.56001 7.35793 5
      vertex 5.7781 7.31454 0
      vertex 5.56001 7.35793 0
    endloop
  endfacet
  facet normal 0.555572 0.831469 -0
    outer loop
      vertex 5.15 7.52776 0
      vertex 4.96511 7.6513 5
      vertex 5.15 7.52776 5
    endloop
  endfacet
  facet normal 0.555572 0.831469 0
    outer loop
      vertex 4.96511 7.6513 5
      vertex 5.15 7.52776 0
      vertex 4.96511 7.6513 0
    endloop
  endfacet
  facet normal -0.831552 0.555447 0
    outer loop
      vertex 41.3487 7.96511 0
      vertex 41.4722 8.15 5
      vertex 41.4722 8.15 0
    endloop
  endfacet
  facet normal -0.831552 0.555447 0
    outer loop
      vertex 41.4722 8.15 5
      vertex 41.3487 7.96511 0
      vertex 41.3487 7.96511 5
    endloop
  endfacet
  facet normal -0.0653848 0.99786 0
    outer loop
      vertex 40.2219 7.31454 0
      vertex 40 7.3 5
      vertex 40.2219 7.31454 5
    endloop
  endfacet
  facet normal -0.0653848 0.99786 0
    outer loop
      vertex 40 7.3 5
      vertex 40.2219 7.31454 0
      vertex 40 7.3 0
    endloop
  endfacet
  facet normal -0.195122 0.980779 0
    outer loop
      vertex 40.44 7.35793 0
      vertex 40.2219 7.31454 5
      vertex 40.44 7.35793 5
    endloop
  endfacet
  facet normal -0.195122 0.980779 0
    outer loop
      vertex 40.2219 7.31454 5
      vertex 40.44 7.35793 0
      vertex 40.2219 7.31454 0
    endloop
  endfacet
  facet normal -0.555426 -0.831566 0
    outer loop
      vertex 40.85 10.4722 0
      vertex 41.0349 10.3487 5
      vertex 40.85 10.4722 5
    endloop
  endfacet
  facet normal -0.555426 -0.831566 -0
    outer loop
      vertex 41.0349 10.3487 5
      vertex 40.85 10.4722 0
      vertex 41.0349 10.3487 0
    endloop
  endfacet
  facet normal -0.44253 -0.896754 0
    outer loop
      vertex 40.6506 10.5706 0
      vertex 40.85 10.4722 5
      vertex 40.6506 10.5706 5
    endloop
  endfacet
  facet normal -0.44253 -0.896754 -0
    outer loop
      vertex 40.85 10.4722 5
      vertex 40.6506 10.5706 0
      vertex 40.85 10.4722 0
    endloop
  endfacet
  facet normal -0.659268 -0.751908 0
    outer loop
      vertex 41.0349 10.3487 0
      vertex 41.2021 10.2021 5
      vertex 41.0349 10.3487 5
    endloop
  endfacet
  facet normal -0.659268 -0.751908 -0
    outer loop
      vertex 41.2021 10.2021 5
      vertex 41.0349 10.3487 0
      vertex 41.2021 10.2021 0
    endloop
  endfacet
  facet normal -0.321484 -0.946915 0
    outer loop
      vertex 40.44 10.6421 0
      vertex 40.6506 10.5706 5
      vertex 40.44 10.6421 5
    endloop
  endfacet
  facet normal -0.321484 -0.946915 -0
    outer loop
      vertex 40.6506 10.5706 5
      vertex 40.44 10.6421 0
      vertex 40.6506 10.5706 0
    endloop
  endfacet
  facet normal -0.0652057 -0.997872 0
    outer loop
      vertex 40 10.7 0
      vertex 40.2219 10.6855 5
      vertex 40 10.7 5
    endloop
  endfacet
  facet normal -0.0652057 -0.997872 -0
    outer loop
      vertex 40.2219 10.6855 5
      vertex 40 10.7 0
      vertex 40.2219 10.6855 0
    endloop
  endfacet
  facet normal -0.946901 -0.321525 0
    outer loop
      vertex 41.6421 9.43999 0
      vertex 41.5706 9.65056 5
      vertex 41.5706 9.65056 0
    endloop
  endfacet
  facet normal -0.946901 -0.321525 0
    outer loop
      vertex 41.5706 9.65056 5
      vertex 41.6421 9.43999 0
      vertex 41.6421 9.43999 5
    endloop
  endfacet
  facet normal 0.321525 -0.946901 0
    outer loop
      vertex 5.34944 10.5706 0
      vertex 5.56001 10.6421 5
      vertex 5.34944 10.5706 5
    endloop
  endfacet
  facet normal 0.321525 -0.946901 0
    outer loop
      vertex 5.56001 10.6421 5
      vertex 5.34944 10.5706 0
      vertex 5.56001 10.6421 0
    endloop
  endfacet
  facet normal 0.555447 -0.831552 0
    outer loop
      vertex 4.96511 10.3487 0
      vertex 5.15 10.4722 5
      vertex 4.96511 10.3487 5
    endloop
  endfacet
  facet normal 0.555447 -0.831552 0
    outer loop
      vertex 5.15 10.4722 5
      vertex 4.96511 10.3487 0
      vertex 5.15 10.4722 0
    endloop
  endfacet
  facet normal 0.89686 -0.442314 0
    outer loop
      vertex 4.4294 9.65056 5
      vertex 4.52776 9.85 0
      vertex 4.52776 9.85 5
    endloop
  endfacet
  facet normal 0.89686 -0.442314 0
    outer loop
      vertex 4.52776 9.85 0
      vertex 4.4294 9.65056 5
      vertex 4.4294 9.65056 0
    endloop
  endfacet
  facet normal 0.946942 -0.321404 0
    outer loop
      vertex 4.35793 9.43999 5
      vertex 4.4294 9.65056 0
      vertex 4.4294 9.65056 5
    endloop
  endfacet
  facet normal 0.946942 -0.321404 0
    outer loop
      vertex 4.4294 9.65056 0
      vertex 4.35793 9.43999 5
      vertex 4.35793 9.43999 0
    endloop
  endfacet
  facet normal 0.980777 0.19513 0
    outer loop
      vertex 4.35793 8.56001 5
      vertex 4.31454 8.7781 0
      vertex 4.31454 8.7781 5
    endloop
  endfacet
  facet normal 0.980777 0.19513 0
    outer loop
      vertex 4.31454 8.7781 0
      vertex 4.35793 8.56001 5
      vertex 4.35793 8.56001 0
    endloop
  endfacet
  facet normal 0.0653848 0.99786 -0
    outer loop
      vertex 6 7.3 0
      vertex 5.7781 7.31454 5
      vertex 6 7.3 5
    endloop
  endfacet
  facet normal 0.0653848 0.99786 0
    outer loop
      vertex 5.7781 7.31454 5
      vertex 6 7.3 0
      vertex 5.7781 7.31454 0
    endloop
  endfacet
  facet normal -0.946901 0.321525 0
    outer loop
      vertex 41.5706 8.34944 0
      vertex 41.6421 8.56001 5
      vertex 41.6421 8.56001 0
    endloop
  endfacet
  facet normal -0.946901 0.321525 0
    outer loop
      vertex 41.6421 8.56001 5
      vertex 41.5706 8.34944 0
      vertex 41.5706 8.34944 5
    endloop
  endfacet
  facet normal -0.442386 0.896825 0
    outer loop
      vertex 40.85 7.52776 0
      vertex 40.6506 7.4294 5
      vertex 40.85 7.52776 5
    endloop
  endfacet
  facet normal -0.442386 0.896825 0
    outer loop
      vertex 40.6506 7.4294 5
      vertex 40.85 7.52776 0
      vertex 40.6506 7.4294 0
    endloop
  endfacet
  facet normal -0.555551 0.831483 0
    outer loop
      vertex 41.0349 7.6513 0
      vertex 40.85 7.52776 5
      vertex 41.0349 7.6513 5
    endloop
  endfacet
  facet normal -0.555551 0.831483 0
    outer loop
      vertex 40.85 7.52776 5
      vertex 41.0349 7.6513 0
      vertex 40.85 7.52776 0
    endloop
  endfacet
  facet normal -0.659319 0.751863 0
    outer loop
      vertex 41.2021 7.79792 0
      vertex 41.0349 7.6513 5
      vertex 41.2021 7.79792 5
    endloop
  endfacet
  facet normal -0.659319 0.751863 0
    outer loop
      vertex 41.0349 7.6513 5
      vertex 41.2021 7.79792 0
      vertex 41.0349 7.6513 0
    endloop
  endfacet
  facet normal -0.195165 -0.98077 0
    outer loop
      vertex 40.2219 10.6855 0
      vertex 40.44 10.6421 5
      vertex 40.2219 10.6855 5
    endloop
  endfacet
  facet normal -0.195165 -0.98077 -0
    outer loop
      vertex 40.44 10.6421 5
      vertex 40.2219 10.6855 0
      vertex 40.44 10.6421 0
    endloop
  endfacet
  facet normal -0.831566 -0.555426 0
    outer loop
      vertex 41.4722 9.85 0
      vertex 41.3487 10.0349 5
      vertex 41.3487 10.0349 0
    endloop
  endfacet
  facet normal -0.831566 -0.555426 0
    outer loop
      vertex 41.3487 10.0349 5
      vertex 41.4722 9.85 0
      vertex 41.4722 9.85 5
    endloop
  endfacet
  facet normal -0.896789 -0.442459 0
    outer loop
      vertex 41.5706 9.65056 0
      vertex 41.4722 9.85 5
      vertex 41.4722 9.85 0
    endloop
  endfacet
  facet normal -0.896789 -0.442459 0
    outer loop
      vertex 41.4722 9.85 5
      vertex 41.5706 9.65056 0
      vertex 41.5706 9.65056 5
    endloop
  endfacet
  facet normal -0.98077 -0.195165 0
    outer loop
      vertex 41.6855 9.22189 0
      vertex 41.6421 9.43999 5
      vertex 41.6421 9.43999 0
    endloop
  endfacet
  facet normal -0.98077 -0.195165 0
    outer loop
      vertex 41.6421 9.43999 5
      vertex 41.6855 9.22189 0
      vertex 41.6855 9.22189 5
    endloop
  endfacet
  facet normal -0.997872 -0.0652086 0
    outer loop
      vertex 41.7 9 0
      vertex 41.6855 9.22189 5
      vertex 41.6855 9.22189 0
    endloop
  endfacet
  facet normal -0.997872 -0.0652086 0
    outer loop
      vertex 41.6855 9.22189 5
      vertex 41.7 9 0
      vertex 41.7 9 5
    endloop
  endfacet
  facet normal 0.442459 -0.896789 0
    outer loop
      vertex 5.15 10.4722 0
      vertex 5.34944 10.5706 5
      vertex 5.15 10.4722 5
    endloop
  endfacet
  facet normal 0.442459 -0.896789 0
    outer loop
      vertex 5.34944 10.5706 5
      vertex 5.15 10.4722 0
      vertex 5.34944 10.5706 0
    endloop
  endfacet
  facet normal 0.195173 -0.980769 0
    outer loop
      vertex 5.56001 10.6421 0
      vertex 5.7781 10.6855 5
      vertex 5.56001 10.6421 5
    endloop
  endfacet
  facet normal 0.195173 -0.980769 0
    outer loop
      vertex 5.7781 10.6855 5
      vertex 5.56001 10.6421 0
      vertex 5.7781 10.6855 0
    endloop
  endfacet
  facet normal 0.0652057 -0.997872 0
    outer loop
      vertex 5.7781 10.6855 0
      vertex 6 10.7 5
      vertex 5.7781 10.6855 5
    endloop
  endfacet
  facet normal 0.0652057 -0.997872 0
    outer loop
      vertex 6 10.7 5
      vertex 5.7781 10.6855 0
      vertex 6 10.7 0
    endloop
  endfacet
  facet normal 0.831483 -0.555551 0
    outer loop
      vertex 4.52776 9.85 5
      vertex 4.6513 10.0349 0
      vertex 4.6513 10.0349 5
    endloop
  endfacet
  facet normal 0.831483 -0.555551 0
    outer loop
      vertex 4.6513 10.0349 0
      vertex 4.52776 9.85 5
      vertex 4.52776 9.85 0
    endloop
  endfacet
  facet normal -0.896789 0.442459 0
    outer loop
      vertex 41.4722 8.15 0
      vertex 41.5706 8.34944 5
      vertex 41.5706 8.34944 0
    endloop
  endfacet
  facet normal -0.896789 0.442459 0
    outer loop
      vertex 41.5706 8.34944 5
      vertex 41.4722 8.15 0
      vertex 41.4722 8.15 5
    endloop
  endfacet
  facet normal -0.751888 0.659291 0
    outer loop
      vertex 41.2021 7.79792 0
      vertex 41.3487 7.96511 5
      vertex 41.3487 7.96511 0
    endloop
  endfacet
  facet normal -0.751888 0.659291 0
    outer loop
      vertex 41.3487 7.96511 5
      vertex 41.2021 7.79792 0
      vertex 41.2021 7.79792 5
    endloop
  endfacet
  facet normal 0.997872 -0.0652086 0
    outer loop
      vertex 50.3 9 5
      vertex 50.3145 9.22189 0
      vertex 50.3145 9.22189 5
    endloop
  endfacet
  facet normal 0.997872 -0.0652086 0
    outer loop
      vertex 50.3145 9.22189 0
      vertex 50.3 9 5
      vertex 50.3 9 0
    endloop
  endfacet
  facet normal 0.997872 0.0652057 0
    outer loop
      vertex 50.3145 8.7781 5
      vertex 50.3 9 0
      vertex 50.3 9 5
    endloop
  endfacet
  facet normal 0.997872 0.0652057 0
    outer loop
      vertex 50.3 9 0
      vertex 50.3145 8.7781 5
      vertex 50.3145 8.7781 0
    endloop
  endfacet
  facet normal -0.980769 0.195173 0
    outer loop
      vertex 87.6421 8.56001 0
      vertex 87.6855 8.7781 5
      vertex 87.6855 8.7781 0
    endloop
  endfacet
  facet normal -0.980769 0.195173 0
    outer loop
      vertex 87.6855 8.7781 5
      vertex 87.6421 8.56001 0
      vertex 87.6421 8.56001 5
    endloop
  endfacet
  facet normal 0 1 -0
    outer loop
      vertex 86 7.3 0
      vertex 52 7.3 5
      vertex 86 7.3 5
    endloop
  endfacet
  facet normal 0 1 0
    outer loop
      vertex 52 7.3 5
      vertex 86 7.3 0
      vertex 52 7.3 0
    endloop
  endfacet
  facet normal 0 -1 0
    outer loop
      vertex 52 10.7 0
      vertex 86 10.7 5
      vertex 52 10.7 5
    endloop
  endfacet
  facet normal 0 -1 -0
    outer loop
      vertex 86 10.7 5
      vertex 52 10.7 0
      vertex 86 10.7 0
    endloop
  endfacet
  facet normal 0.442386 0.896825 -0
    outer loop
      vertex 51.3494 7.4294 0
      vertex 51.15 7.52776 5
      vertex 51.3494 7.4294 5
    endloop
  endfacet
  facet normal 0.442386 0.896825 0
    outer loop
      vertex 51.15 7.52776 5
      vertex 51.3494 7.4294 0
      vertex 51.15 7.52776 0
    endloop
  endfacet
  facet normal 0.321363 0.946956 -0
    outer loop
      vertex 51.56 7.35793 0
      vertex 51.3494 7.4294 5
      vertex 51.56 7.35793 5
    endloop
  endfacet
  facet normal 0.321363 0.946956 0
    outer loop
      vertex 51.3494 7.4294 5
      vertex 51.56 7.35793 0
      vertex 51.3494 7.4294 0
    endloop
  endfacet
  facet normal 0.659319 0.751863 -0
    outer loop
      vertex 50.9651 7.6513 0
      vertex 50.7979 7.79792 5
      vertex 50.9651 7.6513 5
    endloop
  endfacet
  facet normal 0.659319 0.751863 0
    outer loop
      vertex 50.7979 7.79792 5
      vertex 50.9651 7.6513 0
      vertex 50.7979 7.79792 0
    endloop
  endfacet
  facet normal -0.997872 0.0652057 0
    outer loop
      vertex 87.6855 8.7781 0
      vertex 87.7 9 5
      vertex 87.7 9 0
    endloop
  endfacet
  facet normal -0.997872 0.0652057 0
    outer loop
      vertex 87.7 9 5
      vertex 87.6855 8.7781 0
      vertex 87.6855 8.7781 5
    endloop
  endfacet
  facet normal 0.659268 -0.751908 0
    outer loop
      vertex 50.7979 10.2021 0
      vertex 50.9651 10.3487 5
      vertex 50.7979 10.2021 5
    endloop
  endfacet
  facet normal 0.659268 -0.751908 0
    outer loop
      vertex 50.9651 10.3487 5
      vertex 50.7979 10.2021 0
      vertex 50.9651 10.3487 0
    endloop
  endfacet
  facet normal 0.98077 -0.195165 0
    outer loop
      vertex 50.3145 9.22189 5
      vertex 50.3579 9.43999 0
      vertex 50.3579 9.43999 5
    endloop
  endfacet
  facet normal 0.98077 -0.195165 0
    outer loop
      vertex 50.3579 9.43999 0
      vertex 50.3145 9.22189 5
      vertex 50.3145 9.22189 0
    endloop
  endfacet
  facet normal 0.946901 0.321525 0
    outer loop
      vertex 50.4294 8.34944 5
      vertex 50.3579 8.56001 0
      vertex 50.3579 8.56001 5
    endloop
  endfacet
  facet normal 0.946901 0.321525 0
    outer loop
      vertex 50.3579 8.56001 0
      vertex 50.4294 8.34944 5
      vertex 50.4294 8.34944 0
    endloop
  endfacet
  facet normal 0.751888 0.659291 0
    outer loop
      vertex 50.7979 7.79792 5
      vertex 50.6513 7.96511 0
      vertex 50.6513 7.96511 5
    endloop
  endfacet
  facet normal 0.751888 0.659291 0
    outer loop
      vertex 50.6513 7.96511 0
      vertex 50.7979 7.79792 5
      vertex 50.7979 7.79792 0
    endloop
  endfacet
  facet normal 0.896789 0.442459 0
    outer loop
      vertex 50.5278 8.15 5
      vertex 50.4294 8.34944 0
      vertex 50.4294 8.34944 5
    endloop
  endfacet
  facet normal 0.896789 0.442459 0
    outer loop
      vertex 50.4294 8.34944 0
      vertex 50.5278 8.15 5
      vertex 50.5278 8.15 0
    endloop
  endfacet
  facet normal 0.195122 0.980779 -0
    outer loop
      vertex 51.7781 7.31454 0
      vertex 51.56 7.35793 5
      vertex 51.7781 7.31454 5
    endloop
  endfacet
  facet normal 0.195122 0.980779 0
    outer loop
      vertex 51.56 7.35793 5
      vertex 51.7781 7.31454 0
      vertex 51.56 7.35793 0
    endloop
  endfacet
  facet normal 0.555551 0.831483 -0
    outer loop
      vertex 51.15 7.52776 0
      vertex 50.9651 7.6513 5
      vertex 51.15 7.52776 5
    endloop
  endfacet
  facet normal 0.555551 0.831483 0
    outer loop
      vertex 50.9651 7.6513 5
      vertex 51.15 7.52776 0
      vertex 50.9651 7.6513 0
    endloop
  endfacet
  facet normal -0.831552 0.555447 0
    outer loop
      vertex 87.3487 7.96511 0
      vertex 87.4722 8.15 5
      vertex 87.4722 8.15 0
    endloop
  endfacet
  facet normal -0.831552 0.555447 0
    outer loop
      vertex 87.4722 8.15 5
      vertex 87.3487 7.96511 0
      vertex 87.3487 7.96511 5
    endloop
  endfacet
  facet normal -0.0653848 0.99786 0
    outer loop
      vertex 86.2219 7.31454 0
      vertex 86 7.3 5
      vertex 86.2219 7.31454 5
    endloop
  endfacet
  facet normal -0.0653848 0.99786 0
    outer loop
      vertex 86 7.3 5
      vertex 86.2219 7.31454 0
      vertex 86 7.3 0
    endloop
  endfacet
  facet normal -0.321363 0.946956 0
    outer loop
      vertex 86.6506 7.4294 0
      vertex 86.44 7.35793 5
      vertex 86.6506 7.4294 5
    endloop
  endfacet
  facet normal -0.321363 0.946956 0
    outer loop
      vertex 86.44 7.35793 5
      vertex 86.6506 7.4294 0
      vertex 86.44 7.35793 0
    endloop
  endfacet
  facet normal -0.44253 -0.896754 0
    outer loop
      vertex 86.6506 10.5706 0
      vertex 86.85 10.4722 5
      vertex 86.6506 10.5706 5
    endloop
  endfacet
  facet normal -0.44253 -0.896754 -0
    outer loop
      vertex 86.85 10.4722 5
      vertex 86.6506 10.5706 0
      vertex 86.85 10.4722 0
    endloop
  endfacet
  facet normal -0.321484 -0.946915 0
    outer loop
      vertex 86.44 10.6421 0
      vertex 86.6506 10.5706 5
      vertex 86.44 10.6421 5
    endloop
  endfacet
  facet normal -0.321484 -0.946915 -0
    outer loop
      vertex 86.6506 10.5706 5
      vertex 86.44 10.6421 0
      vertex 86.6506 10.5706 0
    endloop
  endfacet
  facet normal -0.0652057 -0.997872 0
    outer loop
      vertex 86 10.7 0
      vertex 86.2219 10.6855 5
      vertex 86 10.7 5
    endloop
  endfacet
  facet normal -0.0652057 -0.997872 -0
    outer loop
      vertex 86.2219 10.6855 5
      vertex 86 10.7 0
      vertex 86.2219 10.6855 0
    endloop
  endfacet
  facet normal -0.946901 -0.321525 0
    outer loop
      vertex 87.6421 9.43999 0
      vertex 87.5706 9.65056 5
      vertex 87.5706 9.65056 0
    endloop
  endfacet
  facet normal -0.946901 -0.321525 0
    outer loop
      vertex 87.5706 9.65056 5
      vertex 87.6421 9.43999 0
      vertex 87.6421 9.43999 5
    endloop
  endfacet
  facet normal -0.831566 -0.555426 0
    outer loop
      vertex 87.4722 9.85 0
      vertex 87.3487 10.0349 5
      vertex 87.3487 10.0349 0
    endloop
  endfacet
  facet normal -0.831566 -0.555426 0
    outer loop
      vertex 87.3487 10.0349 5
      vertex 87.4722 9.85 0
      vertex 87.4722 9.85 5
    endloop
  endfacet
  facet normal -0.98077 -0.195165 0
    outer loop
      vertex 87.6855 9.22189 0
      vertex 87.6421 9.43999 5
      vertex 87.6421 9.43999 0
    endloop
  endfacet
  facet normal -0.98077 -0.195165 0
    outer loop
      vertex 87.6421 9.43999 5
      vertex 87.6855 9.22189 0
      vertex 87.6855 9.22189 5
    endloop
  endfacet
  facet normal 0.321484 -0.946915 0
    outer loop
      vertex 51.3494 10.5706 0
      vertex 51.56 10.6421 5
      vertex 51.3494 10.5706 5
    endloop
  endfacet
  facet normal 0.321484 -0.946915 0
    outer loop
      vertex 51.56 10.6421 5
      vertex 51.3494 10.5706 0
      vertex 51.56 10.6421 0
    endloop
  endfacet
  facet normal 0.896789 -0.442459 0
    outer loop
      vertex 50.4294 9.65056 5
      vertex 50.5278 9.85 0
      vertex 50.5278 9.85 5
    endloop
  endfacet
  facet normal 0.896789 -0.442459 0
    outer loop
      vertex 50.5278 9.85 0
      vertex 50.4294 9.65056 5
      vertex 50.4294 9.65056 0
    endloop
  endfacet
  facet normal 0.751908 -0.659268 0
    outer loop
      vertex 50.6513 10.0349 5
      vertex 50.7979 10.2021 0
      vertex 50.7979 10.2021 5
    endloop
  endfacet
  facet normal 0.751908 -0.659268 0
    outer loop
      vertex 50.7979 10.2021 0
      vertex 50.6513 10.0349 5
      vertex 50.6513 10.0349 0
    endloop
  endfacet
  facet normal 0.946901 -0.321525 0
    outer loop
      vertex 50.3579 9.43999 5
      vertex 50.4294 9.65056 0
      vertex 50.4294 9.65056 5
    endloop
  endfacet
  facet normal 0.946901 -0.321525 0
    outer loop
      vertex 50.4294 9.65056 0
      vertex 50.3579 9.43999 5
      vertex 50.3579 9.43999 0
    endloop
  endfacet
  facet normal 0.980769 0.195173 0
    outer loop
      vertex 50.3579 8.56001 5
      vertex 50.3145 8.7781 0
      vertex 50.3145 8.7781 5
    endloop
  endfacet
  facet normal 0.980769 0.195173 0
    outer loop
      vertex 50.3145 8.7781 0
      vertex 50.3579 8.56001 5
      vertex 50.3579 8.56001 0
    endloop
  endfacet
  facet normal 0.831552 0.555447 0
    outer loop
      vertex 50.6513 7.96511 5
      vertex 50.5278 8.15 0
      vertex 50.5278 8.15 5
    endloop
  endfacet
  facet normal 0.831552 0.555447 0
    outer loop
      vertex 50.5278 8.15 0
      vertex 50.6513 7.96511 5
      vertex 50.6513 7.96511 0
    endloop
  endfacet
  facet normal 0.0653848 0.99786 -0
    outer loop
      vertex 52 7.3 0
      vertex 51.7781 7.31454 5
      vertex 52 7.3 5
    endloop
  endfacet
  facet normal 0.0653848 0.99786 0
    outer loop
      vertex 51.7781 7.31454 5
      vertex 52 7.3 0
      vertex 51.7781 7.31454 0
    endloop
  endfacet
  facet normal -0.195122 0.980779 0
    outer loop
      vertex 86.44 7.35793 0
      vertex 86.2219 7.31454 5
      vertex 86.44 7.35793 5
    endloop
  endfacet
  facet normal -0.195122 0.980779 0
    outer loop
      vertex 86.2219 7.31454 5
      vertex 86.44 7.35793 0
      vertex 86.2219 7.31454 0
    endloop
  endfacet
  facet normal -0.442386 0.896825 0
    outer loop
      vertex 86.85 7.52776 0
      vertex 86.6506 7.4294 5
      vertex 86.85 7.52776 5
    endloop
  endfacet
  facet normal -0.442386 0.896825 0
    outer loop
      vertex 86.6506 7.4294 5
      vertex 86.85 7.52776 0
      vertex 86.6506 7.4294 0
    endloop
  endfacet
  facet normal -0.659319 0.751863 0
    outer loop
      vertex 87.2021 7.79792 0
      vertex 87.0349 7.6513 5
      vertex 87.2021 7.79792 5
    endloop
  endfacet
  facet normal -0.659319 0.751863 0
    outer loop
      vertex 87.0349 7.6513 5
      vertex 87.2021 7.79792 0
      vertex 87.0349 7.6513 0
    endloop
  endfacet
  facet normal -0.555426 -0.831566 0
    outer loop
      vertex 86.85 10.4722 0
      vertex 87.0349 10.3487 5
      vertex 86.85 10.4722 5
    endloop
  endfacet
  facet normal -0.555426 -0.831566 -0
    outer loop
      vertex 87.0349 10.3487 5
      vertex 86.85 10.4722 0
      vertex 87.0349 10.3487 0
    endloop
  endfacet
  facet normal -0.659268 -0.751908 0
    outer loop
      vertex 87.0349 10.3487 0
      vertex 87.2021 10.2021 5
      vertex 87.0349 10.3487 5
    endloop
  endfacet
  facet normal -0.659268 -0.751908 -0
    outer loop
      vertex 87.2021 10.2021 5
      vertex 87.0349 10.3487 0
      vertex 87.2021 10.2021 0
    endloop
  endfacet
  facet normal -0.751908 -0.659268 0
    outer loop
      vertex 87.3487 10.0349 0
      vertex 87.2021 10.2021 5
      vertex 87.2021 10.2021 0
    endloop
  endfacet
  facet normal -0.751908 -0.659268 0
    outer loop
      vertex 87.2021 10.2021 5
      vertex 87.3487 10.0349 0
      vertex 87.3487 10.0349 5
    endloop
  endfacet
  facet normal -0.195165 -0.98077 0
    outer loop
      vertex 86.2219 10.6855 0
      vertex 86.44 10.6421 5
      vertex 86.2219 10.6855 5
    endloop
  endfacet
  facet normal -0.195165 -0.98077 -0
    outer loop
      vertex 86.44 10.6421 5
      vertex 86.2219 10.6855 0
      vertex 86.44 10.6421 0
    endloop
  endfacet
  facet normal -0.896789 -0.442459 0
    outer loop
      vertex 87.5706 9.65056 0
      vertex 87.4722 9.85 5
      vertex 87.4722 9.85 0
    endloop
  endfacet
  facet normal -0.896789 -0.442459 0
    outer loop
      vertex 87.4722 9.85 5
      vertex 87.5706 9.65056 0
      vertex 87.5706 9.65056 5
    endloop
  endfacet
  facet normal -0.997872 -0.0652086 0
    outer loop
      vertex 87.7 9 0
      vertex 87.6855 9.22189 5
      vertex 87.6855 9.22189 0
    endloop
  endfacet
  facet normal -0.997872 -0.0652086 0
    outer loop
      vertex 87.6855 9.22189 5
      vertex 87.7 9 0
      vertex 87.7 9 5
    endloop
  endfacet
  facet normal 0.555426 -0.831566 0
    outer loop
      vertex 50.9651 10.3487 0
      vertex 51.15 10.4722 5
      vertex 50.9651 10.3487 5
    endloop
  endfacet
  facet normal 0.555426 -0.831566 0
    outer loop
      vertex 51.15 10.4722 5
      vertex 50.9651 10.3487 0
      vertex 51.15 10.4722 0
    endloop
  endfacet
  facet normal 0.44253 -0.896754 0
    outer loop
      vertex 51.15 10.4722 0
      vertex 51.3494 10.5706 5
      vertex 51.15 10.4722 5
    endloop
  endfacet
  facet normal 0.44253 -0.896754 0
    outer loop
      vertex 51.3494 10.5706 5
      vertex 51.15 10.4722 0
      vertex 51.3494 10.5706 0
    endloop
  endfacet
  facet normal 0.195165 -0.98077 0
    outer loop
      vertex 51.56 10.6421 0
      vertex 51.7781 10.6855 5
      vertex 51.56 10.6421 5
    endloop
  endfacet
  facet normal 0.195165 -0.98077 0
    outer loop
      vertex 51.7781 10.6855 5
      vertex 51.56 10.6421 0
      vertex 51.7781 10.6855 0
    endloop
  endfacet
  facet normal 0.0652057 -0.997872 0
    outer loop
      vertex 51.7781 10.6855 0
      vertex 52 10.7 5
      vertex 51.7781 10.6855 5
    endloop
  endfacet
  facet normal 0.0652057 -0.997872 0
    outer loop
      vertex 52 10.7 5
      vertex 51.7781 10.6855 0
      vertex 52 10.7 0
    endloop
  endfacet
  facet normal 0.831566 -0.555426 0
    outer loop
      vertex 50.5278 9.85 5
      vertex 50.6513 10.0349 0
      vertex 50.6513 10.0349 5
    endloop
  endfacet
  facet normal 0.831566 -0.555426 0
    outer loop
      vertex 50.6513 10.0349 0
      vertex 50.5278 9.85 5
      vertex 50.5278 9.85 0
    endloop
  endfacet
  facet normal -0.555551 0.831483 0
    outer loop
      vertex 87.0349 7.6513 0
      vertex 86.85 7.52776 5
      vertex 87.0349 7.6513 5
    endloop
  endfacet
  facet normal -0.555551 0.831483 0
    outer loop
      vertex 86.85 7.52776 5
      vertex 87.0349 7.6513 0
      vertex 86.85 7.52776 0
    endloop
  endfacet
  facet normal -0.896789 0.442459 0
    outer loop
      vertex 87.4722 8.15 0
      vertex 87.5706 8.34944 5
      vertex 87.5706 8.34944 0
    endloop
  endfacet
  facet normal -0.896789 0.442459 0
    outer loop
      vertex 87.5706 8.34944 5
      vertex 87.4722 8.15 0
      vertex 87.4722 8.15 5
    endloop
  endfacet
  facet normal -0.751888 0.659291 0
    outer loop
      vertex 87.2021 7.79792 0
      vertex 87.3487 7.96511 5
      vertex 87.3487 7.96511 0
    endloop
  endfacet
  facet normal -0.751888 0.659291 0
    outer loop
      vertex 87.3487 7.96511 5
      vertex 87.2021 7.79792 0
      vertex 87.2021 7.79792 5
    endloop
  endfacet
  facet normal -0.946901 0.321525 0
    outer loop
      vertex 87.5706 8.34944 0
      vertex 87.6421 8.56001 5
      vertex 87.6421 8.56001 0
    endloop
  endfacet
  facet normal -0.946901 0.321525 0
    outer loop
      vertex 87.6421 8.56001 5
      vertex 87.5706 8.34944 0
      vertex 87.5706 8.34944 5
    endloop
  endfacet
  facet normal -0.997859 -0.0654026 0
    outer loop
      vertex 0.0256653 2.60842 0
      vertex 0 3 5
      vertex 0 3 0
    endloop
  endfacet
  facet normal -0.997859 -0.0654026 0
    outer loop
      vertex 0 3 5
      vertex 0.0256653 2.60842 0
      vertex 0.0256653 2.60842 5
    endloop
  endfacet
  facet normal 0.0653993 -0.997859 0
    outer loop
      vertex 89 0 0
      vertex 89.3916 0.0256653 5
      vertex 89 0 5
    endloop
  endfacet
  facet normal 0.0653993 -0.997859 0
    outer loop
      vertex 89.3916 0.0256653 5
      vertex 89 0 0
      vertex 89.3916 0.0256653 0
    endloop
  endfacet
  facet normal -0.19495 0.980813 0
    outer loop
      vertex 2.60842 17.9743 0
      vertex 2.22354 17.8978 5
      vertex 2.60842 17.9743 5
    endloop
  endfacet
  facet normal -0.19495 0.980813 0
    outer loop
      vertex 2.22354 17.8978 5
      vertex 2.60842 17.9743 0
      vertex 2.22354 17.8978 0
    endloop
  endfacet
  facet normal -0.0654026 -0.997859 0
    outer loop
      vertex 2.60842 0.0256653 0
      vertex 3 0 5
      vertex 2.60842 0.0256653 5
    endloop
  endfacet
  facet normal -0.0654026 -0.997859 -0
    outer loop
      vertex 3 0 5
      vertex 2.60842 0.0256653 0
      vertex 3 0 0
    endloop
  endfacet
  facet normal -0.946929 -0.321442 0
    outer loop
      vertex 0.228361 1.85195 0
      vertex 0.102222 2.22354 5
      vertex 0.102222 2.22354 0
    endloop
  endfacet
  facet normal -0.946929 -0.321442 0
    outer loop
      vertex 0.102222 2.22354 5
      vertex 0.228361 1.85195 0
      vertex 0.228361 1.85195 5
    endloop
  endfacet
  facet normal -0.0654906 0.997853 0
    outer loop
      vertex 3 18 0
      vertex 2.60842 17.9743 5
      vertex 3 18 5
    endloop
  endfacet
  facet normal -0.0654906 0.997853 0
    outer loop
      vertex 2.60842 17.9743 5
      vertex 3 18 0
      vertex 2.60842 17.9743 0
    endloop
  endfacet
  facet normal 0.980813 -0.19495 0
    outer loop
      vertex 91.8978 2.22354 5
      vertex 91.9743 2.60842 0
      vertex 91.9743 2.60842 5
    endloop
  endfacet
  facet normal 0.980813 -0.19495 0
    outer loop
      vertex 91.9743 2.60842 0
      vertex 91.8978 2.22354 5
      vertex 91.8978 2.22354 0
    endloop
  endfacet
  facet normal 0.997853 -0.0654906 0
    outer loop
      vertex 91.9743 2.60842 5
      vertex 92 3 0
      vertex 92 3 5
    endloop
  endfacet
  facet normal 0.997853 -0.0654906 0
    outer loop
      vertex 92 3 0
      vertex 91.9743 2.60842 5
      vertex 91.9743 2.60842 0
    endloop
  endfacet
  facet normal 0.65939 -0.751801 0
    outer loop
      vertex 90.8263 0.61994 0
      vertex 91.1213 0.878679 5
      vertex 90.8263 0.61994 5
    endloop
  endfacet
  facet normal 0.65939 -0.751801 0
    outer loop
      vertex 91.1213 0.878679 5
      vertex 90.8263 0.61994 0
      vertex 91.1213 0.878679 0
    endloop
  endfacet
  facet normal -0.997859 0.0653993 0
    outer loop
      vertex 0 15 0
      vertex 0.0256653 15.3916 5
      vertex 0.0256653 15.3916 0
    endloop
  endfacet
  facet normal -0.997859 0.0653993 0
    outer loop
      vertex 0.0256653 15.3916 5
      vertex 0 15 0
      vertex 0 15 5
    endloop
  endfacet
  facet normal 0 0 1
    outer loop
      vertex 89 18 5
      vertex 92 15 5
      vertex 91.9743 15.3916 5
    endloop
  endfacet
  facet normal 0 0 1
    outer loop
      vertex 92 15 5
      vertex 87.7 9 5
      vertex 92 3 5
    endloop
  endfacet
  facet normal 0 0 1
    outer loop
      vertex 89 18 5
      vertex 91.9743 15.3916 5
      vertex 91.8978 15.7765 5
    endloop
  endfacet
  facet normal -0 0 1
    outer loop
      vertex 87.6855 8.7781 5
      vertex 92 3 5
      vertex 87.7 9 5
    endloop
  endfacet
  facet normal 0 0 1
    outer loop
      vertex 89 18 5
      vertex 91.8978 15.7765 5
      vertex 91.7716 16.148 5
    endloop
  endfacet
  facet normal -0 0 1
    outer loop
      vertex 87.6421 8.56001 5
      vertex 92 3 5
      vertex 87.6855 8.7781 5
    endloop
  endfacet
  facet normal 0 0 1
    outer loop
      vertex 89 18 5
      vertex 91.7716 16.148 5
      vertex 91.5981 16.5 5
    endloop
  endfacet
  facet normal -0 0 1
    outer loop
      vertex 87.5706 8.34944 5
      vertex 92 3 5
      vertex 87.6421 8.56001 5
    endloop
  endfacet
  facet normal 0 0 1
    outer loop
      vertex 89 18 5
      vertex 91.5981 16.5 5
      vertex 91.3801 16.8263 5
    endloop
  endfacet
  facet normal -0 0 1
    outer loop
      vertex 87.4722 8.15 5
      vertex 92 3 5
      vertex 87.5706 8.34944 5
    endloop
  endfacet
  facet normal 0 0 1
    outer loop
      vertex 89 18 5
      vertex 91.3801 16.8263 5
      vertex 91.1213 17.1213 5
    endloop
  endfacet
  facet normal -0 0 1
    outer loop
      vertex 87.3487 7.96511 5
      vertex 92 3 5
      vertex 87.4722 8.15 5
    endloop
  endfacet
  facet normal 0 0 1
    outer loop
      vertex 89 18 5
      vertex 91.1213 17.1213 5
      vertex 90.8263 17.3801 5
    endloop
  endfacet
  facet normal -0 0 1
    outer loop
      vertex 87.2021 7.79792 5
      vertex 92 3 5
      vertex 87.3487 7.96511 5
    endloop
  endfacet
  facet normal 0 0 1
    outer loop
      vertex 89 18 5
      vertex 90.8263 17.3801 5
      vertex 90.5 17.5981 5
    endloop
  endfacet
  facet normal -0 0 1
    outer loop
      vertex 87.0349 7.6513 5
      vertex 92 3 5
      vertex 87.2021 7.79792 5
    endloop
  endfacet
  facet normal 0 0 1
    outer loop
      vertex 89 18 5
      vertex 90.5 17.5981 5
      vertex 90.148 17.7716 5
    endloop
  endfacet
  facet normal -0 0 1
    outer loop
      vertex 86.85 7.52776 5
      vertex 92 3 5
      vertex 87.0349 7.6513 5
    endloop
  endfacet
  facet normal 0 0 1
    outer loop
      vertex 89 18 5
      vertex 90.148 17.7716 5
      vertex 89.7765 17.8978 5
    endloop
  endfacet
  facet normal -0 0 1
    outer loop
      vertex 86.6506 7.4294 5
      vertex 92 3 5
      vertex 86.85 7.52776 5
    endloop
  endfacet
  facet normal 0 0 1
    outer loop
      vertex 89 18 5
      vertex 89.7765 17.8978 5
      vertex 89.3916 17.9743 5
    endloop
  endfacet
  facet normal 0 -0 1
    outer loop
      vertex 89 0 5
      vertex 92 3 5
      vertex 86.6506 7.4294 5
    endloop
  endfacet
  facet normal 0 0 1
    outer loop
      vertex 92 15 5
      vertex 89 18 5
      vertex 86.6506 10.5706 5
    endloop
  endfacet
  facet normal 0 0 1
    outer loop
      vertex 92 3 5
      vertex 89 0 5
      vertex 91.9743 2.60842 5
    endloop
  endfacet
  facet normal 0 0 1
    outer loop
      vertex 91.9743 2.60842 5
      vertex 89 0 5
      vertex 91.8978 2.22354 5
    endloop
  endfacet
  facet normal 0 0 1
    outer loop
      vertex 92 15 5
      vertex 87.6855 9.22189 5
      vertex 87.7 9 5
    endloop
  endfacet
  facet normal 0 0 1
    outer loop
      vertex 92 15 5
      vertex 87.6421 9.43999 5
      vertex 87.6855 9.22189 5
    endloop
  endfacet
  facet normal 0 0 1
    outer loop
      vertex 92 15 5
      vertex 87.5706 9.65056 5
      vertex 87.6421 9.43999 5
    endloop
  endfacet
  facet normal 0 0 1
    outer loop
      vertex 92 15 5
      vertex 87.4722 9.85 5
      vertex 87.5706 9.65056 5
    endloop
  endfacet
  facet normal 0 0 1
    outer loop
      vertex 92 15 5
      vertex 87.3487 10.0349 5
      vertex 87.4722 9.85 5
    endloop
  endfacet
  facet normal 0 0 1
    outer loop
      vertex 92 15 5
      vertex 87.2021 10.2021 5
      vertex 87.3487 10.0349 5
    endloop
  endfacet
  facet normal 0 0 1
    outer loop
      vertex 92 15 5
      vertex 87.0349 10.3487 5
      vertex 87.2021 10.2021 5
    endloop
  endfacet
  facet normal 0 0 1
    outer loop
      vertex 92 15 5
      vertex 86.85 10.4722 5
      vertex 87.0349 10.3487 5
    endloop
  endfacet
  facet normal 0 0 1
    outer loop
      vertex 92 15 5
      vertex 86.6506 10.5706 5
      vertex 86.85 10.4722 5
    endloop
  endfacet
  facet normal 0 0 1
    outer loop
      vertex 89 18 5
      vertex 86.44 10.6421 5
      vertex 86.6506 10.5706 5
    endloop
  endfacet
  facet normal 0 0 1
    outer loop
      vertex 89 18 5
      vertex 86.2219 10.6855 5
      vertex 86.44 10.6421 5
    endloop
  endfacet
  facet normal 0 0 1
    outer loop
      vertex 89 18 5
      vertex 86 10.7 5
      vertex 86.2219 10.6855 5
    endloop
  endfacet
  facet normal 0 0 1
    outer loop
      vertex 89 18 5
      vertex 52 10.7 5
      vertex 86 10.7 5
    endloop
  endfacet
  facet normal 0 0 1
    outer loop
      vertex 40 10.7 5
      vertex 52 10.7 5
      vertex 89 18 5
    endloop
  endfacet
  facet normal 0 0 1
    outer loop
      vertex 50.3145 9.22189 5
      vertex 41.7 9 5
      vertex 50.3 9 5
    endloop
  endfacet
  facet normal 0 0 1
    outer loop
      vertex 41.6855 9.22189 5
      vertex 50.3145 9.22189 5
      vertex 50.3579 9.43999 5
    endloop
  endfacet
  facet normal 0 0 1
    outer loop
      vertex 41.6421 9.43999 5
      vertex 50.3579 9.43999 5
      vertex 50.4294 9.65056 5
    endloop
  endfacet
  facet normal 0 0 1
    outer loop
      vertex 41.5706 9.65056 5
      vertex 50.4294 9.65056 5
      vertex 50.5278 9.85 5
    endloop
  endfacet
  facet normal 0 0 1
    outer loop
      vertex 41.4722 9.85 5
      vertex 50.5278 9.85 5
      vertex 50.6513 10.0349 5
    endloop
  endfacet
  facet normal 0 0 1
    outer loop
      vertex 41.3487 10.0349 5
      vertex 50.6513 10.0349 5
      vertex 50.7979 10.2021 5
    endloop
  endfacet
  facet normal 0 0 1
    outer loop
      vertex 41.2021 10.2021 5
      vertex 50.7979 10.2021 5
      vertex 50.9651 10.3487 5
    endloop
  endfacet
  facet normal 0 0 1
    outer loop
      vertex 41.0349 10.3487 5
      vertex 50.9651 10.3487 5
      vertex 51.15 10.4722 5
    endloop
  endfacet
  facet normal 0 0 1
    outer loop
      vertex 40.85 10.4722 5
      vertex 51.15 10.4722 5
      vertex 51.3494 10.5706 5
    endloop
  endfacet
  facet normal 0 0 1
    outer loop
      vertex 40.6506 10.5706 5
      vertex 51.3494 10.5706 5
      vertex 51.56 10.6421 5
    endloop
  endfacet
  facet normal 0 0 1
    outer loop
      vertex 40.44 10.6421 5
      vertex 51.56 10.6421 5
      vertex 51.7781 10.6855 5
    endloop
  endfacet
  facet normal 0 0 1
    outer loop
      vertex 52 10.7 5
      vertex 40 10.7 5
      vertex 51.7781 10.6855 5
    endloop
  endfacet
  facet normal 0 0 1
    outer loop
      vertex 50.3145 9.22189 5
      vertex 41.6855 9.22189 5
      vertex 41.7 9 5
    endloop
  endfacet
  facet normal 0 0 1
    outer loop
      vertex 50.3579 9.43999 5
      vertex 41.6421 9.43999 5
      vertex 41.6855 9.22189 5
    endloop
  endfacet
  facet normal 0 0 1
    outer loop
      vertex 50.4294 9.65056 5
      vertex 41.5706 9.65056 5
      vertex 41.6421 9.43999 5
    endloop
  endfacet
  facet normal 0 0 1
    outer loop
      vertex 50.5278 9.85 5
      vertex 41.4722 9.85 5
      vertex 41.5706 9.65056 5
    endloop
  endfacet
  facet normal 0 0 1
    outer loop
      vertex 50.6513 10.0349 5
      vertex 41.3487 10.0349 5
      vertex 41.4722 9.85 5
    endloop
  endfacet
  facet normal 0 0 1
    outer loop
      vertex 50.7979 10.2021 5
      vertex 41.2021 10.2021 5
      vertex 41.3487 10.0349 5
    endloop
  endfacet
  facet normal 0 0 1
    outer loop
      vertex 50.9651 10.3487 5
      vertex 41.0349 10.3487 5
      vertex 41.2021 10.2021 5
    endloop
  endfacet
  facet normal 0 0 1
    outer loop
      vertex 51.15 10.4722 5
      vertex 40.85 10.4722 5
      vertex 41.0349 10.3487 5
    endloop
  endfacet
  facet normal 0 0 1
    outer loop
      vertex 51.3494 10.5706 5
      vertex 40.6506 10.5706 5
      vertex 40.85 10.4722 5
    endloop
  endfacet
  facet normal 0 0 1
    outer loop
      vertex 51.56 10.6421 5
      vertex 40.44 10.6421 5
      vertex 40.6506 10.5706 5
    endloop
  endfacet
  facet normal 0 0 1
    outer loop
      vertex 51.7781 10.6855 5
      vertex 40.2219 10.6855 5
      vertex 40.44 10.6421 5
    endloop
  endfacet
  facet normal 0 0 1
    outer loop
      vertex 51.7781 10.6855 5
      vertex 40 10.7 5
      vertex 40.2219 10.6855 5
    endloop
  endfacet
  facet normal -0 0 1
    outer loop
      vertex 3 18 5
      vertex 40 10.7 5
      vertex 89 18 5
    endloop
  endfacet
  facet normal 0 0 1
    outer loop
      vertex 40 10.7 5
      vertex 3 18 5
      vertex 6 10.7 5
    endloop
  endfacet
  facet normal 0 0 1
    outer loop
      vertex 4.35793 9.43999 5
      vertex 0 15 5
      vertex 4.31454 9.22189 5
    endloop
  endfacet
  facet normal 0 0 1
    outer loop
      vertex 4.4294 9.65056 5
      vertex 0 15 5
      vertex 4.35793 9.43999 5
    endloop
  endfacet
  facet normal 0 0 1
    outer loop
      vertex 4.52776 9.85 5
      vertex 0 15 5
      vertex 4.4294 9.65056 5
    endloop
  endfacet
  facet normal 0 0 1
    outer loop
      vertex 4.6513 10.0349 5
      vertex 0 15 5
      vertex 4.52776 9.85 5
    endloop
  endfacet
  facet normal 0 0 1
    outer loop
      vertex 4.79792 10.2021 5
      vertex 0 15 5
      vertex 4.6513 10.0349 5
    endloop
  endfacet
  facet normal 0 0 1
    outer loop
      vertex 4.96511 10.3487 5
      vertex 0 15 5
      vertex 4.79792 10.2021 5
    endloop
  endfacet
  facet normal 0 0 1
    outer loop
      vertex 5.15 10.4722 5
      vertex 0 15 5
      vertex 4.96511 10.3487 5
    endloop
  endfacet
  facet normal 0 0 1
    outer loop
      vertex 5.34944 10.5706 5
      vertex 0 15 5
      vertex 5.15 10.4722 5
    endloop
  endfacet
  facet normal -0 0 1
    outer loop
      vertex 0 15 5
      vertex 5.34944 10.5706 5
      vertex 3 18 5
    endloop
  endfacet
  facet normal 0 0 1
    outer loop
      vertex 5.56001 10.6421 5
      vertex 3 18 5
      vertex 5.34944 10.5706 5
    endloop
  endfacet
  facet normal 0 0 1
    outer loop
      vertex 5.7781 10.6855 5
      vertex 3 18 5
      vertex 5.56001 10.6421 5
    endloop
  endfacet
  facet normal 0 0 1
    outer loop
      vertex 6 10.7 5
      vertex 3 18 5
      vertex 5.7781 10.6855 5
    endloop
  endfacet
  facet normal 0 0 1
    outer loop
      vertex 91.7716 1.85195 5
      vertex 89 0 5
      vertex 91.5981 1.5 5
    endloop
  endfacet
  facet normal 0 0 1
    outer loop
      vertex 91.5981 1.5 5
      vertex 89 0 5
      vertex 91.3801 1.17372 5
    endloop
  endfacet
  facet normal 0 0 1
    outer loop
      vertex 91.3801 1.17372 5
      vertex 89 0 5
      vertex 91.1213 0.878679 5
    endloop
  endfacet
  facet normal 0 0 1
    outer loop
      vertex 91.1213 0.878679 5
      vertex 89 0 5
      vertex 90.8263 0.61994 5
    endloop
  endfacet
  facet normal 0 0 1
    outer loop
      vertex 90.8263 0.61994 5
      vertex 89 0 5
      vertex 90.5 0.401923 5
    endloop
  endfacet
  facet normal 0 0 1
    outer loop
      vertex 90.5 0.401923 5
      vertex 89 0 5
      vertex 90.148 0.228361 5
    endloop
  endfacet
  facet normal 0 0 1
    outer loop
      vertex 90.148 0.228361 5
      vertex 89 0 5
      vertex 89.7765 0.102222 5
    endloop
  endfacet
  facet normal 0 0 1
    outer loop
      vertex 89.7765 0.102222 5
      vertex 89 0 5
      vertex 89.3916 0.0256653 5
    endloop
  endfacet
  facet normal 0 0 1
    outer loop
      vertex 91.8978 2.22354 5
      vertex 89 0 5
      vertex 91.7716 1.85195 5
    endloop
  endfacet
  facet normal -0 0 1
    outer loop
      vertex 86.44 7.35793 5
      vertex 89 0 5
      vertex 86.6506 7.4294 5
    endloop
  endfacet
  facet normal -0 0 1
    outer loop
      vertex 86.2219 7.31454 5
      vertex 89 0 5
      vertex 86.44 7.35793 5
    endloop
  endfacet
  facet normal -0 0 1
    outer loop
      vertex 86 7.3 5
      vertex 89 0 5
      vertex 86.2219 7.31454 5
    endloop
  endfacet
  facet normal -0 0 1
    outer loop
      vertex 52 7.3 5
      vertex 89 0 5
      vertex 86 7.3 5
    endloop
  endfacet
  facet normal 0 0 1
    outer loop
      vertex 40 7.3 5
      vertex 52 7.3 5
      vertex 51.7781 7.31454 5
    endloop
  endfacet
  facet normal -0 0 1
    outer loop
      vertex 41.7 9 5
      vertex 50.3145 8.7781 5
      vertex 50.3 9 5
    endloop
  endfacet
  facet normal 0 0 1
    outer loop
      vertex 41.6855 8.7781 5
      vertex 50.3145 8.7781 5
      vertex 41.7 9 5
    endloop
  endfacet
  facet normal 0 0 1
    outer loop
      vertex 50.3145 8.7781 5
      vertex 41.6855 8.7781 5
      vertex 50.3579 8.56001 5
    endloop
  endfacet
  facet normal 0 0 1
    outer loop
      vertex 41.6421 8.56001 5
      vertex 50.3579 8.56001 5
      vertex 41.6855 8.7781 5
    endloop
  endfacet
  facet normal 0 0 1
    outer loop
      vertex 50.3579 8.56001 5
      vertex 41.6421 8.56001 5
      vertex 50.4294 8.34944 5
    endloop
  endfacet
  facet normal 0 0 1
    outer loop
      vertex 41.5706 8.34944 5
      vertex 50.4294 8.34944 5
      vertex 41.6421 8.56001 5
    endloop
  endfacet
  facet normal 0 0 1
    outer loop
      vertex 50.4294 8.34944 5
      vertex 41.5706 8.34944 5
      vertex 50.5278 8.15 5
    endloop
  endfacet
  facet normal 0 0 1
    outer loop
      vertex 41.4722 8.15 5
      vertex 50.5278 8.15 5
      vertex 41.5706 8.34944 5
    endloop
  endfacet
  facet normal 0 0 1
    outer loop
      vertex 50.5278 8.15 5
      vertex 41.4722 8.15 5
      vertex 50.6513 7.96511 5
    endloop
  endfacet
  facet normal 0 0 1
    outer loop
      vertex 41.3487 7.96511 5
      vertex 50.6513 7.96511 5
      vertex 41.4722 8.15 5
    endloop
  endfacet
  facet normal 0 0 1
    outer loop
      vertex 50.6513 7.96511 5
      vertex 41.3487 7.96511 5
      vertex 50.7979 7.79792 5
    endloop
  endfacet
  facet normal 0 0 1
    outer loop
      vertex 41.2021 7.79792 5
      vertex 50.7979 7.79792 5
      vertex 41.3487 7.96511 5
    endloop
  endfacet
  facet normal 0 0 1
    outer loop
      vertex 50.7979 7.79792 5
      vertex 41.2021 7.79792 5
      vertex 50.9651 7.6513 5
    endloop
  endfacet
  facet normal 0 0 1
    outer loop
      vertex 41.0349 7.6513 5
      vertex 50.9651 7.6513 5
      vertex 41.2021 7.79792 5
    endloop
  endfacet
  facet normal 0 0 1
    outer loop
      vertex 50.9651 7.6513 5
      vertex 41.0349 7.6513 5
      vertex 51.15 7.52776 5
    endloop
  endfacet
  facet normal 0 0 1
    outer loop
      vertex 40.85 7.52776 5
      vertex 51.15 7.52776 5
      vertex 41.0349 7.6513 5
    endloop
  endfacet
  facet normal 0 0 1
    outer loop
      vertex 51.15 7.52776 5
      vertex 40.85 7.52776 5
      vertex 51.3494 7.4294 5
    endloop
  endfacet
  facet normal 0 0 1
    outer loop
      vertex 40.6506 7.4294 5
      vertex 51.3494 7.4294 5
      vertex 40.85 7.52776 5
    endloop
  endfacet
  facet normal 0 0 1
    outer loop
      vertex 51.3494 7.4294 5
      vertex 40.6506 7.4294 5
      vertex 51.56 7.35793 5
    endloop
  endfacet
  facet normal 0 0 1
    outer loop
      vertex 40.44 7.35793 5
      vertex 51.56 7.35793 5
      vertex 40.6506 7.4294 5
    endloop
  endfacet
  facet normal 0 0 1
    outer loop
      vertex 51.56 7.35793 5
      vertex 40.44 7.35793 5
      vertex 51.7781 7.31454 5
    endloop
  endfacet
  facet normal 0 0 1
    outer loop
      vertex 40.2219 7.31454 5
      vertex 51.7781 7.31454 5
      vertex 40.44 7.35793 5
    endloop
  endfacet
  facet normal 0 0 1
    outer loop
      vertex 40 7.3 5
      vertex 51.7781 7.31454 5
      vertex 40.2219 7.31454 5
    endloop
  endfacet
  facet normal 0 0 1
    outer loop
      vertex 52 7.3 5
      vertex 40 7.3 5
      vertex 89 0 5
    endloop
  endfacet
  facet normal 0 0 1
    outer loop
      vertex 3 0 5
      vertex 40 7.3 5
      vertex 6 7.3 5
    endloop
  endfacet
  facet normal 0 0 1
    outer loop
      vertex 3 0 5
      vertex 6 7.3 5
      vertex 5.7781 7.31454 5
    endloop
  endfacet
  facet normal 0 0 1
    outer loop
      vertex 4.31454 9.22189 5
      vertex 0 15 5
      vertex 4.3 9 5
    endloop
  endfacet
  facet normal 0 0 1
    outer loop
      vertex 40 7.3 5
      vertex 3 0 5
      vertex 89 0 5
    endloop
  endfacet
  facet normal 0 0 1
    outer loop
      vertex 5.56001 7.35793 5
      vertex 3 0 5
      vertex 5.7781 7.31454 5
    endloop
  endfacet
  facet normal 0 0 1
    outer loop
      vertex 5.34944 7.4294 5
      vertex 3 0 5
      vertex 5.56001 7.35793 5
    endloop
  endfacet
  facet normal 0 0 1
    outer loop
      vertex 0 3 5
      vertex 5.34944 7.4294 5
      vertex 5.15 7.52776 5
    endloop
  endfacet
  facet normal 0 0 1
    outer loop
      vertex 0 3 5
      vertex 5.15 7.52776 5
      vertex 4.96511 7.6513 5
    endloop
  endfacet
  facet normal 0 0 1
    outer loop
      vertex 0 3 5
      vertex 4.96511 7.6513 5
      vertex 4.79792 7.79792 5
    endloop
  endfacet
  facet normal 0 0 1
    outer loop
      vertex 0 3 5
      vertex 4.79792 7.79792 5
      vertex 4.6513 7.96511 5
    endloop
  endfacet
  facet normal 0 0 1
    outer loop
      vertex 0 3 5
      vertex 4.6513 7.96511 5
      vertex 4.52776 8.15 5
    endloop
  endfacet
  facet normal 0 0 1
    outer loop
      vertex 0 3 5
      vertex 4.52776 8.15 5
      vertex 4.4294 8.34944 5
    endloop
  endfacet
  facet normal 0 0 1
    outer loop
      vertex 0 3 5
      vertex 4.4294 8.34944 5
      vertex 4.35793 8.56001 5
    endloop
  endfacet
  facet normal 0 0 1
    outer loop
      vertex 0 3 5
      vertex 4.35793 8.56001 5
      vertex 4.31454 8.7781 5
    endloop
  endfacet
  facet normal 0 0 1
    outer loop
      vertex 0 3 5
      vertex 4.3 9 5
      vertex 0 15 5
    endloop
  endfacet
  facet normal 0 0 1
    outer loop
      vertex 0 15 5
      vertex 3 18 5
      vertex 2.60842 17.9743 5
    endloop
  endfacet
  facet normal 0 0 1
    outer loop
      vertex 4.3 9 5
      vertex 0 3 5
      vertex 4.31454 8.7781 5
    endloop
  endfacet
  facet normal 0 0 1
    outer loop
      vertex 0 15 5
      vertex 2.60842 17.9743 5
      vertex 2.22354 17.8978 5
    endloop
  endfacet
  facet normal 0 0 1
    outer loop
      vertex 5.34944 7.4294 5
      vertex 0 3 5
      vertex 3 0 5
    endloop
  endfacet
  facet normal 0 0 1
    outer loop
      vertex 0 15 5
      vertex 2.22354 17.8978 5
      vertex 1.85195 17.7716 5
    endloop
  endfacet
  facet normal 0 0 1
    outer loop
      vertex 3 0 5
      vertex 0 3 5
      vertex 2.60842 0.0256653 5
    endloop
  endfacet
  facet normal 0 0 1
    outer loop
      vertex 0 15 5
      vertex 1.85195 17.7716 5
      vertex 1.5 17.5981 5
    endloop
  endfacet
  facet normal 0 0 1
    outer loop
      vertex 2.60842 0.0256653 5
      vertex 0 3 5
      vertex 2.22354 0.102222 5
    endloop
  endfacet
  facet normal 0 0 1
    outer loop
      vertex 0 15 5
      vertex 1.5 17.5981 5
      vertex 1.17372 17.3801 5
    endloop
  endfacet
  facet normal 0 0 1
    outer loop
      vertex 2.22354 0.102222 5
      vertex 0 3 5
      vertex 1.85195 0.228361 5
    endloop
  endfacet
  facet normal 0 0 1
    outer loop
      vertex 0 15 5
      vertex 1.17372 17.3801 5
      vertex 0.878679 17.1213 5
    endloop
  endfacet
  facet normal 0 0 1
    outer loop
      vertex 1.85195 0.228361 5
      vertex 0 3 5
      vertex 1.5 0.401923 5
    endloop
  endfacet
  facet normal 0 0 1
    outer loop
      vertex 0 15 5
      vertex 0.878679 17.1213 5
      vertex 0.61994 16.8263 5
    endloop
  endfacet
  facet normal 0 0 1
    outer loop
      vertex 1.5 0.401923 5
      vertex 0 3 5
      vertex 1.17372 0.61994 5
    endloop
  endfacet
  facet normal 0 0 1
    outer loop
      vertex 0 15 5
      vertex 0.61994 16.8263 5
      vertex 0.401923 16.5 5
    endloop
  endfacet
  facet normal 0 0 1
    outer loop
      vertex 1.17372 0.61994 5
      vertex 0 3 5
      vertex 0.878679 0.878679 5
    endloop
  endfacet
  facet normal 0 0 1
    outer loop
      vertex 0 15 5
      vertex 0.401923 16.5 5
      vertex 0.228361 16.148 5
    endloop
  endfacet
  facet normal 0 0 1
    outer loop
      vertex 0.878679 0.878679 5
      vertex 0 3 5
      vertex 0.61994 1.17372 5
    endloop
  endfacet
  facet normal 0 0 1
    outer loop
      vertex 0 15 5
      vertex 0.228361 16.148 5
      vertex 0.102222 15.7765 5
    endloop
  endfacet
  facet normal 0 0 1
    outer loop
      vertex 0.61994 1.17372 5
      vertex 0 3 5
      vertex 0.401923 1.5 5
    endloop
  endfacet
  facet normal 0 0 1
    outer loop
      vertex 0 15 5
      vertex 0.102222 15.7765 5
      vertex 0.0256653 15.3916 5
    endloop
  endfacet
  facet normal 0 0 1
    outer loop
      vertex 0.401923 1.5 5
      vertex 0 3 5
      vertex 0.228361 1.85195 5
    endloop
  endfacet
  facet normal 0 0 1
    outer loop
      vertex 0.228361 1.85195 5
      vertex 0 3 5
      vertex 0.102222 2.22354 5
    endloop
  endfacet
  facet normal 0 0 1
    outer loop
      vertex 0.102222 2.22354 5
      vertex 0 3 5
      vertex 0.0256653 2.60842 5
    endloop
  endfacet
  facet normal -0.980788 0.195079 0
    outer loop
      vertex 0.0256653 15.3916 0
      vertex 0.102222 15.7765 5
      vertex 0.102222 15.7765 0
    endloop
  endfacet
  facet normal -0.980788 0.195079 0
    outer loop
      vertex 0.102222 15.7765 5
      vertex 0.0256653 15.3916 0
      vertex 0.0256653 15.3916 5
    endloop
  endfacet
  facet normal 0 -1 0
    outer loop
      vertex 3 0 0
      vertex 89 0 5
      vertex 3 0 5
    endloop
  endfacet
  facet normal 0 -1 -0
    outer loop
      vertex 89 0 5
      vertex 3 0 0
      vertex 89 0 0
    endloop
  endfacet
  facet normal 0 1 -0
    outer loop
      vertex 89 18 0
      vertex 3 18 5
      vertex 89 18 5
    endloop
  endfacet
  facet normal 0 1 0
    outer loop
      vertex 3 18 5
      vertex 89 18 0
      vertex 3 18 0
    endloop
  endfacet
  facet normal 0.896961 0.44211 0
    outer loop
      vertex 91.7716 16.148 5
      vertex 91.5981 16.5 0
      vertex 91.5981 16.5 5
    endloop
  endfacet
  facet normal 0.896961 0.44211 0
    outer loop
      vertex 91.5981 16.5 0
      vertex 91.7716 16.148 5
      vertex 91.7716 16.148 0
    endloop
  endfacet
  facet normal 1 -0 0
    outer loop
      vertex 92 3 5
      vertex 92 15 0
      vertex 92 15 5
    endloop
  endfacet
  facet normal 1 0 0
    outer loop
      vertex 92 15 0
      vertex 92 3 5
      vertex 92 3 0
    endloop
  endfacet
  facet normal 0.442237 -0.896898 0
    outer loop
      vertex 90.148 0.228361 0
      vertex 90.5 0.401923 5
      vertex 90.148 0.228361 5
    endloop
  endfacet
  facet normal 0.442237 -0.896898 0
    outer loop
      vertex 90.5 0.401923 5
      vertex 90.148 0.228361 0
      vertex 90.5 0.401923 0
    endloop
  endfacet
  facet normal -1 0 0
    outer loop
      vertex 0 3 0
      vertex 0 15 5
      vertex 0 15 0
    endloop
  endfacet
  facet normal -1 -0 0
    outer loop
      vertex 0 15 5
      vertex 0 3 0
      vertex 0 3 5
    endloop
  endfacet
  facet normal 0 0 -1
    outer loop
      vertex 89 0 0
      vertex 92 3 0
      vertex 91.9743 2.60842 0
    endloop
  endfacet
  facet normal 0 0 -1
    outer loop
      vertex 92 3 0
      vertex 87.7 9 0
      vertex 92 15 0
    endloop
  endfacet
  facet normal 0 0 -1
    outer loop
      vertex 89 0 0
      vertex 91.9743 2.60842 0
      vertex 91.8978 2.22354 0
    endloop
  endfacet
  facet normal 0 0 -1
    outer loop
      vertex 87.6855 9.22189 0
      vertex 92 15 0
      vertex 87.7 9 0
    endloop
  endfacet
  facet normal 0 0 -1
    outer loop
      vertex 89 0 0
      vertex 91.8978 2.22354 0
      vertex 91.7716 1.85195 0
    endloop
  endfacet
  facet normal 0 0 -1
    outer loop
      vertex 87.6421 9.43999 0
      vertex 92 15 0
      vertex 87.6855 9.22189 0
    endloop
  endfacet
  facet normal 0 0 -1
    outer loop
      vertex 89 0 0
      vertex 91.7716 1.85195 0
      vertex 91.5981 1.5 0
    endloop
  endfacet
  facet normal 0 0 -1
    outer loop
      vertex 87.5706 9.65056 0
      vertex 92 15 0
      vertex 87.6421 9.43999 0
    endloop
  endfacet
  facet normal 0 0 -1
    outer loop
      vertex 89 0 0
      vertex 91.5981 1.5 0
      vertex 91.3801 1.17372 0
    endloop
  endfacet
  facet normal 0 0 -1
    outer loop
      vertex 87.4722 9.85 0
      vertex 92 15 0
      vertex 87.5706 9.65056 0
    endloop
  endfacet
  facet normal 0 0 -1
    outer loop
      vertex 89 0 0
      vertex 91.3801 1.17372 0
      vertex 91.1213 0.878679 0
    endloop
  endfacet
  facet normal 0 0 -1
    outer loop
      vertex 87.3487 10.0349 0
      vertex 92 15 0
      vertex 87.4722 9.85 0
    endloop
  endfacet
  facet normal 0 0 -1
    outer loop
      vertex 89 0 0
      vertex 91.1213 0.878679 0
      vertex 90.8263 0.61994 0
    endloop
  endfacet
  facet normal 0 0 -1
    outer loop
      vertex 87.2021 10.2021 0
      vertex 92 15 0
      vertex 87.3487 10.0349 0
    endloop
  endfacet
  facet normal 0 0 -1
    outer loop
      vertex 89 0 0
      vertex 90.8263 0.61994 0
      vertex 90.5 0.401923 0
    endloop
  endfacet
  facet normal 0 0 -1
    outer loop
      vertex 87.0349 10.3487 0
      vertex 92 15 0
      vertex 87.2021 10.2021 0
    endloop
  endfacet
  facet normal 0 0 -1
    outer loop
      vertex 89 0 0
      vertex 90.5 0.401923 0
      vertex 90.148 0.228361 0
    endloop
  endfacet
  facet normal 0 0 -1
    outer loop
      vertex 86.85 10.4722 0
      vertex 92 15 0
      vertex 87.0349 10.3487 0
    endloop
  endfacet
  facet normal 0 0 -1
    outer loop
      vertex 89 0 0
      vertex 90.148 0.228361 0
      vertex 89.7765 0.102222 0
    endloop
  endfacet
  facet normal 0 0 -1
    outer loop
      vertex 86.6506 10.5706 0
      vertex 92 15 0
      vertex 86.85 10.4722 0
    endloop
  endfacet
  facet normal 0 0 -1
    outer loop
      vertex 89 0 0
      vertex 89.7765 0.102222 0
      vertex 89.3916 0.0256653 0
    endloop
  endfacet
  facet normal 0 -0 -1
    outer loop
      vertex 89 18 0
      vertex 92 15 0
      vertex 86.6506 10.5706 0
    endloop
  endfacet
  facet normal -0 0 -1
    outer loop
      vertex 92 3 0
      vertex 89 0 0
      vertex 86.6506 7.4294 0
    endloop
  endfacet
  facet normal 0 0 -1
    outer loop
      vertex 92 15 0
      vertex 89 18 0
      vertex 91.9743 15.3916 0
    endloop
  endfacet
  facet normal 0 0 -1
    outer loop
      vertex 91.9743 15.3916 0
      vertex 89 18 0
      vertex 91.8978 15.7765 0
    endloop
  endfacet
  facet normal 0 0 -1
    outer loop
      vertex 92 3 0
      vertex 87.6855 8.7781 0
      vertex 87.7 9 0
    endloop
  endfacet
  facet normal 0 0 -1
    outer loop
      vertex 92 3 0
      vertex 87.6421 8.56001 0
      vertex 87.6855 8.7781 0
    endloop
  endfacet
  facet normal 0 0 -1
    outer loop
      vertex 92 3 0
      vertex 87.5706 8.34944 0
      vertex 87.6421 8.56001 0
    endloop
  endfacet
  facet normal 0 0 -1
    outer loop
      vertex 92 3 0
      vertex 87.4722 8.15 0
      vertex 87.5706 8.34944 0
    endloop
  endfacet
  facet normal 0 0 -1
    outer loop
      vertex 92 3 0
      vertex 87.3487 7.96511 0
      vertex 87.4722 8.15 0
    endloop
  endfacet
  facet normal 0 0 -1
    outer loop
      vertex 92 3 0
      vertex 87.2021 7.79792 0
      vertex 87.3487 7.96511 0
    endloop
  endfacet
  facet normal 0 0 -1
    outer loop
      vertex 92 3 0
      vertex 87.0349 7.6513 0
      vertex 87.2021 7.79792 0
    endloop
  endfacet
  facet normal 0 0 -1
    outer loop
      vertex 92 3 0
      vertex 86.85 7.52776 0
      vertex 87.0349 7.6513 0
    endloop
  endfacet
  facet normal 0 0 -1
    outer loop
      vertex 92 3 0
      vertex 86.6506 7.4294 0
      vertex 86.85 7.52776 0
    endloop
  endfacet
  facet normal 0 0 -1
    outer loop
      vertex 89 0 0
      vertex 86.44 7.35793 0
      vertex 86.6506 7.4294 0
    endloop
  endfacet
  facet normal 0 0 -1
    outer loop
      vertex 89 0 0
      vertex 86.2219 7.31454 0
      vertex 86.44 7.35793 0
    endloop
  endfacet
  facet normal 0 0 -1
    outer loop
      vertex 89 0 0
      vertex 86 7.3 0
      vertex 86.2219 7.31454 0
    endloop
  endfacet
  facet normal 0 0 -1
    outer loop
      vertex 89 0 0
      vertex 52 7.3 0
      vertex 86 7.3 0
    endloop
  endfacet
  facet normal 0 0 -1
    outer loop
      vertex 40 7.3 0
      vertex 52 7.3 0
      vertex 89 0 0
    endloop
  endfacet
  facet normal 0 0 -1
    outer loop
      vertex 50.3145 8.7781 0
      vertex 41.7 9 0
      vertex 50.3 9 0
    endloop
  endfacet
  facet normal 0 0 -1
    outer loop
      vertex 41.6855 8.7781 0
      vertex 50.3145 8.7781 0
      vertex 50.3579 8.56001 0
    endloop
  endfacet
  facet normal 0 0 -1
    outer loop
      vertex 41.6421 8.56001 0
      vertex 50.3579 8.56001 0
      vertex 50.4294 8.34944 0
    endloop
  endfacet
  facet normal 0 0 -1
    outer loop
      vertex 41.5706 8.34944 0
      vertex 50.4294 8.34944 0
      vertex 50.5278 8.15 0
    endloop
  endfacet
  facet normal 0 0 -1
    outer loop
      vertex 41.4722 8.15 0
      vertex 50.5278 8.15 0
      vertex 50.6513 7.96511 0
    endloop
  endfacet
  facet normal 0 0 -1
    outer loop
      vertex 41.3487 7.96511 0
      vertex 50.6513 7.96511 0
      vertex 50.7979 7.79792 0
    endloop
  endfacet
  facet normal 0 0 -1
    outer loop
      vertex 41.2021 7.79792 0
      vertex 50.7979 7.79792 0
      vertex 50.9651 7.6513 0
    endloop
  endfacet
  facet normal 0 0 -1
    outer loop
      vertex 41.0349 7.6513 0
      vertex 50.9651 7.6513 0
      vertex 51.15 7.52776 0
    endloop
  endfacet
  facet normal 0 0 -1
    outer loop
      vertex 40.85 7.52776 0
      vertex 51.15 7.52776 0
      vertex 51.3494 7.4294 0
    endloop
  endfacet
  facet normal 0 0 -1
    outer loop
      vertex 40.6506 7.4294 0
      vertex 51.3494 7.4294 0
      vertex 51.56 7.35793 0
    endloop
  endfacet
  facet normal 0 0 -1
    outer loop
      vertex 40.44 7.35793 0
      vertex 51.56 7.35793 0
      vertex 51.7781 7.31454 0
    endloop
  endfacet
  facet normal 0 0 -1
    outer loop
      vertex 52 7.3 0
      vertex 40 7.3 0
      vertex 51.7781 7.31454 0
    endloop
  endfacet
  facet normal 0 0 -1
    outer loop
      vertex 50.3145 8.7781 0
      vertex 41.6855 8.7781 0
      vertex 41.7 9 0
    endloop
  endfacet
  facet normal 0 0 -1
    outer loop
      vertex 50.3579 8.56001 0
      vertex 41.6421 8.56001 0
      vertex 41.6855 8.7781 0
    endloop
  endfacet
  facet normal 0 0 -1
    outer loop
      vertex 50.4294 8.34944 0
      vertex 41.5706 8.34944 0
      vertex 41.6421 8.56001 0
    endloop
  endfacet
  facet normal 0 0 -1
    outer loop
      vertex 50.5278 8.15 0
      vertex 41.4722 8.15 0
      vertex 41.5706 8.34944 0
    endloop
  endfacet
  facet normal 0 0 -1
    outer loop
      vertex 50.6513 7.96511 0
      vertex 41.3487 7.96511 0
      vertex 41.4722 8.15 0
    endloop
  endfacet
  facet normal 0 0 -1
    outer loop
      vertex 50.7979 7.79792 0
      vertex 41.2021 7.79792 0
      vertex 41.3487 7.96511 0
    endloop
  endfacet
  facet normal 0 0 -1
    outer loop
      vertex 50.9651 7.6513 0
      vertex 41.0349 7.6513 0
      vertex 41.2021 7.79792 0
    endloop
  endfacet
  facet normal 0 0 -1
    outer loop
      vertex 51.15 7.52776 0
      vertex 40.85 7.52776 0
      vertex 41.0349 7.6513 0
    endloop
  endfacet
  facet normal 0 0 -1
    outer loop
      vertex 51.3494 7.4294 0
      vertex 40.6506 7.4294 0
      vertex 40.85 7.52776 0
    endloop
  endfacet
  facet normal 0 0 -1
    outer loop
      vertex 51.56 7.35793 0
      vertex 40.44 7.35793 0
      vertex 40.6506 7.4294 0
    endloop
  endfacet
  facet normal 0 0 -1
    outer loop
      vertex 51.7781 7.31454 0
      vertex 40.2219 7.31454 0
      vertex 40.44 7.35793 0
    endloop
  endfacet
  facet normal -0 0 -1
    outer loop
      vertex 51.7781 7.31454 0
      vertex 40 7.3 0
      vertex 40.2219 7.31454 0
    endloop
  endfacet
  facet normal 0 0 -1
    outer loop
      vertex 3 0 0
      vertex 40 7.3 0
      vertex 89 0 0
    endloop
  endfacet
  facet normal -0 0 -1
    outer loop
      vertex 40 7.3 0
      vertex 3 0 0
      vertex 6 7.3 0
    endloop
  endfacet
  facet normal -0 0 -1
    outer loop
      vertex 4.35793 8.56001 0
      vertex 0 3 0
      vertex 4.31454 8.7781 0
    endloop
  endfacet
  facet normal -0 0 -1
    outer loop
      vertex 4.4294 8.34944 0
      vertex 0 3 0
      vertex 4.35793 8.56001 0
    endloop
  endfacet
  facet normal -0 0 -1
    outer loop
      vertex 4.52776 8.15 0
      vertex 0 3 0
      vertex 4.4294 8.34944 0
    endloop
  endfacet
  facet normal -0 0 -1
    outer loop
      vertex 4.6513 7.96511 0
      vertex 0 3 0
      vertex 4.52776 8.15 0
    endloop
  endfacet
  facet normal -0 0 -1
    outer loop
      vertex 4.79792 7.79792 0
      vertex 0 3 0
      vertex 4.6513 7.96511 0
    endloop
  endfacet
  facet normal -0 0 -1
    outer loop
      vertex 4.96511 7.6513 0
      vertex 0 3 0
      vertex 4.79792 7.79792 0
    endloop
  endfacet
  facet normal -0 0 -1
    outer loop
      vertex 5.15 7.52776 0
      vertex 0 3 0
      vertex 4.96511 7.6513 0
    endloop
  endfacet
  facet normal -0 0 -1
    outer loop
      vertex 5.34944 7.4294 0
      vertex 0 3 0
      vertex 5.15 7.52776 0
    endloop
  endfacet
  facet normal 0 0 -1
    outer loop
      vertex 0 3 0
      vertex 5.34944 7.4294 0
      vertex 3 0 0
    endloop
  endfacet
  facet normal -0 0 -1
    outer loop
      vertex 5.56001 7.35793 0
      vertex 3 0 0
      vertex 5.34944 7.4294 0
    endloop
  endfacet
  facet normal -0 0 -1
    outer loop
      vertex 5.7781 7.31454 0
      vertex 3 0 0
      vertex 5.56001 7.35793 0
    endloop
  endfacet
  facet normal -0 0 -1
    outer loop
      vertex 6 7.3 0
      vertex 3 0 0
      vertex 5.7781 7.31454 0
    endloop
  endfacet
  facet normal 0 0 -1
    outer loop
      vertex 91.7716 16.148 0
      vertex 89 18 0
      vertex 91.5981 16.5 0
    endloop
  endfacet
  facet normal 0 0 -1
    outer loop
      vertex 91.5981 16.5 0
      vertex 89 18 0
      vertex 91.3801 16.8263 0
    endloop
  endfacet
  facet normal 0 0 -1
    outer loop
      vertex 91.3801 16.8263 0
      vertex 89 18 0
      vertex 91.1213 17.1213 0
    endloop
  endfacet
  facet normal 0 0 -1
    outer loop
      vertex 91.1213 17.1213 0
      vertex 89 18 0
      vertex 90.8263 17.3801 0
    endloop
  endfacet
  facet normal 0 0 -1
    outer loop
      vertex 90.8263 17.3801 0
      vertex 89 18 0
      vertex 90.5 17.5981 0
    endloop
  endfacet
  facet normal 0 0 -1
    outer loop
      vertex 90.5 17.5981 0
      vertex 89 18 0
      vertex 90.148 17.7716 0
    endloop
  endfacet
  facet normal 0 0 -1
    outer loop
      vertex 90.148 17.7716 0
      vertex 89 18 0
      vertex 89.7765 17.8978 0
    endloop
  endfacet
  facet normal 0 0 -1
    outer loop
      vertex 89.7765 17.8978 0
      vertex 89 18 0
      vertex 89.3916 17.9743 0
    endloop
  endfacet
  facet normal 0 0 -1
    outer loop
      vertex 91.8978 15.7765 0
      vertex 89 18 0
      vertex 91.7716 16.148 0
    endloop
  endfacet
  facet normal 0 0 -1
    outer loop
      vertex 86.44 10.6421 0
      vertex 89 18 0
      vertex 86.6506 10.5706 0
    endloop
  endfacet
  facet normal 0 0 -1
    outer loop
      vertex 86.2219 10.6855 0
      vertex 89 18 0
      vertex 86.44 10.6421 0
    endloop
  endfacet
  facet normal 0 0 -1
    outer loop
      vertex 86 10.7 0
      vertex 89 18 0
      vertex 86.2219 10.6855 0
    endloop
  endfacet
  facet normal 0 0 -1
    outer loop
      vertex 52 10.7 0
      vertex 89 18 0
      vertex 86 10.7 0
    endloop
  endfacet
  facet normal 0 0 -1
    outer loop
      vertex 40 10.7 0
      vertex 52 10.7 0
      vertex 51.7781 10.6855 0
    endloop
  endfacet
  facet normal 0 0 -1
    outer loop
      vertex 41.7 9 0
      vertex 50.3145 9.22189 0
      vertex 50.3 9 0
    endloop
  endfacet
  facet normal 0 0 -1
    outer loop
      vertex 41.6855 9.22189 0
      vertex 50.3145 9.22189 0
      vertex 41.7 9 0
    endloop
  endfacet
  facet normal 0 0 -1
    outer loop
      vertex 50.3145 9.22189 0
      vertex 41.6855 9.22189 0
      vertex 50.3579 9.43999 0
    endloop
  endfacet
  facet normal 0 0 -1
    outer loop
      vertex 41.6421 9.43999 0
      vertex 50.3579 9.43999 0
      vertex 41.6855 9.22189 0
    endloop
  endfacet
  facet normal 0 0 -1
    outer loop
      vertex 50.3579 9.43999 0
      vertex 41.6421 9.43999 0
      vertex 50.4294 9.65056 0
    endloop
  endfacet
  facet normal 0 0 -1
    outer loop
      vertex 41.5706 9.65056 0
      vertex 50.4294 9.65056 0
      vertex 41.6421 9.43999 0
    endloop
  endfacet
  facet normal 0 0 -1
    outer loop
      vertex 50.4294 9.65056 0
      vertex 41.5706 9.65056 0
      vertex 50.5278 9.85 0
    endloop
  endfacet
  facet normal 0 0 -1
    outer loop
      vertex 41.4722 9.85 0
      vertex 50.5278 9.85 0
      vertex 41.5706 9.65056 0
    endloop
  endfacet
  facet normal 0 0 -1
    outer loop
      vertex 50.5278 9.85 0
      vertex 41.4722 9.85 0
      vertex 50.6513 10.0349 0
    endloop
  endfacet
  facet normal 0 0 -1
    outer loop
      vertex 41.3487 10.0349 0
      vertex 50.6513 10.0349 0
      vertex 41.4722 9.85 0
    endloop
  endfacet
  facet normal 0 0 -1
    outer loop
      vertex 50.6513 10.0349 0
      vertex 41.3487 10.0349 0
      vertex 50.7979 10.2021 0
    endloop
  endfacet
  facet normal 0 0 -1
    outer loop
      vertex 41.2021 10.2021 0
      vertex 50.7979 10.2021 0
      vertex 41.3487 10.0349 0
    endloop
  endfacet
  facet normal 0 0 -1
    outer loop
      vertex 50.7979 10.2021 0
      vertex 41.2021 10.2021 0
      vertex 50.9651 10.3487 0
    endloop
  endfacet
  facet normal 0 0 -1
    outer loop
      vertex 41.0349 10.3487 0
      vertex 50.9651 10.3487 0
      vertex 41.2021 10.2021 0
    endloop
  endfacet
  facet normal 0 0 -1
    outer loop
      vertex 50.9651 10.3487 0
      vertex 41.0349 10.3487 0
      vertex 51.15 10.4722 0
    endloop
  endfacet
  facet normal 0 0 -1
    outer loop
      vertex 40.85 10.4722 0
      vertex 51.15 10.4722 0
      vertex 41.0349 10.3487 0
    endloop
  endfacet
  facet normal 0 0 -1
    outer loop
      vertex 51.15 10.4722 0
      vertex 40.85 10.4722 0
      vertex 51.3494 10.5706 0
    endloop
  endfacet
  facet normal 0 0 -1
    outer loop
      vertex 40.6506 10.5706 0
      vertex 51.3494 10.5706 0
      vertex 40.85 10.4722 0
    endloop
  endfacet
  facet normal 0 0 -1
    outer loop
      vertex 51.3494 10.5706 0
      vertex 40.6506 10.5706 0
      vertex 51.56 10.6421 0
    endloop
  endfacet
  facet normal 0 0 -1
    outer loop
      vertex 40.44 10.6421 0
      vertex 51.56 10.6421 0
      vertex 40.6506 10.5706 0
    endloop
  endfacet
  facet normal 0 0 -1
    outer loop
      vertex 51.56 10.6421 0
      vertex 40.44 10.6421 0
      vertex 51.7781 10.6855 0
    endloop
  endfacet
  facet normal 0 0 -1
    outer loop
      vertex 40.2219 10.6855 0
      vertex 51.7781 10.6855 0
      vertex 40.44 10.6421 0
    endloop
  endfacet
  facet normal 0 0 -1
    outer loop
      vertex 40 10.7 0
      vertex 51.7781 10.6855 0
      vertex 40.2219 10.6855 0
    endloop
  endfacet
  facet normal 0 0 -1
    outer loop
      vertex 52 10.7 0
      vertex 40 10.7 0
      vertex 89 18 0
    endloop
  endfacet
  facet normal 0 0 -1
    outer loop
      vertex 3 18 0
      vertex 40 10.7 0
      vertex 6 10.7 0
    endloop
  endfacet
  facet normal 0 0 -1
    outer loop
      vertex 3 18 0
      vertex 6 10.7 0
      vertex 5.7781 10.6855 0
    endloop
  endfacet
  facet normal -0 0 -1
    outer loop
      vertex 4.31454 8.7781 0
      vertex 0 3 0
      vertex 4.3 9 0
    endloop
  endfacet
  facet normal 0 0 -1
    outer loop
      vertex 40 10.7 0
      vertex 3 18 0
      vertex 89 18 0
    endloop
  endfacet
  facet normal 0 0 -1
    outer loop
      vertex 5.56001 10.6421 0
      vertex 3 18 0
      vertex 5.7781 10.6855 0
    endloop
  endfacet
  facet normal 0 0 -1
    outer loop
      vertex 5.34944 10.5706 0
      vertex 3 18 0
      vertex 5.56001 10.6421 0
    endloop
  endfacet
  facet normal 0 0 -1
    outer loop
      vertex 0 15 0
      vertex 5.34944 10.5706 0
      vertex 5.15 10.4722 0
    endloop
  endfacet
  facet normal 0 0 -1
    outer loop
      vertex 0 15 0
      vertex 5.15 10.4722 0
      vertex 4.96511 10.3487 0
    endloop
  endfacet
  facet normal 0 0 -1
    outer loop
      vertex 0 15 0
      vertex 4.96511 10.3487 0
      vertex 4.79792 10.2021 0
    endloop
  endfacet
  facet normal 0 0 -1
    outer loop
      vertex 0 15 0
      vertex 4.79792 10.2021 0
      vertex 4.6513 10.0349 0
    endloop
  endfacet
  facet normal 0 0 -1
    outer loop
      vertex 0 15 0
      vertex 4.6513 10.0349 0
      vertex 4.52776 9.85 0
    endloop
  endfacet
  facet normal 0 0 -1
    outer loop
      vertex 0 15 0
      vertex 4.52776 9.85 0
      vertex 4.4294 9.65056 0
    endloop
  endfacet
  facet normal 0 0 -1
    outer loop
      vertex 0 15 0
      vertex 4.4294 9.65056 0
      vertex 4.35793 9.43999 0
    endloop
  endfacet
  facet normal 0 0 -1
    outer loop
      vertex 0 15 0
      vertex 4.35793 9.43999 0
      vertex 4.31454 9.22189 0
    endloop
  endfacet
  facet normal 0 0 -1
    outer loop
      vertex 0 15 0
      vertex 4.3 9 0
      vertex 0 3 0
    endloop
  endfacet
  facet normal 0 0 -1
    outer loop
      vertex 0 3 0
      vertex 3 0 0
      vertex 2.60842 0.0256653 0
    endloop
  endfacet
  facet normal 0 0 -1
    outer loop
      vertex 4.3 9 0
      vertex 0 15 0
      vertex 4.31454 9.22189 0
    endloop
  endfacet
  facet normal 0 0 -1
    outer loop
      vertex 0 3 0
      vertex 2.60842 0.0256653 0
      vertex 2.22354 0.102222 0
    endloop
  endfacet
  facet normal 0 0 -1
    outer loop
      vertex 5.34944 10.5706 0
      vertex 0 15 0
      vertex 3 18 0
    endloop
  endfacet
  facet normal 0 0 -1
    outer loop
      vertex 0 3 0
      vertex 2.22354 0.102222 0
      vertex 1.85195 0.228361 0
    endloop
  endfacet
  facet normal 0 0 -1
    outer loop
      vertex 3 18 0
      vertex 0 15 0
      vertex 2.60842 17.9743 0
    endloop
  endfacet
  facet normal 0 0 -1
    outer loop
      vertex 0 3 0
      vertex 1.85195 0.228361 0
      vertex 1.5 0.401923 0
    endloop
  endfacet
  facet normal 0 0 -1
    outer loop
      vertex 2.60842 17.9743 0
      vertex 0 15 0
      vertex 2.22354 17.8978 0
    endloop
  endfacet
  facet normal 0 0 -1
    outer loop
      vertex 0 3 0
      vertex 1.5 0.401923 0
      vertex 1.17372 0.61994 0
    endloop
  endfacet
  facet normal 0 0 -1
    outer loop
      vertex 2.22354 17.8978 0
      vertex 0 15 0
      vertex 1.85195 17.7716 0
    endloop
  endfacet
  facet normal 0 0 -1
    outer loop
      vertex 0 3 0
      vertex 1.17372 0.61994 0
      vertex 0.878679 0.878679 0
    endloop
  endfacet
  facet normal 0 0 -1
    outer loop
      vertex 1.85195 17.7716 0
      vertex 0 15 0
      vertex 1.5 17.5981 0
    endloop
  endfacet
  facet normal 0 0 -1
    outer loop
      vertex 0 3 0
      vertex 0.878679 0.878679 0
      vertex 0.61994 1.17372 0
    endloop
  endfacet
  facet normal 0 0 -1
    outer loop
      vertex 1.5 17.5981 0
      vertex 0 15 0
      vertex 1.17372 17.3801 0
    endloop
  endfacet
  facet normal 0 0 -1
    outer loop
      vertex 0 3 0
      vertex 0.61994 1.17372 0
      vertex 0.401923 1.5 0
    endloop
  endfacet
  facet normal 0 0 -1
    outer loop
      vertex 1.17372 17.3801 0
      vertex 0 15 0
      vertex 0.878679 17.1213 0
    endloop
  endfacet
  facet normal 0 0 -1
    outer loop
      vertex 0 3 0
      vertex 0.401923 1.5 0
      vertex 0.228361 1.85195 0
    endloop
  endfacet
  facet normal 0 0 -1
    outer loop
      vertex 0.878679 17.1213 0
      vertex 0 15 0
      vertex 0.61994 16.8263 0
    endloop
  endfacet
  facet normal 0 0 -1
    outer loop
      vertex 0 3 0
      vertex 0.228361 1.85195 0
      vertex 0.102222 2.22354 0
    endloop
  endfacet
  facet normal 0 0 -1
    outer loop
      vertex 0.61994 16.8263 0
      vertex 0 15 0
      vertex 0.401923 16.5 0
    endloop
  endfacet
  facet normal 0 0 -1
    outer loop
      vertex 0 3 0
      vertex 0.102222 2.22354 0
      vertex 0.0256653 2.60842 0
    endloop
  endfacet
  facet normal 0 0 -1
    outer loop
      vertex 0.401923 16.5 0
      vertex 0 15 0
      vertex 0.228361 16.148 0
    endloop
  endfacet
  facet normal 0 0 -1
    outer loop
      vertex 0.228361 16.148 0
      vertex 0 15 0
      vertex 0.102222 15.7765 0
    endloop
  endfacet
  facet normal 0 0 -1
    outer loop
      vertex 0.102222 15.7765 0
      vertex 0 15 0
      vertex 0.0256653 15.3916 0
    endloop
  endfacet
  facet normal -0.659426 0.751769 0
    outer loop
      vertex 1.17372 17.3801 0
      vertex 0.878679 17.1213 5
      vertex 1.17372 17.3801 5
    endloop
  endfacet
  facet normal -0.659426 0.751769 0
    outer loop
      vertex 0.878679 17.1213 5
      vertex 1.17372 17.3801 0
      vertex 0.878679 17.1213 0
    endloop
  endfacet
  facet normal -0.442288 -0.896873 0
    outer loop
      vertex 1.5 0.401923 0
      vertex 1.85195 0.228361 5
      vertex 1.5 0.401923 5
    endloop
  endfacet
  facet normal -0.442288 -0.896873 -0
    outer loop
      vertex 1.85195 0.228361 5
      vertex 1.5 0.401923 0
      vertex 1.85195 0.228361 0
    endloop
  endfacet
  facet normal -0.831465 -0.555577 0
    outer loop
      vertex 0.61994 1.17372 0
      vertex 0.401923 1.5 5
      vertex 0.401923 1.5 0
    endloop
  endfacet
  facet normal -0.831465 -0.555577 0
    outer loop
      vertex 0.401923 1.5 5
      vertex 0.61994 1.17372 0
      vertex 0.61994 1.17372 5
    endloop
  endfacet
  facet normal -0.980786 -0.195089 0
    outer loop
      vertex 0.102222 2.22354 0
      vertex 0.0256653 2.60842 5
      vertex 0.0256653 2.60842 0
    endloop
  endfacet
  facet normal -0.980786 -0.195089 0
    outer loop
      vertex 0.0256653 2.60842 5
      vertex 0.102222 2.22354 0
      vertex 0.102222 2.22354 5
    endloop
  endfacet
  facet normal 0.946858 0.321651 0
    outer loop
      vertex 91.8978 15.7765 5
      vertex 91.7716 16.148 0
      vertex 91.7716 16.148 5
    endloop
  endfacet
  facet normal 0.946858 0.321651 0
    outer loop
      vertex 91.7716 16.148 0
      vertex 91.8978 15.7765 5
      vertex 91.8978 15.7765 0
    endloop
  endfacet
  facet normal 0.751769 -0.659426 0
    outer loop
      vertex 91.1213 0.878679 5
      vertex 91.3801 1.17372 0
      vertex 91.3801 1.17372 5
    endloop
  endfacet
  facet normal 0.751769 -0.659426 0
    outer loop
      vertex 91.3801 1.17372 0
      vertex 91.1213 0.878679 5
      vertex 91.1213 0.878679 0
    endloop
  endfacet
  facet normal 0.555553 -0.831481 0
    outer loop
      vertex 90.5 0.401923 0
      vertex 90.8263 0.61994 5
      vertex 90.5 0.401923 5
    endloop
  endfacet
  facet normal 0.555553 -0.831481 0
    outer loop
      vertex 90.8263 0.61994 5
      vertex 90.5 0.401923 0
      vertex 90.8263 0.61994 0
    endloop
  endfacet
  facet normal 0.195079 -0.980788 0
    outer loop
      vertex 89.3916 0.0256653 0
      vertex 89.7765 0.102222 5
      vertex 89.3916 0.0256653 5
    endloop
  endfacet
  facet normal 0.195079 -0.980788 0
    outer loop
      vertex 89.7765 0.102222 5
      vertex 89.3916 0.0256653 0
      vertex 89.7765 0.102222 0
    endloop
  endfacet
  facet normal -0.321582 0.946882 0
    outer loop
      vertex 2.22354 17.8978 0
      vertex 1.85195 17.7716 5
      vertex 2.22354 17.8978 5
    endloop
  endfacet
  facet normal -0.321582 0.946882 0
    outer loop
      vertex 1.85195 17.7716 5
      vertex 2.22354 17.8978 0
      vertex 1.85195 17.7716 0
    endloop
  endfacet
  facet normal -0.831481 0.555553 0
    outer loop
      vertex 0.401923 16.5 0
      vertex 0.61994 16.8263 5
      vertex 0.61994 16.8263 0
    endloop
  endfacet
  facet normal -0.831481 0.555553 0
    outer loop
      vertex 0.61994 16.8263 5
      vertex 0.401923 16.5 0
      vertex 0.401923 16.5 5
    endloop
  endfacet
  facet normal -0.555547 0.831485 0
    outer loop
      vertex 1.5 17.5981 0
      vertex 1.17372 17.3801 5
      vertex 1.5 17.5981 5
    endloop
  endfacet
  facet normal -0.555547 0.831485 0
    outer loop
      vertex 1.17372 17.3801 5
      vertex 1.5 17.5981 0
      vertex 1.17372 17.3801 0
    endloop
  endfacet
  facet normal -0.751801 0.65939 0
    outer loop
      vertex 0.61994 16.8263 0
      vertex 0.878679 17.1213 5
      vertex 0.878679 17.1213 0
    endloop
  endfacet
  facet normal -0.751801 0.65939 0
    outer loop
      vertex 0.878679 17.1213 5
      vertex 0.61994 16.8263 0
      vertex 0.61994 16.8263 5
    endloop
  endfacet
  facet normal -0.321442 -0.946929 0
    outer loop
      vertex 1.85195 0.228361 0
      vertex 2.22354 0.102222 5
      vertex 1.85195 0.228361 5
    endloop
  endfacet
  facet normal -0.321442 -0.946929 -0
    outer loop
      vertex 2.22354 0.102222 5
      vertex 1.85195 0.228361 0
      vertex 2.22354 0.102222 0
    endloop
  endfacet
  facet normal -0.751846 -0.659339 0
    outer loop
      vertex 0.878679 0.878679 0
      vertex 0.61994 1.17372 5
      vertex 0.61994 1.17372 0
    endloop
  endfacet
  facet normal -0.751846 -0.659339 0
    outer loop
      vertex 0.61994 1.17372 5
      vertex 0.878679 0.878679 0
      vertex 0.878679 0.878679 5
    endloop
  endfacet
  facet normal -0.896873 -0.442288 0
    outer loop
      vertex 0.401923 1.5 0
      vertex 0.228361 1.85195 5
      vertex 0.228361 1.85195 0
    endloop
  endfacet
  facet normal -0.896873 -0.442288 0
    outer loop
      vertex 0.228361 1.85195 5
      vertex 0.401923 1.5 0
      vertex 0.401923 1.5 5
    endloop
  endfacet
  facet normal 0.44211 0.896961 -0
    outer loop
      vertex 90.5 17.5981 0
      vertex 90.148 17.7716 5
      vertex 90.5 17.5981 5
    endloop
  endfacet
  facet normal 0.44211 0.896961 0
    outer loop
      vertex 90.148 17.7716 5
      vertex 90.5 17.5981 0
      vertex 90.148 17.7716 0
    endloop
  endfacet
  facet normal 0.321651 0.946858 -0
    outer loop
      vertex 90.148 17.7716 0
      vertex 89.7765 17.8978 5
      vertex 90.148 17.7716 5
    endloop
  endfacet
  facet normal 0.321651 0.946858 0
    outer loop
      vertex 89.7765 17.8978 5
      vertex 90.148 17.7716 0
      vertex 89.7765 17.8978 0
    endloop
  endfacet
  facet normal 0.0654873 0.997853 -0
    outer loop
      vertex 89.3916 17.9743 0
      vertex 89 18 5
      vertex 89.3916 17.9743 5
    endloop
  endfacet
  facet normal 0.0654873 0.997853 0
    outer loop
      vertex 89 18 5
      vertex 89.3916 17.9743 0
      vertex 89 18 0
    endloop
  endfacet
  facet normal 0.751724 0.659478 0
    outer loop
      vertex 91.3801 16.8263 5
      vertex 91.1213 17.1213 0
      vertex 91.1213 17.1213 5
    endloop
  endfacet
  facet normal 0.751724 0.659478 0
    outer loop
      vertex 91.1213 17.1213 0
      vertex 91.3801 16.8263 5
      vertex 91.3801 16.8263 0
    endloop
  endfacet
  facet normal 0.831501 0.555523 0
    outer loop
      vertex 91.5981 16.5 5
      vertex 91.3801 16.8263 0
      vertex 91.3801 16.8263 5
    endloop
  endfacet
  facet normal 0.831501 0.555523 0
    outer loop
      vertex 91.3801 16.8263 0
      vertex 91.5981 16.5 5
      vertex 91.5981 16.5 0
    endloop
  endfacet
  facet normal 0.980815 0.19494 0
    outer loop
      vertex 91.9743 15.3916 5
      vertex 91.8978 15.7765 0
      vertex 91.8978 15.7765 5
    endloop
  endfacet
  facet normal 0.980815 0.19494 0
    outer loop
      vertex 91.8978 15.7765 0
      vertex 91.9743 15.3916 5
      vertex 91.9743 15.3916 0
    endloop
  endfacet
  facet normal 0.997853 0.0654873 0
    outer loop
      vertex 92 15 5
      vertex 91.9743 15.3916 0
      vertex 91.9743 15.3916 5
    endloop
  endfacet
  facet normal 0.997853 0.0654873 0
    outer loop
      vertex 91.9743 15.3916 0
      vertex 92 15 5
      vertex 92 15 0
    endloop
  endfacet
  facet normal 0.831485 -0.555547 0
    outer loop
      vertex 91.3801 1.17372 5
      vertex 91.5981 1.5 0
      vertex 91.5981 1.5 5
    endloop
  endfacet
  facet normal 0.831485 -0.555547 0
    outer loop
      vertex 91.5981 1.5 0
      vertex 91.3801 1.17372 5
      vertex 91.3801 1.17372 0
    endloop
  endfacet
  facet normal 0.896936 -0.44216 0
    outer loop
      vertex 91.5981 1.5 5
      vertex 91.7716 1.85195 0
      vertex 91.7716 1.85195 5
    endloop
  endfacet
  facet normal 0.896936 -0.44216 0
    outer loop
      vertex 91.7716 1.85195 0
      vertex 91.5981 1.5 5
      vertex 91.5981 1.5 0
    endloop
  endfacet
  facet normal 0.321512 -0.946905 0
    outer loop
      vertex 89.7765 0.102222 0
      vertex 90.148 0.228361 5
      vertex 89.7765 0.102222 5
    endloop
  endfacet
  facet normal 0.321512 -0.946905 0
    outer loop
      vertex 90.148 0.228361 5
      vertex 89.7765 0.102222 0
      vertex 90.148 0.228361 0
    endloop
  endfacet
  facet normal -0.44216 0.896936 0
    outer loop
      vertex 1.85195 17.7716 0
      vertex 1.5 17.5981 5
      vertex 1.85195 17.7716 5
    endloop
  endfacet
  facet normal -0.44216 0.896936 0
    outer loop
      vertex 1.5 17.5981 5
      vertex 1.85195 17.7716 0
      vertex 1.5 17.5981 0
    endloop
  endfacet
  facet normal -0.896898 0.442237 0
    outer loop
      vertex 0.228361 16.148 0
      vertex 0.401923 16.5 5
      vertex 0.401923 16.5 0
    endloop
  endfacet
  facet normal -0.896898 0.442237 0
    outer loop
      vertex 0.401923 16.5 5
      vertex 0.228361 16.148 0
      vertex 0.228361 16.148 5
    endloop
  endfacet
  facet normal -0.946905 0.321512 0
    outer loop
      vertex 0.102222 15.7765 0
      vertex 0.228361 16.148 5
      vertex 0.228361 16.148 0
    endloop
  endfacet
  facet normal -0.946905 0.321512 0
    outer loop
      vertex 0.228361 16.148 5
      vertex 0.102222 15.7765 0
      vertex 0.102222 15.7765 5
    endloop
  endfacet
  facet normal -0.195089 -0.980786 0
    outer loop
      vertex 2.22354 0.102222 0
      vertex 2.60842 0.0256653 5
      vertex 2.22354 0.102222 5
    endloop
  endfacet
  facet normal -0.195089 -0.980786 -0
    outer loop
      vertex 2.60842 0.0256653 5
      vertex 2.22354 0.102222 0
      vertex 2.60842 0.0256653 0
    endloop
  endfacet
  facet normal -0.555577 -0.831465 0
    outer loop
      vertex 1.17372 0.61994 0
      vertex 1.5 0.401923 5
      vertex 1.17372 0.61994 5
    endloop
  endfacet
  facet normal -0.555577 -0.831465 -0
    outer loop
      vertex 1.5 0.401923 5
      vertex 1.17372 0.61994 0
      vertex 1.5 0.401923 0
    endloop
  endfacet
  facet normal -0.659339 -0.751846 0
    outer loop
      vertex 0.878679 0.878679 0
      vertex 1.17372 0.61994 5
      vertex 0.878679 0.878679 5
    endloop
  endfacet
  facet normal -0.659339 -0.751846 -0
    outer loop
      vertex 1.17372 0.61994 5
      vertex 0.878679 0.878679 0
      vertex 1.17372 0.61994 0
    endloop
  endfacet
  facet normal 0.555523 0.831501 -0
    outer loop
      vertex 90.8263 17.3801 0
      vertex 90.5 17.5981 5
      vertex 90.8263 17.3801 5
    endloop
  endfacet
  facet normal 0.555523 0.831501 0
    outer loop
      vertex 90.5 17.5981 5
      vertex 90.8263 17.3801 0
      vertex 90.5 17.5981 0
    endloop
  endfacet
  facet normal 0.659478 0.751724 -0
    outer loop
      vertex 91.1213 17.1213 0
      vertex 90.8263 17.3801 5
      vertex 91.1213 17.1213 5
    endloop
  endfacet
  facet normal 0.659478 0.751724 0
    outer loop
      vertex 90.8263 17.3801 5
      vertex 91.1213 17.1213 0
      vertex 90.8263 17.3801 0
    endloop
  endfacet
  facet normal 0.19494 0.980815 -0
    outer loop
      vertex 89.7765 17.8978 0
      vertex 89.3916 17.9743 5
      vertex 89.7765 17.8978 5
    endloop
  endfacet
  facet normal 0.19494 0.980815 0
    outer loop
      vertex 89.3916 17.9743 5
      vertex 89.7765 17.8978 0
      vertex 89.3916 17.9743 0
    endloop
  endfacet
  facet normal 0.946882 -0.321582 0
    outer loop
      vertex 91.7716 1.85195 5
      vertex 91.8978 2.22354 0
      vertex 91.8978 2.22354 5
    endloop
  endfacet
  facet normal 0.946882 -0.321582 0
    outer loop
      vertex 91.8978 2.22354 0
      vertex 91.7716 1.85195 5
      vertex 91.7716 1.85195 0
    endloop
  endfacet
endsolid OpenSCAD_Model
