solid OpenSCAD_Model
  facet normal 1 -0 0
    outer loop
      vertex 30 0 4.8
      vertex 30 10 0
      vertex 30 10 4.8
    endloop
  endfacet
  facet normal 1 0 0
    outer loop
      vertex 30 10 0
      vertex 30 0 4.8
      vertex 30 0 0
    endloop
  endfacet
  facet normal 1 -0 0
    outer loop
      vertex 30 70 4.8
      vertex 30 80 0
      vertex 30 80 4.8
    endloop
  endfacet
  facet normal 1 0 0
    outer loop
      vertex 30 80 0
      vertex 30 70 4.8
      vertex 30 70 0
    endloop
  endfacet
  facet normal 0 0 1
    outer loop
      vertex 30 80 4.8
      vertex 16.75 70 4.8
      vertex 30 70 4.8
    endloop
  endfacet
  facet normal 0 0 1
    outer loop
      vertex 11.5863 67.7912 4.8
      vertex 16.75 70 4.8
      vertex 11.6 68 4.8
    endloop
  endfacet
  facet normal -0 0 1
    outer loop
      vertex 0 80 4.8
      vertex 16.75 70 4.8
      vertex 30 80 4.8
    endloop
  endfacet
  facet normal 0 0 1
    outer loop
      vertex 16.75 70 4.8
      vertex 11.5863 68.2088 4.8
      vertex 11.6 68 4.8
    endloop
  endfacet
  facet normal 0 0 1
    outer loop
      vertex 16.75 70 4.8
      vertex 11.5455 68.4141 4.8
      vertex 11.5863 68.2088 4.8
    endloop
  endfacet
  facet normal 0 0 1
    outer loop
      vertex 16.75 70 4.8
      vertex 11.4782 68.6123 4.8
      vertex 11.5455 68.4141 4.8
    endloop
  endfacet
  facet normal 0 0 1
    outer loop
      vertex 16.75 70 4.8
      vertex 11.3856 68.8 4.8
      vertex 11.4782 68.6123 4.8
    endloop
  endfacet
  facet normal 0 0 1
    outer loop
      vertex 16.75 70 4.8
      vertex 11.2694 68.974 4.8
      vertex 11.3856 68.8 4.8
    endloop
  endfacet
  facet normal 0 0 1
    outer loop
      vertex 16.75 70 4.8
      vertex 11.1314 69.1314 4.8
      vertex 11.2694 68.974 4.8
    endloop
  endfacet
  facet normal 0 0 1
    outer loop
      vertex 16.75 70 4.8
      vertex 10.974 69.2694 4.8
      vertex 11.1314 69.1314 4.8
    endloop
  endfacet
  facet normal 0 0 1
    outer loop
      vertex 16.75 70 4.8
      vertex 10.8 69.3856 4.8
      vertex 10.974 69.2694 4.8
    endloop
  endfacet
  facet normal 0 0 1
    outer loop
      vertex 16.75 70 4.8
      vertex 10.6123 69.4782 4.8
      vertex 10.8 69.3856 4.8
    endloop
  endfacet
  facet normal 0 0 1
    outer loop
      vertex 16.75 70 4.8
      vertex 10.4141 69.5455 4.8
      vertex 10.6123 69.4782 4.8
    endloop
  endfacet
  facet normal 0 -0 1
    outer loop
      vertex 10.2088 69.5863 4.8
      vertex 16.75 70 4.8
      vertex 0 80 4.8
    endloop
  endfacet
  facet normal 0 0 1
    outer loop
      vertex 16.75 70 4.8
      vertex 10.2088 69.5863 4.8
      vertex 10.4141 69.5455 4.8
    endloop
  endfacet
  facet normal 0 0 1
    outer loop
      vertex 10.2088 69.5863 4.8
      vertex 0 80 4.8
      vertex 10 69.6 4.8
    endloop
  endfacet
  facet normal 0 0 1
    outer loop
      vertex 10 69.6 4.8
      vertex 0 80 4.8
      vertex 9.79116 69.5863 4.8
    endloop
  endfacet
  facet normal 0 0 1
    outer loop
      vertex 9.79116 69.5863 4.8
      vertex 0 80 4.8
      vertex 9.58589 69.5455 4.8
    endloop
  endfacet
  facet normal 0 0 1
    outer loop
      vertex 9.58589 69.5455 4.8
      vertex 0 80 4.8
      vertex 9.38771 69.4782 4.8
    endloop
  endfacet
  facet normal 0 0 1
    outer loop
      vertex 8.41369 68.2088 4.8
      vertex 0 80 4.8
      vertex 8.4 68 4.8
    endloop
  endfacet
  facet normal 0 0 1
    outer loop
      vertex 8.45452 68.4141 4.8
      vertex 0 80 4.8
      vertex 8.41369 68.2088 4.8
    endloop
  endfacet
  facet normal 0 0 1
    outer loop
      vertex 8.52179 68.6123 4.8
      vertex 0 80 4.8
      vertex 8.45452 68.4141 4.8
    endloop
  endfacet
  facet normal 0 0 1
    outer loop
      vertex 8.61436 68.8 4.8
      vertex 0 80 4.8
      vertex 8.52179 68.6123 4.8
    endloop
  endfacet
  facet normal 0 0 1
    outer loop
      vertex 8.73063 68.974 4.8
      vertex 0 80 4.8
      vertex 8.61436 68.8 4.8
    endloop
  endfacet
  facet normal 0 0 1
    outer loop
      vertex 8.86863 69.1314 4.8
      vertex 0 80 4.8
      vertex 8.73063 68.974 4.8
    endloop
  endfacet
  facet normal 0 0 1
    outer loop
      vertex 9.02598 69.2694 4.8
      vertex 0 80 4.8
      vertex 8.86863 69.1314 4.8
    endloop
  endfacet
  facet normal 0 0 1
    outer loop
      vertex 9.2 69.3856 4.8
      vertex 0 80 4.8
      vertex 9.02598 69.2694 4.8
    endloop
  endfacet
  facet normal 0 0 1
    outer loop
      vertex 9.38771 69.4782 4.8
      vertex 0 80 4.8
      vertex 9.2 69.3856 4.8
    endloop
  endfacet
  facet normal -0 0 1
    outer loop
      vertex 16.75 10 4.8
      vertex 30 0 4.8
      vertex 30 10 4.8
    endloop
  endfacet
  facet normal 0 0 1
    outer loop
      vertex 11.5455 67.5859 4.8
      vertex 16.75 70 4.8
      vertex 11.5863 67.7912 4.8
    endloop
  endfacet
  facet normal 0 0 1
    outer loop
      vertex 11.4782 67.3877 4.8
      vertex 16.75 70 4.8
      vertex 11.5455 67.5859 4.8
    endloop
  endfacet
  facet normal 0 0 1
    outer loop
      vertex 11.3856 67.2 4.8
      vertex 16.75 70 4.8
      vertex 11.4782 67.3877 4.8
    endloop
  endfacet
  facet normal 0 0 1
    outer loop
      vertex 11.2694 67.026 4.8
      vertex 16.75 70 4.8
      vertex 11.3856 67.2 4.8
    endloop
  endfacet
  facet normal 0 0 1
    outer loop
      vertex 11.1314 66.8686 4.8
      vertex 16.75 70 4.8
      vertex 11.2694 67.026 4.8
    endloop
  endfacet
  facet normal 0 0 1
    outer loop
      vertex 10.974 66.7306 4.8
      vertex 16.75 70 4.8
      vertex 11.1314 66.8686 4.8
    endloop
  endfacet
  facet normal 0 0 1
    outer loop
      vertex 16.75 70 4.8
      vertex 10.974 66.7306 4.8
      vertex 16.75 10 4.8
    endloop
  endfacet
  facet normal -0 0 1
    outer loop
      vertex 10.8 66.6144 4.8
      vertex 16.75 10 4.8
      vertex 10.974 66.7306 4.8
    endloop
  endfacet
  facet normal -0 0 1
    outer loop
      vertex 10.6123 66.5218 4.8
      vertex 16.75 10 4.8
      vertex 10.8 66.6144 4.8
    endloop
  endfacet
  facet normal -0 0 1
    outer loop
      vertex 10.4141 66.4545 4.8
      vertex 16.75 10 4.8
      vertex 10.6123 66.5218 4.8
    endloop
  endfacet
  facet normal -0 0 1
    outer loop
      vertex 10.2088 66.4137 4.8
      vertex 16.75 10 4.8
      vertex 10.4141 66.4545 4.8
    endloop
  endfacet
  facet normal -0 0 1
    outer loop
      vertex 10 66.4 4.8
      vertex 16.75 10 4.8
      vertex 10.2088 66.4137 4.8
    endloop
  endfacet
  facet normal 0 0 1
    outer loop
      vertex 9.79116 66.4137 4.8
      vertex 16.75 10 4.8
      vertex 10 66.4 4.8
    endloop
  endfacet
  facet normal 0 0 1
    outer loop
      vertex 9.58589 66.4545 4.8
      vertex 16.75 10 4.8
      vertex 9.79116 66.4137 4.8
    endloop
  endfacet
  facet normal 0 0 1
    outer loop
      vertex 9.38771 66.5218 4.8
      vertex 16.75 10 4.8
      vertex 9.58589 66.4545 4.8
    endloop
  endfacet
  facet normal 0 0 1
    outer loop
      vertex 9.2 66.6144 4.8
      vertex 16.75 10 4.8
      vertex 9.38771 66.5218 4.8
    endloop
  endfacet
  facet normal 0 0 1
    outer loop
      vertex 0 0 4.8
      vertex 9.2 66.6144 4.8
      vertex 9.02598 66.7306 4.8
    endloop
  endfacet
  facet normal 0 0 1
    outer loop
      vertex 0 0 4.8
      vertex 9.02598 66.7306 4.8
      vertex 8.86863 66.8686 4.8
    endloop
  endfacet
  facet normal 0 0 1
    outer loop
      vertex 0 0 4.8
      vertex 8.86863 66.8686 4.8
      vertex 8.73063 67.026 4.8
    endloop
  endfacet
  facet normal 0 0 1
    outer loop
      vertex 0 0 4.8
      vertex 8.73063 67.026 4.8
      vertex 8.61436 67.2 4.8
    endloop
  endfacet
  facet normal 0 0 1
    outer loop
      vertex 0 0 4.8
      vertex 8.61436 67.2 4.8
      vertex 8.52179 67.3877 4.8
    endloop
  endfacet
  facet normal 0 0 1
    outer loop
      vertex 0 80 4.8
      vertex 8.52179 67.3877 4.8
      vertex 8.45452 67.5859 4.8
    endloop
  endfacet
  facet normal 0 0 1
    outer loop
      vertex 0 80 4.8
      vertex 8.45452 67.5859 4.8
      vertex 8.41369 67.7912 4.8
    endloop
  endfacet
  facet normal 0 0 1
    outer loop
      vertex 0 80 4.8
      vertex 8.41369 67.7912 4.8
      vertex 8.4 68 4.8
    endloop
  endfacet
  facet normal 0 0 1
    outer loop
      vertex 8.52179 67.3877 4.8
      vertex 0 80 4.8
      vertex 0 0 4.8
    endloop
  endfacet
  facet normal 0 0 1
    outer loop
      vertex 16.75 10 4.8
      vertex 0 0 4.8
      vertex 30 0 4.8
    endloop
  endfacet
  facet normal 0 0 1
    outer loop
      vertex 9.2 66.6144 4.8
      vertex 0 0 4.8
      vertex 16.75 10 4.8
    endloop
  endfacet
  facet normal -1 0 0
    outer loop
      vertex 0 0 0
      vertex 0 80 4.8
      vertex 0 80 0
    endloop
  endfacet
  facet normal -1 -0 0
    outer loop
      vertex 0 80 4.8
      vertex 0 0 0
      vertex 0 0 4.8
    endloop
  endfacet
  facet normal 0 1 -0
    outer loop
      vertex 30 80 0
      vertex 0 80 4.8
      vertex 30 80 4.8
    endloop
  endfacet
  facet normal 0 1 0
    outer loop
      vertex 0 80 4.8
      vertex 30 80 0
      vertex 0 80 0
    endloop
  endfacet
  facet normal 0 0 -1
    outer loop
      vertex 30 0 0
      vertex 16.75 10 0
      vertex 30 10 0
    endloop
  endfacet
  facet normal 0 0 -1
    outer loop
      vertex 10.974 66.7306 0
      vertex 16.75 70 0
      vertex 16.75 10 0
    endloop
  endfacet
  facet normal 0 0 -1
    outer loop
      vertex 16.75 70 0
      vertex 11.5863 67.7912 0
      vertex 11.6 68 0
    endloop
  endfacet
  facet normal 0 0 -1
    outer loop
      vertex 16.75 70 0
      vertex 11.5455 67.5859 0
      vertex 11.5863 67.7912 0
    endloop
  endfacet
  facet normal 0 0 -1
    outer loop
      vertex 16.75 70 0
      vertex 11.4782 67.3877 0
      vertex 11.5455 67.5859 0
    endloop
  endfacet
  facet normal 0 0 -1
    outer loop
      vertex 16.75 70 0
      vertex 11.3856 67.2 0
      vertex 11.4782 67.3877 0
    endloop
  endfacet
  facet normal 0 0 -1
    outer loop
      vertex 16.75 70 0
      vertex 11.2694 67.026 0
      vertex 11.3856 67.2 0
    endloop
  endfacet
  facet normal 0 0 -1
    outer loop
      vertex 16.75 70 0
      vertex 11.1314 66.8686 0
      vertex 11.2694 67.026 0
    endloop
  endfacet
  facet normal 0 0 -1
    outer loop
      vertex 16.75 70 0
      vertex 10.974 66.7306 0
      vertex 11.1314 66.8686 0
    endloop
  endfacet
  facet normal 0 0 -1
    outer loop
      vertex 16.75 10 0
      vertex 10.8 66.6144 0
      vertex 10.974 66.7306 0
    endloop
  endfacet
  facet normal 0 0 -1
    outer loop
      vertex 16.75 10 0
      vertex 10.6123 66.5218 0
      vertex 10.8 66.6144 0
    endloop
  endfacet
  facet normal 0 0 -1
    outer loop
      vertex 16.75 10 0
      vertex 10.4141 66.4545 0
      vertex 10.6123 66.5218 0
    endloop
  endfacet
  facet normal 0 0 -1
    outer loop
      vertex 16.75 10 0
      vertex 10.2088 66.4137 0
      vertex 10.4141 66.4545 0
    endloop
  endfacet
  facet normal 0 0 -1
    outer loop
      vertex 16.75 10 0
      vertex 10 66.4 0
      vertex 10.2088 66.4137 0
    endloop
  endfacet
  facet normal 0 0 -1
    outer loop
      vertex 16.75 10 0
      vertex 9.79116 66.4137 0
      vertex 10 66.4 0
    endloop
  endfacet
  facet normal 0 0 -1
    outer loop
      vertex 16.75 10 0
      vertex 9.58589 66.4545 0
      vertex 9.79116 66.4137 0
    endloop
  endfacet
  facet normal 0 0 -1
    outer loop
      vertex 16.75 10 0
      vertex 9.38771 66.5218 0
      vertex 9.58589 66.4545 0
    endloop
  endfacet
  facet normal 0 0 -1
    outer loop
      vertex 16.75 10 0
      vertex 9.2 66.6144 0
      vertex 9.38771 66.5218 0
    endloop
  endfacet
  facet normal 0 0 -1
    outer loop
      vertex 0 0 0
      vertex 9.2 66.6144 0
      vertex 16.75 10 0
    endloop
  endfacet
  facet normal -0 0 -1
    outer loop
      vertex 9.2 66.6144 0
      vertex 0 0 0
      vertex 9.02598 66.7306 0
    endloop
  endfacet
  facet normal -0 0 -1
    outer loop
      vertex 9.02598 66.7306 0
      vertex 0 0 0
      vertex 8.86863 66.8686 0
    endloop
  endfacet
  facet normal -0 0 -1
    outer loop
      vertex 8.86863 66.8686 0
      vertex 0 0 0
      vertex 8.73063 67.026 0
    endloop
  endfacet
  facet normal -0 0 -1
    outer loop
      vertex 8.73063 67.026 0
      vertex 0 0 0
      vertex 8.61436 67.2 0
    endloop
  endfacet
  facet normal -0 0 -1
    outer loop
      vertex 8.61436 67.2 0
      vertex 0 0 0
      vertex 8.52179 67.3877 0
    endloop
  endfacet
  facet normal 0 0 -1
    outer loop
      vertex 0 80 0
      vertex 8.52179 67.3877 0
      vertex 0 0 0
    endloop
  endfacet
  facet normal 0 0 -1
    outer loop
      vertex 8.45452 67.5859 0
      vertex 0 80 0
      vertex 8.41369 67.7912 0
    endloop
  endfacet
  facet normal 0 0 -1
    outer loop
      vertex 8.52179 67.3877 0
      vertex 0 80 0
      vertex 8.45452 67.5859 0
    endloop
  endfacet
  facet normal 0 0 -1
    outer loop
      vertex 0 0 0
      vertex 16.75 10 0
      vertex 30 0 0
    endloop
  endfacet
  facet normal 0 0 -1
    outer loop
      vertex 16.75 70 0
      vertex 30 80 0
      vertex 30 70 0
    endloop
  endfacet
  facet normal 0 0 -1
    outer loop
      vertex 11.5863 68.2088 0
      vertex 16.75 70 0
      vertex 11.6 68 0
    endloop
  endfacet
  facet normal 0 0 -1
    outer loop
      vertex 11.5455 68.4141 0
      vertex 16.75 70 0
      vertex 11.5863 68.2088 0
    endloop
  endfacet
  facet normal 0 0 -1
    outer loop
      vertex 11.4782 68.6123 0
      vertex 16.75 70 0
      vertex 11.5455 68.4141 0
    endloop
  endfacet
  facet normal 0 0 -1
    outer loop
      vertex 11.3856 68.8 0
      vertex 16.75 70 0
      vertex 11.4782 68.6123 0
    endloop
  endfacet
  facet normal 0 0 -1
    outer loop
      vertex 11.2694 68.974 0
      vertex 16.75 70 0
      vertex 11.3856 68.8 0
    endloop
  endfacet
  facet normal 0 0 -1
    outer loop
      vertex 11.1314 69.1314 0
      vertex 16.75 70 0
      vertex 11.2694 68.974 0
    endloop
  endfacet
  facet normal 0 0 -1
    outer loop
      vertex 10.974 69.2694 0
      vertex 16.75 70 0
      vertex 11.1314 69.1314 0
    endloop
  endfacet
  facet normal 0 0 -1
    outer loop
      vertex 10.8 69.3856 0
      vertex 16.75 70 0
      vertex 10.974 69.2694 0
    endloop
  endfacet
  facet normal 0 0 -1
    outer loop
      vertex 10.6123 69.4782 0
      vertex 16.75 70 0
      vertex 10.8 69.3856 0
    endloop
  endfacet
  facet normal 0 0 -1
    outer loop
      vertex 10.4141 69.5455 0
      vertex 16.75 70 0
      vertex 10.6123 69.4782 0
    endloop
  endfacet
  facet normal 0 0 -1
    outer loop
      vertex 10.2088 69.5863 0
      vertex 16.75 70 0
      vertex 10.4141 69.5455 0
    endloop
  endfacet
  facet normal -0 0 -1
    outer loop
      vertex 16.75 70 0
      vertex 10.2088 69.5863 0
      vertex 0 80 0
    endloop
  endfacet
  facet normal 0 0 -1
    outer loop
      vertex 0 80 0
      vertex 10.2088 69.5863 0
      vertex 10 69.6 0
    endloop
  endfacet
  facet normal 0 0 -1
    outer loop
      vertex 0 80 0
      vertex 10 69.6 0
      vertex 9.79116 69.5863 0
    endloop
  endfacet
  facet normal 0 0 -1
    outer loop
      vertex 0 80 0
      vertex 9.79116 69.5863 0
      vertex 9.58589 69.5455 0
    endloop
  endfacet
  facet normal 0 0 -1
    outer loop
      vertex 0 80 0
      vertex 9.58589 69.5455 0
      vertex 9.38771 69.4782 0
    endloop
  endfacet
  facet normal 0 0 -1
    outer loop
      vertex 0 80 0
      vertex 9.38771 69.4782 0
      vertex 9.2 69.3856 0
    endloop
  endfacet
  facet normal 0 0 -1
    outer loop
      vertex 8.41369 67.7912 0
      vertex 0 80 0
      vertex 8.4 68 0
    endloop
  endfacet
  facet normal 0 0 -1
    outer loop
      vertex 16.75 70 0
      vertex 0 80 0
      vertex 30 80 0
    endloop
  endfacet
  facet normal 0 0 -1
    outer loop
      vertex 9.02598 69.2694 0
      vertex 0 80 0
      vertex 9.2 69.3856 0
    endloop
  endfacet
  facet normal 0 0 -1
    outer loop
      vertex 8.86863 69.1314 0
      vertex 0 80 0
      vertex 9.02598 69.2694 0
    endloop
  endfacet
  facet normal 0 0 -1
    outer loop
      vertex 8.73063 68.974 0
      vertex 0 80 0
      vertex 8.86863 69.1314 0
    endloop
  endfacet
  facet normal 0 0 -1
    outer loop
      vertex 8.61436 68.8 0
      vertex 0 80 0
      vertex 8.73063 68.974 0
    endloop
  endfacet
  facet normal 0 0 -1
    outer loop
      vertex 8.52179 68.6123 0
      vertex 0 80 0
      vertex 8.61436 68.8 0
    endloop
  endfacet
  facet normal 0 0 -1
    outer loop
      vertex 8.45452 68.4141 0
      vertex 0 80 0
      vertex 8.52179 68.6123 0
    endloop
  endfacet
  facet normal 0 0 -1
    outer loop
      vertex 8.41369 68.2088 0
      vertex 0 80 0
      vertex 8.45452 68.4141 0
    endloop
  endfacet
  facet normal 0 0 -1
    outer loop
      vertex 8.4 68 0
      vertex 0 80 0
      vertex 8.41369 68.2088 0
    endloop
  endfacet
  facet normal 0 -1 0
    outer loop
      vertex 0 0 0
      vertex 30 0 4.8
      vertex 0 0 4.8
    endloop
  endfacet
  facet normal 0 -1 -0
    outer loop
      vertex 30 0 4.8
      vertex 0 0 0
      vertex 30 0 0
    endloop
  endfacet
  facet normal 1 -0 0
    outer loop
      vertex 16.75 10 4.8
      vertex 16.75 70 0
      vertex 16.75 70 4.8
    endloop
  endfacet
  facet normal 1 0 0
    outer loop
      vertex 16.75 70 0
      vertex 16.75 10 4.8
      vertex 16.75 10 0
    endloop
  endfacet
  facet normal 0 1 -0
    outer loop
      vertex 30 10 0
      vertex 16.75 10 4.8
      vertex 30 10 4.8
    endloop
  endfacet
  facet normal 0 1 0
    outer loop
      vertex 16.75 10 4.8
      vertex 30 10 0
      vertex 16.75 10 0
    endloop
  endfacet
  facet normal 0 -1 0
    outer loop
      vertex 16.75 70 0
      vertex 30 70 4.8
      vertex 16.75 70 4.8
    endloop
  endfacet
  facet normal 0 -1 -0
    outer loop
      vertex 30 70 4.8
      vertex 16.75 70 0
      vertex 30 70 0
    endloop
  endfacet
  facet normal 0.997858 -0.0654247 0
    outer loop
      vertex 8.4 68 4.8
      vertex 8.41369 68.2088 0
      vertex 8.41369 68.2088 4.8
    endloop
  endfacet
  facet normal 0.997858 -0.0654247 0
    outer loop
      vertex 8.41369 68.2088 0
      vertex 8.4 68 4.8
      vertex 8.4 68 0
    endloop
  endfacet
  facet normal -0.0654722 -0.997854 0
    outer loop
      vertex 10 69.6 0
      vertex 10.2088 69.5863 4.8
      vertex 10 69.6 4.8
    endloop
  endfacet
  facet normal -0.0654722 -0.997854 -0
    outer loop
      vertex 10.2088 69.5863 4.8
      vertex 10 69.6 0
      vertex 10.2088 69.5863 0
    endloop
  endfacet
  facet normal 0.659367 -0.751821 0
    outer loop
      vertex 8.86863 69.1314 0
      vertex 9.02598 69.2694 4.8
      vertex 8.86863 69.1314 4.8
    endloop
  endfacet
  facet normal 0.659367 -0.751821 0
    outer loop
      vertex 9.02598 69.2694 4.8
      vertex 8.86863 69.1314 0
      vertex 9.02598 69.2694 0
    endloop
  endfacet
  facet normal -0.751925 -0.659248 0
    outer loop
      vertex 11.2694 68.974 0
      vertex 11.1314 69.1314 4.8
      vertex 11.1314 69.1314 0
    endloop
  endfacet
  facet normal -0.751925 -0.659248 0
    outer loop
      vertex 11.1314 69.1314 4.8
      vertex 11.2694 68.974 0
      vertex 11.2694 68.974 4.8
    endloop
  endfacet
  facet normal -0.442429 -0.896803 0
    outer loop
      vertex 10.6123 69.4782 0
      vertex 10.8 69.3856 4.8
      vertex 10.6123 69.4782 4.8
    endloop
  endfacet
  facet normal -0.442429 -0.896803 -0
    outer loop
      vertex 10.8 69.3856 4.8
      vertex 10.6123 69.4782 0
      vertex 10.8 69.3856 0
    endloop
  endfacet
  facet normal 0.89686 -0.442314 0
    outer loop
      vertex 8.52179 68.6123 4.8
      vertex 8.61436 68.8 0
      vertex 8.61436 68.8 4.8
    endloop
  endfacet
  facet normal 0.89686 -0.442314 0
    outer loop
      vertex 8.61436 68.8 0
      vertex 8.52179 68.6123 4.8
      vertex 8.52179 68.6123 0
    endloop
  endfacet
  facet normal 0.831454 -0.555593 0
    outer loop
      vertex 8.61436 68.8 4.8
      vertex 8.73063 68.974 0
      vertex 8.73063 68.974 4.8
    endloop
  endfacet
  facet normal 0.831454 -0.555593 0
    outer loop
      vertex 8.73063 68.974 0
      vertex 8.61436 68.8 4.8
      vertex 8.61436 68.8 0
    endloop
  endfacet
  facet normal 0.321555 -0.946891 0
    outer loop
      vertex 9.38771 69.4782 0
      vertex 9.58589 69.5455 4.8
      vertex 9.38771 69.4782 4.8
    endloop
  endfacet
  facet normal 0.321555 -0.946891 0
    outer loop
      vertex 9.58589 69.5455 4.8
      vertex 9.38771 69.4782 0
      vertex 9.58589 69.5455 0
    endloop
  endfacet
  facet normal 0.194949 -0.980813 0
    outer loop
      vertex 9.58589 69.5455 0
      vertex 9.79116 69.5863 4.8
      vertex 9.58589 69.5455 4.8
    endloop
  endfacet
  facet normal 0.194949 -0.980813 0
    outer loop
      vertex 9.79116 69.5863 4.8
      vertex 9.58589 69.5455 0
      vertex 9.79116 69.5863 0
    endloop
  endfacet
  facet normal 0.44241 -0.896813 0
    outer loop
      vertex 9.2 69.3856 0
      vertex 9.38771 69.4782 4.8
      vertex 9.2 69.3856 4.8
    endloop
  endfacet
  facet normal 0.44241 -0.896813 0
    outer loop
      vertex 9.38771 69.4782 4.8
      vertex 9.2 69.3856 0
      vertex 9.38771 69.4782 0
    endloop
  endfacet
  facet normal -0.946901 -0.321526 0
    outer loop
      vertex 11.5455 68.4141 0
      vertex 11.4782 68.6123 4.8
      vertex 11.4782 68.6123 0
    endloop
  endfacet
  facet normal -0.946901 -0.321526 0
    outer loop
      vertex 11.4782 68.6123 4.8
      vertex 11.5455 68.4141 0
      vertex 11.5455 68.4141 4.8
    endloop
  endfacet
  facet normal -0.896803 -0.442429 0
    outer loop
      vertex 11.4782 68.6123 0
      vertex 11.3856 68.8 4.8
      vertex 11.3856 68.8 0
    endloop
  endfacet
  facet normal -0.896803 -0.442429 0
    outer loop
      vertex 11.3856 68.8 4.8
      vertex 11.4782 68.6123 0
      vertex 11.4782 68.6123 4.8
    endloop
  endfacet
  facet normal -0.980819 -0.194922 0
    outer loop
      vertex 11.5863 68.2088 0
      vertex 11.5455 68.4141 4.8
      vertex 11.5455 68.4141 0
    endloop
  endfacet
  facet normal -0.980819 -0.194922 0
    outer loop
      vertex 11.5455 68.4141 4.8
      vertex 11.5863 68.2088 0
      vertex 11.5863 68.2088 4.8
    endloop
  endfacet
  facet normal -0.555362 -0.831609 0
    outer loop
      vertex 10.8 69.3856 0
      vertex 10.974 69.2694 4.8
      vertex 10.8 69.3856 4.8
    endloop
  endfacet
  facet normal -0.555362 -0.831609 -0
    outer loop
      vertex 10.974 69.2694 4.8
      vertex 10.8 69.3856 0
      vertex 10.974 69.2694 0
    endloop
  endfacet
  facet normal -0.321526 -0.946901 0
    outer loop
      vertex 10.4141 69.5455 0
      vertex 10.6123 69.4782 4.8
      vertex 10.4141 69.5455 4.8
    endloop
  endfacet
  facet normal -0.321526 -0.946901 -0
    outer loop
      vertex 10.6123 69.4782 4.8
      vertex 10.4141 69.5455 0
      vertex 10.6123 69.4782 0
    endloop
  endfacet
  facet normal 0.751925 0.659248 0
    outer loop
      vertex 8.86863 66.8686 4.8
      vertex 8.73063 67.026 0
      vertex 8.73063 67.026 4.8
    endloop
  endfacet
  facet normal 0.751925 0.659248 0
    outer loop
      vertex 8.73063 67.026 0
      vertex 8.86863 66.8686 4.8
      vertex 8.86863 66.8686 0
    endloop
  endfacet
  facet normal 0.555318 0.831638 -0
    outer loop
      vertex 9.2 66.6144 0
      vertex 9.02598 66.7306 4.8
      vertex 9.2 66.6144 4.8
    endloop
  endfacet
  facet normal 0.555318 0.831638 0
    outer loop
      vertex 9.02598 66.7306 4.8
      vertex 9.2 66.6144 0
      vertex 9.02598 66.7306 0
    endloop
  endfacet
  facet normal 0.980791 0.195059 0
    outer loop
      vertex 8.45452 67.5859 4.8
      vertex 8.41369 67.7912 0
      vertex 8.41369 67.7912 4.8
    endloop
  endfacet
  facet normal 0.980791 0.195059 0
    outer loop
      vertex 8.41369 67.7912 0
      vertex 8.45452 67.5859 4.8
      vertex 8.45452 67.5859 0
    endloop
  endfacet
  facet normal -0.321526 0.946901 0
    outer loop
      vertex 10.6123 66.5218 0
      vertex 10.4141 66.4545 4.8
      vertex 10.6123 66.5218 4.8
    endloop
  endfacet
  facet normal -0.321526 0.946901 0
    outer loop
      vertex 10.4141 66.4545 4.8
      vertex 10.6123 66.5218 0
      vertex 10.4141 66.4545 0
    endloop
  endfacet
  facet normal -0.194922 0.980819 0
    outer loop
      vertex 10.4141 66.4545 0
      vertex 10.2088 66.4137 4.8
      vertex 10.4141 66.4545 4.8
    endloop
  endfacet
  facet normal -0.194922 0.980819 0
    outer loop
      vertex 10.2088 66.4137 4.8
      vertex 10.4141 66.4545 0
      vertex 10.2088 66.4137 0
    endloop
  endfacet
  facet normal -0.831609 0.555362 0
    outer loop
      vertex 11.2694 67.026 0
      vertex 11.3856 67.2 4.8
      vertex 11.3856 67.2 0
    endloop
  endfacet
  facet normal -0.831609 0.555362 0
    outer loop
      vertex 11.3856 67.2 4.8
      vertex 11.2694 67.026 0
      vertex 11.2694 67.026 4.8
    endloop
  endfacet
  facet normal -0.751925 0.659248 0
    outer loop
      vertex 11.1314 66.8686 0
      vertex 11.2694 67.026 4.8
      vertex 11.2694 67.026 0
    endloop
  endfacet
  facet normal -0.751925 0.659248 0
    outer loop
      vertex 11.2694 67.026 4.8
      vertex 11.1314 66.8686 0
      vertex 11.1314 66.8686 4.8
    endloop
  endfacet
  facet normal 0.946944 -0.321397 0
    outer loop
      vertex 8.45452 68.4141 4.8
      vertex 8.52179 68.6123 0
      vertex 8.52179 68.6123 4.8
    endloop
  endfacet
  facet normal 0.946944 -0.321397 0
    outer loop
      vertex 8.52179 68.6123 0
      vertex 8.45452 68.4141 4.8
      vertex 8.45452 68.4141 0
    endloop
  endfacet
  facet normal 0.980791 -0.195059 0
    outer loop
      vertex 8.41369 68.2088 4.8
      vertex 8.45452 68.4141 0
      vertex 8.45452 68.4141 4.8
    endloop
  endfacet
  facet normal 0.980791 -0.195059 0
    outer loop
      vertex 8.45452 68.4141 0
      vertex 8.41369 68.2088 4.8
      vertex 8.41369 68.2088 0
    endloop
  endfacet
  facet normal 0.0654598 -0.997855 0
    outer loop
      vertex 9.79116 69.5863 0
      vertex 10 69.6 4.8
      vertex 9.79116 69.5863 4.8
    endloop
  endfacet
  facet normal 0.0654598 -0.997855 0
    outer loop
      vertex 10 69.6 4.8
      vertex 9.79116 69.5863 0
      vertex 10 69.6 0
    endloop
  endfacet
  facet normal 0.555318 -0.831638 0
    outer loop
      vertex 9.02598 69.2694 0
      vertex 9.2 69.3856 4.8
      vertex 9.02598 69.2694 4.8
    endloop
  endfacet
  facet normal 0.555318 -0.831638 0
    outer loop
      vertex 9.2 69.3856 4.8
      vertex 9.02598 69.2694 0
      vertex 9.2 69.3856 0
    endloop
  endfacet
  facet normal -0.997854 -0.0654722 0
    outer loop
      vertex 11.6 68 0
      vertex 11.5863 68.2088 4.8
      vertex 11.5863 68.2088 0
    endloop
  endfacet
  facet normal -0.997854 -0.0654722 0
    outer loop
      vertex 11.5863 68.2088 4.8
      vertex 11.6 68 0
      vertex 11.6 68 4.8
    endloop
  endfacet
  facet normal -0.194922 -0.980819 0
    outer loop
      vertex 10.2088 69.5863 0
      vertex 10.4141 69.5455 4.8
      vertex 10.2088 69.5863 4.8
    endloop
  endfacet
  facet normal -0.194922 -0.980819 -0
    outer loop
      vertex 10.4141 69.5455 4.8
      vertex 10.2088 69.5863 0
      vertex 10.4141 69.5455 0
    endloop
  endfacet
  facet normal 0.997858 0.0654247 0
    outer loop
      vertex 8.41369 67.7912 4.8
      vertex 8.4 68 0
      vertex 8.4 68 4.8
    endloop
  endfacet
  facet normal 0.997858 0.0654247 0
    outer loop
      vertex 8.4 68 0
      vertex 8.41369 67.7912 4.8
      vertex 8.41369 67.7912 0
    endloop
  endfacet
  facet normal 0.194949 0.980813 -0
    outer loop
      vertex 9.79116 66.4137 0
      vertex 9.58589 66.4545 4.8
      vertex 9.79116 66.4137 4.8
    endloop
  endfacet
  facet normal 0.194949 0.980813 0
    outer loop
      vertex 9.58589 66.4545 4.8
      vertex 9.79116 66.4137 0
      vertex 9.58589 66.4545 0
    endloop
  endfacet
  facet normal 0.44241 0.896813 -0
    outer loop
      vertex 9.38771 66.5218 0
      vertex 9.2 66.6144 4.8
      vertex 9.38771 66.5218 4.8
    endloop
  endfacet
  facet normal 0.44241 0.896813 0
    outer loop
      vertex 9.2 66.6144 4.8
      vertex 9.38771 66.5218 0
      vertex 9.2 66.6144 0
    endloop
  endfacet
  facet normal 0.659367 0.751821 -0
    outer loop
      vertex 9.02598 66.7306 0
      vertex 8.86863 66.8686 4.8
      vertex 9.02598 66.7306 4.8
    endloop
  endfacet
  facet normal 0.659367 0.751821 0
    outer loop
      vertex 8.86863 66.8686 4.8
      vertex 9.02598 66.7306 0
      vertex 8.86863 66.8686 0
    endloop
  endfacet
  facet normal 0.946944 0.321397 0
    outer loop
      vertex 8.52179 67.3877 4.8
      vertex 8.45452 67.5859 0
      vertex 8.45452 67.5859 4.8
    endloop
  endfacet
  facet normal 0.946944 0.321397 0
    outer loop
      vertex 8.45452 67.5859 0
      vertex 8.52179 67.3877 4.8
      vertex 8.52179 67.3877 0
    endloop
  endfacet
  facet normal 0.831454 0.555593 0
    outer loop
      vertex 8.73063 67.026 4.8
      vertex 8.61436 67.2 0
      vertex 8.61436 67.2 4.8
    endloop
  endfacet
  facet normal 0.831454 0.555593 0
    outer loop
      vertex 8.61436 67.2 0
      vertex 8.73063 67.026 4.8
      vertex 8.73063 67.026 0
    endloop
  endfacet
  facet normal 0.89686 0.442314 0
    outer loop
      vertex 8.61436 67.2 4.8
      vertex 8.52179 67.3877 0
      vertex 8.52179 67.3877 4.8
    endloop
  endfacet
  facet normal 0.89686 0.442314 0
    outer loop
      vertex 8.52179 67.3877 0
      vertex 8.61436 67.2 4.8
      vertex 8.61436 67.2 0
    endloop
  endfacet
  facet normal -0.555362 0.831609 0
    outer loop
      vertex 10.974 66.7306 0
      vertex 10.8 66.6144 4.8
      vertex 10.974 66.7306 4.8
    endloop
  endfacet
  facet normal -0.555362 0.831609 0
    outer loop
      vertex 10.8 66.6144 4.8
      vertex 10.974 66.7306 0
      vertex 10.8 66.6144 0
    endloop
  endfacet
  facet normal -0.442429 0.896803 0
    outer loop
      vertex 10.8 66.6144 0
      vertex 10.6123 66.5218 4.8
      vertex 10.8 66.6144 4.8
    endloop
  endfacet
  facet normal -0.442429 0.896803 0
    outer loop
      vertex 10.6123 66.5218 4.8
      vertex 10.8 66.6144 0
      vertex 10.6123 66.5218 0
    endloop
  endfacet
  facet normal -0.0654722 0.997854 0
    outer loop
      vertex 10.2088 66.4137 0
      vertex 10 66.4 4.8
      vertex 10.2088 66.4137 4.8
    endloop
  endfacet
  facet normal -0.0654722 0.997854 0
    outer loop
      vertex 10 66.4 4.8
      vertex 10.2088 66.4137 0
      vertex 10 66.4 0
    endloop
  endfacet
  facet normal -0.659248 0.751925 0
    outer loop
      vertex 11.1314 66.8686 0
      vertex 10.974 66.7306 4.8
      vertex 11.1314 66.8686 4.8
    endloop
  endfacet
  facet normal -0.659248 0.751925 0
    outer loop
      vertex 10.974 66.7306 4.8
      vertex 11.1314 66.8686 0
      vertex 10.974 66.7306 0
    endloop
  endfacet
  facet normal -0.896803 0.442429 0
    outer loop
      vertex 11.3856 67.2 0
      vertex 11.4782 67.3877 4.8
      vertex 11.4782 67.3877 0
    endloop
  endfacet
  facet normal -0.896803 0.442429 0
    outer loop
      vertex 11.4782 67.3877 4.8
      vertex 11.3856 67.2 0
      vertex 11.3856 67.2 4.8
    endloop
  endfacet
  facet normal -0.980819 0.194922 0
    outer loop
      vertex 11.5455 67.5859 0
      vertex 11.5863 67.7912 4.8
      vertex 11.5863 67.7912 0
    endloop
  endfacet
  facet normal -0.980819 0.194922 0
    outer loop
      vertex 11.5863 67.7912 4.8
      vertex 11.5455 67.5859 0
      vertex 11.5455 67.5859 4.8
    endloop
  endfacet
  facet normal 0.751925 -0.659248 0
    outer loop
      vertex 8.73063 68.974 4.8
      vertex 8.86863 69.1314 0
      vertex 8.86863 69.1314 4.8
    endloop
  endfacet
  facet normal 0.751925 -0.659248 0
    outer loop
      vertex 8.86863 69.1314 0
      vertex 8.73063 68.974 4.8
      vertex 8.73063 68.974 0
    endloop
  endfacet
  facet normal -0.831609 -0.555362 0
    outer loop
      vertex 11.3856 68.8 0
      vertex 11.2694 68.974 4.8
      vertex 11.2694 68.974 0
    endloop
  endfacet
  facet normal -0.831609 -0.555362 0
    outer loop
      vertex 11.2694 68.974 4.8
      vertex 11.3856 68.8 0
      vertex 11.3856 68.8 4.8
    endloop
  endfacet
  facet normal -0.997854 0.0654722 0
    outer loop
      vertex 11.5863 67.7912 0
      vertex 11.6 68 4.8
      vertex 11.6 68 0
    endloop
  endfacet
  facet normal -0.997854 0.0654722 0
    outer loop
      vertex 11.6 68 4.8
      vertex 11.5863 67.7912 0
      vertex 11.5863 67.7912 4.8
    endloop
  endfacet
  facet normal -0.659248 -0.751925 0
    outer loop
      vertex 10.974 69.2694 0
      vertex 11.1314 69.1314 4.8
      vertex 10.974 69.2694 4.8
    endloop
  endfacet
  facet normal -0.659248 -0.751925 -0
    outer loop
      vertex 11.1314 69.1314 4.8
      vertex 10.974 69.2694 0
      vertex 11.1314 69.1314 0
    endloop
  endfacet
  facet normal 0.321555 0.946891 -0
    outer loop
      vertex 9.58589 66.4545 0
      vertex 9.38771 66.5218 4.8
      vertex 9.58589 66.4545 4.8
    endloop
  endfacet
  facet normal 0.321555 0.946891 0
    outer loop
      vertex 9.38771 66.5218 4.8
      vertex 9.58589 66.4545 0
      vertex 9.38771 66.5218 0
    endloop
  endfacet
  facet normal 0.0654598 0.997855 -0
    outer loop
      vertex 10 66.4 0
      vertex 9.79116 66.4137 4.8
      vertex 10 66.4 4.8
    endloop
  endfacet
  facet normal 0.0654598 0.997855 0
    outer loop
      vertex 9.79116 66.4137 4.8
      vertex 10 66.4 0
      vertex 9.79116 66.4137 0
    endloop
  endfacet
  facet normal -0.946901 0.321526 0
    outer loop
      vertex 11.4782 67.3877 0
      vertex 11.5455 67.5859 4.8
      vertex 11.5455 67.5859 0
    endloop
  endfacet
  facet normal -0.946901 0.321526 0
    outer loop
      vertex 11.5455 67.5859 4.8
      vertex 11.4782 67.3877 0
      vertex 11.4782 67.3877 4.8
    endloop
  endfacet
endsolid OpenSCAD_Model
