solid OpenSCAD_Model
  facet normal 0.997858 -0.0654122 0
    outer loop
      vertex 9.4 9 5
      vertex 9.41369 9.20884 0
      vertex 9.41369 9.20884 5
    endloop
  endfacet
  facet normal 0.997858 -0.0654122 0
    outer loop
      vertex 9.41369 9.20884 0
      vertex 9.4 9 5
      vertex 9.4 9 0
    endloop
  endfacet
  facet normal 0.659319 -0.751863 0
    outer loop
      vertex 9.86863 10.1314 0
      vertex 10.026 10.2694 5
      vertex 9.86863 10.1314 5
    endloop
  endfacet
  facet normal 0.659319 -0.751863 0
    outer loop
      vertex 10.026 10.2694 5
      vertex 9.86863 10.1314 0
      vertex 10.026 10.2694 0
    endloop
  endfacet
  facet normal 0.946935 -0.321426 0
    outer loop
      vertex 9.45452 9.41411 5
      vertex 9.52179 9.61229 0
      vertex 9.52179 9.61229 5
    endloop
  endfacet
  facet normal 0.946935 -0.321426 0
    outer loop
      vertex 9.52179 9.61229 0
      vertex 9.45452 9.41411 5
      vertex 9.45452 9.41411 0
    endloop
  endfacet
  facet normal 0 1 -0
    outer loop
      vertex 35 7.4 0
      vertex 11 7.4 5
      vertex 35 7.4 5
    endloop
  endfacet
  facet normal 0 1 0
    outer loop
      vertex 11 7.4 5
      vertex 35 7.4 0
      vertex 11 7.4 0
    endloop
  endfacet
  facet normal 0.980786 -0.195087 0
    outer loop
      vertex 9.41369 9.20884 5
      vertex 9.45452 9.41411 0
      vertex 9.45452 9.41411 5
    endloop
  endfacet
  facet normal 0.980786 -0.195087 0
    outer loop
      vertex 9.45452 9.41411 0
      vertex 9.41369 9.20884 5
      vertex 9.41369 9.20884 0
    endloop
  endfacet
  facet normal 0.751884 -0.659296 0
    outer loop
      vertex 9.73063 9.97402 5
      vertex 9.86863 10.1314 0
      vertex 9.86863 10.1314 5
    endloop
  endfacet
  facet normal 0.751884 -0.659296 0
    outer loop
      vertex 9.86863 10.1314 0
      vertex 9.73063 9.97402 5
      vertex 9.73063 9.97402 0
    endloop
  endfacet
  facet normal 0 -1 0
    outer loop
      vertex 11 10.6 0
      vertex 35 10.6 5
      vertex 11 10.6 5
    endloop
  endfacet
  facet normal 0 -1 -0
    outer loop
      vertex 35 10.6 5
      vertex 11 10.6 0
      vertex 35 10.6 0
    endloop
  endfacet
  facet normal -0.980813 -0.194949 0
    outer loop
      vertex 36.5863 9.20884 0
      vertex 36.5455 9.41411 5
      vertex 36.5455 9.41411 0
    endloop
  endfacet
  facet normal -0.980813 -0.194949 0
    outer loop
      vertex 36.5455 9.41411 5
      vertex 36.5863 9.20884 0
      vertex 36.5863 9.20884 5
    endloop
  endfacet
  facet normal -0.946891 0.321555 0
    outer loop
      vertex 36.4782 8.38771 0
      vertex 36.5455 8.58589 5
      vertex 36.5455 8.58589 0
    endloop
  endfacet
  facet normal -0.946891 0.321555 0
    outer loop
      vertex 36.5455 8.58589 5
      vertex 36.4782 8.38771 0
      vertex 36.4782 8.38771 5
    endloop
  endfacet
  facet normal -0.896813 0.44241 0
    outer loop
      vertex 36.3856 8.2 0
      vertex 36.4782 8.38771 5
      vertex 36.4782 8.38771 0
    endloop
  endfacet
  facet normal -0.896813 0.44241 0
    outer loop
      vertex 36.4782 8.38771 5
      vertex 36.3856 8.2 0
      vertex 36.3856 8.2 5
    endloop
  endfacet
  facet normal -0.997855 0.0654598 0
    outer loop
      vertex 36.5863 8.79116 0
      vertex 36.6 9 5
      vertex 36.6 9 0
    endloop
  endfacet
  facet normal -0.997855 0.0654598 0
    outer loop
      vertex 36.6 9 5
      vertex 36.5863 8.79116 0
      vertex 36.5863 8.79116 5
    endloop
  endfacet
  facet normal 0.89687 -0.442295 0
    outer loop
      vertex 9.52179 9.61229 5
      vertex 9.61436 9.8 0
      vertex 9.61436 9.8 5
    endloop
  endfacet
  facet normal 0.89687 -0.442295 0
    outer loop
      vertex 9.61436 9.8 0
      vertex 9.52179 9.61229 5
      vertex 9.52179 9.61229 0
    endloop
  endfacet
  facet normal 0.831484 -0.555549 0
    outer loop
      vertex 9.61436 9.8 5
      vertex 9.73063 9.97402 0
      vertex 9.73063 9.97402 5
    endloop
  endfacet
  facet normal 0.831484 -0.555549 0
    outer loop
      vertex 9.73063 9.97402 0
      vertex 9.61436 9.8 5
      vertex 9.61436 9.8 0
    endloop
  endfacet
  facet normal 0.555362 -0.831609 0
    outer loop
      vertex 10.026 10.2694 0
      vertex 10.2 10.3856 5
      vertex 10.026 10.2694 5
    endloop
  endfacet
  facet normal 0.555362 -0.831609 0
    outer loop
      vertex 10.2 10.3856 5
      vertex 10.026 10.2694 0
      vertex 10.2 10.3856 0
    endloop
  endfacet
  facet normal 0.321526 -0.946901 0
    outer loop
      vertex 10.3877 10.4782 0
      vertex 10.5859 10.5455 5
      vertex 10.3877 10.4782 5
    endloop
  endfacet
  facet normal 0.321526 -0.946901 0
    outer loop
      vertex 10.5859 10.5455 5
      vertex 10.3877 10.4782 0
      vertex 10.5859 10.5455 0
    endloop
  endfacet
  facet normal -0.831638 -0.555318 0
    outer loop
      vertex 36.3856 9.8 0
      vertex 36.2694 9.97402 5
      vertex 36.2694 9.97402 0
    endloop
  endfacet
  facet normal -0.831638 -0.555318 0
    outer loop
      vertex 36.2694 9.97402 5
      vertex 36.3856 9.8 0
      vertex 36.3856 9.8 5
    endloop
  endfacet
  facet normal -0.997855 -0.0654598 0
    outer loop
      vertex 36.6 9 0
      vertex 36.5863 9.20884 5
      vertex 36.5863 9.20884 0
    endloop
  endfacet
  facet normal -0.997855 -0.0654598 0
    outer loop
      vertex 36.5863 9.20884 5
      vertex 36.6 9 0
      vertex 36.6 9 5
    endloop
  endfacet
  facet normal 0.997858 0.0654122 0
    outer loop
      vertex 9.41369 8.79116 5
      vertex 9.4 9 0
      vertex 9.4 9 5
    endloop
  endfacet
  facet normal 0.997858 0.0654122 0
    outer loop
      vertex 9.4 9 0
      vertex 9.41369 8.79116 5
      vertex 9.41369 8.79116 0
    endloop
  endfacet
  facet normal 0.659319 0.751863 -0
    outer loop
      vertex 10.026 7.73063 0
      vertex 9.86863 7.86863 5
      vertex 10.026 7.73063 5
    endloop
  endfacet
  facet normal 0.659319 0.751863 0
    outer loop
      vertex 9.86863 7.86863 5
      vertex 10.026 7.73063 0
      vertex 9.86863 7.86863 0
    endloop
  endfacet
  facet normal 0.0654247 0.997858 -0
    outer loop
      vertex 11 7.4 0
      vertex 10.7912 7.41369 5
      vertex 11 7.4 5
    endloop
  endfacet
  facet normal 0.0654247 0.997858 0
    outer loop
      vertex 10.7912 7.41369 5
      vertex 11 7.4 0
      vertex 10.7912 7.41369 0
    endloop
  endfacet
  facet normal 0.442429 -0.896803 0
    outer loop
      vertex 10.2 10.3856 0
      vertex 10.3877 10.4782 5
      vertex 10.2 10.3856 5
    endloop
  endfacet
  facet normal 0.442429 -0.896803 0
    outer loop
      vertex 10.3877 10.4782 5
      vertex 10.2 10.3856 0
      vertex 10.3877 10.4782 0
    endloop
  endfacet
  facet normal 0.0654722 -0.997854 0
    outer loop
      vertex 10.7912 10.5863 0
      vertex 11 10.6 5
      vertex 10.7912 10.5863 5
    endloop
  endfacet
  facet normal 0.0654722 -0.997854 0
    outer loop
      vertex 11 10.6 5
      vertex 10.7912 10.5863 0
      vertex 11 10.6 0
    endloop
  endfacet
  facet normal -0.555362 -0.831609 0
    outer loop
      vertex 35.8 10.3856 0
      vertex 35.974 10.2694 5
      vertex 35.8 10.3856 5
    endloop
  endfacet
  facet normal -0.555362 -0.831609 -0
    outer loop
      vertex 35.974 10.2694 5
      vertex 35.8 10.3856 0
      vertex 35.974 10.2694 0
    endloop
  endfacet
  facet normal -0.831638 0.555318 0
    outer loop
      vertex 36.2694 8.02598 0
      vertex 36.3856 8.2 5
      vertex 36.3856 8.2 0
    endloop
  endfacet
  facet normal -0.831638 0.555318 0
    outer loop
      vertex 36.3856 8.2 5
      vertex 36.2694 8.02598 0
      vertex 36.2694 8.02598 5
    endloop
  endfacet
  facet normal 0.89687 0.442295 0
    outer loop
      vertex 9.61436 8.2 5
      vertex 9.52179 8.38771 0
      vertex 9.52179 8.38771 5
    endloop
  endfacet
  facet normal 0.89687 0.442295 0
    outer loop
      vertex 9.52179 8.38771 0
      vertex 9.61436 8.2 5
      vertex 9.61436 8.2 0
    endloop
  endfacet
  facet normal 0.751821 0.659367 0
    outer loop
      vertex 9.86863 7.86863 5
      vertex 9.73063 8.02598 0
      vertex 9.73063 8.02598 5
    endloop
  endfacet
  facet normal 0.751821 0.659367 0
    outer loop
      vertex 9.73063 8.02598 0
      vertex 9.86863 7.86863 5
      vertex 9.86863 7.86863 0
    endloop
  endfacet
  facet normal 0.980786 0.195087 0
    outer loop
      vertex 9.45452 8.58589 5
      vertex 9.41369 8.79116 0
      vertex 9.41369 8.79116 5
    endloop
  endfacet
  facet normal 0.980786 0.195087 0
    outer loop
      vertex 9.41369 8.79116 0
      vertex 9.45452 8.58589 5
      vertex 9.45452 8.58589 0
    endloop
  endfacet
  facet normal 0.555593 0.831454 -0
    outer loop
      vertex 10.2 7.61436 0
      vertex 10.026 7.73063 5
      vertex 10.2 7.61436 5
    endloop
  endfacet
  facet normal 0.555593 0.831454 0
    outer loop
      vertex 10.026 7.73063 5
      vertex 10.2 7.61436 0
      vertex 10.026 7.73063 0
    endloop
  endfacet
  facet normal 0.321397 0.946944 -0
    outer loop
      vertex 10.5859 7.45452 0
      vertex 10.3877 7.52179 5
      vertex 10.5859 7.45452 5
    endloop
  endfacet
  facet normal 0.321397 0.946944 0
    outer loop
      vertex 10.3877 7.52179 5
      vertex 10.5859 7.45452 0
      vertex 10.3877 7.52179 0
    endloop
  endfacet
  facet normal 0.194922 -0.980819 0
    outer loop
      vertex 10.5859 10.5455 0
      vertex 10.7912 10.5863 5
      vertex 10.5859 10.5455 5
    endloop
  endfacet
  facet normal 0.194922 -0.980819 0
    outer loop
      vertex 10.7912 10.5863 5
      vertex 10.5859 10.5455 0
      vertex 10.7912 10.5863 0
    endloop
  endfacet
  facet normal -0.946891 -0.321555 0
    outer loop
      vertex 36.5455 9.41411 0
      vertex 36.4782 9.61229 5
      vertex 36.4782 9.61229 0
    endloop
  endfacet
  facet normal -0.946891 -0.321555 0
    outer loop
      vertex 36.4782 9.61229 5
      vertex 36.5455 9.41411 0
      vertex 36.5455 9.41411 5
    endloop
  endfacet
  facet normal -0.0654722 -0.997854 0
    outer loop
      vertex 35 10.6 0
      vertex 35.2088 10.5863 5
      vertex 35 10.6 5
    endloop
  endfacet
  facet normal -0.0654722 -0.997854 -0
    outer loop
      vertex 35.2088 10.5863 5
      vertex 35 10.6 0
      vertex 35.2088 10.5863 0
    endloop
  endfacet
  facet normal -0.442429 -0.896803 0
    outer loop
      vertex 35.6123 10.4782 0
      vertex 35.8 10.3856 5
      vertex 35.6123 10.4782 5
    endloop
  endfacet
  facet normal -0.442429 -0.896803 -0
    outer loop
      vertex 35.8 10.3856 5
      vertex 35.6123 10.4782 0
      vertex 35.8 10.3856 0
    endloop
  endfacet
  facet normal -0.980813 0.194949 0
    outer loop
      vertex 36.5455 8.58589 0
      vertex 36.5863 8.79116 5
      vertex 36.5863 8.79116 0
    endloop
  endfacet
  facet normal -0.980813 0.194949 0
    outer loop
      vertex 36.5863 8.79116 5
      vertex 36.5455 8.58589 0
      vertex 36.5455 8.58589 5
    endloop
  endfacet
  facet normal -0.659248 0.751925 0
    outer loop
      vertex 36.1314 7.86863 0
      vertex 35.974 7.73063 5
      vertex 36.1314 7.86863 5
    endloop
  endfacet
  facet normal -0.659248 0.751925 0
    outer loop
      vertex 35.974 7.73063 5
      vertex 36.1314 7.86863 0
      vertex 35.974 7.73063 0
    endloop
  endfacet
  facet normal -0.442314 0.89686 0
    outer loop
      vertex 35.8 7.61436 0
      vertex 35.6123 7.52179 5
      vertex 35.8 7.61436 5
    endloop
  endfacet
  facet normal -0.442314 0.89686 0
    outer loop
      vertex 35.6123 7.52179 5
      vertex 35.8 7.61436 0
      vertex 35.6123 7.52179 0
    endloop
  endfacet
  facet normal -0.555593 0.831454 0
    outer loop
      vertex 35.974 7.73063 0
      vertex 35.8 7.61436 5
      vertex 35.974 7.73063 5
    endloop
  endfacet
  facet normal -0.555593 0.831454 0
    outer loop
      vertex 35.8 7.61436 5
      vertex 35.974 7.73063 0
      vertex 35.8 7.61436 0
    endloop
  endfacet
  facet normal 0.831484 0.555549 0
    outer loop
      vertex 9.73063 8.02598 5
      vertex 9.61436 8.2 0
      vertex 9.61436 8.2 5
    endloop
  endfacet
  facet normal 0.831484 0.555549 0
    outer loop
      vertex 9.61436 8.2 0
      vertex 9.73063 8.02598 5
      vertex 9.73063 8.02598 0
    endloop
  endfacet
  facet normal 0.946935 0.321426 0
    outer loop
      vertex 9.52179 8.38771 5
      vertex 9.45452 8.58589 0
      vertex 9.45452 8.58589 5
    endloop
  endfacet
  facet normal 0.946935 0.321426 0
    outer loop
      vertex 9.45452 8.58589 0
      vertex 9.52179 8.38771 5
      vertex 9.52179 8.38771 0
    endloop
  endfacet
  facet normal 0.442314 0.89686 -0
    outer loop
      vertex 10.3877 7.52179 0
      vertex 10.2 7.61436 5
      vertex 10.3877 7.52179 5
    endloop
  endfacet
  facet normal 0.442314 0.89686 0
    outer loop
      vertex 10.2 7.61436 5
      vertex 10.3877 7.52179 0
      vertex 10.2 7.61436 0
    endloop
  endfacet
  facet normal 0.195059 0.980791 -0
    outer loop
      vertex 10.7912 7.41369 0
      vertex 10.5859 7.45452 5
      vertex 10.7912 7.41369 5
    endloop
  endfacet
  facet normal 0.195059 0.980791 0
    outer loop
      vertex 10.5859 7.45452 5
      vertex 10.7912 7.41369 0
      vertex 10.5859 7.45452 0
    endloop
  endfacet
  facet normal -0.659248 -0.751925 0
    outer loop
      vertex 35.974 10.2694 0
      vertex 36.1314 10.1314 5
      vertex 35.974 10.2694 5
    endloop
  endfacet
  facet normal -0.659248 -0.751925 -0
    outer loop
      vertex 36.1314 10.1314 5
      vertex 35.974 10.2694 0
      vertex 36.1314 10.1314 0
    endloop
  endfacet
  facet normal -0.751884 -0.659296 0
    outer loop
      vertex 36.2694 9.97402 0
      vertex 36.1314 10.1314 5
      vertex 36.1314 10.1314 0
    endloop
  endfacet
  facet normal -0.751884 -0.659296 0
    outer loop
      vertex 36.1314 10.1314 5
      vertex 36.2694 9.97402 0
      vertex 36.2694 9.97402 5
    endloop
  endfacet
  facet normal -0.896813 -0.44241 0
    outer loop
      vertex 36.4782 9.61229 0
      vertex 36.3856 9.8 5
      vertex 36.3856 9.8 0
    endloop
  endfacet
  facet normal -0.896813 -0.44241 0
    outer loop
      vertex 36.3856 9.8 5
      vertex 36.4782 9.61229 0
      vertex 36.4782 9.61229 5
    endloop
  endfacet
  facet normal -0.194922 -0.980819 0
    outer loop
      vertex 35.2088 10.5863 0
      vertex 35.4141 10.5455 5
      vertex 35.2088 10.5863 5
    endloop
  endfacet
  facet normal -0.194922 -0.980819 -0
    outer loop
      vertex 35.4141 10.5455 5
      vertex 35.2088 10.5863 0
      vertex 35.4141 10.5455 0
    endloop
  endfacet
  facet normal -0.321526 -0.946901 0
    outer loop
      vertex 35.4141 10.5455 0
      vertex 35.6123 10.4782 5
      vertex 35.4141 10.5455 5
    endloop
  endfacet
  facet normal -0.321526 -0.946901 -0
    outer loop
      vertex 35.6123 10.4782 5
      vertex 35.4141 10.5455 0
      vertex 35.6123 10.4782 0
    endloop
  endfacet
  facet normal -0.751821 0.659367 0
    outer loop
      vertex 36.1314 7.86863 0
      vertex 36.2694 8.02598 5
      vertex 36.2694 8.02598 0
    endloop
  endfacet
  facet normal -0.751821 0.659367 0
    outer loop
      vertex 36.2694 8.02598 5
      vertex 36.1314 7.86863 0
      vertex 36.1314 7.86863 5
    endloop
  endfacet
  facet normal -0.195059 0.980791 0
    outer loop
      vertex 35.4141 7.45452 0
      vertex 35.2088 7.41369 5
      vertex 35.4141 7.45452 5
    endloop
  endfacet
  facet normal -0.195059 0.980791 0
    outer loop
      vertex 35.2088 7.41369 5
      vertex 35.4141 7.45452 0
      vertex 35.2088 7.41369 0
    endloop
  endfacet
  facet normal -0.0654247 0.997858 0
    outer loop
      vertex 35.2088 7.41369 0
      vertex 35 7.4 5
      vertex 35.2088 7.41369 5
    endloop
  endfacet
  facet normal -0.0654247 0.997858 0
    outer loop
      vertex 35 7.4 5
      vertex 35.2088 7.41369 0
      vertex 35 7.4 0
    endloop
  endfacet
  facet normal -0.321397 0.946944 0
    outer loop
      vertex 35.6123 7.52179 0
      vertex 35.4141 7.45452 5
      vertex 35.6123 7.52179 5
    endloop
  endfacet
  facet normal -0.321397 0.946944 0
    outer loop
      vertex 35.4141 7.45452 5
      vertex 35.6123 7.52179 0
      vertex 35.4141 7.45452 0
    endloop
  endfacet
  facet normal 0.997855 -0.0654598 0
    outer loop
      vertex 55.4 9 5
      vertex 55.4137 9.20884 0
      vertex 55.4137 9.20884 5
    endloop
  endfacet
  facet normal 0.997855 -0.0654598 0
    outer loop
      vertex 55.4137 9.20884 0
      vertex 55.4 9 5
      vertex 55.4 9 0
    endloop
  endfacet
  facet normal 0.659248 -0.751925 0
    outer loop
      vertex 55.8686 10.1314 0
      vertex 56.026 10.2694 5
      vertex 55.8686 10.1314 5
    endloop
  endfacet
  facet normal 0.659248 -0.751925 0
    outer loop
      vertex 56.026 10.2694 5
      vertex 55.8686 10.1314 0
      vertex 56.026 10.2694 0
    endloop
  endfacet
  facet normal 0.946891 -0.321555 0
    outer loop
      vertex 55.4545 9.41411 5
      vertex 55.5218 9.61229 0
      vertex 55.5218 9.61229 5
    endloop
  endfacet
  facet normal 0.946891 -0.321555 0
    outer loop
      vertex 55.5218 9.61229 0
      vertex 55.4545 9.41411 5
      vertex 55.4545 9.41411 0
    endloop
  endfacet
  facet normal 0 1 -0
    outer loop
      vertex 81 7.4 0
      vertex 57 7.4 5
      vertex 81 7.4 5
    endloop
  endfacet
  facet normal 0 1 0
    outer loop
      vertex 57 7.4 5
      vertex 81 7.4 0
      vertex 57 7.4 0
    endloop
  endfacet
  facet normal 0.980813 -0.194949 0
    outer loop
      vertex 55.4137 9.20884 5
      vertex 55.4545 9.41411 0
      vertex 55.4545 9.41411 5
    endloop
  endfacet
  facet normal 0.980813 -0.194949 0
    outer loop
      vertex 55.4545 9.41411 0
      vertex 55.4137 9.20884 5
      vertex 55.4137 9.20884 0
    endloop
  endfacet
  facet normal 0.751884 -0.659296 0
    outer loop
      vertex 55.7306 9.97402 5
      vertex 55.8686 10.1314 0
      vertex 55.8686 10.1314 5
    endloop
  endfacet
  facet normal 0.751884 -0.659296 0
    outer loop
      vertex 55.8686 10.1314 0
      vertex 55.7306 9.97402 5
      vertex 55.7306 9.97402 0
    endloop
  endfacet
  facet normal 0 -1 0
    outer loop
      vertex 57 10.6 0
      vertex 81 10.6 5
      vertex 57 10.6 5
    endloop
  endfacet
  facet normal 0 -1 -0
    outer loop
      vertex 81 10.6 5
      vertex 57 10.6 0
      vertex 81 10.6 0
    endloop
  endfacet
  facet normal -0.751821 0.659367 0
    outer loop
      vertex 82.1314 7.86863 0
      vertex 82.2694 8.02598 5
      vertex 82.2694 8.02598 0
    endloop
  endfacet
  facet normal -0.751821 0.659367 0
    outer loop
      vertex 82.2694 8.02598 5
      vertex 82.1314 7.86863 0
      vertex 82.1314 7.86863 5
    endloop
  endfacet
  facet normal 0.946891 0.321555 0
    outer loop
      vertex 55.5218 8.38771 5
      vertex 55.4545 8.58589 0
      vertex 55.4545 8.58589 5
    endloop
  endfacet
  facet normal 0.946891 0.321555 0
    outer loop
      vertex 55.4545 8.58589 0
      vertex 55.5218 8.38771 5
      vertex 55.5218 8.38771 0
    endloop
  endfacet
  facet normal -0.946891 0.321555 0
    outer loop
      vertex 82.4782 8.38771 0
      vertex 82.5455 8.58589 5
      vertex 82.5455 8.58589 0
    endloop
  endfacet
  facet normal -0.946891 0.321555 0
    outer loop
      vertex 82.5455 8.58589 5
      vertex 82.4782 8.38771 0
      vertex 82.4782 8.38771 5
    endloop
  endfacet
  facet normal -0.997855 0.0654598 0
    outer loop
      vertex 82.5863 8.79116 0
      vertex 82.6 9 5
      vertex 82.6 9 0
    endloop
  endfacet
  facet normal -0.997855 0.0654598 0
    outer loop
      vertex 82.6 9 5
      vertex 82.5863 8.79116 0
      vertex 82.5863 8.79116 5
    endloop
  endfacet
  facet normal 0.831638 -0.555318 0
    outer loop
      vertex 55.6144 9.8 5
      vertex 55.7306 9.97402 0
      vertex 55.7306 9.97402 5
    endloop
  endfacet
  facet normal 0.831638 -0.555318 0
    outer loop
      vertex 55.7306 9.97402 0
      vertex 55.6144 9.8 5
      vertex 55.6144 9.8 0
    endloop
  endfacet
  facet normal 0.555362 -0.831609 0
    outer loop
      vertex 56.026 10.2694 0
      vertex 56.2 10.3856 5
      vertex 56.026 10.2694 5
    endloop
  endfacet
  facet normal 0.555362 -0.831609 0
    outer loop
      vertex 56.2 10.3856 5
      vertex 56.026 10.2694 0
      vertex 56.2 10.3856 0
    endloop
  endfacet
  facet normal 0.321526 -0.946901 0
    outer loop
      vertex 56.3877 10.4782 0
      vertex 56.5859 10.5455 5
      vertex 56.3877 10.4782 5
    endloop
  endfacet
  facet normal 0.321526 -0.946901 0
    outer loop
      vertex 56.5859 10.5455 5
      vertex 56.3877 10.4782 0
      vertex 56.5859 10.5455 0
    endloop
  endfacet
  facet normal -0.831638 -0.555318 0
    outer loop
      vertex 82.3856 9.8 0
      vertex 82.2694 9.97402 5
      vertex 82.2694 9.97402 0
    endloop
  endfacet
  facet normal -0.831638 -0.555318 0
    outer loop
      vertex 82.2694 9.97402 5
      vertex 82.3856 9.8 0
      vertex 82.3856 9.8 5
    endloop
  endfacet
  facet normal -0.997855 -0.0654598 0
    outer loop
      vertex 82.6 9 0
      vertex 82.5863 9.20884 5
      vertex 82.5863 9.20884 0
    endloop
  endfacet
  facet normal -0.997855 -0.0654598 0
    outer loop
      vertex 82.5863 9.20884 5
      vertex 82.6 9 0
      vertex 82.6 9 5
    endloop
  endfacet
  facet normal 0.997855 0.0654598 0
    outer loop
      vertex 55.4137 8.79116 5
      vertex 55.4 9 0
      vertex 55.4 9 5
    endloop
  endfacet
  facet normal 0.997855 0.0654598 0
    outer loop
      vertex 55.4 9 0
      vertex 55.4137 8.79116 5
      vertex 55.4137 8.79116 0
    endloop
  endfacet
  facet normal 0.659248 0.751925 -0
    outer loop
      vertex 56.026 7.73063 0
      vertex 55.8686 7.86863 5
      vertex 56.026 7.73063 5
    endloop
  endfacet
  facet normal 0.659248 0.751925 0
    outer loop
      vertex 55.8686 7.86863 5
      vertex 56.026 7.73063 0
      vertex 55.8686 7.86863 0
    endloop
  endfacet
  facet normal 0.896813 -0.44241 0
    outer loop
      vertex 55.5218 9.61229 5
      vertex 55.6144 9.8 0
      vertex 55.6144 9.8 5
    endloop
  endfacet
  facet normal 0.896813 -0.44241 0
    outer loop
      vertex 55.6144 9.8 0
      vertex 55.5218 9.61229 5
      vertex 55.5218 9.61229 0
    endloop
  endfacet
  facet normal 0.442429 -0.896803 0
    outer loop
      vertex 56.2 10.3856 0
      vertex 56.3877 10.4782 5
      vertex 56.2 10.3856 5
    endloop
  endfacet
  facet normal 0.442429 -0.896803 0
    outer loop
      vertex 56.3877 10.4782 5
      vertex 56.2 10.3856 0
      vertex 56.3877 10.4782 0
    endloop
  endfacet
  facet normal 0.0654722 -0.997854 0
    outer loop
      vertex 56.7912 10.5863 0
      vertex 57 10.6 5
      vertex 56.7912 10.5863 5
    endloop
  endfacet
  facet normal 0.0654722 -0.997854 0
    outer loop
      vertex 57 10.6 5
      vertex 56.7912 10.5863 0
      vertex 57 10.6 0
    endloop
  endfacet
  facet normal -0.555362 -0.831609 0
    outer loop
      vertex 81.8 10.3856 0
      vertex 81.974 10.2694 5
      vertex 81.8 10.3856 5
    endloop
  endfacet
  facet normal -0.555362 -0.831609 -0
    outer loop
      vertex 81.974 10.2694 5
      vertex 81.8 10.3856 0
      vertex 81.974 10.2694 0
    endloop
  endfacet
  facet normal -0.896813 0.44241 0
    outer loop
      vertex 82.3856 8.2 0
      vertex 82.4782 8.38771 5
      vertex 82.4782 8.38771 0
    endloop
  endfacet
  facet normal -0.896813 0.44241 0
    outer loop
      vertex 82.4782 8.38771 5
      vertex 82.3856 8.2 0
      vertex 82.3856 8.2 5
    endloop
  endfacet
  facet normal -0.831638 0.555318 0
    outer loop
      vertex 82.2694 8.02598 0
      vertex 82.3856 8.2 5
      vertex 82.3856 8.2 0
    endloop
  endfacet
  facet normal -0.831638 0.555318 0
    outer loop
      vertex 82.3856 8.2 5
      vertex 82.2694 8.02598 0
      vertex 82.2694 8.02598 5
    endloop
  endfacet
  facet normal 0.896813 0.44241 0
    outer loop
      vertex 55.6144 8.2 5
      vertex 55.5218 8.38771 0
      vertex 55.5218 8.38771 5
    endloop
  endfacet
  facet normal 0.896813 0.44241 0
    outer loop
      vertex 55.5218 8.38771 0
      vertex 55.6144 8.2 5
      vertex 55.6144 8.2 0
    endloop
  endfacet
  facet normal 0.751821 0.659367 0
    outer loop
      vertex 55.8686 7.86863 5
      vertex 55.7306 8.02598 0
      vertex 55.7306 8.02598 5
    endloop
  endfacet
  facet normal 0.751821 0.659367 0
    outer loop
      vertex 55.7306 8.02598 0
      vertex 55.8686 7.86863 5
      vertex 55.8686 7.86863 0
    endloop
  endfacet
  facet normal 0.980813 0.194949 0
    outer loop
      vertex 55.4545 8.58589 5
      vertex 55.4137 8.79116 0
      vertex 55.4137 8.79116 5
    endloop
  endfacet
  facet normal 0.980813 0.194949 0
    outer loop
      vertex 55.4137 8.79116 0
      vertex 55.4545 8.58589 5
      vertex 55.4545 8.58589 0
    endloop
  endfacet
  facet normal 0.555593 0.831454 -0
    outer loop
      vertex 56.2 7.61436 0
      vertex 56.026 7.73063 5
      vertex 56.2 7.61436 5
    endloop
  endfacet
  facet normal 0.555593 0.831454 0
    outer loop
      vertex 56.026 7.73063 5
      vertex 56.2 7.61436 0
      vertex 56.026 7.73063 0
    endloop
  endfacet
  facet normal 0.0654247 0.997858 -0
    outer loop
      vertex 57 7.4 0
      vertex 56.7912 7.41369 5
      vertex 57 7.4 5
    endloop
  endfacet
  facet normal 0.0654247 0.997858 0
    outer loop
      vertex 56.7912 7.41369 5
      vertex 57 7.4 0
      vertex 56.7912 7.41369 0
    endloop
  endfacet
  facet normal 0.321397 0.946944 -0
    outer loop
      vertex 56.5859 7.45452 0
      vertex 56.3877 7.52179 5
      vertex 56.5859 7.45452 5
    endloop
  endfacet
  facet normal 0.321397 0.946944 0
    outer loop
      vertex 56.3877 7.52179 5
      vertex 56.5859 7.45452 0
      vertex 56.3877 7.52179 0
    endloop
  endfacet
  facet normal 0.194922 -0.980819 0
    outer loop
      vertex 56.5859 10.5455 0
      vertex 56.7912 10.5863 5
      vertex 56.5859 10.5455 5
    endloop
  endfacet
  facet normal 0.194922 -0.980819 0
    outer loop
      vertex 56.7912 10.5863 5
      vertex 56.5859 10.5455 0
      vertex 56.7912 10.5863 0
    endloop
  endfacet
  facet normal -0.946891 -0.321555 0
    outer loop
      vertex 82.5455 9.41411 0
      vertex 82.4782 9.61229 5
      vertex 82.4782 9.61229 0
    endloop
  endfacet
  facet normal -0.946891 -0.321555 0
    outer loop
      vertex 82.4782 9.61229 5
      vertex 82.5455 9.41411 0
      vertex 82.5455 9.41411 5
    endloop
  endfacet
  facet normal -0.980813 -0.194949 0
    outer loop
      vertex 82.5863 9.20884 0
      vertex 82.5455 9.41411 5
      vertex 82.5455 9.41411 0
    endloop
  endfacet
  facet normal -0.980813 -0.194949 0
    outer loop
      vertex 82.5455 9.41411 5
      vertex 82.5863 9.20884 0
      vertex 82.5863 9.20884 5
    endloop
  endfacet
  facet normal -0.0654722 -0.997854 0
    outer loop
      vertex 81 10.6 0
      vertex 81.2088 10.5863 5
      vertex 81 10.6 5
    endloop
  endfacet
  facet normal -0.0654722 -0.997854 -0
    outer loop
      vertex 81.2088 10.5863 5
      vertex 81 10.6 0
      vertex 81.2088 10.5863 0
    endloop
  endfacet
  facet normal -0.442429 -0.896803 0
    outer loop
      vertex 81.6123 10.4782 0
      vertex 81.8 10.3856 5
      vertex 81.6123 10.4782 5
    endloop
  endfacet
  facet normal -0.442429 -0.896803 -0
    outer loop
      vertex 81.8 10.3856 5
      vertex 81.6123 10.4782 0
      vertex 81.8 10.3856 0
    endloop
  endfacet
  facet normal -0.980813 0.194949 0
    outer loop
      vertex 82.5455 8.58589 0
      vertex 82.5863 8.79116 5
      vertex 82.5863 8.79116 0
    endloop
  endfacet
  facet normal -0.980813 0.194949 0
    outer loop
      vertex 82.5863 8.79116 5
      vertex 82.5455 8.58589 0
      vertex 82.5455 8.58589 5
    endloop
  endfacet
  facet normal -0.659248 0.751925 0
    outer loop
      vertex 82.1314 7.86863 0
      vertex 81.974 7.73063 5
      vertex 82.1314 7.86863 5
    endloop
  endfacet
  facet normal -0.659248 0.751925 0
    outer loop
      vertex 81.974 7.73063 5
      vertex 82.1314 7.86863 0
      vertex 81.974 7.73063 0
    endloop
  endfacet
  facet normal -0.321397 0.946944 0
    outer loop
      vertex 81.6123 7.52179 0
      vertex 81.4141 7.45452 5
      vertex 81.6123 7.52179 5
    endloop
  endfacet
  facet normal -0.321397 0.946944 0
    outer loop
      vertex 81.4141 7.45452 5
      vertex 81.6123 7.52179 0
      vertex 81.4141 7.45452 0
    endloop
  endfacet
  facet normal -0.442314 0.89686 0
    outer loop
      vertex 81.8 7.61436 0
      vertex 81.6123 7.52179 5
      vertex 81.8 7.61436 5
    endloop
  endfacet
  facet normal -0.442314 0.89686 0
    outer loop
      vertex 81.6123 7.52179 5
      vertex 81.8 7.61436 0
      vertex 81.6123 7.52179 0
    endloop
  endfacet
  facet normal -0.555593 0.831454 0
    outer loop
      vertex 81.974 7.73063 0
      vertex 81.8 7.61436 5
      vertex 81.974 7.73063 5
    endloop
  endfacet
  facet normal -0.555593 0.831454 0
    outer loop
      vertex 81.8 7.61436 5
      vertex 81.974 7.73063 0
      vertex 81.8 7.61436 0
    endloop
  endfacet
  facet normal 0.831638 0.555318 0
    outer loop
      vertex 55.7306 8.02598 5
      vertex 55.6144 8.2 0
      vertex 55.6144 8.2 5
    endloop
  endfacet
  facet normal 0.831638 0.555318 0
    outer loop
      vertex 55.6144 8.2 0
      vertex 55.7306 8.02598 5
      vertex 55.7306 8.02598 0
    endloop
  endfacet
  facet normal 0.442314 0.89686 -0
    outer loop
      vertex 56.3877 7.52179 0
      vertex 56.2 7.61436 5
      vertex 56.3877 7.52179 5
    endloop
  endfacet
  facet normal 0.442314 0.89686 0
    outer loop
      vertex 56.2 7.61436 5
      vertex 56.3877 7.52179 0
      vertex 56.2 7.61436 0
    endloop
  endfacet
  facet normal 0.195059 0.980791 -0
    outer loop
      vertex 56.7912 7.41369 0
      vertex 56.5859 7.45452 5
      vertex 56.7912 7.41369 5
    endloop
  endfacet
  facet normal 0.195059 0.980791 0
    outer loop
      vertex 56.5859 7.45452 5
      vertex 56.7912 7.41369 0
      vertex 56.5859 7.45452 0
    endloop
  endfacet
  facet normal -0.659248 -0.751925 0
    outer loop
      vertex 81.974 10.2694 0
      vertex 82.1314 10.1314 5
      vertex 81.974 10.2694 5
    endloop
  endfacet
  facet normal -0.659248 -0.751925 -0
    outer loop
      vertex 82.1314 10.1314 5
      vertex 81.974 10.2694 0
      vertex 82.1314 10.1314 0
    endloop
  endfacet
  facet normal -0.751884 -0.659296 0
    outer loop
      vertex 82.2694 9.97402 0
      vertex 82.1314 10.1314 5
      vertex 82.1314 10.1314 0
    endloop
  endfacet
  facet normal -0.751884 -0.659296 0
    outer loop
      vertex 82.1314 10.1314 5
      vertex 82.2694 9.97402 0
      vertex 82.2694 9.97402 5
    endloop
  endfacet
  facet normal -0.896813 -0.44241 0
    outer loop
      vertex 82.4782 9.61229 0
      vertex 82.3856 9.8 5
      vertex 82.3856 9.8 0
    endloop
  endfacet
  facet normal -0.896813 -0.44241 0
    outer loop
      vertex 82.3856 9.8 5
      vertex 82.4782 9.61229 0
      vertex 82.4782 9.61229 5
    endloop
  endfacet
  facet normal -0.194922 -0.980819 0
    outer loop
      vertex 81.2088 10.5863 0
      vertex 81.4141 10.5455 5
      vertex 81.2088 10.5863 5
    endloop
  endfacet
  facet normal -0.194922 -0.980819 -0
    outer loop
      vertex 81.4141 10.5455 5
      vertex 81.2088 10.5863 0
      vertex 81.4141 10.5455 0
    endloop
  endfacet
  facet normal -0.321526 -0.946901 0
    outer loop
      vertex 81.4141 10.5455 0
      vertex 81.6123 10.4782 5
      vertex 81.4141 10.5455 5
    endloop
  endfacet
  facet normal -0.321526 -0.946901 -0
    outer loop
      vertex 81.6123 10.4782 5
      vertex 81.4141 10.5455 0
      vertex 81.6123 10.4782 0
    endloop
  endfacet
  facet normal -0.195059 0.980791 0
    outer loop
      vertex 81.4141 7.45452 0
      vertex 81.2088 7.41369 5
      vertex 81.4141 7.45452 5
    endloop
  endfacet
  facet normal -0.195059 0.980791 0
    outer loop
      vertex 81.2088 7.41369 5
      vertex 81.4141 7.45452 0
      vertex 81.2088 7.41369 0
    endloop
  endfacet
  facet normal -0.0654247 0.997858 0
    outer loop
      vertex 81.2088 7.41369 0
      vertex 81 7.4 5
      vertex 81.2088 7.41369 5
    endloop
  endfacet
  facet normal -0.0654247 0.997858 0
    outer loop
      vertex 81 7.4 5
      vertex 81.2088 7.41369 0
      vertex 81 7.4 0
    endloop
  endfacet
  facet normal -0.997859 0.0653993 0
    outer loop
      vertex 0 15 0
      vertex 0.0256653 15.3916 5
      vertex 0.0256653 15.3916 0
    endloop
  endfacet
  facet normal -0.997859 0.0653993 0
    outer loop
      vertex 0.0256653 15.3916 5
      vertex 0 15 0
      vertex 0 15 5
    endloop
  endfacet
  facet normal 1 -0 0
    outer loop
      vertex 92 3 5
      vertex 92 15 0
      vertex 92 15 5
    endloop
  endfacet
  facet normal 1 0 0
    outer loop
      vertex 92 15 0
      vertex 92 3 5
      vertex 92 3 0
    endloop
  endfacet
  facet normal 0.997853 -0.0654906 0
    outer loop
      vertex 91.9743 2.60842 5
      vertex 92 3 0
      vertex 92 3 5
    endloop
  endfacet
  facet normal 0.997853 -0.0654906 0
    outer loop
      vertex 92 3 0
      vertex 91.9743 2.60842 5
      vertex 91.9743 2.60842 0
    endloop
  endfacet
  facet normal 0 0 -1
    outer loop
      vertex 89 0 0
      vertex 92 3 0
      vertex 91.9743 2.60842 0
    endloop
  endfacet
  facet normal 0 0 -1
    outer loop
      vertex 92 3 0
      vertex 82.6 9 0
      vertex 92 15 0
    endloop
  endfacet
  facet normal 0 0 -1
    outer loop
      vertex 89 0 0
      vertex 91.9743 2.60842 0
      vertex 91.8978 2.22354 0
    endloop
  endfacet
  facet normal 0 0 -1
    outer loop
      vertex 82.5863 9.20884 0
      vertex 92 15 0
      vertex 82.6 9 0
    endloop
  endfacet
  facet normal 0 0 -1
    outer loop
      vertex 89 0 0
      vertex 91.8978 2.22354 0
      vertex 91.7716 1.85195 0
    endloop
  endfacet
  facet normal 0 0 -1
    outer loop
      vertex 82.5455 9.41411 0
      vertex 92 15 0
      vertex 82.5863 9.20884 0
    endloop
  endfacet
  facet normal 0 0 -1
    outer loop
      vertex 89 0 0
      vertex 91.7716 1.85195 0
      vertex 91.5981 1.5 0
    endloop
  endfacet
  facet normal 0 0 -1
    outer loop
      vertex 82.4782 9.61229 0
      vertex 92 15 0
      vertex 82.5455 9.41411 0
    endloop
  endfacet
  facet normal 0 0 -1
    outer loop
      vertex 89 0 0
      vertex 91.5981 1.5 0
      vertex 91.3801 1.17372 0
    endloop
  endfacet
  facet normal 0 0 -1
    outer loop
      vertex 82.3856 9.8 0
      vertex 92 15 0
      vertex 82.4782 9.61229 0
    endloop
  endfacet
  facet normal 0 0 -1
    outer loop
      vertex 89 0 0
      vertex 91.3801 1.17372 0
      vertex 91.1213 0.878679 0
    endloop
  endfacet
  facet normal 0 -0 -1
    outer loop
      vertex 89 18 0
      vertex 92 15 0
      vertex 82.3856 9.8 0
    endloop
  endfacet
  facet normal 0 0 -1
    outer loop
      vertex 89 0 0
      vertex 91.1213 0.878679 0
      vertex 90.8263 0.61994 0
    endloop
  endfacet
  facet normal 0 0 -1
    outer loop
      vertex 92 15 0
      vertex 89 18 0
      vertex 91.9743 15.3916 0
    endloop
  endfacet
  facet normal 0 0 -1
    outer loop
      vertex 89 0 0
      vertex 90.8263 0.61994 0
      vertex 90.5 0.401923 0
    endloop
  endfacet
  facet normal 0 0 -1
    outer loop
      vertex 91.9743 15.3916 0
      vertex 89 18 0
      vertex 91.8978 15.7765 0
    endloop
  endfacet
  facet normal 0 0 -1
    outer loop
      vertex 89 0 0
      vertex 90.5 0.401923 0
      vertex 90.148 0.228361 0
    endloop
  endfacet
  facet normal 0 0 -1
    outer loop
      vertex 91.8978 15.7765 0
      vertex 89 18 0
      vertex 91.7716 16.148 0
    endloop
  endfacet
  facet normal 0 0 -1
    outer loop
      vertex 89 0 0
      vertex 90.148 0.228361 0
      vertex 89.7765 0.102222 0
    endloop
  endfacet
  facet normal 0 0 -1
    outer loop
      vertex 91.5981 16.5 0
      vertex 89 18 0
      vertex 91.3801 16.8263 0
    endloop
  endfacet
  facet normal 0 0 -1
    outer loop
      vertex 89 0 0
      vertex 89.7765 0.102222 0
      vertex 89.3916 0.0256653 0
    endloop
  endfacet
  facet normal 0 0 -1
    outer loop
      vertex 91.3801 16.8263 0
      vertex 89 18 0
      vertex 91.1213 17.1213 0
    endloop
  endfacet
  facet normal -0 0 -1
    outer loop
      vertex 92 3 0
      vertex 89 0 0
      vertex 82.3856 8.2 0
    endloop
  endfacet
  facet normal 0 0 -1
    outer loop
      vertex 91.1213 17.1213 0
      vertex 89 18 0
      vertex 90.8263 17.3801 0
    endloop
  endfacet
  facet normal 0 0 -1
    outer loop
      vertex 90.8263 17.3801 0
      vertex 89 18 0
      vertex 90.5 17.5981 0
    endloop
  endfacet
  facet normal 0 0 -1
    outer loop
      vertex 92 3 0
      vertex 82.5863 8.79116 0
      vertex 82.6 9 0
    endloop
  endfacet
  facet normal 0 0 -1
    outer loop
      vertex 92 3 0
      vertex 82.5455 8.58589 0
      vertex 82.5863 8.79116 0
    endloop
  endfacet
  facet normal 0 0 -1
    outer loop
      vertex 92 3 0
      vertex 82.4782 8.38771 0
      vertex 82.5455 8.58589 0
    endloop
  endfacet
  facet normal 0 0 -1
    outer loop
      vertex 92 3 0
      vertex 82.3856 8.2 0
      vertex 82.4782 8.38771 0
    endloop
  endfacet
  facet normal 0 0 -1
    outer loop
      vertex 89 0 0
      vertex 82.2694 8.02598 0
      vertex 82.3856 8.2 0
    endloop
  endfacet
  facet normal 0 0 -1
    outer loop
      vertex 89 0 0
      vertex 82.1314 7.86863 0
      vertex 82.2694 8.02598 0
    endloop
  endfacet
  facet normal 0 0 -1
    outer loop
      vertex 89 0 0
      vertex 81.974 7.73063 0
      vertex 82.1314 7.86863 0
    endloop
  endfacet
  facet normal 0 0 -1
    outer loop
      vertex 89 0 0
      vertex 81.8 7.61436 0
      vertex 81.974 7.73063 0
    endloop
  endfacet
  facet normal 0 0 -1
    outer loop
      vertex 89 0 0
      vertex 81.6123 7.52179 0
      vertex 81.8 7.61436 0
    endloop
  endfacet
  facet normal 0 0 -1
    outer loop
      vertex 89 0 0
      vertex 81.4141 7.45452 0
      vertex 81.6123 7.52179 0
    endloop
  endfacet
  facet normal 0 0 -1
    outer loop
      vertex 89 0 0
      vertex 81.2088 7.41369 0
      vertex 81.4141 7.45452 0
    endloop
  endfacet
  facet normal 0 0 -1
    outer loop
      vertex 89 0 0
      vertex 81 7.4 0
      vertex 81.2088 7.41369 0
    endloop
  endfacet
  facet normal 0 0 -1
    outer loop
      vertex 89 0 0
      vertex 57 7.4 0
      vertex 81 7.4 0
    endloop
  endfacet
  facet normal 0 0 -1
    outer loop
      vertex 89 0 0
      vertex 56.7912 7.41369 0
      vertex 57 7.4 0
    endloop
  endfacet
  facet normal 0 0 -1
    outer loop
      vertex 35.2088 7.41369 0
      vertex 56.7912 7.41369 0
      vertex 89 0 0
    endloop
  endfacet
  facet normal 0 0 -1
    outer loop
      vertex 55.4137 8.79116 0
      vertex 36.6 9 0
      vertex 55.4 9 0
    endloop
  endfacet
  facet normal 0 0 -1
    outer loop
      vertex 36.5863 8.79116 0
      vertex 55.4137 8.79116 0
      vertex 55.4545 8.58589 0
    endloop
  endfacet
  facet normal 0 0 -1
    outer loop
      vertex 36.5455 8.58589 0
      vertex 55.4545 8.58589 0
      vertex 55.5218 8.38771 0
    endloop
  endfacet
  facet normal 0 0 -1
    outer loop
      vertex 36.4782 8.38771 0
      vertex 55.5218 8.38771 0
      vertex 55.6144 8.2 0
    endloop
  endfacet
  facet normal 0 0 -1
    outer loop
      vertex 36.3856 8.2 0
      vertex 55.6144 8.2 0
      vertex 55.7306 8.02598 0
    endloop
  endfacet
  facet normal 0 0 -1
    outer loop
      vertex 36.2694 8.02598 0
      vertex 55.7306 8.02598 0
      vertex 55.8686 7.86863 0
    endloop
  endfacet
  facet normal 0 0 -1
    outer loop
      vertex 36.1314 7.86863 0
      vertex 55.8686 7.86863 0
      vertex 56.026 7.73063 0
    endloop
  endfacet
  facet normal 0 0 -1
    outer loop
      vertex 35.974 7.73063 0
      vertex 56.026 7.73063 0
      vertex 56.2 7.61436 0
    endloop
  endfacet
  facet normal 0 0 -1
    outer loop
      vertex 35.8 7.61436 0
      vertex 56.2 7.61436 0
      vertex 56.3877 7.52179 0
    endloop
  endfacet
  facet normal 0 0 -1
    outer loop
      vertex 35.6123 7.52179 0
      vertex 56.3877 7.52179 0
      vertex 56.5859 7.45452 0
    endloop
  endfacet
  facet normal 0 0 -1
    outer loop
      vertex 56.7912 7.41369 0
      vertex 35.2088 7.41369 0
      vertex 56.5859 7.45452 0
    endloop
  endfacet
  facet normal 0 0 -1
    outer loop
      vertex 55.4137 8.79116 0
      vertex 36.5863 8.79116 0
      vertex 36.6 9 0
    endloop
  endfacet
  facet normal 0 0 -1
    outer loop
      vertex 55.4545 8.58589 0
      vertex 36.5455 8.58589 0
      vertex 36.5863 8.79116 0
    endloop
  endfacet
  facet normal 0 0 -1
    outer loop
      vertex 55.5218 8.38771 0
      vertex 36.4782 8.38771 0
      vertex 36.5455 8.58589 0
    endloop
  endfacet
  facet normal 0 0 -1
    outer loop
      vertex 55.6144 8.2 0
      vertex 36.3856 8.2 0
      vertex 36.4782 8.38771 0
    endloop
  endfacet
  facet normal 0 0 -1
    outer loop
      vertex 55.7306 8.02598 0
      vertex 36.2694 8.02598 0
      vertex 36.3856 8.2 0
    endloop
  endfacet
  facet normal 0 0 -1
    outer loop
      vertex 55.8686 7.86863 0
      vertex 36.1314 7.86863 0
      vertex 36.2694 8.02598 0
    endloop
  endfacet
  facet normal 0 0 -1
    outer loop
      vertex 56.026 7.73063 0
      vertex 35.974 7.73063 0
      vertex 36.1314 7.86863 0
    endloop
  endfacet
  facet normal 0 0 -1
    outer loop
      vertex 56.2 7.61436 0
      vertex 35.8 7.61436 0
      vertex 35.974 7.73063 0
    endloop
  endfacet
  facet normal 0 0 -1
    outer loop
      vertex 56.3877 7.52179 0
      vertex 35.6123 7.52179 0
      vertex 35.8 7.61436 0
    endloop
  endfacet
  facet normal 0 0 -1
    outer loop
      vertex 56.5859 7.45452 0
      vertex 35.4141 7.45452 0
      vertex 35.6123 7.52179 0
    endloop
  endfacet
  facet normal -0 0 -1
    outer loop
      vertex 56.5859 7.45452 0
      vertex 35.2088 7.41369 0
      vertex 35.4141 7.45452 0
    endloop
  endfacet
  facet normal 0 0 -1
    outer loop
      vertex 3 0 0
      vertex 35.2088 7.41369 0
      vertex 89 0 0
    endloop
  endfacet
  facet normal 0 0 -1
    outer loop
      vertex 35.2088 7.41369 0
      vertex 3 0 0
      vertex 35 7.4 0
    endloop
  endfacet
  facet normal -0 0 -1
    outer loop
      vertex 35 7.4 0
      vertex 3 0 0
      vertex 11 7.4 0
    endloop
  endfacet
  facet normal -0 0 -1
    outer loop
      vertex 9.45452 8.58589 0
      vertex 0 3 0
      vertex 9.41369 8.79116 0
    endloop
  endfacet
  facet normal -0 0 -1
    outer loop
      vertex 9.52179 8.38771 0
      vertex 0 3 0
      vertex 9.45452 8.58589 0
    endloop
  endfacet
  facet normal -0 0 -1
    outer loop
      vertex 9.61436 8.2 0
      vertex 0 3 0
      vertex 9.52179 8.38771 0
    endloop
  endfacet
  facet normal 0 0 -1
    outer loop
      vertex 0 3 0
      vertex 9.61436 8.2 0
      vertex 3 0 0
    endloop
  endfacet
  facet normal -0 0 -1
    outer loop
      vertex 9.73063 8.02598 0
      vertex 3 0 0
      vertex 9.61436 8.2 0
    endloop
  endfacet
  facet normal -0 0 -1
    outer loop
      vertex 9.86863 7.86863 0
      vertex 3 0 0
      vertex 9.73063 8.02598 0
    endloop
  endfacet
  facet normal -0 0 -1
    outer loop
      vertex 10.026 7.73063 0
      vertex 3 0 0
      vertex 9.86863 7.86863 0
    endloop
  endfacet
  facet normal -0 0 -1
    outer loop
      vertex 10.2 7.61436 0
      vertex 3 0 0
      vertex 10.026 7.73063 0
    endloop
  endfacet
  facet normal -0 0 -1
    outer loop
      vertex 10.3877 7.52179 0
      vertex 3 0 0
      vertex 10.2 7.61436 0
    endloop
  endfacet
  facet normal -0 0 -1
    outer loop
      vertex 10.5859 7.45452 0
      vertex 3 0 0
      vertex 10.3877 7.52179 0
    endloop
  endfacet
  facet normal -0 0 -1
    outer loop
      vertex 10.7912 7.41369 0
      vertex 3 0 0
      vertex 10.5859 7.45452 0
    endloop
  endfacet
  facet normal -0 0 -1
    outer loop
      vertex 11 7.4 0
      vertex 3 0 0
      vertex 10.7912 7.41369 0
    endloop
  endfacet
  facet normal 0 0 -1
    outer loop
      vertex 90.148 17.7716 0
      vertex 89 18 0
      vertex 89.7765 17.8978 0
    endloop
  endfacet
  facet normal 0 0 -1
    outer loop
      vertex 89.7765 17.8978 0
      vertex 89 18 0
      vertex 89.3916 17.9743 0
    endloop
  endfacet
  facet normal 0 0 -1
    outer loop
      vertex 90.5 17.5981 0
      vertex 89 18 0
      vertex 90.148 17.7716 0
    endloop
  endfacet
  facet normal 0 0 -1
    outer loop
      vertex 91.7716 16.148 0
      vertex 89 18 0
      vertex 91.5981 16.5 0
    endloop
  endfacet
  facet normal 0 0 -1
    outer loop
      vertex 82.2694 9.97402 0
      vertex 89 18 0
      vertex 82.3856 9.8 0
    endloop
  endfacet
  facet normal 0 0 -1
    outer loop
      vertex 82.1314 10.1314 0
      vertex 89 18 0
      vertex 82.2694 9.97402 0
    endloop
  endfacet
  facet normal 0 0 -1
    outer loop
      vertex 81.974 10.2694 0
      vertex 89 18 0
      vertex 82.1314 10.1314 0
    endloop
  endfacet
  facet normal 0 0 -1
    outer loop
      vertex 81.8 10.3856 0
      vertex 89 18 0
      vertex 81.974 10.2694 0
    endloop
  endfacet
  facet normal 0 0 -1
    outer loop
      vertex 81.6123 10.4782 0
      vertex 89 18 0
      vertex 81.8 10.3856 0
    endloop
  endfacet
  facet normal 0 0 -1
    outer loop
      vertex 81.4141 10.5455 0
      vertex 89 18 0
      vertex 81.6123 10.4782 0
    endloop
  endfacet
  facet normal 0 0 -1
    outer loop
      vertex 81.2088 10.5863 0
      vertex 89 18 0
      vertex 81.4141 10.5455 0
    endloop
  endfacet
  facet normal 0 0 -1
    outer loop
      vertex 81 10.6 0
      vertex 89 18 0
      vertex 81.2088 10.5863 0
    endloop
  endfacet
  facet normal 0 0 -1
    outer loop
      vertex 57 10.6 0
      vertex 89 18 0
      vertex 81 10.6 0
    endloop
  endfacet
  facet normal 0 0 -1
    outer loop
      vertex 56.7912 10.5863 0
      vertex 89 18 0
      vertex 57 10.6 0
    endloop
  endfacet
  facet normal 0 0 -1
    outer loop
      vertex 35.2088 10.5863 0
      vertex 56.7912 10.5863 0
      vertex 56.5859 10.5455 0
    endloop
  endfacet
  facet normal 0 0 -1
    outer loop
      vertex 36.6 9 0
      vertex 55.4137 9.20884 0
      vertex 55.4 9 0
    endloop
  endfacet
  facet normal 0 0 -1
    outer loop
      vertex 36.5863 9.20884 0
      vertex 55.4137 9.20884 0
      vertex 36.6 9 0
    endloop
  endfacet
  facet normal 0 0 -1
    outer loop
      vertex 55.4137 9.20884 0
      vertex 36.5863 9.20884 0
      vertex 55.4545 9.41411 0
    endloop
  endfacet
  facet normal 0 0 -1
    outer loop
      vertex 36.5455 9.41411 0
      vertex 55.4545 9.41411 0
      vertex 36.5863 9.20884 0
    endloop
  endfacet
  facet normal 0 0 -1
    outer loop
      vertex 55.4545 9.41411 0
      vertex 36.5455 9.41411 0
      vertex 55.5218 9.61229 0
    endloop
  endfacet
  facet normal 0 0 -1
    outer loop
      vertex 36.4782 9.61229 0
      vertex 55.5218 9.61229 0
      vertex 36.5455 9.41411 0
    endloop
  endfacet
  facet normal 0 0 -1
    outer loop
      vertex 55.5218 9.61229 0
      vertex 36.4782 9.61229 0
      vertex 55.6144 9.8 0
    endloop
  endfacet
  facet normal 0 0 -1
    outer loop
      vertex 36.3856 9.8 0
      vertex 55.6144 9.8 0
      vertex 36.4782 9.61229 0
    endloop
  endfacet
  facet normal 0 0 -1
    outer loop
      vertex 55.6144 9.8 0
      vertex 36.3856 9.8 0
      vertex 55.7306 9.97402 0
    endloop
  endfacet
  facet normal 0 0 -1
    outer loop
      vertex 36.2694 9.97402 0
      vertex 55.7306 9.97402 0
      vertex 36.3856 9.8 0
    endloop
  endfacet
  facet normal 0 0 -1
    outer loop
      vertex 55.7306 9.97402 0
      vertex 36.2694 9.97402 0
      vertex 55.8686 10.1314 0
    endloop
  endfacet
  facet normal 0 0 -1
    outer loop
      vertex 36.1314 10.1314 0
      vertex 55.8686 10.1314 0
      vertex 36.2694 9.97402 0
    endloop
  endfacet
  facet normal 0 0 -1
    outer loop
      vertex 55.8686 10.1314 0
      vertex 36.1314 10.1314 0
      vertex 56.026 10.2694 0
    endloop
  endfacet
  facet normal 0 0 -1
    outer loop
      vertex 35.974 10.2694 0
      vertex 56.026 10.2694 0
      vertex 36.1314 10.1314 0
    endloop
  endfacet
  facet normal 0 0 -1
    outer loop
      vertex 56.026 10.2694 0
      vertex 35.974 10.2694 0
      vertex 56.2 10.3856 0
    endloop
  endfacet
  facet normal 0 0 -1
    outer loop
      vertex 35.8 10.3856 0
      vertex 56.2 10.3856 0
      vertex 35.974 10.2694 0
    endloop
  endfacet
  facet normal 0 0 -1
    outer loop
      vertex 56.2 10.3856 0
      vertex 35.8 10.3856 0
      vertex 56.3877 10.4782 0
    endloop
  endfacet
  facet normal 0 0 -1
    outer loop
      vertex 35.6123 10.4782 0
      vertex 56.3877 10.4782 0
      vertex 35.8 10.3856 0
    endloop
  endfacet
  facet normal 0 0 -1
    outer loop
      vertex 56.3877 10.4782 0
      vertex 35.6123 10.4782 0
      vertex 56.5859 10.5455 0
    endloop
  endfacet
  facet normal 0 0 -1
    outer loop
      vertex 35.4141 10.5455 0
      vertex 56.5859 10.5455 0
      vertex 35.6123 10.4782 0
    endloop
  endfacet
  facet normal 0 0 -1
    outer loop
      vertex 35.2088 10.5863 0
      vertex 56.5859 10.5455 0
      vertex 35.4141 10.5455 0
    endloop
  endfacet
  facet normal 0 0 -1
    outer loop
      vertex 56.7912 10.5863 0
      vertex 35.2088 10.5863 0
      vertex 89 18 0
    endloop
  endfacet
  facet normal 0 0 -1
    outer loop
      vertex 3 18 0
      vertex 35.2088 10.5863 0
      vertex 35 10.6 0
    endloop
  endfacet
  facet normal 0 0 -1
    outer loop
      vertex 3 18 0
      vertex 35 10.6 0
      vertex 11 10.6 0
    endloop
  endfacet
  facet normal 0 0 -1
    outer loop
      vertex 3 18 0
      vertex 11 10.6 0
      vertex 10.7912 10.5863 0
    endloop
  endfacet
  facet normal -0 0 -1
    outer loop
      vertex 9.41369 8.79116 0
      vertex 0 3 0
      vertex 9.4 9 0
    endloop
  endfacet
  facet normal 0 0 -1
    outer loop
      vertex 0 15 0
      vertex 9.4 9 0
      vertex 0 3 0
    endloop
  endfacet
  facet normal 0 0 -1
    outer loop
      vertex 9.4 9 0
      vertex 0 15 0
      vertex 9.41369 9.20884 0
    endloop
  endfacet
  facet normal 0 0 -1
    outer loop
      vertex 9.41369 9.20884 0
      vertex 0 15 0
      vertex 9.45452 9.41411 0
    endloop
  endfacet
  facet normal 0 0 -1
    outer loop
      vertex 9.45452 9.41411 0
      vertex 0 15 0
      vertex 9.52179 9.61229 0
    endloop
  endfacet
  facet normal 0 0 -1
    outer loop
      vertex 35.2088 10.5863 0
      vertex 3 18 0
      vertex 89 18 0
    endloop
  endfacet
  facet normal 0 0 -1
    outer loop
      vertex 10.5859 10.5455 0
      vertex 3 18 0
      vertex 10.7912 10.5863 0
    endloop
  endfacet
  facet normal 0 0 -1
    outer loop
      vertex 10.3877 10.4782 0
      vertex 3 18 0
      vertex 10.5859 10.5455 0
    endloop
  endfacet
  facet normal 0 0 -1
    outer loop
      vertex 10.2 10.3856 0
      vertex 3 18 0
      vertex 10.3877 10.4782 0
    endloop
  endfacet
  facet normal 0 0 -1
    outer loop
      vertex 10.026 10.2694 0
      vertex 3 18 0
      vertex 10.2 10.3856 0
    endloop
  endfacet
  facet normal 0 0 -1
    outer loop
      vertex 9.86863 10.1314 0
      vertex 3 18 0
      vertex 10.026 10.2694 0
    endloop
  endfacet
  facet normal 0 0 -1
    outer loop
      vertex 9.73063 9.97402 0
      vertex 3 18 0
      vertex 9.86863 10.1314 0
    endloop
  endfacet
  facet normal 0 0 -1
    outer loop
      vertex 9.52179 9.61229 0
      vertex 0 15 0
      vertex 9.61436 9.8 0
    endloop
  endfacet
  facet normal 0 0 -1
    outer loop
      vertex 0 3 0
      vertex 3 0 0
      vertex 2.60842 0.0256653 0
    endloop
  endfacet
  facet normal 0 0 -1
    outer loop
      vertex 9.61436 9.8 0
      vertex 0 15 0
      vertex 9.73063 9.97402 0
    endloop
  endfacet
  facet normal 0 0 -1
    outer loop
      vertex 0 3 0
      vertex 2.60842 0.0256653 0
      vertex 2.22354 0.102222 0
    endloop
  endfacet
  facet normal 0 0 -1
    outer loop
      vertex 9.73063 9.97402 0
      vertex 0 15 0
      vertex 3 18 0
    endloop
  endfacet
  facet normal 0 0 -1
    outer loop
      vertex 0 3 0
      vertex 2.22354 0.102222 0
      vertex 1.85195 0.228361 0
    endloop
  endfacet
  facet normal 0 0 -1
    outer loop
      vertex 3 18 0
      vertex 0 15 0
      vertex 2.60842 17.9743 0
    endloop
  endfacet
  facet normal 0 0 -1
    outer loop
      vertex 0 3 0
      vertex 1.85195 0.228361 0
      vertex 1.5 0.401923 0
    endloop
  endfacet
  facet normal 0 0 -1
    outer loop
      vertex 2.60842 17.9743 0
      vertex 0 15 0
      vertex 2.22354 17.8978 0
    endloop
  endfacet
  facet normal 0 0 -1
    outer loop
      vertex 0 3 0
      vertex 1.5 0.401923 0
      vertex 1.17372 0.61994 0
    endloop
  endfacet
  facet normal 0 0 -1
    outer loop
      vertex 2.22354 17.8978 0
      vertex 0 15 0
      vertex 1.85195 17.7716 0
    endloop
  endfacet
  facet normal 0 0 -1
    outer loop
      vertex 0 3 0
      vertex 1.17372 0.61994 0
      vertex 0.878679 0.878679 0
    endloop
  endfacet
  facet normal 0 0 -1
    outer loop
      vertex 1.85195 17.7716 0
      vertex 0 15 0
      vertex 1.5 17.5981 0
    endloop
  endfacet
  facet normal 0 0 -1
    outer loop
      vertex 0 3 0
      vertex 0.878679 0.878679 0
      vertex 0.61994 1.17372 0
    endloop
  endfacet
  facet normal 0 0 -1
    outer loop
      vertex 1.5 17.5981 0
      vertex 0 15 0
      vertex 1.17372 17.3801 0
    endloop
  endfacet
  facet normal 0 0 -1
    outer loop
      vertex 0 3 0
      vertex 0.61994 1.17372 0
      vertex 0.401923 1.5 0
    endloop
  endfacet
  facet normal 0 0 -1
    outer loop
      vertex 1.17372 17.3801 0
      vertex 0 15 0
      vertex 0.878679 17.1213 0
    endloop
  endfacet
  facet normal 0 0 -1
    outer loop
      vertex 0 3 0
      vertex 0.401923 1.5 0
      vertex 0.228361 1.85195 0
    endloop
  endfacet
  facet normal 0 0 -1
    outer loop
      vertex 0.878679 17.1213 0
      vertex 0 15 0
      vertex 0.61994 16.8263 0
    endloop
  endfacet
  facet normal 0 0 -1
    outer loop
      vertex 0 3 0
      vertex 0.228361 1.85195 0
      vertex 0.102222 2.22354 0
    endloop
  endfacet
  facet normal 0 0 -1
    outer loop
      vertex 0.61994 16.8263 0
      vertex 0 15 0
      vertex 0.401923 16.5 0
    endloop
  endfacet
  facet normal 0 0 -1
    outer loop
      vertex 0 3 0
      vertex 0.102222 2.22354 0
      vertex 0.0256653 2.60842 0
    endloop
  endfacet
  facet normal 0 0 -1
    outer loop
      vertex 0.401923 16.5 0
      vertex 0 15 0
      vertex 0.228361 16.148 0
    endloop
  endfacet
  facet normal 0 0 -1
    outer loop
      vertex 0.228361 16.148 0
      vertex 0 15 0
      vertex 0.102222 15.7765 0
    endloop
  endfacet
  facet normal 0 0 -1
    outer loop
      vertex 0.102222 15.7765 0
      vertex 0 15 0
      vertex 0.0256653 15.3916 0
    endloop
  endfacet
  facet normal -0.659339 -0.751846 0
    outer loop
      vertex 0.878679 0.878679 0
      vertex 1.17372 0.61994 5
      vertex 0.878679 0.878679 5
    endloop
  endfacet
  facet normal -0.659339 -0.751846 -0
    outer loop
      vertex 1.17372 0.61994 5
      vertex 0.878679 0.878679 0
      vertex 1.17372 0.61994 0
    endloop
  endfacet
  facet normal -0.831465 -0.555577 0
    outer loop
      vertex 0.61994 1.17372 0
      vertex 0.401923 1.5 5
      vertex 0.401923 1.5 0
    endloop
  endfacet
  facet normal -0.831465 -0.555577 0
    outer loop
      vertex 0.401923 1.5 5
      vertex 0.61994 1.17372 0
      vertex 0.61994 1.17372 5
    endloop
  endfacet
  facet normal -0.896873 -0.442288 0
    outer loop
      vertex 0.401923 1.5 0
      vertex 0.228361 1.85195 5
      vertex 0.228361 1.85195 0
    endloop
  endfacet
  facet normal -0.896873 -0.442288 0
    outer loop
      vertex 0.228361 1.85195 5
      vertex 0.401923 1.5 0
      vertex 0.401923 1.5 5
    endloop
  endfacet
  facet normal -0.0654906 0.997853 0
    outer loop
      vertex 3 18 0
      vertex 2.60842 17.9743 5
      vertex 3 18 5
    endloop
  endfacet
  facet normal -0.0654906 0.997853 0
    outer loop
      vertex 2.60842 17.9743 5
      vertex 3 18 0
      vertex 2.60842 17.9743 0
    endloop
  endfacet
  facet normal 0 1 -0
    outer loop
      vertex 89 18 0
      vertex 3 18 5
      vertex 89 18 5
    endloop
  endfacet
  facet normal 0 1 0
    outer loop
      vertex 3 18 5
      vertex 89 18 0
      vertex 3 18 0
    endloop
  endfacet
  facet normal 0.0653993 -0.997859 0
    outer loop
      vertex 89 0 0
      vertex 89.3916 0.0256653 5
      vertex 89 0 5
    endloop
  endfacet
  facet normal 0.0653993 -0.997859 0
    outer loop
      vertex 89.3916 0.0256653 5
      vertex 89 0 0
      vertex 89.3916 0.0256653 0
    endloop
  endfacet
  facet normal 0.997853 0.0654873 0
    outer loop
      vertex 92 15 5
      vertex 91.9743 15.3916 0
      vertex 91.9743 15.3916 5
    endloop
  endfacet
  facet normal 0.997853 0.0654873 0
    outer loop
      vertex 91.9743 15.3916 0
      vertex 92 15 5
      vertex 92 15 0
    endloop
  endfacet
  facet normal 0.65939 -0.751801 0
    outer loop
      vertex 90.8263 0.61994 0
      vertex 91.1213 0.878679 5
      vertex 90.8263 0.61994 5
    endloop
  endfacet
  facet normal 0.65939 -0.751801 0
    outer loop
      vertex 91.1213 0.878679 5
      vertex 90.8263 0.61994 0
      vertex 91.1213 0.878679 0
    endloop
  endfacet
  facet normal 0.896936 -0.44216 0
    outer loop
      vertex 91.5981 1.5 5
      vertex 91.7716 1.85195 0
      vertex 91.7716 1.85195 5
    endloop
  endfacet
  facet normal 0.896936 -0.44216 0
    outer loop
      vertex 91.7716 1.85195 0
      vertex 91.5981 1.5 5
      vertex 91.5981 1.5 0
    endloop
  endfacet
  facet normal -0.997859 -0.0654026 0
    outer loop
      vertex 0.0256653 2.60842 0
      vertex 0 3 5
      vertex 0 3 0
    endloop
  endfacet
  facet normal -0.997859 -0.0654026 0
    outer loop
      vertex 0 3 5
      vertex 0.0256653 2.60842 0
      vertex 0.0256653 2.60842 5
    endloop
  endfacet
  facet normal -1 0 0
    outer loop
      vertex 0 3 0
      vertex 0 15 5
      vertex 0 15 0
    endloop
  endfacet
  facet normal -1 -0 0
    outer loop
      vertex 0 15 5
      vertex 0 3 0
      vertex 0 3 5
    endloop
  endfacet
  facet normal 0 0 1
    outer loop
      vertex 89 18 5
      vertex 92 15 5
      vertex 91.9743 15.3916 5
    endloop
  endfacet
  facet normal 0 0 1
    outer loop
      vertex 92 15 5
      vertex 82.6 9 5
      vertex 92 3 5
    endloop
  endfacet
  facet normal 0 0 1
    outer loop
      vertex 89 18 5
      vertex 91.9743 15.3916 5
      vertex 91.8978 15.7765 5
    endloop
  endfacet
  facet normal -0 0 1
    outer loop
      vertex 82.5863 8.79116 5
      vertex 92 3 5
      vertex 82.6 9 5
    endloop
  endfacet
  facet normal 0 0 1
    outer loop
      vertex 89 18 5
      vertex 91.8978 15.7765 5
      vertex 91.7716 16.148 5
    endloop
  endfacet
  facet normal -0 0 1
    outer loop
      vertex 82.5455 8.58589 5
      vertex 92 3 5
      vertex 82.5863 8.79116 5
    endloop
  endfacet
  facet normal 0 0 1
    outer loop
      vertex 89 18 5
      vertex 91.7716 16.148 5
      vertex 91.5981 16.5 5
    endloop
  endfacet
  facet normal -0 0 1
    outer loop
      vertex 82.4782 8.38771 5
      vertex 92 3 5
      vertex 82.5455 8.58589 5
    endloop
  endfacet
  facet normal 0 0 1
    outer loop
      vertex 89 18 5
      vertex 91.5981 16.5 5
      vertex 91.3801 16.8263 5
    endloop
  endfacet
  facet normal -0 0 1
    outer loop
      vertex 82.3856 8.2 5
      vertex 92 3 5
      vertex 82.4782 8.38771 5
    endloop
  endfacet
  facet normal 0 0 1
    outer loop
      vertex 89 18 5
      vertex 91.3801 16.8263 5
      vertex 91.1213 17.1213 5
    endloop
  endfacet
  facet normal 0 -0 1
    outer loop
      vertex 89 0 5
      vertex 92 3 5
      vertex 82.3856 8.2 5
    endloop
  endfacet
  facet normal 0 0 1
    outer loop
      vertex 89 18 5
      vertex 91.1213 17.1213 5
      vertex 90.8263 17.3801 5
    endloop
  endfacet
  facet normal 0 0 1
    outer loop
      vertex 92 3 5
      vertex 89 0 5
      vertex 91.9743 2.60842 5
    endloop
  endfacet
  facet normal 0 0 1
    outer loop
      vertex 89 18 5
      vertex 90.8263 17.3801 5
      vertex 90.5 17.5981 5
    endloop
  endfacet
  facet normal 0 0 1
    outer loop
      vertex 91.9743 2.60842 5
      vertex 89 0 5
      vertex 91.8978 2.22354 5
    endloop
  endfacet
  facet normal 0 0 1
    outer loop
      vertex 89 18 5
      vertex 90.5 17.5981 5
      vertex 90.148 17.7716 5
    endloop
  endfacet
  facet normal 0 0 1
    outer loop
      vertex 91.8978 2.22354 5
      vertex 89 0 5
      vertex 91.7716 1.85195 5
    endloop
  endfacet
  facet normal 0 0 1
    outer loop
      vertex 89 18 5
      vertex 90.148 17.7716 5
      vertex 89.7765 17.8978 5
    endloop
  endfacet
  facet normal 0 0 1
    outer loop
      vertex 91.5981 1.5 5
      vertex 89 0 5
      vertex 91.3801 1.17372 5
    endloop
  endfacet
  facet normal 0 0 1
    outer loop
      vertex 89 18 5
      vertex 89.7765 17.8978 5
      vertex 89.3916 17.9743 5
    endloop
  endfacet
  facet normal 0 0 1
    outer loop
      vertex 91.3801 1.17372 5
      vertex 89 0 5
      vertex 91.1213 0.878679 5
    endloop
  endfacet
  facet normal 0 0 1
    outer loop
      vertex 92 15 5
      vertex 89 18 5
      vertex 82.3856 9.8 5
    endloop
  endfacet
  facet normal 0 0 1
    outer loop
      vertex 91.1213 0.878679 5
      vertex 89 0 5
      vertex 90.8263 0.61994 5
    endloop
  endfacet
  facet normal 0 0 1
    outer loop
      vertex 90.8263 0.61994 5
      vertex 89 0 5
      vertex 90.5 0.401923 5
    endloop
  endfacet
  facet normal 0 0 1
    outer loop
      vertex 92 15 5
      vertex 82.5863 9.20884 5
      vertex 82.6 9 5
    endloop
  endfacet
  facet normal 0 0 1
    outer loop
      vertex 92 15 5
      vertex 82.5455 9.41411 5
      vertex 82.5863 9.20884 5
    endloop
  endfacet
  facet normal 0 0 1
    outer loop
      vertex 92 15 5
      vertex 82.4782 9.61229 5
      vertex 82.5455 9.41411 5
    endloop
  endfacet
  facet normal 0 0 1
    outer loop
      vertex 92 15 5
      vertex 82.3856 9.8 5
      vertex 82.4782 9.61229 5
    endloop
  endfacet
  facet normal 0 0 1
    outer loop
      vertex 89 18 5
      vertex 82.2694 9.97402 5
      vertex 82.3856 9.8 5
    endloop
  endfacet
  facet normal 0 0 1
    outer loop
      vertex 89 18 5
      vertex 82.1314 10.1314 5
      vertex 82.2694 9.97402 5
    endloop
  endfacet
  facet normal 0 0 1
    outer loop
      vertex 89 18 5
      vertex 81.974 10.2694 5
      vertex 82.1314 10.1314 5
    endloop
  endfacet
  facet normal 0 0 1
    outer loop
      vertex 89 18 5
      vertex 81.8 10.3856 5
      vertex 81.974 10.2694 5
    endloop
  endfacet
  facet normal 0 0 1
    outer loop
      vertex 89 18 5
      vertex 81.6123 10.4782 5
      vertex 81.8 10.3856 5
    endloop
  endfacet
  facet normal 0 0 1
    outer loop
      vertex 89 18 5
      vertex 81.4141 10.5455 5
      vertex 81.6123 10.4782 5
    endloop
  endfacet
  facet normal 0 0 1
    outer loop
      vertex 89 18 5
      vertex 81.2088 10.5863 5
      vertex 81.4141 10.5455 5
    endloop
  endfacet
  facet normal 0 0 1
    outer loop
      vertex 89 18 5
      vertex 81 10.6 5
      vertex 81.2088 10.5863 5
    endloop
  endfacet
  facet normal 0 0 1
    outer loop
      vertex 89 18 5
      vertex 57 10.6 5
      vertex 81 10.6 5
    endloop
  endfacet
  facet normal 0 0 1
    outer loop
      vertex 89 18 5
      vertex 56.7912 10.5863 5
      vertex 57 10.6 5
    endloop
  endfacet
  facet normal 0 0 1
    outer loop
      vertex 35.2088 10.5863 5
      vertex 56.7912 10.5863 5
      vertex 89 18 5
    endloop
  endfacet
  facet normal 0 0 1
    outer loop
      vertex 55.4137 9.20884 5
      vertex 36.6 9 5
      vertex 55.4 9 5
    endloop
  endfacet
  facet normal 0 0 1
    outer loop
      vertex 36.5863 9.20884 5
      vertex 55.4137 9.20884 5
      vertex 55.4545 9.41411 5
    endloop
  endfacet
  facet normal 0 0 1
    outer loop
      vertex 36.5455 9.41411 5
      vertex 55.4545 9.41411 5
      vertex 55.5218 9.61229 5
    endloop
  endfacet
  facet normal 0 0 1
    outer loop
      vertex 36.4782 9.61229 5
      vertex 55.5218 9.61229 5
      vertex 55.6144 9.8 5
    endloop
  endfacet
  facet normal 0 0 1
    outer loop
      vertex 36.3856 9.8 5
      vertex 55.6144 9.8 5
      vertex 55.7306 9.97402 5
    endloop
  endfacet
  facet normal 0 0 1
    outer loop
      vertex 36.2694 9.97402 5
      vertex 55.7306 9.97402 5
      vertex 55.8686 10.1314 5
    endloop
  endfacet
  facet normal 0 0 1
    outer loop
      vertex 36.1314 10.1314 5
      vertex 55.8686 10.1314 5
      vertex 56.026 10.2694 5
    endloop
  endfacet
  facet normal 0 0 1
    outer loop
      vertex 35.974 10.2694 5
      vertex 56.026 10.2694 5
      vertex 56.2 10.3856 5
    endloop
  endfacet
  facet normal 0 0 1
    outer loop
      vertex 35.8 10.3856 5
      vertex 56.2 10.3856 5
      vertex 56.3877 10.4782 5
    endloop
  endfacet
  facet normal 0 0 1
    outer loop
      vertex 35.6123 10.4782 5
      vertex 56.3877 10.4782 5
      vertex 56.5859 10.5455 5
    endloop
  endfacet
  facet normal 0 0 1
    outer loop
      vertex 56.7912 10.5863 5
      vertex 35.2088 10.5863 5
      vertex 56.5859 10.5455 5
    endloop
  endfacet
  facet normal 0 0 1
    outer loop
      vertex 55.4137 9.20884 5
      vertex 36.5863 9.20884 5
      vertex 36.6 9 5
    endloop
  endfacet
  facet normal 0 0 1
    outer loop
      vertex 55.4545 9.41411 5
      vertex 36.5455 9.41411 5
      vertex 36.5863 9.20884 5
    endloop
  endfacet
  facet normal 0 0 1
    outer loop
      vertex 55.5218 9.61229 5
      vertex 36.4782 9.61229 5
      vertex 36.5455 9.41411 5
    endloop
  endfacet
  facet normal 0 0 1
    outer loop
      vertex 55.6144 9.8 5
      vertex 36.3856 9.8 5
      vertex 36.4782 9.61229 5
    endloop
  endfacet
  facet normal 0 0 1
    outer loop
      vertex 55.7306 9.97402 5
      vertex 36.2694 9.97402 5
      vertex 36.3856 9.8 5
    endloop
  endfacet
  facet normal 0 0 1
    outer loop
      vertex 55.8686 10.1314 5
      vertex 36.1314 10.1314 5
      vertex 36.2694 9.97402 5
    endloop
  endfacet
  facet normal 0 0 1
    outer loop
      vertex 56.026 10.2694 5
      vertex 35.974 10.2694 5
      vertex 36.1314 10.1314 5
    endloop
  endfacet
  facet normal 0 0 1
    outer loop
      vertex 56.2 10.3856 5
      vertex 35.8 10.3856 5
      vertex 35.974 10.2694 5
    endloop
  endfacet
  facet normal 0 0 1
    outer loop
      vertex 56.3877 10.4782 5
      vertex 35.6123 10.4782 5
      vertex 35.8 10.3856 5
    endloop
  endfacet
  facet normal 0 0 1
    outer loop
      vertex 56.5859 10.5455 5
      vertex 35.4141 10.5455 5
      vertex 35.6123 10.4782 5
    endloop
  endfacet
  facet normal 0 0 1
    outer loop
      vertex 56.5859 10.5455 5
      vertex 35.2088 10.5863 5
      vertex 35.4141 10.5455 5
    endloop
  endfacet
  facet normal -0 0 1
    outer loop
      vertex 3 18 5
      vertex 35.2088 10.5863 5
      vertex 89 18 5
    endloop
  endfacet
  facet normal 0 0 1
    outer loop
      vertex 35.2088 10.5863 5
      vertex 3 18 5
      vertex 35 10.6 5
    endloop
  endfacet
  facet normal 0 0 1
    outer loop
      vertex 35 10.6 5
      vertex 3 18 5
      vertex 11 10.6 5
    endloop
  endfacet
  facet normal 0 0 1
    outer loop
      vertex 9.45452 9.41411 5
      vertex 0 15 5
      vertex 9.41369 9.20884 5
    endloop
  endfacet
  facet normal 0 0 1
    outer loop
      vertex 9.52179 9.61229 5
      vertex 0 15 5
      vertex 9.45452 9.41411 5
    endloop
  endfacet
  facet normal 0 0 1
    outer loop
      vertex 9.61436 9.8 5
      vertex 0 15 5
      vertex 9.52179 9.61229 5
    endloop
  endfacet
  facet normal -0 0 1
    outer loop
      vertex 0 15 5
      vertex 9.61436 9.8 5
      vertex 3 18 5
    endloop
  endfacet
  facet normal 0 0 1
    outer loop
      vertex 9.73063 9.97402 5
      vertex 3 18 5
      vertex 9.61436 9.8 5
    endloop
  endfacet
  facet normal 0 0 1
    outer loop
      vertex 9.86863 10.1314 5
      vertex 3 18 5
      vertex 9.73063 9.97402 5
    endloop
  endfacet
  facet normal 0 0 1
    outer loop
      vertex 10.026 10.2694 5
      vertex 3 18 5
      vertex 9.86863 10.1314 5
    endloop
  endfacet
  facet normal 0 0 1
    outer loop
      vertex 10.2 10.3856 5
      vertex 3 18 5
      vertex 10.026 10.2694 5
    endloop
  endfacet
  facet normal 0 0 1
    outer loop
      vertex 10.3877 10.4782 5
      vertex 3 18 5
      vertex 10.2 10.3856 5
    endloop
  endfacet
  facet normal 0 0 1
    outer loop
      vertex 10.5859 10.5455 5
      vertex 3 18 5
      vertex 10.3877 10.4782 5
    endloop
  endfacet
  facet normal 0 0 1
    outer loop
      vertex 10.7912 10.5863 5
      vertex 3 18 5
      vertex 10.5859 10.5455 5
    endloop
  endfacet
  facet normal 0 0 1
    outer loop
      vertex 11 10.6 5
      vertex 3 18 5
      vertex 10.7912 10.5863 5
    endloop
  endfacet
  facet normal 0 0 1
    outer loop
      vertex 90.148 0.228361 5
      vertex 89 0 5
      vertex 89.7765 0.102222 5
    endloop
  endfacet
  facet normal 0 0 1
    outer loop
      vertex 89.7765 0.102222 5
      vertex 89 0 5
      vertex 89.3916 0.0256653 5
    endloop
  endfacet
  facet normal 0 0 1
    outer loop
      vertex 90.5 0.401923 5
      vertex 89 0 5
      vertex 90.148 0.228361 5
    endloop
  endfacet
  facet normal 0 0 1
    outer loop
      vertex 91.7716 1.85195 5
      vertex 89 0 5
      vertex 91.5981 1.5 5
    endloop
  endfacet
  facet normal -0 0 1
    outer loop
      vertex 82.2694 8.02598 5
      vertex 89 0 5
      vertex 82.3856 8.2 5
    endloop
  endfacet
  facet normal -0 0 1
    outer loop
      vertex 82.1314 7.86863 5
      vertex 89 0 5
      vertex 82.2694 8.02598 5
    endloop
  endfacet
  facet normal -0 0 1
    outer loop
      vertex 81.974 7.73063 5
      vertex 89 0 5
      vertex 82.1314 7.86863 5
    endloop
  endfacet
  facet normal -0 0 1
    outer loop
      vertex 81.8 7.61436 5
      vertex 89 0 5
      vertex 81.974 7.73063 5
    endloop
  endfacet
  facet normal -0 0 1
    outer loop
      vertex 81.6123 7.52179 5
      vertex 89 0 5
      vertex 81.8 7.61436 5
    endloop
  endfacet
  facet normal -0 0 1
    outer loop
      vertex 81.4141 7.45452 5
      vertex 89 0 5
      vertex 81.6123 7.52179 5
    endloop
  endfacet
  facet normal -0 0 1
    outer loop
      vertex 81.2088 7.41369 5
      vertex 89 0 5
      vertex 81.4141 7.45452 5
    endloop
  endfacet
  facet normal -0 0 1
    outer loop
      vertex 81 7.4 5
      vertex 89 0 5
      vertex 81.2088 7.41369 5
    endloop
  endfacet
  facet normal -0 0 1
    outer loop
      vertex 57 7.4 5
      vertex 89 0 5
      vertex 81 7.4 5
    endloop
  endfacet
  facet normal 0 0 1
    outer loop
      vertex 56.7912 7.41369 5
      vertex 89 0 5
      vertex 57 7.4 5
    endloop
  endfacet
  facet normal 0 0 1
    outer loop
      vertex 35.2088 7.41369 5
      vertex 56.7912 7.41369 5
      vertex 56.5859 7.45452 5
    endloop
  endfacet
  facet normal -0 0 1
    outer loop
      vertex 36.6 9 5
      vertex 55.4137 8.79116 5
      vertex 55.4 9 5
    endloop
  endfacet
  facet normal 0 0 1
    outer loop
      vertex 36.5863 8.79116 5
      vertex 55.4137 8.79116 5
      vertex 36.6 9 5
    endloop
  endfacet
  facet normal 0 0 1
    outer loop
      vertex 55.4137 8.79116 5
      vertex 36.5863 8.79116 5
      vertex 55.4545 8.58589 5
    endloop
  endfacet
  facet normal 0 0 1
    outer loop
      vertex 36.5455 8.58589 5
      vertex 55.4545 8.58589 5
      vertex 36.5863 8.79116 5
    endloop
  endfacet
  facet normal 0 0 1
    outer loop
      vertex 55.4545 8.58589 5
      vertex 36.5455 8.58589 5
      vertex 55.5218 8.38771 5
    endloop
  endfacet
  facet normal 0 0 1
    outer loop
      vertex 36.4782 8.38771 5
      vertex 55.5218 8.38771 5
      vertex 36.5455 8.58589 5
    endloop
  endfacet
  facet normal 0 0 1
    outer loop
      vertex 55.5218 8.38771 5
      vertex 36.4782 8.38771 5
      vertex 55.6144 8.2 5
    endloop
  endfacet
  facet normal 0 0 1
    outer loop
      vertex 36.3856 8.2 5
      vertex 55.6144 8.2 5
      vertex 36.4782 8.38771 5
    endloop
  endfacet
  facet normal 0 0 1
    outer loop
      vertex 55.6144 8.2 5
      vertex 36.3856 8.2 5
      vertex 55.7306 8.02598 5
    endloop
  endfacet
  facet normal 0 0 1
    outer loop
      vertex 36.2694 8.02598 5
      vertex 55.7306 8.02598 5
      vertex 36.3856 8.2 5
    endloop
  endfacet
  facet normal 0 0 1
    outer loop
      vertex 55.7306 8.02598 5
      vertex 36.2694 8.02598 5
      vertex 55.8686 7.86863 5
    endloop
  endfacet
  facet normal 0 0 1
    outer loop
      vertex 36.1314 7.86863 5
      vertex 55.8686 7.86863 5
      vertex 36.2694 8.02598 5
    endloop
  endfacet
  facet normal 0 0 1
    outer loop
      vertex 55.8686 7.86863 5
      vertex 36.1314 7.86863 5
      vertex 56.026 7.73063 5
    endloop
  endfacet
  facet normal 0 0 1
    outer loop
      vertex 35.974 7.73063 5
      vertex 56.026 7.73063 5
      vertex 36.1314 7.86863 5
    endloop
  endfacet
  facet normal 0 0 1
    outer loop
      vertex 56.026 7.73063 5
      vertex 35.974 7.73063 5
      vertex 56.2 7.61436 5
    endloop
  endfacet
  facet normal 0 0 1
    outer loop
      vertex 35.8 7.61436 5
      vertex 56.2 7.61436 5
      vertex 35.974 7.73063 5
    endloop
  endfacet
  facet normal 0 0 1
    outer loop
      vertex 56.2 7.61436 5
      vertex 35.8 7.61436 5
      vertex 56.3877 7.52179 5
    endloop
  endfacet
  facet normal 0 0 1
    outer loop
      vertex 35.6123 7.52179 5
      vertex 56.3877 7.52179 5
      vertex 35.8 7.61436 5
    endloop
  endfacet
  facet normal 0 0 1
    outer loop
      vertex 56.3877 7.52179 5
      vertex 35.6123 7.52179 5
      vertex 56.5859 7.45452 5
    endloop
  endfacet
  facet normal 0 0 1
    outer loop
      vertex 35.4141 7.45452 5
      vertex 56.5859 7.45452 5
      vertex 35.6123 7.52179 5
    endloop
  endfacet
  facet normal 0 0 1
    outer loop
      vertex 35.2088 7.41369 5
      vertex 56.5859 7.45452 5
      vertex 35.4141 7.45452 5
    endloop
  endfacet
  facet normal 0 0 1
    outer loop
      vertex 56.7912 7.41369 5
      vertex 35.2088 7.41369 5
      vertex 89 0 5
    endloop
  endfacet
  facet normal 0 0 1
    outer loop
      vertex 3 0 5
      vertex 35.2088 7.41369 5
      vertex 35 7.4 5
    endloop
  endfacet
  facet normal 0 0 1
    outer loop
      vertex 3 0 5
      vertex 35 7.4 5
      vertex 11 7.4 5
    endloop
  endfacet
  facet normal 0 0 1
    outer loop
      vertex 3 0 5
      vertex 11 7.4 5
      vertex 10.7912 7.41369 5
    endloop
  endfacet
  facet normal 0 0 1
    outer loop
      vertex 9.41369 9.20884 5
      vertex 0 15 5
      vertex 9.4 9 5
    endloop
  endfacet
  facet normal 0 0 1
    outer loop
      vertex 0 3 5
      vertex 9.4 9 5
      vertex 0 15 5
    endloop
  endfacet
  facet normal 0 0 1
    outer loop
      vertex 9.4 9 5
      vertex 0 3 5
      vertex 9.41369 8.79116 5
    endloop
  endfacet
  facet normal 0 0 1
    outer loop
      vertex 9.41369 8.79116 5
      vertex 0 3 5
      vertex 9.45452 8.58589 5
    endloop
  endfacet
  facet normal 0 0 1
    outer loop
      vertex 9.45452 8.58589 5
      vertex 0 3 5
      vertex 9.52179 8.38771 5
    endloop
  endfacet
  facet normal 0 0 1
    outer loop
      vertex 35.2088 7.41369 5
      vertex 3 0 5
      vertex 89 0 5
    endloop
  endfacet
  facet normal 0 0 1
    outer loop
      vertex 10.5859 7.45452 5
      vertex 3 0 5
      vertex 10.7912 7.41369 5
    endloop
  endfacet
  facet normal 0 0 1
    outer loop
      vertex 10.3877 7.52179 5
      vertex 3 0 5
      vertex 10.5859 7.45452 5
    endloop
  endfacet
  facet normal 0 0 1
    outer loop
      vertex 10.2 7.61436 5
      vertex 3 0 5
      vertex 10.3877 7.52179 5
    endloop
  endfacet
  facet normal 0 0 1
    outer loop
      vertex 10.026 7.73063 5
      vertex 3 0 5
      vertex 10.2 7.61436 5
    endloop
  endfacet
  facet normal 0 0 1
    outer loop
      vertex 9.86863 7.86863 5
      vertex 3 0 5
      vertex 10.026 7.73063 5
    endloop
  endfacet
  facet normal 0 0 1
    outer loop
      vertex 9.73063 8.02598 5
      vertex 3 0 5
      vertex 9.86863 7.86863 5
    endloop
  endfacet
  facet normal 0 0 1
    outer loop
      vertex 9.52179 8.38771 5
      vertex 0 3 5
      vertex 9.61436 8.2 5
    endloop
  endfacet
  facet normal 0 0 1
    outer loop
      vertex 0 15 5
      vertex 3 18 5
      vertex 2.60842 17.9743 5
    endloop
  endfacet
  facet normal 0 0 1
    outer loop
      vertex 9.61436 8.2 5
      vertex 0 3 5
      vertex 9.73063 8.02598 5
    endloop
  endfacet
  facet normal 0 0 1
    outer loop
      vertex 0 15 5
      vertex 2.60842 17.9743 5
      vertex 2.22354 17.8978 5
    endloop
  endfacet
  facet normal 0 0 1
    outer loop
      vertex 9.73063 8.02598 5
      vertex 0 3 5
      vertex 3 0 5
    endloop
  endfacet
  facet normal 0 0 1
    outer loop
      vertex 0 15 5
      vertex 2.22354 17.8978 5
      vertex 1.85195 17.7716 5
    endloop
  endfacet
  facet normal 0 0 1
    outer loop
      vertex 3 0 5
      vertex 0 3 5
      vertex 2.60842 0.0256653 5
    endloop
  endfacet
  facet normal 0 0 1
    outer loop
      vertex 0 15 5
      vertex 1.85195 17.7716 5
      vertex 1.5 17.5981 5
    endloop
  endfacet
  facet normal 0 0 1
    outer loop
      vertex 2.60842 0.0256653 5
      vertex 0 3 5
      vertex 2.22354 0.102222 5
    endloop
  endfacet
  facet normal 0 0 1
    outer loop
      vertex 0 15 5
      vertex 1.5 17.5981 5
      vertex 1.17372 17.3801 5
    endloop
  endfacet
  facet normal 0 0 1
    outer loop
      vertex 2.22354 0.102222 5
      vertex 0 3 5
      vertex 1.85195 0.228361 5
    endloop
  endfacet
  facet normal 0 0 1
    outer loop
      vertex 0 15 5
      vertex 1.17372 17.3801 5
      vertex 0.878679 17.1213 5
    endloop
  endfacet
  facet normal 0 0 1
    outer loop
      vertex 1.85195 0.228361 5
      vertex 0 3 5
      vertex 1.5 0.401923 5
    endloop
  endfacet
  facet normal 0 0 1
    outer loop
      vertex 0 15 5
      vertex 0.878679 17.1213 5
      vertex 0.61994 16.8263 5
    endloop
  endfacet
  facet normal 0 0 1
    outer loop
      vertex 1.5 0.401923 5
      vertex 0 3 5
      vertex 1.17372 0.61994 5
    endloop
  endfacet
  facet normal 0 0 1
    outer loop
      vertex 0 15 5
      vertex 0.61994 16.8263 5
      vertex 0.401923 16.5 5
    endloop
  endfacet
  facet normal 0 0 1
    outer loop
      vertex 1.17372 0.61994 5
      vertex 0 3 5
      vertex 0.878679 0.878679 5
    endloop
  endfacet
  facet normal 0 0 1
    outer loop
      vertex 0 15 5
      vertex 0.401923 16.5 5
      vertex 0.228361 16.148 5
    endloop
  endfacet
  facet normal 0 0 1
    outer loop
      vertex 0.878679 0.878679 5
      vertex 0 3 5
      vertex 0.61994 1.17372 5
    endloop
  endfacet
  facet normal 0 0 1
    outer loop
      vertex 0 15 5
      vertex 0.228361 16.148 5
      vertex 0.102222 15.7765 5
    endloop
  endfacet
  facet normal 0 0 1
    outer loop
      vertex 0.61994 1.17372 5
      vertex 0 3 5
      vertex 0.401923 1.5 5
    endloop
  endfacet
  facet normal 0 0 1
    outer loop
      vertex 0 15 5
      vertex 0.102222 15.7765 5
      vertex 0.0256653 15.3916 5
    endloop
  endfacet
  facet normal 0 0 1
    outer loop
      vertex 0.401923 1.5 5
      vertex 0 3 5
      vertex 0.228361 1.85195 5
    endloop
  endfacet
  facet normal 0 0 1
    outer loop
      vertex 0.228361 1.85195 5
      vertex 0 3 5
      vertex 0.102222 2.22354 5
    endloop
  endfacet
  facet normal 0 0 1
    outer loop
      vertex 0.102222 2.22354 5
      vertex 0 3 5
      vertex 0.0256653 2.60842 5
    endloop
  endfacet
  facet normal -0.44216 0.896936 0
    outer loop
      vertex 1.85195 17.7716 0
      vertex 1.5 17.5981 5
      vertex 1.85195 17.7716 5
    endloop
  endfacet
  facet normal -0.44216 0.896936 0
    outer loop
      vertex 1.5 17.5981 5
      vertex 1.85195 17.7716 0
      vertex 1.5 17.5981 0
    endloop
  endfacet
  facet normal -0.831481 0.555553 0
    outer loop
      vertex 0.401923 16.5 0
      vertex 0.61994 16.8263 5
      vertex 0.61994 16.8263 0
    endloop
  endfacet
  facet normal -0.831481 0.555553 0
    outer loop
      vertex 0.61994 16.8263 5
      vertex 0.401923 16.5 0
      vertex 0.401923 16.5 5
    endloop
  endfacet
  facet normal -0.195089 -0.980786 0
    outer loop
      vertex 2.22354 0.102222 0
      vertex 2.60842 0.0256653 5
      vertex 2.22354 0.102222 5
    endloop
  endfacet
  facet normal -0.195089 -0.980786 -0
    outer loop
      vertex 2.60842 0.0256653 5
      vertex 2.22354 0.102222 0
      vertex 2.60842 0.0256653 0
    endloop
  endfacet
  facet normal 0 -1 0
    outer loop
      vertex 3 0 0
      vertex 89 0 5
      vertex 3 0 5
    endloop
  endfacet
  facet normal 0 -1 -0
    outer loop
      vertex 89 0 5
      vertex 3 0 0
      vertex 89 0 0
    endloop
  endfacet
  facet normal -0.980786 -0.195089 0
    outer loop
      vertex 0.102222 2.22354 0
      vertex 0.0256653 2.60842 5
      vertex 0.0256653 2.60842 0
    endloop
  endfacet
  facet normal -0.980786 -0.195089 0
    outer loop
      vertex 0.0256653 2.60842 5
      vertex 0.102222 2.22354 0
      vertex 0.102222 2.22354 5
    endloop
  endfacet
  facet normal -0.946929 -0.321442 0
    outer loop
      vertex 0.228361 1.85195 0
      vertex 0.102222 2.22354 5
      vertex 0.102222 2.22354 0
    endloop
  endfacet
  facet normal -0.946929 -0.321442 0
    outer loop
      vertex 0.102222 2.22354 5
      vertex 0.228361 1.85195 0
      vertex 0.228361 1.85195 5
    endloop
  endfacet
  facet normal 0.980815 0.19494 0
    outer loop
      vertex 91.9743 15.3916 5
      vertex 91.8978 15.7765 0
      vertex 91.8978 15.7765 5
    endloop
  endfacet
  facet normal 0.980815 0.19494 0
    outer loop
      vertex 91.8978 15.7765 0
      vertex 91.9743 15.3916 5
      vertex 91.9743 15.3916 0
    endloop
  endfacet
  facet normal 0.321651 0.946858 -0
    outer loop
      vertex 90.148 17.7716 0
      vertex 89.7765 17.8978 5
      vertex 90.148 17.7716 5
    endloop
  endfacet
  facet normal 0.321651 0.946858 0
    outer loop
      vertex 89.7765 17.8978 5
      vertex 90.148 17.7716 0
      vertex 89.7765 17.8978 0
    endloop
  endfacet
  facet normal 0.44211 0.896961 -0
    outer loop
      vertex 90.5 17.5981 0
      vertex 90.148 17.7716 5
      vertex 90.5 17.5981 5
    endloop
  endfacet
  facet normal 0.44211 0.896961 0
    outer loop
      vertex 90.148 17.7716 5
      vertex 90.5 17.5981 0
      vertex 90.148 17.7716 0
    endloop
  endfacet
  facet normal 0.195079 -0.980788 0
    outer loop
      vertex 89.3916 0.0256653 0
      vertex 89.7765 0.102222 5
      vertex 89.3916 0.0256653 5
    endloop
  endfacet
  facet normal 0.195079 -0.980788 0
    outer loop
      vertex 89.7765 0.102222 5
      vertex 89.3916 0.0256653 0
      vertex 89.7765 0.102222 0
    endloop
  endfacet
  facet normal 0.555553 -0.831481 0
    outer loop
      vertex 90.5 0.401923 0
      vertex 90.8263 0.61994 5
      vertex 90.5 0.401923 5
    endloop
  endfacet
  facet normal 0.555553 -0.831481 0
    outer loop
      vertex 90.8263 0.61994 5
      vertex 90.5 0.401923 0
      vertex 90.8263 0.61994 0
    endloop
  endfacet
  facet normal 0.751769 -0.659426 0
    outer loop
      vertex 91.1213 0.878679 5
      vertex 91.3801 1.17372 0
      vertex 91.3801 1.17372 5
    endloop
  endfacet
  facet normal 0.751769 -0.659426 0
    outer loop
      vertex 91.3801 1.17372 0
      vertex 91.1213 0.878679 5
      vertex 91.1213 0.878679 0
    endloop
  endfacet
  facet normal -0.980788 0.195079 0
    outer loop
      vertex 0.0256653 15.3916 0
      vertex 0.102222 15.7765 5
      vertex 0.102222 15.7765 0
    endloop
  endfacet
  facet normal -0.980788 0.195079 0
    outer loop
      vertex 0.102222 15.7765 5
      vertex 0.0256653 15.3916 0
      vertex 0.0256653 15.3916 5
    endloop
  endfacet
  facet normal -0.751801 0.65939 0
    outer loop
      vertex 0.61994 16.8263 0
      vertex 0.878679 17.1213 5
      vertex 0.878679 17.1213 0
    endloop
  endfacet
  facet normal -0.751801 0.65939 0
    outer loop
      vertex 0.878679 17.1213 5
      vertex 0.61994 16.8263 0
      vertex 0.61994 16.8263 5
    endloop
  endfacet
  facet normal -0.555547 0.831485 0
    outer loop
      vertex 1.5 17.5981 0
      vertex 1.17372 17.3801 5
      vertex 1.5 17.5981 5
    endloop
  endfacet
  facet normal -0.555547 0.831485 0
    outer loop
      vertex 1.17372 17.3801 5
      vertex 1.5 17.5981 0
      vertex 1.17372 17.3801 0
    endloop
  endfacet
  facet normal -0.19495 0.980813 0
    outer loop
      vertex 2.60842 17.9743 0
      vertex 2.22354 17.8978 5
      vertex 2.60842 17.9743 5
    endloop
  endfacet
  facet normal -0.19495 0.980813 0
    outer loop
      vertex 2.22354 17.8978 5
      vertex 2.60842 17.9743 0
      vertex 2.22354 17.8978 0
    endloop
  endfacet
  facet normal -0.659426 0.751769 0
    outer loop
      vertex 1.17372 17.3801 0
      vertex 0.878679 17.1213 5
      vertex 1.17372 17.3801 5
    endloop
  endfacet
  facet normal -0.659426 0.751769 0
    outer loop
      vertex 0.878679 17.1213 5
      vertex 1.17372 17.3801 0
      vertex 0.878679 17.1213 0
    endloop
  endfacet
  facet normal -0.442288 -0.896873 0
    outer loop
      vertex 1.5 0.401923 0
      vertex 1.85195 0.228361 5
      vertex 1.5 0.401923 5
    endloop
  endfacet
  facet normal -0.442288 -0.896873 -0
    outer loop
      vertex 1.85195 0.228361 5
      vertex 1.5 0.401923 0
      vertex 1.85195 0.228361 0
    endloop
  endfacet
  facet normal -0.321442 -0.946929 0
    outer loop
      vertex 1.85195 0.228361 0
      vertex 2.22354 0.102222 5
      vertex 1.85195 0.228361 5
    endloop
  endfacet
  facet normal -0.321442 -0.946929 -0
    outer loop
      vertex 2.22354 0.102222 5
      vertex 1.85195 0.228361 0
      vertex 2.22354 0.102222 0
    endloop
  endfacet
  facet normal -0.555577 -0.831465 0
    outer loop
      vertex 1.17372 0.61994 0
      vertex 1.5 0.401923 5
      vertex 1.17372 0.61994 5
    endloop
  endfacet
  facet normal -0.555577 -0.831465 -0
    outer loop
      vertex 1.5 0.401923 5
      vertex 1.17372 0.61994 0
      vertex 1.5 0.401923 0
    endloop
  endfacet
  facet normal -0.0654026 -0.997859 0
    outer loop
      vertex 2.60842 0.0256653 0
      vertex 3 0 5
      vertex 2.60842 0.0256653 5
    endloop
  endfacet
  facet normal -0.0654026 -0.997859 -0
    outer loop
      vertex 3 0 5
      vertex 2.60842 0.0256653 0
      vertex 3 0 0
    endloop
  endfacet
  facet normal -0.751846 -0.659339 0
    outer loop
      vertex 0.878679 0.878679 0
      vertex 0.61994 1.17372 5
      vertex 0.61994 1.17372 0
    endloop
  endfacet
  facet normal -0.751846 -0.659339 0
    outer loop
      vertex 0.61994 1.17372 5
      vertex 0.878679 0.878679 0
      vertex 0.878679 0.878679 5
    endloop
  endfacet
  facet normal 0.896961 0.44211 0
    outer loop
      vertex 91.7716 16.148 5
      vertex 91.5981 16.5 0
      vertex 91.5981 16.5 5
    endloop
  endfacet
  facet normal 0.896961 0.44211 0
    outer loop
      vertex 91.5981 16.5 0
      vertex 91.7716 16.148 5
      vertex 91.7716 16.148 0
    endloop
  endfacet
  facet normal 0.19494 0.980815 -0
    outer loop
      vertex 89.7765 17.8978 0
      vertex 89.3916 17.9743 5
      vertex 89.7765 17.8978 5
    endloop
  endfacet
  facet normal 0.19494 0.980815 0
    outer loop
      vertex 89.3916 17.9743 5
      vertex 89.7765 17.8978 0
      vertex 89.3916 17.9743 0
    endloop
  endfacet
  facet normal 0.659478 0.751724 -0
    outer loop
      vertex 91.1213 17.1213 0
      vertex 90.8263 17.3801 5
      vertex 91.1213 17.1213 5
    endloop
  endfacet
  facet normal 0.659478 0.751724 0
    outer loop
      vertex 90.8263 17.3801 5
      vertex 91.1213 17.1213 0
      vertex 90.8263 17.3801 0
    endloop
  endfacet
  facet normal 0.321512 -0.946905 0
    outer loop
      vertex 89.7765 0.102222 0
      vertex 90.148 0.228361 5
      vertex 89.7765 0.102222 5
    endloop
  endfacet
  facet normal 0.321512 -0.946905 0
    outer loop
      vertex 90.148 0.228361 5
      vertex 89.7765 0.102222 0
      vertex 90.148 0.228361 0
    endloop
  endfacet
  facet normal 0.831485 -0.555547 0
    outer loop
      vertex 91.3801 1.17372 5
      vertex 91.5981 1.5 0
      vertex 91.5981 1.5 5
    endloop
  endfacet
  facet normal 0.831485 -0.555547 0
    outer loop
      vertex 91.5981 1.5 0
      vertex 91.3801 1.17372 5
      vertex 91.3801 1.17372 0
    endloop
  endfacet
  facet normal 0.980813 -0.19495 0
    outer loop
      vertex 91.8978 2.22354 5
      vertex 91.9743 2.60842 0
      vertex 91.9743 2.60842 5
    endloop
  endfacet
  facet normal 0.980813 -0.19495 0
    outer loop
      vertex 91.9743 2.60842 0
      vertex 91.8978 2.22354 5
      vertex 91.8978 2.22354 0
    endloop
  endfacet
  facet normal -0.896898 0.442237 0
    outer loop
      vertex 0.228361 16.148 0
      vertex 0.401923 16.5 5
      vertex 0.401923 16.5 0
    endloop
  endfacet
  facet normal -0.896898 0.442237 0
    outer loop
      vertex 0.401923 16.5 5
      vertex 0.228361 16.148 0
      vertex 0.228361 16.148 5
    endloop
  endfacet
  facet normal -0.946905 0.321512 0
    outer loop
      vertex 0.102222 15.7765 0
      vertex 0.228361 16.148 5
      vertex 0.228361 16.148 0
    endloop
  endfacet
  facet normal -0.946905 0.321512 0
    outer loop
      vertex 0.228361 16.148 5
      vertex 0.102222 15.7765 0
      vertex 0.102222 15.7765 5
    endloop
  endfacet
  facet normal -0.321582 0.946882 0
    outer loop
      vertex 2.22354 17.8978 0
      vertex 1.85195 17.7716 5
      vertex 2.22354 17.8978 5
    endloop
  endfacet
  facet normal -0.321582 0.946882 0
    outer loop
      vertex 1.85195 17.7716 5
      vertex 2.22354 17.8978 0
      vertex 1.85195 17.7716 0
    endloop
  endfacet
  facet normal 0.0654873 0.997853 -0
    outer loop
      vertex 89.3916 17.9743 0
      vertex 89 18 5
      vertex 89.3916 17.9743 5
    endloop
  endfacet
  facet normal 0.0654873 0.997853 0
    outer loop
      vertex 89 18 5
      vertex 89.3916 17.9743 0
      vertex 89 18 0
    endloop
  endfacet
  facet normal 0.555523 0.831501 -0
    outer loop
      vertex 90.8263 17.3801 0
      vertex 90.5 17.5981 5
      vertex 90.8263 17.3801 5
    endloop
  endfacet
  facet normal 0.555523 0.831501 0
    outer loop
      vertex 90.5 17.5981 5
      vertex 90.8263 17.3801 0
      vertex 90.5 17.5981 0
    endloop
  endfacet
  facet normal 0.442237 -0.896898 0
    outer loop
      vertex 90.148 0.228361 0
      vertex 90.5 0.401923 5
      vertex 90.148 0.228361 5
    endloop
  endfacet
  facet normal 0.442237 -0.896898 0
    outer loop
      vertex 90.5 0.401923 5
      vertex 90.148 0.228361 0
      vertex 90.5 0.401923 0
    endloop
  endfacet
  facet normal 0.946882 -0.321582 0
    outer loop
      vertex 91.7716 1.85195 5
      vertex 91.8978 2.22354 0
      vertex 91.8978 2.22354 5
    endloop
  endfacet
  facet normal 0.946882 -0.321582 0
    outer loop
      vertex 91.8978 2.22354 0
      vertex 91.7716 1.85195 5
      vertex 91.7716 1.85195 0
    endloop
  endfacet
  facet normal 0.946858 0.321651 0
    outer loop
      vertex 91.8978 15.7765 5
      vertex 91.7716 16.148 0
      vertex 91.7716 16.148 5
    endloop
  endfacet
  facet normal 0.946858 0.321651 0
    outer loop
      vertex 91.7716 16.148 0
      vertex 91.8978 15.7765 5
      vertex 91.8978 15.7765 0
    endloop
  endfacet
  facet normal 0.751724 0.659478 0
    outer loop
      vertex 91.3801 16.8263 5
      vertex 91.1213 17.1213 0
      vertex 91.1213 17.1213 5
    endloop
  endfacet
  facet normal 0.751724 0.659478 0
    outer loop
      vertex 91.1213 17.1213 0
      vertex 91.3801 16.8263 5
      vertex 91.3801 16.8263 0
    endloop
  endfacet
  facet normal 0.831501 0.555523 0
    outer loop
      vertex 91.5981 16.5 5
      vertex 91.3801 16.8263 0
      vertex 91.3801 16.8263 5
    endloop
  endfacet
  facet normal 0.831501 0.555523 0
    outer loop
      vertex 91.3801 16.8263 0
      vertex 91.5981 16.5 5
      vertex 91.5981 16.5 0
    endloop
  endfacet
endsolid OpenSCAD_Model
