solid OpenSCAD_Model
  facet normal -0.997855 -0.0654598 0
    outer loop
      vertex 11.6 8 0
      vertex 11.5863 8.20884 3
      vertex 11.5863 8.20884 0
    endloop
  endfacet
  facet normal -0.997855 -0.0654598 0
    outer loop
      vertex 11.5863 8.20884 3
      vertex 11.6 8 0
      vertex 11.6 8 3
    endloop
  endfacet
  facet normal 0.0654122 -0.997858 0
    outer loop
      vertex 9.79116 9.58631 0
      vertex 10 9.6 3
      vertex 9.79116 9.58631 3
    endloop
  endfacet
  facet normal 0.0654122 -0.997858 0
    outer loop
      vertex 10 9.6 3
      vertex 9.79116 9.58631 0
      vertex 10 9.6 0
    endloop
  endfacet
  facet normal -0.659248 -0.751925 0
    outer loop
      vertex 10.974 9.26937 0
      vertex 11.1314 9.13137 3
      vertex 10.974 9.26937 3
    endloop
  endfacet
  facet normal -0.659248 -0.751925 -0
    outer loop
      vertex 11.1314 9.13137 3
      vertex 10.974 9.26937 0
      vertex 11.1314 9.13137 0
    endloop
  endfacet
  facet normal 0.751821 -0.659367 0
    outer loop
      vertex 8.73063 8.97402 3
      vertex 8.86863 9.13137 0
      vertex 8.86863 9.13137 3
    endloop
  endfacet
  facet normal 0.751821 -0.659367 0
    outer loop
      vertex 8.86863 9.13137 0
      vertex 8.73063 8.97402 3
      vertex 8.73063 8.97402 0
    endloop
  endfacet
  facet normal 0.442295 -0.89687 0
    outer loop
      vertex 9.2 9.38564 0
      vertex 9.38771 9.47821 3
      vertex 9.2 9.38564 3
    endloop
  endfacet
  facet normal 0.442295 -0.89687 0
    outer loop
      vertex 9.38771 9.47821 3
      vertex 9.2 9.38564 0
      vertex 9.38771 9.47821 0
    endloop
  endfacet
  facet normal -0.896813 -0.44241 0
    outer loop
      vertex 11.4782 8.61229 0
      vertex 11.3856 8.8 3
      vertex 11.3856 8.8 0
    endloop
  endfacet
  facet normal -0.896813 -0.44241 0
    outer loop
      vertex 11.3856 8.8 3
      vertex 11.4782 8.61229 0
      vertex 11.4782 8.61229 3
    endloop
  endfacet
  facet normal -0.831638 -0.555318 0
    outer loop
      vertex 11.3856 8.8 0
      vertex 11.2694 8.97402 3
      vertex 11.2694 8.97402 0
    endloop
  endfacet
  facet normal -0.831638 -0.555318 0
    outer loop
      vertex 11.2694 8.97402 3
      vertex 11.3856 8.8 0
      vertex 11.3856 8.8 3
    endloop
  endfacet
  facet normal -0.321397 -0.946944 0
    outer loop
      vertex 10.4141 9.54548 0
      vertex 10.6123 9.47821 3
      vertex 10.4141 9.54548 3
    endloop
  endfacet
  facet normal -0.321397 -0.946944 -0
    outer loop
      vertex 10.6123 9.47821 3
      vertex 10.4141 9.54548 0
      vertex 10.6123 9.47821 0
    endloop
  endfacet
  facet normal -0.195059 -0.980791 0
    outer loop
      vertex 10.2088 9.58631 0
      vertex 10.4141 9.54548 3
      vertex 10.2088 9.58631 3
    endloop
  endfacet
  facet normal -0.195059 -0.980791 -0
    outer loop
      vertex 10.4141 9.54548 3
      vertex 10.2088 9.58631 0
      vertex 10.4141 9.54548 0
    endloop
  endfacet
  facet normal -0.442314 -0.89686 0
    outer loop
      vertex 10.6123 9.47821 0
      vertex 10.8 9.38564 3
      vertex 10.6123 9.47821 3
    endloop
  endfacet
  facet normal -0.442314 -0.89686 -0
    outer loop
      vertex 10.8 9.38564 3
      vertex 10.6123 9.47821 0
      vertex 10.8 9.38564 0
    endloop
  endfacet
  facet normal 0.946935 -0.321426 0
    outer loop
      vertex 8.45452 8.41411 3
      vertex 8.52179 8.61229 0
      vertex 8.52179 8.61229 3
    endloop
  endfacet
  facet normal 0.946935 -0.321426 0
    outer loop
      vertex 8.52179 8.61229 0
      vertex 8.45452 8.41411 3
      vertex 8.45452 8.41411 0
    endloop
  endfacet
  facet normal 0.980786 -0.195087 0
    outer loop
      vertex 8.41369 8.20884 3
      vertex 8.45452 8.41411 0
      vertex 8.45452 8.41411 3
    endloop
  endfacet
  facet normal 0.980786 -0.195087 0
    outer loop
      vertex 8.45452 8.41411 0
      vertex 8.41369 8.20884 3
      vertex 8.41369 8.20884 0
    endloop
  endfacet
  facet normal 0.555549 -0.831484 0
    outer loop
      vertex 9.02598 9.26937 0
      vertex 9.2 9.38564 3
      vertex 9.02598 9.26937 3
    endloop
  endfacet
  facet normal 0.555549 -0.831484 0
    outer loop
      vertex 9.2 9.38564 3
      vertex 9.02598 9.26937 0
      vertex 9.2 9.38564 0
    endloop
  endfacet
  facet normal 0.321426 -0.946935 0
    outer loop
      vertex 9.38771 9.47821 0
      vertex 9.58589 9.54548 3
      vertex 9.38771 9.47821 3
    endloop
  endfacet
  facet normal 0.321426 -0.946935 0
    outer loop
      vertex 9.58589 9.54548 3
      vertex 9.38771 9.47821 0
      vertex 9.58589 9.54548 0
    endloop
  endfacet
  facet normal -0.555593 0.831454 0
    outer loop
      vertex 10.974 6.73063 0
      vertex 10.8 6.61436 3
      vertex 10.974 6.73063 3
    endloop
  endfacet
  facet normal -0.555593 0.831454 0
    outer loop
      vertex 10.8 6.61436 3
      vertex 10.974 6.73063 0
      vertex 10.8 6.61436 0
    endloop
  endfacet
  facet normal -0.980813 0.194949 0
    outer loop
      vertex 11.5455 7.58589 0
      vertex 11.5863 7.79116 3
      vertex 11.5863 7.79116 0
    endloop
  endfacet
  facet normal -0.980813 0.194949 0
    outer loop
      vertex 11.5863 7.79116 3
      vertex 11.5455 7.58589 0
      vertex 11.5455 7.58589 3
    endloop
  endfacet
  facet normal 0.195087 0.980786 -0
    outer loop
      vertex 9.79116 6.41369 0
      vertex 9.58589 6.45452 3
      vertex 9.79116 6.41369 3
    endloop
  endfacet
  facet normal 0.195087 0.980786 0
    outer loop
      vertex 9.58589 6.45452 3
      vertex 9.79116 6.41369 0
      vertex 9.58589 6.45452 0
    endloop
  endfacet
  facet normal 0.831484 0.555549 0
    outer loop
      vertex 8.73063 7.02598 3
      vertex 8.61436 7.2 0
      vertex 8.61436 7.2 3
    endloop
  endfacet
  facet normal 0.831484 0.555549 0
    outer loop
      vertex 8.61436 7.2 0
      vertex 8.73063 7.02598 3
      vertex 8.73063 7.02598 0
    endloop
  endfacet
  facet normal -0.946891 -0.321555 0
    outer loop
      vertex 11.5455 8.41411 0
      vertex 11.4782 8.61229 3
      vertex 11.4782 8.61229 0
    endloop
  endfacet
  facet normal -0.946891 -0.321555 0
    outer loop
      vertex 11.4782 8.61229 3
      vertex 11.5455 8.41411 0
      vertex 11.5455 8.41411 3
    endloop
  endfacet
  facet normal -0.980813 -0.194949 0
    outer loop
      vertex 11.5863 8.20884 0
      vertex 11.5455 8.41411 3
      vertex 11.5455 8.41411 0
    endloop
  endfacet
  facet normal -0.980813 -0.194949 0
    outer loop
      vertex 11.5455 8.41411 3
      vertex 11.5863 8.20884 0
      vertex 11.5863 8.20884 3
    endloop
  endfacet
  facet normal -0.751821 -0.659367 0
    outer loop
      vertex 11.2694 8.97402 0
      vertex 11.1314 9.13137 3
      vertex 11.1314 9.13137 0
    endloop
  endfacet
  facet normal -0.751821 -0.659367 0
    outer loop
      vertex 11.1314 9.13137 3
      vertex 11.2694 8.97402 0
      vertex 11.2694 8.97402 3
    endloop
  endfacet
  facet normal -0.0654247 -0.997858 0
    outer loop
      vertex 10 9.6 0
      vertex 10.2088 9.58631 3
      vertex 10 9.6 3
    endloop
  endfacet
  facet normal -0.0654247 -0.997858 -0
    outer loop
      vertex 10.2088 9.58631 3
      vertex 10 9.6 0
      vertex 10.2088 9.58631 0
    endloop
  endfacet
  facet normal -0.555593 -0.831454 0
    outer loop
      vertex 10.8 9.38564 0
      vertex 10.974 9.26937 3
      vertex 10.8 9.38564 3
    endloop
  endfacet
  facet normal -0.555593 -0.831454 -0
    outer loop
      vertex 10.974 9.26937 3
      vertex 10.8 9.38564 0
      vertex 10.974 9.26937 0
    endloop
  endfacet
  facet normal 0.89687 -0.442295 0
    outer loop
      vertex 8.52179 8.61229 3
      vertex 8.61436 8.8 0
      vertex 8.61436 8.8 3
    endloop
  endfacet
  facet normal 0.89687 -0.442295 0
    outer loop
      vertex 8.61436 8.8 0
      vertex 8.52179 8.61229 3
      vertex 8.52179 8.61229 0
    endloop
  endfacet
  facet normal 0.831484 -0.555549 0
    outer loop
      vertex 8.61436 8.8 3
      vertex 8.73063 8.97402 0
      vertex 8.73063 8.97402 3
    endloop
  endfacet
  facet normal 0.831484 -0.555549 0
    outer loop
      vertex 8.73063 8.97402 0
      vertex 8.61436 8.8 3
      vertex 8.61436 8.8 0
    endloop
  endfacet
  facet normal 0.997858 -0.0654122 0
    outer loop
      vertex 8.4 8 3
      vertex 8.41369 8.20884 0
      vertex 8.41369 8.20884 3
    endloop
  endfacet
  facet normal 0.997858 -0.0654122 0
    outer loop
      vertex 8.41369 8.20884 0
      vertex 8.4 8 3
      vertex 8.4 8 0
    endloop
  endfacet
  facet normal 0.659367 -0.751821 0
    outer loop
      vertex 8.86863 9.13137 0
      vertex 9.02598 9.26937 3
      vertex 8.86863 9.13137 3
    endloop
  endfacet
  facet normal 0.659367 -0.751821 0
    outer loop
      vertex 9.02598 9.26937 3
      vertex 8.86863 9.13137 0
      vertex 9.02598 9.26937 0
    endloop
  endfacet
  facet normal 0.195087 -0.980786 0
    outer loop
      vertex 9.58589 9.54548 0
      vertex 9.79116 9.58631 3
      vertex 9.58589 9.54548 3
    endloop
  endfacet
  facet normal 0.195087 -0.980786 0
    outer loop
      vertex 9.79116 9.58631 3
      vertex 9.58589 9.54548 0
      vertex 9.79116 9.58631 0
    endloop
  endfacet
  facet normal -0.195059 0.980791 0
    outer loop
      vertex 10.4141 6.45452 0
      vertex 10.2088 6.41369 3
      vertex 10.4141 6.45452 3
    endloop
  endfacet
  facet normal -0.195059 0.980791 0
    outer loop
      vertex 10.2088 6.41369 3
      vertex 10.4141 6.45452 0
      vertex 10.2088 6.41369 0
    endloop
  endfacet
  facet normal -0.442314 0.89686 0
    outer loop
      vertex 10.8 6.61436 0
      vertex 10.6123 6.52179 3
      vertex 10.8 6.61436 3
    endloop
  endfacet
  facet normal -0.442314 0.89686 0
    outer loop
      vertex 10.6123 6.52179 3
      vertex 10.8 6.61436 0
      vertex 10.6123 6.52179 0
    endloop
  endfacet
  facet normal -0.659248 0.751925 0
    outer loop
      vertex 11.1314 6.86863 0
      vertex 10.974 6.73063 3
      vertex 11.1314 6.86863 3
    endloop
  endfacet
  facet normal -0.659248 0.751925 0
    outer loop
      vertex 10.974 6.73063 3
      vertex 11.1314 6.86863 0
      vertex 10.974 6.73063 0
    endloop
  endfacet
  facet normal -0.831638 0.555318 0
    outer loop
      vertex 11.2694 7.02598 0
      vertex 11.3856 7.2 3
      vertex 11.3856 7.2 0
    endloop
  endfacet
  facet normal -0.831638 0.555318 0
    outer loop
      vertex 11.3856 7.2 3
      vertex 11.2694 7.02598 0
      vertex 11.2694 7.02598 3
    endloop
  endfacet
  facet normal -0.946891 0.321555 0
    outer loop
      vertex 11.4782 7.38771 0
      vertex 11.5455 7.58589 3
      vertex 11.5455 7.58589 0
    endloop
  endfacet
  facet normal -0.946891 0.321555 0
    outer loop
      vertex 11.5455 7.58589 3
      vertex 11.4782 7.38771 0
      vertex 11.4782 7.38771 3
    endloop
  endfacet
  facet normal -0.997855 0.0654598 0
    outer loop
      vertex 11.5863 7.79116 0
      vertex 11.6 8 3
      vertex 11.6 8 0
    endloop
  endfacet
  facet normal -0.997855 0.0654598 0
    outer loop
      vertex 11.6 8 3
      vertex 11.5863 7.79116 0
      vertex 11.5863 7.79116 3
    endloop
  endfacet
  facet normal 0.555549 0.831484 -0
    outer loop
      vertex 9.2 6.61436 0
      vertex 9.02598 6.73063 3
      vertex 9.2 6.61436 3
    endloop
  endfacet
  facet normal 0.555549 0.831484 0
    outer loop
      vertex 9.02598 6.73063 3
      vertex 9.2 6.61436 0
      vertex 9.02598 6.73063 0
    endloop
  endfacet
  facet normal 0.321426 0.946935 -0
    outer loop
      vertex 9.58589 6.45452 0
      vertex 9.38771 6.52179 3
      vertex 9.58589 6.45452 3
    endloop
  endfacet
  facet normal 0.321426 0.946935 0
    outer loop
      vertex 9.38771 6.52179 3
      vertex 9.58589 6.45452 0
      vertex 9.38771 6.52179 0
    endloop
  endfacet
  facet normal 0.0654122 0.997858 -0
    outer loop
      vertex 10 6.4 0
      vertex 9.79116 6.41369 3
      vertex 10 6.4 3
    endloop
  endfacet
  facet normal 0.0654122 0.997858 0
    outer loop
      vertex 9.79116 6.41369 3
      vertex 10 6.4 0
      vertex 9.79116 6.41369 0
    endloop
  endfacet
  facet normal 0.751821 0.659367 0
    outer loop
      vertex 8.86863 6.86863 3
      vertex 8.73063 7.02598 0
      vertex 8.73063 7.02598 3
    endloop
  endfacet
  facet normal 0.751821 0.659367 0
    outer loop
      vertex 8.73063 7.02598 0
      vertex 8.86863 6.86863 3
      vertex 8.86863 6.86863 0
    endloop
  endfacet
  facet normal 0.89687 0.442295 0
    outer loop
      vertex 8.61436 7.2 3
      vertex 8.52179 7.38771 0
      vertex 8.52179 7.38771 3
    endloop
  endfacet
  facet normal 0.89687 0.442295 0
    outer loop
      vertex 8.52179 7.38771 0
      vertex 8.61436 7.2 3
      vertex 8.61436 7.2 0
    endloop
  endfacet
  facet normal 0.980786 0.195087 0
    outer loop
      vertex 8.45452 7.58589 3
      vertex 8.41369 7.79116 0
      vertex 8.41369 7.79116 3
    endloop
  endfacet
  facet normal 0.980786 0.195087 0
    outer loop
      vertex 8.41369 7.79116 0
      vertex 8.45452 7.58589 3
      vertex 8.45452 7.58589 0
    endloop
  endfacet
  facet normal 0.997858 0.0654122 0
    outer loop
      vertex 8.41369 7.79116 3
      vertex 8.4 8 0
      vertex 8.4 8 3
    endloop
  endfacet
  facet normal 0.997858 0.0654122 0
    outer loop
      vertex 8.4 8 0
      vertex 8.41369 7.79116 3
      vertex 8.41369 7.79116 0
    endloop
  endfacet
  facet normal -0.321397 0.946944 0
    outer loop
      vertex 10.6123 6.52179 0
      vertex 10.4141 6.45452 3
      vertex 10.6123 6.52179 3
    endloop
  endfacet
  facet normal -0.321397 0.946944 0
    outer loop
      vertex 10.4141 6.45452 3
      vertex 10.6123 6.52179 0
      vertex 10.4141 6.45452 0
    endloop
  endfacet
  facet normal -0.751821 0.659367 0
    outer loop
      vertex 11.1314 6.86863 0
      vertex 11.2694 7.02598 3
      vertex 11.2694 7.02598 0
    endloop
  endfacet
  facet normal -0.751821 0.659367 0
    outer loop
      vertex 11.2694 7.02598 3
      vertex 11.1314 6.86863 0
      vertex 11.1314 6.86863 3
    endloop
  endfacet
  facet normal -0.896813 0.44241 0
    outer loop
      vertex 11.3856 7.2 0
      vertex 11.4782 7.38771 3
      vertex 11.4782 7.38771 0
    endloop
  endfacet
  facet normal -0.896813 0.44241 0
    outer loop
      vertex 11.4782 7.38771 3
      vertex 11.3856 7.2 0
      vertex 11.3856 7.2 3
    endloop
  endfacet
  facet normal 0.442295 0.89687 -0
    outer loop
      vertex 9.38771 6.52179 0
      vertex 9.2 6.61436 3
      vertex 9.38771 6.52179 3
    endloop
  endfacet
  facet normal 0.442295 0.89687 0
    outer loop
      vertex 9.2 6.61436 3
      vertex 9.38771 6.52179 0
      vertex 9.2 6.61436 0
    endloop
  endfacet
  facet normal -0.0654247 0.997858 0
    outer loop
      vertex 10.2088 6.41369 0
      vertex 10 6.4 3
      vertex 10.2088 6.41369 3
    endloop
  endfacet
  facet normal -0.0654247 0.997858 0
    outer loop
      vertex 10 6.4 3
      vertex 10.2088 6.41369 0
      vertex 10 6.4 0
    endloop
  endfacet
  facet normal 0.659367 0.751821 -0
    outer loop
      vertex 9.02598 6.73063 0
      vertex 8.86863 6.86863 3
      vertex 9.02598 6.73063 3
    endloop
  endfacet
  facet normal 0.659367 0.751821 0
    outer loop
      vertex 8.86863 6.86863 3
      vertex 9.02598 6.73063 0
      vertex 8.86863 6.86863 0
    endloop
  endfacet
  facet normal 0.946935 0.321426 0
    outer loop
      vertex 8.52179 7.38771 3
      vertex 8.45452 7.58589 0
      vertex 8.45452 7.58589 3
    endloop
  endfacet
  facet normal 0.946935 0.321426 0
    outer loop
      vertex 8.45452 7.58589 0
      vertex 8.52179 7.38771 3
      vertex 8.52179 7.38771 0
    endloop
  endfacet
  facet normal -0.997855 -0.0654598 0
    outer loop
      vertex 61.6 8 0
      vertex 61.5863 8.20884 3
      vertex 61.5863 8.20884 0
    endloop
  endfacet
  facet normal -0.997855 -0.0654598 0
    outer loop
      vertex 61.5863 8.20884 3
      vertex 61.6 8 0
      vertex 61.6 8 3
    endloop
  endfacet
  facet normal 0.0654247 -0.997858 0
    outer loop
      vertex 59.7912 9.58631 0
      vertex 60 9.6 3
      vertex 59.7912 9.58631 3
    endloop
  endfacet
  facet normal 0.0654247 -0.997858 0
    outer loop
      vertex 60 9.6 3
      vertex 59.7912 9.58631 0
      vertex 60 9.6 0
    endloop
  endfacet
  facet normal -0.0654247 0.997858 0
    outer loop
      vertex 60.2088 6.41369 0
      vertex 60 6.4 3
      vertex 60.2088 6.41369 3
    endloop
  endfacet
  facet normal -0.0654247 0.997858 0
    outer loop
      vertex 60 6.4 3
      vertex 60.2088 6.41369 0
      vertex 60 6.4 0
    endloop
  endfacet
  facet normal 0.659248 0.751925 -0
    outer loop
      vertex 59.026 6.73063 0
      vertex 58.8686 6.86863 3
      vertex 59.026 6.73063 3
    endloop
  endfacet
  facet normal 0.659248 0.751925 0
    outer loop
      vertex 58.8686 6.86863 3
      vertex 59.026 6.73063 0
      vertex 58.8686 6.86863 0
    endloop
  endfacet
  facet normal -0.659248 -0.751925 0
    outer loop
      vertex 60.974 9.26937 0
      vertex 61.1314 9.13137 3
      vertex 60.974 9.26937 3
    endloop
  endfacet
  facet normal -0.659248 -0.751925 -0
    outer loop
      vertex 61.1314 9.13137 3
      vertex 60.974 9.26937 0
      vertex 61.1314 9.13137 0
    endloop
  endfacet
  facet normal 0.751821 -0.659367 0
    outer loop
      vertex 58.7306 8.97402 3
      vertex 58.8686 9.13137 0
      vertex 58.8686 9.13137 3
    endloop
  endfacet
  facet normal 0.751821 -0.659367 0
    outer loop
      vertex 58.8686 9.13137 0
      vertex 58.7306 8.97402 3
      vertex 58.7306 8.97402 0
    endloop
  endfacet
  facet normal 0.442314 -0.89686 0
    outer loop
      vertex 59.2 9.38564 0
      vertex 59.3877 9.47821 3
      vertex 59.2 9.38564 3
    endloop
  endfacet
  facet normal 0.442314 -0.89686 0
    outer loop
      vertex 59.3877 9.47821 3
      vertex 59.2 9.38564 0
      vertex 59.3877 9.47821 0
    endloop
  endfacet
  facet normal -0.896813 -0.44241 0
    outer loop
      vertex 61.4782 8.61229 0
      vertex 61.3856 8.8 3
      vertex 61.3856 8.8 0
    endloop
  endfacet
  facet normal -0.896813 -0.44241 0
    outer loop
      vertex 61.3856 8.8 3
      vertex 61.4782 8.61229 0
      vertex 61.4782 8.61229 3
    endloop
  endfacet
  facet normal -0.831638 -0.555318 0
    outer loop
      vertex 61.3856 8.8 0
      vertex 61.2694 8.97402 3
      vertex 61.2694 8.97402 0
    endloop
  endfacet
  facet normal -0.831638 -0.555318 0
    outer loop
      vertex 61.2694 8.97402 3
      vertex 61.3856 8.8 0
      vertex 61.3856 8.8 3
    endloop
  endfacet
  facet normal -0.321397 -0.946944 0
    outer loop
      vertex 60.4141 9.54548 0
      vertex 60.6123 9.47821 3
      vertex 60.4141 9.54548 3
    endloop
  endfacet
  facet normal -0.321397 -0.946944 -0
    outer loop
      vertex 60.6123 9.47821 3
      vertex 60.4141 9.54548 0
      vertex 60.6123 9.47821 0
    endloop
  endfacet
  facet normal -0.195059 -0.980791 0
    outer loop
      vertex 60.2088 9.58631 0
      vertex 60.4141 9.54548 3
      vertex 60.2088 9.58631 3
    endloop
  endfacet
  facet normal -0.195059 -0.980791 -0
    outer loop
      vertex 60.4141 9.54548 3
      vertex 60.2088 9.58631 0
      vertex 60.4141 9.54548 0
    endloop
  endfacet
  facet normal -0.442314 -0.89686 0
    outer loop
      vertex 60.6123 9.47821 0
      vertex 60.8 9.38564 3
      vertex 60.6123 9.47821 3
    endloop
  endfacet
  facet normal -0.442314 -0.89686 -0
    outer loop
      vertex 60.8 9.38564 3
      vertex 60.6123 9.47821 0
      vertex 60.8 9.38564 0
    endloop
  endfacet
  facet normal 0.946891 -0.321555 0
    outer loop
      vertex 58.4545 8.41411 3
      vertex 58.5218 8.61229 0
      vertex 58.5218 8.61229 3
    endloop
  endfacet
  facet normal 0.946891 -0.321555 0
    outer loop
      vertex 58.5218 8.61229 0
      vertex 58.4545 8.41411 3
      vertex 58.4545 8.41411 0
    endloop
  endfacet
  facet normal 0.980813 -0.194949 0
    outer loop
      vertex 58.4137 8.20884 3
      vertex 58.4545 8.41411 0
      vertex 58.4545 8.41411 3
    endloop
  endfacet
  facet normal 0.980813 -0.194949 0
    outer loop
      vertex 58.4545 8.41411 0
      vertex 58.4137 8.20884 3
      vertex 58.4137 8.20884 0
    endloop
  endfacet
  facet normal 0.555593 -0.831454 0
    outer loop
      vertex 59.026 9.26937 0
      vertex 59.2 9.38564 3
      vertex 59.026 9.26937 3
    endloop
  endfacet
  facet normal 0.555593 -0.831454 0
    outer loop
      vertex 59.2 9.38564 3
      vertex 59.026 9.26937 0
      vertex 59.2 9.38564 0
    endloop
  endfacet
  facet normal 0.321397 -0.946944 0
    outer loop
      vertex 59.3877 9.47821 0
      vertex 59.5859 9.54548 3
      vertex 59.3877 9.47821 3
    endloop
  endfacet
  facet normal 0.321397 -0.946944 0
    outer loop
      vertex 59.5859 9.54548 3
      vertex 59.3877 9.47821 0
      vertex 59.5859 9.54548 0
    endloop
  endfacet
  facet normal -0.555593 0.831454 0
    outer loop
      vertex 60.974 6.73063 0
      vertex 60.8 6.61436 3
      vertex 60.974 6.73063 3
    endloop
  endfacet
  facet normal -0.555593 0.831454 0
    outer loop
      vertex 60.8 6.61436 3
      vertex 60.974 6.73063 0
      vertex 60.8 6.61436 0
    endloop
  endfacet
  facet normal -0.980813 0.194949 0
    outer loop
      vertex 61.5455 7.58589 0
      vertex 61.5863 7.79116 3
      vertex 61.5863 7.79116 0
    endloop
  endfacet
  facet normal -0.980813 0.194949 0
    outer loop
      vertex 61.5863 7.79116 3
      vertex 61.5455 7.58589 0
      vertex 61.5455 7.58589 3
    endloop
  endfacet
  facet normal 0.195059 0.980791 -0
    outer loop
      vertex 59.7912 6.41369 0
      vertex 59.5859 6.45452 3
      vertex 59.7912 6.41369 3
    endloop
  endfacet
  facet normal 0.195059 0.980791 0
    outer loop
      vertex 59.5859 6.45452 3
      vertex 59.7912 6.41369 0
      vertex 59.5859 6.45452 0
    endloop
  endfacet
  facet normal 0.831638 0.555318 0
    outer loop
      vertex 58.7306 7.02598 3
      vertex 58.6144 7.2 0
      vertex 58.6144 7.2 3
    endloop
  endfacet
  facet normal 0.831638 0.555318 0
    outer loop
      vertex 58.6144 7.2 0
      vertex 58.7306 7.02598 3
      vertex 58.7306 7.02598 0
    endloop
  endfacet
  facet normal -0.946891 -0.321555 0
    outer loop
      vertex 61.5455 8.41411 0
      vertex 61.4782 8.61229 3
      vertex 61.4782 8.61229 0
    endloop
  endfacet
  facet normal -0.946891 -0.321555 0
    outer loop
      vertex 61.4782 8.61229 3
      vertex 61.5455 8.41411 0
      vertex 61.5455 8.41411 3
    endloop
  endfacet
  facet normal -0.980813 -0.194949 0
    outer loop
      vertex 61.5863 8.20884 0
      vertex 61.5455 8.41411 3
      vertex 61.5455 8.41411 0
    endloop
  endfacet
  facet normal -0.980813 -0.194949 0
    outer loop
      vertex 61.5455 8.41411 3
      vertex 61.5863 8.20884 0
      vertex 61.5863 8.20884 3
    endloop
  endfacet
  facet normal -0.751821 -0.659367 0
    outer loop
      vertex 61.2694 8.97402 0
      vertex 61.1314 9.13137 3
      vertex 61.1314 9.13137 0
    endloop
  endfacet
  facet normal -0.751821 -0.659367 0
    outer loop
      vertex 61.1314 9.13137 3
      vertex 61.2694 8.97402 0
      vertex 61.2694 8.97402 3
    endloop
  endfacet
  facet normal -0.0654247 -0.997858 0
    outer loop
      vertex 60 9.6 0
      vertex 60.2088 9.58631 3
      vertex 60 9.6 3
    endloop
  endfacet
  facet normal -0.0654247 -0.997858 -0
    outer loop
      vertex 60.2088 9.58631 3
      vertex 60 9.6 0
      vertex 60.2088 9.58631 0
    endloop
  endfacet
  facet normal -0.555593 -0.831454 0
    outer loop
      vertex 60.8 9.38564 0
      vertex 60.974 9.26937 3
      vertex 60.8 9.38564 3
    endloop
  endfacet
  facet normal -0.555593 -0.831454 -0
    outer loop
      vertex 60.974 9.26937 3
      vertex 60.8 9.38564 0
      vertex 60.974 9.26937 0
    endloop
  endfacet
  facet normal 0.896813 -0.44241 0
    outer loop
      vertex 58.5218 8.61229 3
      vertex 58.6144 8.8 0
      vertex 58.6144 8.8 3
    endloop
  endfacet
  facet normal 0.896813 -0.44241 0
    outer loop
      vertex 58.6144 8.8 0
      vertex 58.5218 8.61229 3
      vertex 58.5218 8.61229 0
    endloop
  endfacet
  facet normal 0.831638 -0.555318 0
    outer loop
      vertex 58.6144 8.8 3
      vertex 58.7306 8.97402 0
      vertex 58.7306 8.97402 3
    endloop
  endfacet
  facet normal 0.831638 -0.555318 0
    outer loop
      vertex 58.7306 8.97402 0
      vertex 58.6144 8.8 3
      vertex 58.6144 8.8 0
    endloop
  endfacet
  facet normal 0.997855 -0.0654598 0
    outer loop
      vertex 58.4 8 3
      vertex 58.4137 8.20884 0
      vertex 58.4137 8.20884 3
    endloop
  endfacet
  facet normal 0.997855 -0.0654598 0
    outer loop
      vertex 58.4137 8.20884 0
      vertex 58.4 8 3
      vertex 58.4 8 0
    endloop
  endfacet
  facet normal 0.659248 -0.751925 0
    outer loop
      vertex 58.8686 9.13137 0
      vertex 59.026 9.26937 3
      vertex 58.8686 9.13137 3
    endloop
  endfacet
  facet normal 0.659248 -0.751925 0
    outer loop
      vertex 59.026 9.26937 3
      vertex 58.8686 9.13137 0
      vertex 59.026 9.26937 0
    endloop
  endfacet
  facet normal 0.195059 -0.980791 0
    outer loop
      vertex 59.5859 9.54548 0
      vertex 59.7912 9.58631 3
      vertex 59.5859 9.54548 3
    endloop
  endfacet
  facet normal 0.195059 -0.980791 0
    outer loop
      vertex 59.7912 9.58631 3
      vertex 59.5859 9.54548 0
      vertex 59.7912 9.58631 0
    endloop
  endfacet
  facet normal -0.997855 0.0654598 0
    outer loop
      vertex 61.5863 7.79116 0
      vertex 61.6 8 3
      vertex 61.6 8 0
    endloop
  endfacet
  facet normal -0.997855 0.0654598 0
    outer loop
      vertex 61.6 8 3
      vertex 61.5863 7.79116 0
      vertex 61.5863 7.79116 3
    endloop
  endfacet
  facet normal -0.195059 0.980791 0
    outer loop
      vertex 60.4141 6.45452 0
      vertex 60.2088 6.41369 3
      vertex 60.4141 6.45452 3
    endloop
  endfacet
  facet normal -0.195059 0.980791 0
    outer loop
      vertex 60.2088 6.41369 3
      vertex 60.4141 6.45452 0
      vertex 60.2088 6.41369 0
    endloop
  endfacet
  facet normal -0.442314 0.89686 0
    outer loop
      vertex 60.8 6.61436 0
      vertex 60.6123 6.52179 3
      vertex 60.8 6.61436 3
    endloop
  endfacet
  facet normal -0.442314 0.89686 0
    outer loop
      vertex 60.6123 6.52179 3
      vertex 60.8 6.61436 0
      vertex 60.6123 6.52179 0
    endloop
  endfacet
  facet normal -0.659248 0.751925 0
    outer loop
      vertex 61.1314 6.86863 0
      vertex 60.974 6.73063 3
      vertex 61.1314 6.86863 3
    endloop
  endfacet
  facet normal -0.659248 0.751925 0
    outer loop
      vertex 60.974 6.73063 3
      vertex 61.1314 6.86863 0
      vertex 60.974 6.73063 0
    endloop
  endfacet
  facet normal -0.831638 0.555318 0
    outer loop
      vertex 61.2694 7.02598 0
      vertex 61.3856 7.2 3
      vertex 61.3856 7.2 0
    endloop
  endfacet
  facet normal -0.831638 0.555318 0
    outer loop
      vertex 61.3856 7.2 3
      vertex 61.2694 7.02598 0
      vertex 61.2694 7.02598 3
    endloop
  endfacet
  facet normal -0.946891 0.321555 0
    outer loop
      vertex 61.4782 7.38771 0
      vertex 61.5455 7.58589 3
      vertex 61.5455 7.58589 0
    endloop
  endfacet
  facet normal -0.946891 0.321555 0
    outer loop
      vertex 61.5455 7.58589 3
      vertex 61.4782 7.38771 0
      vertex 61.4782 7.38771 3
    endloop
  endfacet
  facet normal 0.555593 0.831454 -0
    outer loop
      vertex 59.2 6.61436 0
      vertex 59.026 6.73063 3
      vertex 59.2 6.61436 3
    endloop
  endfacet
  facet normal 0.555593 0.831454 0
    outer loop
      vertex 59.026 6.73063 3
      vertex 59.2 6.61436 0
      vertex 59.026 6.73063 0
    endloop
  endfacet
  facet normal 0.321397 0.946944 -0
    outer loop
      vertex 59.5859 6.45452 0
      vertex 59.3877 6.52179 3
      vertex 59.5859 6.45452 3
    endloop
  endfacet
  facet normal 0.321397 0.946944 0
    outer loop
      vertex 59.3877 6.52179 3
      vertex 59.5859 6.45452 0
      vertex 59.3877 6.52179 0
    endloop
  endfacet
  facet normal 0.0654247 0.997858 -0
    outer loop
      vertex 60 6.4 0
      vertex 59.7912 6.41369 3
      vertex 60 6.4 3
    endloop
  endfacet
  facet normal 0.0654247 0.997858 0
    outer loop
      vertex 59.7912 6.41369 3
      vertex 60 6.4 0
      vertex 59.7912 6.41369 0
    endloop
  endfacet
  facet normal 0.751821 0.659367 0
    outer loop
      vertex 58.8686 6.86863 3
      vertex 58.7306 7.02598 0
      vertex 58.7306 7.02598 3
    endloop
  endfacet
  facet normal 0.751821 0.659367 0
    outer loop
      vertex 58.7306 7.02598 0
      vertex 58.8686 6.86863 3
      vertex 58.8686 6.86863 0
    endloop
  endfacet
  facet normal 0.896813 0.44241 0
    outer loop
      vertex 58.6144 7.2 3
      vertex 58.5218 7.38771 0
      vertex 58.5218 7.38771 3
    endloop
  endfacet
  facet normal 0.896813 0.44241 0
    outer loop
      vertex 58.5218 7.38771 0
      vertex 58.6144 7.2 3
      vertex 58.6144 7.2 0
    endloop
  endfacet
  facet normal 0.980813 0.194949 0
    outer loop
      vertex 58.4545 7.58589 3
      vertex 58.4137 7.79116 0
      vertex 58.4137 7.79116 3
    endloop
  endfacet
  facet normal 0.980813 0.194949 0
    outer loop
      vertex 58.4137 7.79116 0
      vertex 58.4545 7.58589 3
      vertex 58.4545 7.58589 0
    endloop
  endfacet
  facet normal 0.997855 0.0654598 0
    outer loop
      vertex 58.4137 7.79116 3
      vertex 58.4 8 0
      vertex 58.4 8 3
    endloop
  endfacet
  facet normal 0.997855 0.0654598 0
    outer loop
      vertex 58.4 8 0
      vertex 58.4137 7.79116 3
      vertex 58.4137 7.79116 0
    endloop
  endfacet
  facet normal -0.321397 0.946944 0
    outer loop
      vertex 60.6123 6.52179 0
      vertex 60.4141 6.45452 3
      vertex 60.6123 6.52179 3
    endloop
  endfacet
  facet normal -0.321397 0.946944 0
    outer loop
      vertex 60.4141 6.45452 3
      vertex 60.6123 6.52179 0
      vertex 60.4141 6.45452 0
    endloop
  endfacet
  facet normal -0.751821 0.659367 0
    outer loop
      vertex 61.1314 6.86863 0
      vertex 61.2694 7.02598 3
      vertex 61.2694 7.02598 0
    endloop
  endfacet
  facet normal -0.751821 0.659367 0
    outer loop
      vertex 61.2694 7.02598 3
      vertex 61.1314 6.86863 0
      vertex 61.1314 6.86863 3
    endloop
  endfacet
  facet normal -0.896813 0.44241 0
    outer loop
      vertex 61.3856 7.2 0
      vertex 61.4782 7.38771 3
      vertex 61.4782 7.38771 0
    endloop
  endfacet
  facet normal -0.896813 0.44241 0
    outer loop
      vertex 61.4782 7.38771 3
      vertex 61.3856 7.2 0
      vertex 61.3856 7.2 3
    endloop
  endfacet
  facet normal 0.442314 0.89686 -0
    outer loop
      vertex 59.3877 6.52179 0
      vertex 59.2 6.61436 3
      vertex 59.3877 6.52179 3
    endloop
  endfacet
  facet normal 0.442314 0.89686 0
    outer loop
      vertex 59.2 6.61436 3
      vertex 59.3877 6.52179 0
      vertex 59.2 6.61436 0
    endloop
  endfacet
  facet normal 0.946891 0.321555 0
    outer loop
      vertex 58.5218 7.38771 3
      vertex 58.4545 7.58589 0
      vertex 58.4545 7.58589 3
    endloop
  endfacet
  facet normal 0.946891 0.321555 0
    outer loop
      vertex 58.4545 7.58589 0
      vertex 58.5218 7.38771 3
      vertex 58.5218 7.38771 0
    endloop
  endfacet
  facet normal 0.0653993 -0.997859 0
    outer loop
      vertex 67 0 0
      vertex 67.3916 0.0256653 3
      vertex 67 0 3
    endloop
  endfacet
  facet normal 0.0653993 -0.997859 0
    outer loop
      vertex 67.3916 0.0256653 3
      vertex 67 0 0
      vertex 67.3916 0.0256653 0
    endloop
  endfacet
  facet normal 0 0 -1
    outer loop
      vertex 67 0 0
      vertex 70 3 0
      vertex 69.9743 2.60842 0
    endloop
  endfacet
  facet normal 0 0 -1
    outer loop
      vertex 70 3 0
      vertex 61.6 8 0
      vertex 70 13 0
    endloop
  endfacet
  facet normal 0 0 -1
    outer loop
      vertex 67 0 0
      vertex 69.9743 2.60842 0
      vertex 69.8978 2.22354 0
    endloop
  endfacet
  facet normal 0 0 -1
    outer loop
      vertex 61.5863 8.20884 0
      vertex 70 13 0
      vertex 61.6 8 0
    endloop
  endfacet
  facet normal 0 0 -1
    outer loop
      vertex 67 0 0
      vertex 69.8978 2.22354 0
      vertex 69.7716 1.85195 0
    endloop
  endfacet
  facet normal 0 0 -1
    outer loop
      vertex 61.5455 8.41411 0
      vertex 70 13 0
      vertex 61.5863 8.20884 0
    endloop
  endfacet
  facet normal 0 0 -1
    outer loop
      vertex 67 0 0
      vertex 69.7716 1.85195 0
      vertex 69.5981 1.5 0
    endloop
  endfacet
  facet normal 0 0 -1
    outer loop
      vertex 61.4782 8.61229 0
      vertex 70 13 0
      vertex 61.5455 8.41411 0
    endloop
  endfacet
  facet normal 0 0 -1
    outer loop
      vertex 67 0 0
      vertex 69.5981 1.5 0
      vertex 69.3801 1.17372 0
    endloop
  endfacet
  facet normal 0 0 -1
    outer loop
      vertex 61.3856 8.8 0
      vertex 70 13 0
      vertex 61.4782 8.61229 0
    endloop
  endfacet
  facet normal 0 0 -1
    outer loop
      vertex 67 0 0
      vertex 69.3801 1.17372 0
      vertex 69.1213 0.878679 0
    endloop
  endfacet
  facet normal 0 -0 -1
    outer loop
      vertex 67 16 0
      vertex 70 13 0
      vertex 61.3856 8.8 0
    endloop
  endfacet
  facet normal 0 0 -1
    outer loop
      vertex 67 0 0
      vertex 69.1213 0.878679 0
      vertex 68.8263 0.61994 0
    endloop
  endfacet
  facet normal 0 0 -1
    outer loop
      vertex 70 13 0
      vertex 67 16 0
      vertex 69.9743 13.3916 0
    endloop
  endfacet
  facet normal 0 0 -1
    outer loop
      vertex 67 0 0
      vertex 68.8263 0.61994 0
      vertex 68.5 0.401923 0
    endloop
  endfacet
  facet normal 0 0 -1
    outer loop
      vertex 69.9743 13.3916 0
      vertex 67 16 0
      vertex 69.8978 13.7765 0
    endloop
  endfacet
  facet normal 0 0 -1
    outer loop
      vertex 67 0 0
      vertex 68.5 0.401923 0
      vertex 68.148 0.228361 0
    endloop
  endfacet
  facet normal 0 0 -1
    outer loop
      vertex 69.8978 13.7765 0
      vertex 67 16 0
      vertex 69.7716 14.148 0
    endloop
  endfacet
  facet normal 0 0 -1
    outer loop
      vertex 67 0 0
      vertex 68.148 0.228361 0
      vertex 67.7765 0.102222 0
    endloop
  endfacet
  facet normal 0 0 -1
    outer loop
      vertex 69.5981 14.5 0
      vertex 67 16 0
      vertex 69.3801 14.8263 0
    endloop
  endfacet
  facet normal 0 0 -1
    outer loop
      vertex 67 0 0
      vertex 67.7765 0.102222 0
      vertex 67.3916 0.0256653 0
    endloop
  endfacet
  facet normal 0 0 -1
    outer loop
      vertex 69.3801 14.8263 0
      vertex 67 16 0
      vertex 69.1213 15.1213 0
    endloop
  endfacet
  facet normal -0 0 -1
    outer loop
      vertex 70 3 0
      vertex 67 0 0
      vertex 61.3856 7.2 0
    endloop
  endfacet
  facet normal 0 0 -1
    outer loop
      vertex 69.1213 15.1213 0
      vertex 67 16 0
      vertex 68.8263 15.3801 0
    endloop
  endfacet
  facet normal 0 0 -1
    outer loop
      vertex 68.8263 15.3801 0
      vertex 67 16 0
      vertex 68.5 15.5981 0
    endloop
  endfacet
  facet normal 0 0 -1
    outer loop
      vertex 70 3 0
      vertex 61.5863 7.79116 0
      vertex 61.6 8 0
    endloop
  endfacet
  facet normal 0 0 -1
    outer loop
      vertex 70 3 0
      vertex 61.5455 7.58589 0
      vertex 61.5863 7.79116 0
    endloop
  endfacet
  facet normal 0 0 -1
    outer loop
      vertex 70 3 0
      vertex 61.4782 7.38771 0
      vertex 61.5455 7.58589 0
    endloop
  endfacet
  facet normal 0 0 -1
    outer loop
      vertex 70 3 0
      vertex 61.3856 7.2 0
      vertex 61.4782 7.38771 0
    endloop
  endfacet
  facet normal 0 0 -1
    outer loop
      vertex 67 0 0
      vertex 61.2694 7.02598 0
      vertex 61.3856 7.2 0
    endloop
  endfacet
  facet normal 0 0 -1
    outer loop
      vertex 67 0 0
      vertex 61.1314 6.86863 0
      vertex 61.2694 7.02598 0
    endloop
  endfacet
  facet normal 0 0 -1
    outer loop
      vertex 67 0 0
      vertex 60.974 6.73063 0
      vertex 61.1314 6.86863 0
    endloop
  endfacet
  facet normal 0 0 -1
    outer loop
      vertex 67 0 0
      vertex 60.8 6.61436 0
      vertex 60.974 6.73063 0
    endloop
  endfacet
  facet normal 0 0 -1
    outer loop
      vertex 67 0 0
      vertex 60.6123 6.52179 0
      vertex 60.8 6.61436 0
    endloop
  endfacet
  facet normal 0 0 -1
    outer loop
      vertex 67 0 0
      vertex 60.4141 6.45452 0
      vertex 60.6123 6.52179 0
    endloop
  endfacet
  facet normal 0 0 -1
    outer loop
      vertex 67 0 0
      vertex 60.2088 6.41369 0
      vertex 60.4141 6.45452 0
    endloop
  endfacet
  facet normal 0 0 -1
    outer loop
      vertex 67 0 0
      vertex 60 6.4 0
      vertex 60.2088 6.41369 0
    endloop
  endfacet
  facet normal 0 0 -1
    outer loop
      vertex 67 0 0
      vertex 59.7912 6.41369 0
      vertex 60 6.4 0
    endloop
  endfacet
  facet normal 0 0 -1
    outer loop
      vertex 67 0 0
      vertex 59.5859 6.45452 0
      vertex 59.7912 6.41369 0
    endloop
  endfacet
  facet normal 0 0 -1
    outer loop
      vertex 67 0 0
      vertex 59.3877 6.52179 0
      vertex 59.5859 6.45452 0
    endloop
  endfacet
  facet normal 0 0 -1
    outer loop
      vertex 67 0 0
      vertex 59.2 6.61436 0
      vertex 59.3877 6.52179 0
    endloop
  endfacet
  facet normal 0 0 -1
    outer loop
      vertex 67 0 0
      vertex 59.026 6.73063 0
      vertex 59.2 6.61436 0
    endloop
  endfacet
  facet normal 0 0 -1
    outer loop
      vertex 58.4137 7.79116 0
      vertex 11.6 8 0
      vertex 58.4 8 0
    endloop
  endfacet
  facet normal 0 0 -1
    outer loop
      vertex 11.5863 7.79116 0
      vertex 58.4137 7.79116 0
      vertex 58.4545 7.58589 0
    endloop
  endfacet
  facet normal 0 0 -1
    outer loop
      vertex 11.5455 7.58589 0
      vertex 58.4545 7.58589 0
      vertex 58.5218 7.38771 0
    endloop
  endfacet
  facet normal 0 0 -1
    outer loop
      vertex 11.4782 7.38771 0
      vertex 58.5218 7.38771 0
      vertex 58.6144 7.2 0
    endloop
  endfacet
  facet normal 0 0 -1
    outer loop
      vertex 11.3856 7.2 0
      vertex 58.6144 7.2 0
      vertex 58.7306 7.02598 0
    endloop
  endfacet
  facet normal 0 0 -1
    outer loop
      vertex 11.2694 7.02598 0
      vertex 58.7306 7.02598 0
      vertex 58.8686 6.86863 0
    endloop
  endfacet
  facet normal 0 0 -1
    outer loop
      vertex 11.1314 6.86863 0
      vertex 58.8686 6.86863 0
      vertex 59.026 6.73063 0
    endloop
  endfacet
  facet normal 0 0 -1
    outer loop
      vertex 10.974 6.73063 0
      vertex 59.026 6.73063 0
      vertex 67 0 0
    endloop
  endfacet
  facet normal 0 0 -1
    outer loop
      vertex 58.4137 7.79116 0
      vertex 11.5863 7.79116 0
      vertex 11.6 8 0
    endloop
  endfacet
  facet normal 0 0 -1
    outer loop
      vertex 58.4545 7.58589 0
      vertex 11.5455 7.58589 0
      vertex 11.5863 7.79116 0
    endloop
  endfacet
  facet normal 0 0 -1
    outer loop
      vertex 58.5218 7.38771 0
      vertex 11.4782 7.38771 0
      vertex 11.5455 7.58589 0
    endloop
  endfacet
  facet normal 0 0 -1
    outer loop
      vertex 58.6144 7.2 0
      vertex 11.3856 7.2 0
      vertex 11.4782 7.38771 0
    endloop
  endfacet
  facet normal 0 0 -1
    outer loop
      vertex 58.7306 7.02598 0
      vertex 11.2694 7.02598 0
      vertex 11.3856 7.2 0
    endloop
  endfacet
  facet normal 0 0 -1
    outer loop
      vertex 58.8686 6.86863 0
      vertex 11.1314 6.86863 0
      vertex 11.2694 7.02598 0
    endloop
  endfacet
  facet normal 0 0 -1
    outer loop
      vertex 59.026 6.73063 0
      vertex 10.974 6.73063 0
      vertex 11.1314 6.86863 0
    endloop
  endfacet
  facet normal 0 0 -1
    outer loop
      vertex 67 0 0
      vertex 10.8 6.61436 0
      vertex 10.974 6.73063 0
    endloop
  endfacet
  facet normal 0 0 -1
    outer loop
      vertex 3 0 0
      vertex 10.8 6.61436 0
      vertex 67 0 0
    endloop
  endfacet
  facet normal 0 0 -1
    outer loop
      vertex 10.8 6.61436 0
      vertex 3 0 0
      vertex 10.6123 6.52179 0
    endloop
  endfacet
  facet normal 0 0 -1
    outer loop
      vertex 10.6123 6.52179 0
      vertex 3 0 0
      vertex 10.4141 6.45452 0
    endloop
  endfacet
  facet normal 0 0 -1
    outer loop
      vertex 10.4141 6.45452 0
      vertex 3 0 0
      vertex 10.2088 6.41369 0
    endloop
  endfacet
  facet normal 0 0 -1
    outer loop
      vertex 10.2088 6.41369 0
      vertex 3 0 0
      vertex 10 6.4 0
    endloop
  endfacet
  facet normal -0 0 -1
    outer loop
      vertex 8.45452 7.58589 0
      vertex 0 3 0
      vertex 8.41369 7.79116 0
    endloop
  endfacet
  facet normal -0 0 -1
    outer loop
      vertex 8.52179 7.38771 0
      vertex 0 3 0
      vertex 8.45452 7.58589 0
    endloop
  endfacet
  facet normal -0 0 -1
    outer loop
      vertex 8.61436 7.2 0
      vertex 0 3 0
      vertex 8.52179 7.38771 0
    endloop
  endfacet
  facet normal 0 0 -1
    outer loop
      vertex 0 3 0
      vertex 8.61436 7.2 0
      vertex 3 0 0
    endloop
  endfacet
  facet normal -0 0 -1
    outer loop
      vertex 8.73063 7.02598 0
      vertex 3 0 0
      vertex 8.61436 7.2 0
    endloop
  endfacet
  facet normal -0 0 -1
    outer loop
      vertex 8.86863 6.86863 0
      vertex 3 0 0
      vertex 8.73063 7.02598 0
    endloop
  endfacet
  facet normal -0 0 -1
    outer loop
      vertex 9.02598 6.73063 0
      vertex 3 0 0
      vertex 8.86863 6.86863 0
    endloop
  endfacet
  facet normal -0 0 -1
    outer loop
      vertex 9.2 6.61436 0
      vertex 3 0 0
      vertex 9.02598 6.73063 0
    endloop
  endfacet
  facet normal -0 0 -1
    outer loop
      vertex 9.38771 6.52179 0
      vertex 3 0 0
      vertex 9.2 6.61436 0
    endloop
  endfacet
  facet normal -0 0 -1
    outer loop
      vertex 9.58589 6.45452 0
      vertex 3 0 0
      vertex 9.38771 6.52179 0
    endloop
  endfacet
  facet normal -0 0 -1
    outer loop
      vertex 9.79116 6.41369 0
      vertex 3 0 0
      vertex 9.58589 6.45452 0
    endloop
  endfacet
  facet normal -0 0 -1
    outer loop
      vertex 10 6.4 0
      vertex 3 0 0
      vertex 9.79116 6.41369 0
    endloop
  endfacet
  facet normal 0 0 -1
    outer loop
      vertex 68.5 15.5981 0
      vertex 67 16 0
      vertex 68.148 15.7716 0
    endloop
  endfacet
  facet normal 0 0 -1
    outer loop
      vertex 67.7765 15.8978 0
      vertex 67 16 0
      vertex 67.3916 15.9743 0
    endloop
  endfacet
  facet normal 0 0 -1
    outer loop
      vertex 68.148 15.7716 0
      vertex 67 16 0
      vertex 67.7765 15.8978 0
    endloop
  endfacet
  facet normal 0 0 -1
    outer loop
      vertex 69.7716 14.148 0
      vertex 67 16 0
      vertex 69.5981 14.5 0
    endloop
  endfacet
  facet normal 0 0 -1
    outer loop
      vertex 61.2694 8.97402 0
      vertex 67 16 0
      vertex 61.3856 8.8 0
    endloop
  endfacet
  facet normal 0 0 -1
    outer loop
      vertex 61.1314 9.13137 0
      vertex 67 16 0
      vertex 61.2694 8.97402 0
    endloop
  endfacet
  facet normal 0 0 -1
    outer loop
      vertex 60.974 9.26937 0
      vertex 67 16 0
      vertex 61.1314 9.13137 0
    endloop
  endfacet
  facet normal 0 0 -1
    outer loop
      vertex 60.8 9.38564 0
      vertex 67 16 0
      vertex 60.974 9.26937 0
    endloop
  endfacet
  facet normal 0 0 -1
    outer loop
      vertex 60.6123 9.47821 0
      vertex 67 16 0
      vertex 60.8 9.38564 0
    endloop
  endfacet
  facet normal 0 0 -1
    outer loop
      vertex 60.4141 9.54548 0
      vertex 67 16 0
      vertex 60.6123 9.47821 0
    endloop
  endfacet
  facet normal 0 0 -1
    outer loop
      vertex 60.2088 9.58631 0
      vertex 67 16 0
      vertex 60.4141 9.54548 0
    endloop
  endfacet
  facet normal 0 0 -1
    outer loop
      vertex 60 9.6 0
      vertex 67 16 0
      vertex 60.2088 9.58631 0
    endloop
  endfacet
  facet normal 0 0 -1
    outer loop
      vertex 59.7912 9.58631 0
      vertex 67 16 0
      vertex 60 9.6 0
    endloop
  endfacet
  facet normal 0 0 -1
    outer loop
      vertex 59.5859 9.54548 0
      vertex 67 16 0
      vertex 59.7912 9.58631 0
    endloop
  endfacet
  facet normal 0 0 -1
    outer loop
      vertex 59.3877 9.47821 0
      vertex 67 16 0
      vertex 59.5859 9.54548 0
    endloop
  endfacet
  facet normal 0 0 -1
    outer loop
      vertex 59.2 9.38564 0
      vertex 67 16 0
      vertex 59.3877 9.47821 0
    endloop
  endfacet
  facet normal 0 0 -1
    outer loop
      vertex 59.026 9.26937 0
      vertex 67 16 0
      vertex 59.2 9.38564 0
    endloop
  endfacet
  facet normal 0 0 -1
    outer loop
      vertex 11.6 8 0
      vertex 58.4137 8.20884 0
      vertex 58.4 8 0
    endloop
  endfacet
  facet normal 0 0 -1
    outer loop
      vertex 11.5863 8.20884 0
      vertex 58.4137 8.20884 0
      vertex 11.6 8 0
    endloop
  endfacet
  facet normal 0 0 -1
    outer loop
      vertex 58.4137 8.20884 0
      vertex 11.5863 8.20884 0
      vertex 58.4545 8.41411 0
    endloop
  endfacet
  facet normal 0 0 -1
    outer loop
      vertex 11.5455 8.41411 0
      vertex 58.4545 8.41411 0
      vertex 11.5863 8.20884 0
    endloop
  endfacet
  facet normal 0 0 -1
    outer loop
      vertex 58.4545 8.41411 0
      vertex 11.5455 8.41411 0
      vertex 58.5218 8.61229 0
    endloop
  endfacet
  facet normal 0 0 -1
    outer loop
      vertex 11.4782 8.61229 0
      vertex 58.5218 8.61229 0
      vertex 11.5455 8.41411 0
    endloop
  endfacet
  facet normal 0 0 -1
    outer loop
      vertex 58.5218 8.61229 0
      vertex 11.4782 8.61229 0
      vertex 58.6144 8.8 0
    endloop
  endfacet
  facet normal 0 0 -1
    outer loop
      vertex 11.3856 8.8 0
      vertex 58.6144 8.8 0
      vertex 11.4782 8.61229 0
    endloop
  endfacet
  facet normal 0 0 -1
    outer loop
      vertex 58.6144 8.8 0
      vertex 11.3856 8.8 0
      vertex 58.7306 8.97402 0
    endloop
  endfacet
  facet normal 0 0 -1
    outer loop
      vertex 11.2694 8.97402 0
      vertex 58.7306 8.97402 0
      vertex 11.3856 8.8 0
    endloop
  endfacet
  facet normal 0 0 -1
    outer loop
      vertex 58.7306 8.97402 0
      vertex 11.2694 8.97402 0
      vertex 58.8686 9.13137 0
    endloop
  endfacet
  facet normal 0 0 -1
    outer loop
      vertex 11.1314 9.13137 0
      vertex 58.8686 9.13137 0
      vertex 11.2694 8.97402 0
    endloop
  endfacet
  facet normal 0 0 -1
    outer loop
      vertex 58.8686 9.13137 0
      vertex 11.1314 9.13137 0
      vertex 59.026 9.26937 0
    endloop
  endfacet
  facet normal 0 0 -1
    outer loop
      vertex 10.974 9.26937 0
      vertex 59.026 9.26937 0
      vertex 11.1314 9.13137 0
    endloop
  endfacet
  facet normal 0 0 -1
    outer loop
      vertex 59.026 9.26937 0
      vertex 10.974 9.26937 0
      vertex 67 16 0
    endloop
  endfacet
  facet normal 0 0 -1
    outer loop
      vertex 10.8 9.38564 0
      vertex 67 16 0
      vertex 10.974 9.26937 0
    endloop
  endfacet
  facet normal 0 0 -1
    outer loop
      vertex 3 16 0
      vertex 10.8 9.38564 0
      vertex 10.6123 9.47821 0
    endloop
  endfacet
  facet normal 0 0 -1
    outer loop
      vertex 3 16 0
      vertex 10.6123 9.47821 0
      vertex 10.4141 9.54548 0
    endloop
  endfacet
  facet normal 0 0 -1
    outer loop
      vertex 3 16 0
      vertex 10.4141 9.54548 0
      vertex 10.2088 9.58631 0
    endloop
  endfacet
  facet normal 0 0 -1
    outer loop
      vertex 3 16 0
      vertex 10.2088 9.58631 0
      vertex 10 9.6 0
    endloop
  endfacet
  facet normal 0 0 -1
    outer loop
      vertex 3 16 0
      vertex 10 9.6 0
      vertex 9.79116 9.58631 0
    endloop
  endfacet
  facet normal -0 0 -1
    outer loop
      vertex 8.41369 7.79116 0
      vertex 0 3 0
      vertex 8.4 8 0
    endloop
  endfacet
  facet normal 0 0 -1
    outer loop
      vertex 0 13 0
      vertex 8.4 8 0
      vertex 0 3 0
    endloop
  endfacet
  facet normal 0 0 -1
    outer loop
      vertex 8.4 8 0
      vertex 0 13 0
      vertex 8.41369 8.20884 0
    endloop
  endfacet
  facet normal 0 0 -1
    outer loop
      vertex 8.41369 8.20884 0
      vertex 0 13 0
      vertex 8.45452 8.41411 0
    endloop
  endfacet
  facet normal 0 0 -1
    outer loop
      vertex 10.8 9.38564 0
      vertex 3 16 0
      vertex 67 16 0
    endloop
  endfacet
  facet normal 0 0 -1
    outer loop
      vertex 9.58589 9.54548 0
      vertex 3 16 0
      vertex 9.79116 9.58631 0
    endloop
  endfacet
  facet normal 0 0 -1
    outer loop
      vertex 9.38771 9.47821 0
      vertex 3 16 0
      vertex 9.58589 9.54548 0
    endloop
  endfacet
  facet normal 0 0 -1
    outer loop
      vertex 9.2 9.38564 0
      vertex 3 16 0
      vertex 9.38771 9.47821 0
    endloop
  endfacet
  facet normal 0 0 -1
    outer loop
      vertex 9.02598 9.26937 0
      vertex 3 16 0
      vertex 9.2 9.38564 0
    endloop
  endfacet
  facet normal 0 0 -1
    outer loop
      vertex 8.86863 9.13137 0
      vertex 3 16 0
      vertex 9.02598 9.26937 0
    endloop
  endfacet
  facet normal 0 0 -1
    outer loop
      vertex 8.73063 8.97402 0
      vertex 3 16 0
      vertex 8.86863 9.13137 0
    endloop
  endfacet
  facet normal 0 0 -1
    outer loop
      vertex 8.61436 8.8 0
      vertex 3 16 0
      vertex 8.73063 8.97402 0
    endloop
  endfacet
  facet normal 0 0 -1
    outer loop
      vertex 8.45452 8.41411 0
      vertex 0 13 0
      vertex 8.52179 8.61229 0
    endloop
  endfacet
  facet normal 0 0 -1
    outer loop
      vertex 0 3 0
      vertex 3 0 0
      vertex 2.60842 0.0256653 0
    endloop
  endfacet
  facet normal 0 0 -1
    outer loop
      vertex 8.52179 8.61229 0
      vertex 0 13 0
      vertex 8.61436 8.8 0
    endloop
  endfacet
  facet normal 0 0 -1
    outer loop
      vertex 0 3 0
      vertex 2.60842 0.0256653 0
      vertex 2.22354 0.102222 0
    endloop
  endfacet
  facet normal 0 0 -1
    outer loop
      vertex 8.61436 8.8 0
      vertex 0 13 0
      vertex 3 16 0
    endloop
  endfacet
  facet normal 0 0 -1
    outer loop
      vertex 0 3 0
      vertex 2.22354 0.102222 0
      vertex 1.85195 0.228361 0
    endloop
  endfacet
  facet normal 0 0 -1
    outer loop
      vertex 3 16 0
      vertex 0 13 0
      vertex 2.60842 15.9743 0
    endloop
  endfacet
  facet normal 0 0 -1
    outer loop
      vertex 0 3 0
      vertex 1.85195 0.228361 0
      vertex 1.5 0.401923 0
    endloop
  endfacet
  facet normal 0 0 -1
    outer loop
      vertex 2.60842 15.9743 0
      vertex 0 13 0
      vertex 2.22354 15.8978 0
    endloop
  endfacet
  facet normal 0 0 -1
    outer loop
      vertex 0 3 0
      vertex 1.5 0.401923 0
      vertex 1.17372 0.61994 0
    endloop
  endfacet
  facet normal 0 0 -1
    outer loop
      vertex 2.22354 15.8978 0
      vertex 0 13 0
      vertex 1.85195 15.7716 0
    endloop
  endfacet
  facet normal 0 0 -1
    outer loop
      vertex 0 3 0
      vertex 1.17372 0.61994 0
      vertex 0.878679 0.878679 0
    endloop
  endfacet
  facet normal 0 0 -1
    outer loop
      vertex 1.85195 15.7716 0
      vertex 0 13 0
      vertex 1.5 15.5981 0
    endloop
  endfacet
  facet normal 0 0 -1
    outer loop
      vertex 0 3 0
      vertex 0.878679 0.878679 0
      vertex 0.61994 1.17372 0
    endloop
  endfacet
  facet normal 0 0 -1
    outer loop
      vertex 1.5 15.5981 0
      vertex 0 13 0
      vertex 1.17372 15.3801 0
    endloop
  endfacet
  facet normal 0 0 -1
    outer loop
      vertex 0 3 0
      vertex 0.61994 1.17372 0
      vertex 0.401923 1.5 0
    endloop
  endfacet
  facet normal 0 0 -1
    outer loop
      vertex 1.17372 15.3801 0
      vertex 0 13 0
      vertex 0.878679 15.1213 0
    endloop
  endfacet
  facet normal 0 0 -1
    outer loop
      vertex 0 3 0
      vertex 0.401923 1.5 0
      vertex 0.228361 1.85195 0
    endloop
  endfacet
  facet normal 0 0 -1
    outer loop
      vertex 0.878679 15.1213 0
      vertex 0 13 0
      vertex 0.61994 14.8263 0
    endloop
  endfacet
  facet normal 0 0 -1
    outer loop
      vertex 0 3 0
      vertex 0.228361 1.85195 0
      vertex 0.102222 2.22354 0
    endloop
  endfacet
  facet normal 0 0 -1
    outer loop
      vertex 0.61994 14.8263 0
      vertex 0 13 0
      vertex 0.401923 14.5 0
    endloop
  endfacet
  facet normal 0 0 -1
    outer loop
      vertex 0 3 0
      vertex 0.102222 2.22354 0
      vertex 0.0256653 2.60842 0
    endloop
  endfacet
  facet normal 0 0 -1
    outer loop
      vertex 0.401923 14.5 0
      vertex 0 13 0
      vertex 0.228361 14.148 0
    endloop
  endfacet
  facet normal 0 0 -1
    outer loop
      vertex 0.228361 14.148 0
      vertex 0 13 0
      vertex 0.102222 13.7765 0
    endloop
  endfacet
  facet normal 0 0 -1
    outer loop
      vertex 0.102222 13.7765 0
      vertex 0 13 0
      vertex 0.0256653 13.3916 0
    endloop
  endfacet
  facet normal -0.751801 0.65939 0
    outer loop
      vertex 0.61994 14.8263 0
      vertex 0.878679 15.1213 3
      vertex 0.878679 15.1213 0
    endloop
  endfacet
  facet normal -0.751801 0.65939 0
    outer loop
      vertex 0.878679 15.1213 3
      vertex 0.61994 14.8263 0
      vertex 0.61994 14.8263 3
    endloop
  endfacet
  facet normal -0.659426 0.751769 0
    outer loop
      vertex 1.17372 15.3801 0
      vertex 0.878679 15.1213 3
      vertex 1.17372 15.3801 3
    endloop
  endfacet
  facet normal -0.659426 0.751769 0
    outer loop
      vertex 0.878679 15.1213 3
      vertex 1.17372 15.3801 0
      vertex 0.878679 15.1213 0
    endloop
  endfacet
  facet normal -0.44216 0.896936 0
    outer loop
      vertex 1.85195 15.7716 0
      vertex 1.5 15.5981 3
      vertex 1.85195 15.7716 3
    endloop
  endfacet
  facet normal -0.44216 0.896936 0
    outer loop
      vertex 1.5 15.5981 3
      vertex 1.85195 15.7716 0
      vertex 1.5 15.5981 0
    endloop
  endfacet
  facet normal -0.946905 0.321512 0
    outer loop
      vertex 0.102222 13.7765 0
      vertex 0.228361 14.148 3
      vertex 0.228361 14.148 0
    endloop
  endfacet
  facet normal -0.946905 0.321512 0
    outer loop
      vertex 0.228361 14.148 3
      vertex 0.102222 13.7765 0
      vertex 0.102222 13.7765 3
    endloop
  endfacet
  facet normal -0.555547 0.831485 0
    outer loop
      vertex 1.5 15.5981 0
      vertex 1.17372 15.3801 3
      vertex 1.5 15.5981 3
    endloop
  endfacet
  facet normal -0.555547 0.831485 0
    outer loop
      vertex 1.17372 15.3801 3
      vertex 1.5 15.5981 0
      vertex 1.17372 15.3801 0
    endloop
  endfacet
  facet normal 0 0 1
    outer loop
      vertex 67 16 3
      vertex 70 13 3
      vertex 69.9743 13.3916 3
    endloop
  endfacet
  facet normal 0 0 1
    outer loop
      vertex 70 13 3
      vertex 61.6 8 3
      vertex 70 3 3
    endloop
  endfacet
  facet normal 0 0 1
    outer loop
      vertex 67 16 3
      vertex 69.9743 13.3916 3
      vertex 69.8978 13.7765 3
    endloop
  endfacet
  facet normal -0 0 1
    outer loop
      vertex 61.5863 7.79116 3
      vertex 70 3 3
      vertex 61.6 8 3
    endloop
  endfacet
  facet normal 0 0 1
    outer loop
      vertex 67 16 3
      vertex 69.8978 13.7765 3
      vertex 69.7716 14.148 3
    endloop
  endfacet
  facet normal -0 0 1
    outer loop
      vertex 61.5455 7.58589 3
      vertex 70 3 3
      vertex 61.5863 7.79116 3
    endloop
  endfacet
  facet normal 0 0 1
    outer loop
      vertex 67 16 3
      vertex 69.7716 14.148 3
      vertex 69.5981 14.5 3
    endloop
  endfacet
  facet normal -0 0 1
    outer loop
      vertex 61.4782 7.38771 3
      vertex 70 3 3
      vertex 61.5455 7.58589 3
    endloop
  endfacet
  facet normal 0 0 1
    outer loop
      vertex 67 16 3
      vertex 69.5981 14.5 3
      vertex 69.3801 14.8263 3
    endloop
  endfacet
  facet normal -0 0 1
    outer loop
      vertex 61.3856 7.2 3
      vertex 70 3 3
      vertex 61.4782 7.38771 3
    endloop
  endfacet
  facet normal 0 0 1
    outer loop
      vertex 67 16 3
      vertex 69.3801 14.8263 3
      vertex 69.1213 15.1213 3
    endloop
  endfacet
  facet normal 0 -0 1
    outer loop
      vertex 67 0 3
      vertex 70 3 3
      vertex 61.3856 7.2 3
    endloop
  endfacet
  facet normal 0 0 1
    outer loop
      vertex 67 16 3
      vertex 69.1213 15.1213 3
      vertex 68.8263 15.3801 3
    endloop
  endfacet
  facet normal 0 0 1
    outer loop
      vertex 70 3 3
      vertex 67 0 3
      vertex 69.9743 2.60842 3
    endloop
  endfacet
  facet normal 0 0 1
    outer loop
      vertex 67 16 3
      vertex 68.8263 15.3801 3
      vertex 68.5 15.5981 3
    endloop
  endfacet
  facet normal 0 0 1
    outer loop
      vertex 69.9743 2.60842 3
      vertex 67 0 3
      vertex 69.8978 2.22354 3
    endloop
  endfacet
  facet normal 0 0 1
    outer loop
      vertex 67 16 3
      vertex 68.5 15.5981 3
      vertex 68.148 15.7716 3
    endloop
  endfacet
  facet normal 0 0 1
    outer loop
      vertex 69.8978 2.22354 3
      vertex 67 0 3
      vertex 69.7716 1.85195 3
    endloop
  endfacet
  facet normal 0 0 1
    outer loop
      vertex 67 16 3
      vertex 68.148 15.7716 3
      vertex 67.7765 15.8978 3
    endloop
  endfacet
  facet normal 0 0 1
    outer loop
      vertex 69.5981 1.5 3
      vertex 67 0 3
      vertex 69.3801 1.17372 3
    endloop
  endfacet
  facet normal 0 0 1
    outer loop
      vertex 67 16 3
      vertex 67.7765 15.8978 3
      vertex 67.3916 15.9743 3
    endloop
  endfacet
  facet normal 0 0 1
    outer loop
      vertex 69.3801 1.17372 3
      vertex 67 0 3
      vertex 69.1213 0.878679 3
    endloop
  endfacet
  facet normal 0 0 1
    outer loop
      vertex 70 13 3
      vertex 67 16 3
      vertex 61.3856 8.8 3
    endloop
  endfacet
  facet normal 0 0 1
    outer loop
      vertex 69.1213 0.878679 3
      vertex 67 0 3
      vertex 68.8263 0.61994 3
    endloop
  endfacet
  facet normal 0 0 1
    outer loop
      vertex 68.8263 0.61994 3
      vertex 67 0 3
      vertex 68.5 0.401923 3
    endloop
  endfacet
  facet normal 0 0 1
    outer loop
      vertex 70 13 3
      vertex 61.5863 8.20884 3
      vertex 61.6 8 3
    endloop
  endfacet
  facet normal 0 0 1
    outer loop
      vertex 70 13 3
      vertex 61.5455 8.41411 3
      vertex 61.5863 8.20884 3
    endloop
  endfacet
  facet normal 0 0 1
    outer loop
      vertex 70 13 3
      vertex 61.4782 8.61229 3
      vertex 61.5455 8.41411 3
    endloop
  endfacet
  facet normal 0 0 1
    outer loop
      vertex 70 13 3
      vertex 61.3856 8.8 3
      vertex 61.4782 8.61229 3
    endloop
  endfacet
  facet normal 0 0 1
    outer loop
      vertex 67 16 3
      vertex 61.2694 8.97402 3
      vertex 61.3856 8.8 3
    endloop
  endfacet
  facet normal 0 0 1
    outer loop
      vertex 67 16 3
      vertex 61.1314 9.13137 3
      vertex 61.2694 8.97402 3
    endloop
  endfacet
  facet normal 0 0 1
    outer loop
      vertex 67 16 3
      vertex 60.974 9.26937 3
      vertex 61.1314 9.13137 3
    endloop
  endfacet
  facet normal 0 0 1
    outer loop
      vertex 67 16 3
      vertex 60.8 9.38564 3
      vertex 60.974 9.26937 3
    endloop
  endfacet
  facet normal 0 0 1
    outer loop
      vertex 67 16 3
      vertex 60.6123 9.47821 3
      vertex 60.8 9.38564 3
    endloop
  endfacet
  facet normal 0 0 1
    outer loop
      vertex 67 16 3
      vertex 60.4141 9.54548 3
      vertex 60.6123 9.47821 3
    endloop
  endfacet
  facet normal 0 0 1
    outer loop
      vertex 67 16 3
      vertex 60.2088 9.58631 3
      vertex 60.4141 9.54548 3
    endloop
  endfacet
  facet normal 0 0 1
    outer loop
      vertex 67 16 3
      vertex 60 9.6 3
      vertex 60.2088 9.58631 3
    endloop
  endfacet
  facet normal 0 0 1
    outer loop
      vertex 67 16 3
      vertex 59.7912 9.58631 3
      vertex 60 9.6 3
    endloop
  endfacet
  facet normal 0 0 1
    outer loop
      vertex 67 16 3
      vertex 59.5859 9.54548 3
      vertex 59.7912 9.58631 3
    endloop
  endfacet
  facet normal 0 0 1
    outer loop
      vertex 67 16 3
      vertex 59.3877 9.47821 3
      vertex 59.5859 9.54548 3
    endloop
  endfacet
  facet normal 0 0 1
    outer loop
      vertex 67 16 3
      vertex 59.2 9.38564 3
      vertex 59.3877 9.47821 3
    endloop
  endfacet
  facet normal 0 0 1
    outer loop
      vertex 67 16 3
      vertex 59.026 9.26937 3
      vertex 59.2 9.38564 3
    endloop
  endfacet
  facet normal 0 0 1
    outer loop
      vertex 58.4137 8.20884 3
      vertex 11.6 8 3
      vertex 58.4 8 3
    endloop
  endfacet
  facet normal 0 0 1
    outer loop
      vertex 11.5863 8.20884 3
      vertex 58.4137 8.20884 3
      vertex 58.4545 8.41411 3
    endloop
  endfacet
  facet normal 0 0 1
    outer loop
      vertex 11.5455 8.41411 3
      vertex 58.4545 8.41411 3
      vertex 58.5218 8.61229 3
    endloop
  endfacet
  facet normal 0 0 1
    outer loop
      vertex 11.4782 8.61229 3
      vertex 58.5218 8.61229 3
      vertex 58.6144 8.8 3
    endloop
  endfacet
  facet normal 0 0 1
    outer loop
      vertex 11.3856 8.8 3
      vertex 58.6144 8.8 3
      vertex 58.7306 8.97402 3
    endloop
  endfacet
  facet normal 0 0 1
    outer loop
      vertex 11.2694 8.97402 3
      vertex 58.7306 8.97402 3
      vertex 58.8686 9.13137 3
    endloop
  endfacet
  facet normal 0 0 1
    outer loop
      vertex 11.1314 9.13137 3
      vertex 58.8686 9.13137 3
      vertex 59.026 9.26937 3
    endloop
  endfacet
  facet normal 0 0 1
    outer loop
      vertex 10.974 9.26937 3
      vertex 59.026 9.26937 3
      vertex 67 16 3
    endloop
  endfacet
  facet normal 0 0 1
    outer loop
      vertex 58.4137 8.20884 3
      vertex 11.5863 8.20884 3
      vertex 11.6 8 3
    endloop
  endfacet
  facet normal 0 0 1
    outer loop
      vertex 58.4545 8.41411 3
      vertex 11.5455 8.41411 3
      vertex 11.5863 8.20884 3
    endloop
  endfacet
  facet normal 0 0 1
    outer loop
      vertex 58.5218 8.61229 3
      vertex 11.4782 8.61229 3
      vertex 11.5455 8.41411 3
    endloop
  endfacet
  facet normal 0 0 1
    outer loop
      vertex 58.6144 8.8 3
      vertex 11.3856 8.8 3
      vertex 11.4782 8.61229 3
    endloop
  endfacet
  facet normal 0 0 1
    outer loop
      vertex 58.7306 8.97402 3
      vertex 11.2694 8.97402 3
      vertex 11.3856 8.8 3
    endloop
  endfacet
  facet normal 0 0 1
    outer loop
      vertex 58.8686 9.13137 3
      vertex 11.1314 9.13137 3
      vertex 11.2694 8.97402 3
    endloop
  endfacet
  facet normal 0 0 1
    outer loop
      vertex 59.026 9.26937 3
      vertex 10.974 9.26937 3
      vertex 11.1314 9.13137 3
    endloop
  endfacet
  facet normal 0 0 1
    outer loop
      vertex 67 16 3
      vertex 10.8 9.38564 3
      vertex 10.974 9.26937 3
    endloop
  endfacet
  facet normal -0 0 1
    outer loop
      vertex 3 16 3
      vertex 10.8 9.38564 3
      vertex 67 16 3
    endloop
  endfacet
  facet normal 0 0 1
    outer loop
      vertex 10.8 9.38564 3
      vertex 3 16 3
      vertex 10.6123 9.47821 3
    endloop
  endfacet
  facet normal 0 0 1
    outer loop
      vertex 10.6123 9.47821 3
      vertex 3 16 3
      vertex 10.4141 9.54548 3
    endloop
  endfacet
  facet normal 0 0 1
    outer loop
      vertex 10.4141 9.54548 3
      vertex 3 16 3
      vertex 10.2088 9.58631 3
    endloop
  endfacet
  facet normal 0 0 1
    outer loop
      vertex 10.2088 9.58631 3
      vertex 3 16 3
      vertex 10 9.6 3
    endloop
  endfacet
  facet normal 0 0 1
    outer loop
      vertex 8.45452 8.41411 3
      vertex 0 13 3
      vertex 8.41369 8.20884 3
    endloop
  endfacet
  facet normal 0 0 1
    outer loop
      vertex 8.52179 8.61229 3
      vertex 0 13 3
      vertex 8.45452 8.41411 3
    endloop
  endfacet
  facet normal 0 0 1
    outer loop
      vertex 8.61436 8.8 3
      vertex 0 13 3
      vertex 8.52179 8.61229 3
    endloop
  endfacet
  facet normal -0 0 1
    outer loop
      vertex 0 13 3
      vertex 8.61436 8.8 3
      vertex 3 16 3
    endloop
  endfacet
  facet normal 0 0 1
    outer loop
      vertex 8.73063 8.97402 3
      vertex 3 16 3
      vertex 8.61436 8.8 3
    endloop
  endfacet
  facet normal 0 0 1
    outer loop
      vertex 8.86863 9.13137 3
      vertex 3 16 3
      vertex 8.73063 8.97402 3
    endloop
  endfacet
  facet normal 0 0 1
    outer loop
      vertex 9.02598 9.26937 3
      vertex 3 16 3
      vertex 8.86863 9.13137 3
    endloop
  endfacet
  facet normal 0 0 1
    outer loop
      vertex 9.2 9.38564 3
      vertex 3 16 3
      vertex 9.02598 9.26937 3
    endloop
  endfacet
  facet normal 0 0 1
    outer loop
      vertex 9.38771 9.47821 3
      vertex 3 16 3
      vertex 9.2 9.38564 3
    endloop
  endfacet
  facet normal 0 0 1
    outer loop
      vertex 9.58589 9.54548 3
      vertex 3 16 3
      vertex 9.38771 9.47821 3
    endloop
  endfacet
  facet normal 0 0 1
    outer loop
      vertex 9.79116 9.58631 3
      vertex 3 16 3
      vertex 9.58589 9.54548 3
    endloop
  endfacet
  facet normal 0 0 1
    outer loop
      vertex 10 9.6 3
      vertex 3 16 3
      vertex 9.79116 9.58631 3
    endloop
  endfacet
  facet normal 0 0 1
    outer loop
      vertex 68.5 0.401923 3
      vertex 67 0 3
      vertex 68.148 0.228361 3
    endloop
  endfacet
  facet normal 0 0 1
    outer loop
      vertex 67.7765 0.102222 3
      vertex 67 0 3
      vertex 67.3916 0.0256653 3
    endloop
  endfacet
  facet normal 0 0 1
    outer loop
      vertex 68.148 0.228361 3
      vertex 67 0 3
      vertex 67.7765 0.102222 3
    endloop
  endfacet
  facet normal 0 0 1
    outer loop
      vertex 69.7716 1.85195 3
      vertex 67 0 3
      vertex 69.5981 1.5 3
    endloop
  endfacet
  facet normal -0 0 1
    outer loop
      vertex 61.2694 7.02598 3
      vertex 67 0 3
      vertex 61.3856 7.2 3
    endloop
  endfacet
  facet normal -0 0 1
    outer loop
      vertex 61.1314 6.86863 3
      vertex 67 0 3
      vertex 61.2694 7.02598 3
    endloop
  endfacet
  facet normal -0 0 1
    outer loop
      vertex 60.974 6.73063 3
      vertex 67 0 3
      vertex 61.1314 6.86863 3
    endloop
  endfacet
  facet normal -0 0 1
    outer loop
      vertex 60.8 6.61436 3
      vertex 67 0 3
      vertex 60.974 6.73063 3
    endloop
  endfacet
  facet normal -0 0 1
    outer loop
      vertex 60.6123 6.52179 3
      vertex 67 0 3
      vertex 60.8 6.61436 3
    endloop
  endfacet
  facet normal -0 0 1
    outer loop
      vertex 60.4141 6.45452 3
      vertex 67 0 3
      vertex 60.6123 6.52179 3
    endloop
  endfacet
  facet normal -0 0 1
    outer loop
      vertex 60.2088 6.41369 3
      vertex 67 0 3
      vertex 60.4141 6.45452 3
    endloop
  endfacet
  facet normal -0 0 1
    outer loop
      vertex 60 6.4 3
      vertex 67 0 3
      vertex 60.2088 6.41369 3
    endloop
  endfacet
  facet normal 0 0 1
    outer loop
      vertex 59.7912 6.41369 3
      vertex 67 0 3
      vertex 60 6.4 3
    endloop
  endfacet
  facet normal 0 0 1
    outer loop
      vertex 59.5859 6.45452 3
      vertex 67 0 3
      vertex 59.7912 6.41369 3
    endloop
  endfacet
  facet normal 0 0 1
    outer loop
      vertex 59.3877 6.52179 3
      vertex 67 0 3
      vertex 59.5859 6.45452 3
    endloop
  endfacet
  facet normal 0 0 1
    outer loop
      vertex 59.2 6.61436 3
      vertex 67 0 3
      vertex 59.3877 6.52179 3
    endloop
  endfacet
  facet normal 0 0 1
    outer loop
      vertex 59.026 6.73063 3
      vertex 67 0 3
      vertex 59.2 6.61436 3
    endloop
  endfacet
  facet normal -0 0 1
    outer loop
      vertex 11.6 8 3
      vertex 58.4137 7.79116 3
      vertex 58.4 8 3
    endloop
  endfacet
  facet normal 0 0 1
    outer loop
      vertex 11.5863 7.79116 3
      vertex 58.4137 7.79116 3
      vertex 11.6 8 3
    endloop
  endfacet
  facet normal 0 0 1
    outer loop
      vertex 58.4137 7.79116 3
      vertex 11.5863 7.79116 3
      vertex 58.4545 7.58589 3
    endloop
  endfacet
  facet normal 0 0 1
    outer loop
      vertex 11.5455 7.58589 3
      vertex 58.4545 7.58589 3
      vertex 11.5863 7.79116 3
    endloop
  endfacet
  facet normal 0 0 1
    outer loop
      vertex 58.4545 7.58589 3
      vertex 11.5455 7.58589 3
      vertex 58.5218 7.38771 3
    endloop
  endfacet
  facet normal 0 0 1
    outer loop
      vertex 11.4782 7.38771 3
      vertex 58.5218 7.38771 3
      vertex 11.5455 7.58589 3
    endloop
  endfacet
  facet normal 0 0 1
    outer loop
      vertex 58.5218 7.38771 3
      vertex 11.4782 7.38771 3
      vertex 58.6144 7.2 3
    endloop
  endfacet
  facet normal 0 0 1
    outer loop
      vertex 11.3856 7.2 3
      vertex 58.6144 7.2 3
      vertex 11.4782 7.38771 3
    endloop
  endfacet
  facet normal 0 0 1
    outer loop
      vertex 58.6144 7.2 3
      vertex 11.3856 7.2 3
      vertex 58.7306 7.02598 3
    endloop
  endfacet
  facet normal 0 0 1
    outer loop
      vertex 11.2694 7.02598 3
      vertex 58.7306 7.02598 3
      vertex 11.3856 7.2 3
    endloop
  endfacet
  facet normal 0 0 1
    outer loop
      vertex 58.7306 7.02598 3
      vertex 11.2694 7.02598 3
      vertex 58.8686 6.86863 3
    endloop
  endfacet
  facet normal 0 0 1
    outer loop
      vertex 11.1314 6.86863 3
      vertex 58.8686 6.86863 3
      vertex 11.2694 7.02598 3
    endloop
  endfacet
  facet normal 0 0 1
    outer loop
      vertex 58.8686 6.86863 3
      vertex 11.1314 6.86863 3
      vertex 59.026 6.73063 3
    endloop
  endfacet
  facet normal 0 0 1
    outer loop
      vertex 10.974 6.73063 3
      vertex 59.026 6.73063 3
      vertex 11.1314 6.86863 3
    endloop
  endfacet
  facet normal 0 0 1
    outer loop
      vertex 59.026 6.73063 3
      vertex 10.974 6.73063 3
      vertex 67 0 3
    endloop
  endfacet
  facet normal -0 0 1
    outer loop
      vertex 10.8 6.61436 3
      vertex 67 0 3
      vertex 10.974 6.73063 3
    endloop
  endfacet
  facet normal 0 0 1
    outer loop
      vertex 3 0 3
      vertex 10.8 6.61436 3
      vertex 10.6123 6.52179 3
    endloop
  endfacet
  facet normal 0 0 1
    outer loop
      vertex 3 0 3
      vertex 10.6123 6.52179 3
      vertex 10.4141 6.45452 3
    endloop
  endfacet
  facet normal 0 0 1
    outer loop
      vertex 3 0 3
      vertex 10.4141 6.45452 3
      vertex 10.2088 6.41369 3
    endloop
  endfacet
  facet normal 0 0 1
    outer loop
      vertex 3 0 3
      vertex 10.2088 6.41369 3
      vertex 10 6.4 3
    endloop
  endfacet
  facet normal 0 0 1
    outer loop
      vertex 3 0 3
      vertex 10 6.4 3
      vertex 9.79116 6.41369 3
    endloop
  endfacet
  facet normal 0 0 1
    outer loop
      vertex 8.41369 8.20884 3
      vertex 0 13 3
      vertex 8.4 8 3
    endloop
  endfacet
  facet normal 0 0 1
    outer loop
      vertex 0 3 3
      vertex 8.4 8 3
      vertex 0 13 3
    endloop
  endfacet
  facet normal 0 0 1
    outer loop
      vertex 8.4 8 3
      vertex 0 3 3
      vertex 8.41369 7.79116 3
    endloop
  endfacet
  facet normal 0 0 1
    outer loop
      vertex 8.41369 7.79116 3
      vertex 0 3 3
      vertex 8.45452 7.58589 3
    endloop
  endfacet
  facet normal 0 0 1
    outer loop
      vertex 10.8 6.61436 3
      vertex 3 0 3
      vertex 67 0 3
    endloop
  endfacet
  facet normal 0 0 1
    outer loop
      vertex 9.58589 6.45452 3
      vertex 3 0 3
      vertex 9.79116 6.41369 3
    endloop
  endfacet
  facet normal 0 0 1
    outer loop
      vertex 9.38771 6.52179 3
      vertex 3 0 3
      vertex 9.58589 6.45452 3
    endloop
  endfacet
  facet normal 0 0 1
    outer loop
      vertex 9.2 6.61436 3
      vertex 3 0 3
      vertex 9.38771 6.52179 3
    endloop
  endfacet
  facet normal 0 0 1
    outer loop
      vertex 9.02598 6.73063 3
      vertex 3 0 3
      vertex 9.2 6.61436 3
    endloop
  endfacet
  facet normal 0 0 1
    outer loop
      vertex 8.86863 6.86863 3
      vertex 3 0 3
      vertex 9.02598 6.73063 3
    endloop
  endfacet
  facet normal 0 0 1
    outer loop
      vertex 8.73063 7.02598 3
      vertex 3 0 3
      vertex 8.86863 6.86863 3
    endloop
  endfacet
  facet normal 0 0 1
    outer loop
      vertex 8.61436 7.2 3
      vertex 3 0 3
      vertex 8.73063 7.02598 3
    endloop
  endfacet
  facet normal 0 0 1
    outer loop
      vertex 8.45452 7.58589 3
      vertex 0 3 3
      vertex 8.52179 7.38771 3
    endloop
  endfacet
  facet normal 0 0 1
    outer loop
      vertex 0 13 3
      vertex 3 16 3
      vertex 2.60842 15.9743 3
    endloop
  endfacet
  facet normal 0 0 1
    outer loop
      vertex 8.52179 7.38771 3
      vertex 0 3 3
      vertex 8.61436 7.2 3
    endloop
  endfacet
  facet normal 0 0 1
    outer loop
      vertex 0 13 3
      vertex 2.60842 15.9743 3
      vertex 2.22354 15.8978 3
    endloop
  endfacet
  facet normal 0 0 1
    outer loop
      vertex 8.61436 7.2 3
      vertex 0 3 3
      vertex 3 0 3
    endloop
  endfacet
  facet normal 0 0 1
    outer loop
      vertex 0 13 3
      vertex 2.22354 15.8978 3
      vertex 1.85195 15.7716 3
    endloop
  endfacet
  facet normal 0 0 1
    outer loop
      vertex 3 0 3
      vertex 0 3 3
      vertex 2.60842 0.0256653 3
    endloop
  endfacet
  facet normal 0 0 1
    outer loop
      vertex 0 13 3
      vertex 1.85195 15.7716 3
      vertex 1.5 15.5981 3
    endloop
  endfacet
  facet normal 0 0 1
    outer loop
      vertex 2.60842 0.0256653 3
      vertex 0 3 3
      vertex 2.22354 0.102222 3
    endloop
  endfacet
  facet normal 0 0 1
    outer loop
      vertex 0 13 3
      vertex 1.5 15.5981 3
      vertex 1.17372 15.3801 3
    endloop
  endfacet
  facet normal 0 0 1
    outer loop
      vertex 2.22354 0.102222 3
      vertex 0 3 3
      vertex 1.85195 0.228361 3
    endloop
  endfacet
  facet normal 0 0 1
    outer loop
      vertex 0 13 3
      vertex 1.17372 15.3801 3
      vertex 0.878679 15.1213 3
    endloop
  endfacet
  facet normal 0 0 1
    outer loop
      vertex 1.85195 0.228361 3
      vertex 0 3 3
      vertex 1.5 0.401923 3
    endloop
  endfacet
  facet normal 0 0 1
    outer loop
      vertex 0 13 3
      vertex 0.878679 15.1213 3
      vertex 0.61994 14.8263 3
    endloop
  endfacet
  facet normal 0 0 1
    outer loop
      vertex 1.5 0.401923 3
      vertex 0 3 3
      vertex 1.17372 0.61994 3
    endloop
  endfacet
  facet normal 0 0 1
    outer loop
      vertex 0 13 3
      vertex 0.61994 14.8263 3
      vertex 0.401923 14.5 3
    endloop
  endfacet
  facet normal 0 0 1
    outer loop
      vertex 1.17372 0.61994 3
      vertex 0 3 3
      vertex 0.878679 0.878679 3
    endloop
  endfacet
  facet normal 0 0 1
    outer loop
      vertex 0 13 3
      vertex 0.401923 14.5 3
      vertex 0.228361 14.148 3
    endloop
  endfacet
  facet normal 0 0 1
    outer loop
      vertex 0.878679 0.878679 3
      vertex 0 3 3
      vertex 0.61994 1.17372 3
    endloop
  endfacet
  facet normal 0 0 1
    outer loop
      vertex 0 13 3
      vertex 0.228361 14.148 3
      vertex 0.102222 13.7765 3
    endloop
  endfacet
  facet normal 0 0 1
    outer loop
      vertex 0.61994 1.17372 3
      vertex 0 3 3
      vertex 0.401923 1.5 3
    endloop
  endfacet
  facet normal 0 0 1
    outer loop
      vertex 0 13 3
      vertex 0.102222 13.7765 3
      vertex 0.0256653 13.3916 3
    endloop
  endfacet
  facet normal 0 0 1
    outer loop
      vertex 0.401923 1.5 3
      vertex 0 3 3
      vertex 0.228361 1.85195 3
    endloop
  endfacet
  facet normal 0 0 1
    outer loop
      vertex 0.228361 1.85195 3
      vertex 0 3 3
      vertex 0.102222 2.22354 3
    endloop
  endfacet
  facet normal 0 0 1
    outer loop
      vertex 0.102222 2.22354 3
      vertex 0 3 3
      vertex 0.0256653 2.60842 3
    endloop
  endfacet
  facet normal -0.997859 -0.0654026 0
    outer loop
      vertex 0.0256653 2.60842 0
      vertex 0 3 3
      vertex 0 3 0
    endloop
  endfacet
  facet normal -0.997859 -0.0654026 0
    outer loop
      vertex 0 3 3
      vertex 0.0256653 2.60842 0
      vertex 0.0256653 2.60842 3
    endloop
  endfacet
  facet normal -1 0 0
    outer loop
      vertex 0 3 0
      vertex 0 13 3
      vertex 0 13 0
    endloop
  endfacet
  facet normal -1 -0 0
    outer loop
      vertex 0 13 3
      vertex 0 3 0
      vertex 0 3 3
    endloop
  endfacet
  facet normal -0.896898 0.442237 0
    outer loop
      vertex 0.228361 14.148 0
      vertex 0.401923 14.5 3
      vertex 0.401923 14.5 0
    endloop
  endfacet
  facet normal -0.896898 0.442237 0
    outer loop
      vertex 0.401923 14.5 3
      vertex 0.228361 14.148 0
      vertex 0.228361 14.148 3
    endloop
  endfacet
  facet normal -0.997859 0.0653993 0
    outer loop
      vertex 0 13 0
      vertex 0.0256653 13.3916 3
      vertex 0.0256653 13.3916 0
    endloop
  endfacet
  facet normal -0.997859 0.0653993 0
    outer loop
      vertex 0.0256653 13.3916 3
      vertex 0 13 0
      vertex 0 13 3
    endloop
  endfacet
  facet normal 1 -0 0
    outer loop
      vertex 70 3 3
      vertex 70 13 0
      vertex 70 13 3
    endloop
  endfacet
  facet normal 1 0 0
    outer loop
      vertex 70 13 0
      vertex 70 3 3
      vertex 70 3 0
    endloop
  endfacet
  facet normal 0.321651 0.946858 -0
    outer loop
      vertex 68.148 15.7716 0
      vertex 67.7765 15.8978 3
      vertex 68.148 15.7716 3
    endloop
  endfacet
  facet normal 0.321651 0.946858 0
    outer loop
      vertex 67.7765 15.8978 3
      vertex 68.148 15.7716 0
      vertex 67.7765 15.8978 0
    endloop
  endfacet
  facet normal -0.19495 0.980813 0
    outer loop
      vertex 2.60842 15.9743 0
      vertex 2.22354 15.8978 3
      vertex 2.60842 15.9743 3
    endloop
  endfacet
  facet normal -0.19495 0.980813 0
    outer loop
      vertex 2.22354 15.8978 3
      vertex 2.60842 15.9743 0
      vertex 2.22354 15.8978 0
    endloop
  endfacet
  facet normal -0.980786 -0.195089 0
    outer loop
      vertex 0.102222 2.22354 0
      vertex 0.0256653 2.60842 3
      vertex 0.0256653 2.60842 0
    endloop
  endfacet
  facet normal -0.980786 -0.195089 0
    outer loop
      vertex 0.0256653 2.60842 3
      vertex 0.102222 2.22354 0
      vertex 0.102222 2.22354 3
    endloop
  endfacet
  facet normal -0.831481 0.555553 0
    outer loop
      vertex 0.401923 14.5 0
      vertex 0.61994 14.8263 3
      vertex 0.61994 14.8263 0
    endloop
  endfacet
  facet normal -0.831481 0.555553 0
    outer loop
      vertex 0.61994 14.8263 3
      vertex 0.401923 14.5 0
      vertex 0.401923 14.5 3
    endloop
  endfacet
  facet normal -0.980788 0.195079 0
    outer loop
      vertex 0.0256653 13.3916 0
      vertex 0.102222 13.7765 3
      vertex 0.102222 13.7765 0
    endloop
  endfacet
  facet normal -0.980788 0.195079 0
    outer loop
      vertex 0.102222 13.7765 3
      vertex 0.0256653 13.3916 0
      vertex 0.0256653 13.3916 3
    endloop
  endfacet
  facet normal 0 -1 0
    outer loop
      vertex 3 0 0
      vertex 67 0 3
      vertex 3 0 3
    endloop
  endfacet
  facet normal 0 -1 -0
    outer loop
      vertex 67 0 3
      vertex 3 0 0
      vertex 67 0 0
    endloop
  endfacet
  facet normal -0.195089 -0.980786 0
    outer loop
      vertex 2.22354 0.102222 0
      vertex 2.60842 0.0256653 3
      vertex 2.22354 0.102222 3
    endloop
  endfacet
  facet normal -0.195089 -0.980786 -0
    outer loop
      vertex 2.60842 0.0256653 3
      vertex 2.22354 0.102222 0
      vertex 2.60842 0.0256653 0
    endloop
  endfacet
  facet normal 0.555523 0.831501 -0
    outer loop
      vertex 68.8263 15.3801 0
      vertex 68.5 15.5981 3
      vertex 68.8263 15.3801 3
    endloop
  endfacet
  facet normal 0.555523 0.831501 0
    outer loop
      vertex 68.5 15.5981 3
      vertex 68.8263 15.3801 0
      vertex 68.5 15.5981 0
    endloop
  endfacet
  facet normal 0.997853 0.0654873 0
    outer loop
      vertex 70 13 3
      vertex 69.9743 13.3916 0
      vertex 69.9743 13.3916 3
    endloop
  endfacet
  facet normal 0.997853 0.0654873 0
    outer loop
      vertex 69.9743 13.3916 0
      vertex 70 13 3
      vertex 70 13 0
    endloop
  endfacet
  facet normal 0 1 -0
    outer loop
      vertex 67 16 0
      vertex 3 16 3
      vertex 67 16 3
    endloop
  endfacet
  facet normal 0 1 0
    outer loop
      vertex 3 16 3
      vertex 67 16 0
      vertex 3 16 0
    endloop
  endfacet
  facet normal 0.0654873 0.997853 -0
    outer loop
      vertex 67.3916 15.9743 0
      vertex 67 16 3
      vertex 67.3916 15.9743 3
    endloop
  endfacet
  facet normal 0.0654873 0.997853 0
    outer loop
      vertex 67 16 3
      vertex 67.3916 15.9743 0
      vertex 67 16 0
    endloop
  endfacet
  facet normal -0.321582 0.946882 0
    outer loop
      vertex 2.22354 15.8978 0
      vertex 1.85195 15.7716 3
      vertex 2.22354 15.8978 3
    endloop
  endfacet
  facet normal -0.321582 0.946882 0
    outer loop
      vertex 1.85195 15.7716 3
      vertex 2.22354 15.8978 0
      vertex 1.85195 15.7716 0
    endloop
  endfacet
  facet normal -0.896873 -0.442288 0
    outer loop
      vertex 0.401923 1.5 0
      vertex 0.228361 1.85195 3
      vertex 0.228361 1.85195 0
    endloop
  endfacet
  facet normal -0.896873 -0.442288 0
    outer loop
      vertex 0.228361 1.85195 3
      vertex 0.401923 1.5 0
      vertex 0.401923 1.5 3
    endloop
  endfacet
  facet normal -0.946929 -0.321442 0
    outer loop
      vertex 0.228361 1.85195 0
      vertex 0.102222 2.22354 3
      vertex 0.102222 2.22354 0
    endloop
  endfacet
  facet normal -0.946929 -0.321442 0
    outer loop
      vertex 0.102222 2.22354 3
      vertex 0.228361 1.85195 0
      vertex 0.228361 1.85195 3
    endloop
  endfacet
  facet normal 0.321512 -0.946905 0
    outer loop
      vertex 67.7765 0.102222 0
      vertex 68.148 0.228361 3
      vertex 67.7765 0.102222 3
    endloop
  endfacet
  facet normal 0.321512 -0.946905 0
    outer loop
      vertex 68.148 0.228361 3
      vertex 67.7765 0.102222 0
      vertex 68.148 0.228361 0
    endloop
  endfacet
  facet normal 0.195079 -0.980788 0
    outer loop
      vertex 67.3916 0.0256653 0
      vertex 67.7765 0.102222 3
      vertex 67.3916 0.0256653 3
    endloop
  endfacet
  facet normal 0.195079 -0.980788 0
    outer loop
      vertex 67.7765 0.102222 3
      vertex 67.3916 0.0256653 0
      vertex 67.7765 0.102222 0
    endloop
  endfacet
  facet normal 0.442237 -0.896898 0
    outer loop
      vertex 68.148 0.228361 0
      vertex 68.5 0.401923 3
      vertex 68.148 0.228361 3
    endloop
  endfacet
  facet normal 0.442237 -0.896898 0
    outer loop
      vertex 68.5 0.401923 3
      vertex 68.148 0.228361 0
      vertex 68.5 0.401923 0
    endloop
  endfacet
  facet normal -0.0654026 -0.997859 0
    outer loop
      vertex 2.60842 0.0256653 0
      vertex 3 0 3
      vertex 2.60842 0.0256653 3
    endloop
  endfacet
  facet normal -0.0654026 -0.997859 -0
    outer loop
      vertex 3 0 3
      vertex 2.60842 0.0256653 0
      vertex 3 0 0
    endloop
  endfacet
  facet normal -0.442288 -0.896873 0
    outer loop
      vertex 1.5 0.401923 0
      vertex 1.85195 0.228361 3
      vertex 1.5 0.401923 3
    endloop
  endfacet
  facet normal -0.442288 -0.896873 -0
    outer loop
      vertex 1.85195 0.228361 3
      vertex 1.5 0.401923 0
      vertex 1.85195 0.228361 0
    endloop
  endfacet
  facet normal 0.19494 0.980815 -0
    outer loop
      vertex 67.7765 15.8978 0
      vertex 67.3916 15.9743 3
      vertex 67.7765 15.8978 3
    endloop
  endfacet
  facet normal 0.19494 0.980815 0
    outer loop
      vertex 67.3916 15.9743 3
      vertex 67.7765 15.8978 0
      vertex 67.3916 15.9743 0
    endloop
  endfacet
  facet normal 0.659478 0.751724 -0
    outer loop
      vertex 69.1213 15.1213 0
      vertex 68.8263 15.3801 3
      vertex 69.1213 15.1213 3
    endloop
  endfacet
  facet normal 0.659478 0.751724 0
    outer loop
      vertex 68.8263 15.3801 3
      vertex 69.1213 15.1213 0
      vertex 68.8263 15.3801 0
    endloop
  endfacet
  facet normal -0.0654906 0.997853 0
    outer loop
      vertex 3 16 0
      vertex 2.60842 15.9743 3
      vertex 3 16 3
    endloop
  endfacet
  facet normal -0.0654906 0.997853 0
    outer loop
      vertex 2.60842 15.9743 3
      vertex 3 16 0
      vertex 2.60842 15.9743 0
    endloop
  endfacet
  facet normal -0.831465 -0.555577 0
    outer loop
      vertex 0.61994 1.17372 0
      vertex 0.401923 1.5 3
      vertex 0.401923 1.5 0
    endloop
  endfacet
  facet normal -0.831465 -0.555577 0
    outer loop
      vertex 0.401923 1.5 3
      vertex 0.61994 1.17372 0
      vertex 0.61994 1.17372 3
    endloop
  endfacet
  facet normal -0.659339 -0.751846 0
    outer loop
      vertex 0.878679 0.878679 0
      vertex 1.17372 0.61994 3
      vertex 0.878679 0.878679 3
    endloop
  endfacet
  facet normal -0.659339 -0.751846 -0
    outer loop
      vertex 1.17372 0.61994 3
      vertex 0.878679 0.878679 0
      vertex 1.17372 0.61994 0
    endloop
  endfacet
  facet normal -0.321442 -0.946929 0
    outer loop
      vertex 1.85195 0.228361 0
      vertex 2.22354 0.102222 3
      vertex 1.85195 0.228361 3
    endloop
  endfacet
  facet normal -0.321442 -0.946929 -0
    outer loop
      vertex 2.22354 0.102222 3
      vertex 1.85195 0.228361 0
      vertex 2.22354 0.102222 0
    endloop
  endfacet
  facet normal 0.751769 -0.659426 0
    outer loop
      vertex 69.1213 0.878679 3
      vertex 69.3801 1.17372 0
      vertex 69.3801 1.17372 3
    endloop
  endfacet
  facet normal 0.751769 -0.659426 0
    outer loop
      vertex 69.3801 1.17372 0
      vertex 69.1213 0.878679 3
      vertex 69.1213 0.878679 0
    endloop
  endfacet
  facet normal 0.896936 -0.44216 0
    outer loop
      vertex 69.5981 1.5 3
      vertex 69.7716 1.85195 0
      vertex 69.7716 1.85195 3
    endloop
  endfacet
  facet normal 0.896936 -0.44216 0
    outer loop
      vertex 69.7716 1.85195 0
      vertex 69.5981 1.5 3
      vertex 69.5981 1.5 0
    endloop
  endfacet
  facet normal 0.44211 0.896961 -0
    outer loop
      vertex 68.5 15.5981 0
      vertex 68.148 15.7716 3
      vertex 68.5 15.5981 3
    endloop
  endfacet
  facet normal 0.44211 0.896961 0
    outer loop
      vertex 68.148 15.7716 3
      vertex 68.5 15.5981 0
      vertex 68.148 15.7716 0
    endloop
  endfacet
  facet normal -0.751846 -0.659339 0
    outer loop
      vertex 0.878679 0.878679 0
      vertex 0.61994 1.17372 3
      vertex 0.61994 1.17372 0
    endloop
  endfacet
  facet normal -0.751846 -0.659339 0
    outer loop
      vertex 0.61994 1.17372 3
      vertex 0.878679 0.878679 0
      vertex 0.878679 0.878679 3
    endloop
  endfacet
  facet normal -0.555577 -0.831465 0
    outer loop
      vertex 1.17372 0.61994 0
      vertex 1.5 0.401923 3
      vertex 1.17372 0.61994 3
    endloop
  endfacet
  facet normal -0.555577 -0.831465 -0
    outer loop
      vertex 1.5 0.401923 3
      vertex 1.17372 0.61994 0
      vertex 1.5 0.401923 0
    endloop
  endfacet
  facet normal 0.65939 -0.751801 0
    outer loop
      vertex 68.8263 0.61994 0
      vertex 69.1213 0.878679 3
      vertex 68.8263 0.61994 3
    endloop
  endfacet
  facet normal 0.65939 -0.751801 0
    outer loop
      vertex 69.1213 0.878679 3
      vertex 68.8263 0.61994 0
      vertex 69.1213 0.878679 0
    endloop
  endfacet
  facet normal 0.555553 -0.831481 0
    outer loop
      vertex 68.5 0.401923 0
      vertex 68.8263 0.61994 3
      vertex 68.5 0.401923 3
    endloop
  endfacet
  facet normal 0.555553 -0.831481 0
    outer loop
      vertex 68.8263 0.61994 3
      vertex 68.5 0.401923 0
      vertex 68.8263 0.61994 0
    endloop
  endfacet
  facet normal 0.831485 -0.555547 0
    outer loop
      vertex 69.3801 1.17372 3
      vertex 69.5981 1.5 0
      vertex 69.5981 1.5 3
    endloop
  endfacet
  facet normal 0.831485 -0.555547 0
    outer loop
      vertex 69.5981 1.5 0
      vertex 69.3801 1.17372 3
      vertex 69.3801 1.17372 0
    endloop
  endfacet
  facet normal 0.997853 -0.0654906 0
    outer loop
      vertex 69.9743 2.60842 3
      vertex 70 3 0
      vertex 70 3 3
    endloop
  endfacet
  facet normal 0.997853 -0.0654906 0
    outer loop
      vertex 70 3 0
      vertex 69.9743 2.60842 3
      vertex 69.9743 2.60842 0
    endloop
  endfacet
  facet normal 0.980813 -0.19495 0
    outer loop
      vertex 69.8978 2.22354 3
      vertex 69.9743 2.60842 0
      vertex 69.9743 2.60842 3
    endloop
  endfacet
  facet normal 0.980813 -0.19495 0
    outer loop
      vertex 69.9743 2.60842 0
      vertex 69.8978 2.22354 3
      vertex 69.8978 2.22354 0
    endloop
  endfacet
  facet normal 0.896961 0.44211 0
    outer loop
      vertex 69.7716 14.148 3
      vertex 69.5981 14.5 0
      vertex 69.5981 14.5 3
    endloop
  endfacet
  facet normal 0.896961 0.44211 0
    outer loop
      vertex 69.5981 14.5 0
      vertex 69.7716 14.148 3
      vertex 69.7716 14.148 0
    endloop
  endfacet
  facet normal 0.980815 0.19494 0
    outer loop
      vertex 69.9743 13.3916 3
      vertex 69.8978 13.7765 0
      vertex 69.8978 13.7765 3
    endloop
  endfacet
  facet normal 0.980815 0.19494 0
    outer loop
      vertex 69.8978 13.7765 0
      vertex 69.9743 13.3916 3
      vertex 69.9743 13.3916 0
    endloop
  endfacet
  facet normal 0.751724 0.659478 0
    outer loop
      vertex 69.3801 14.8263 3
      vertex 69.1213 15.1213 0
      vertex 69.1213 15.1213 3
    endloop
  endfacet
  facet normal 0.751724 0.659478 0
    outer loop
      vertex 69.1213 15.1213 0
      vertex 69.3801 14.8263 3
      vertex 69.3801 14.8263 0
    endloop
  endfacet
  facet normal 0.831501 0.555523 0
    outer loop
      vertex 69.5981 14.5 3
      vertex 69.3801 14.8263 0
      vertex 69.3801 14.8263 3
    endloop
  endfacet
  facet normal 0.831501 0.555523 0
    outer loop
      vertex 69.3801 14.8263 0
      vertex 69.5981 14.5 3
      vertex 69.5981 14.5 0
    endloop
  endfacet
  facet normal 0.946882 -0.321582 0
    outer loop
      vertex 69.7716 1.85195 3
      vertex 69.8978 2.22354 0
      vertex 69.8978 2.22354 3
    endloop
  endfacet
  facet normal 0.946882 -0.321582 0
    outer loop
      vertex 69.8978 2.22354 0
      vertex 69.7716 1.85195 3
      vertex 69.7716 1.85195 0
    endloop
  endfacet
  facet normal 0.946858 0.321651 0
    outer loop
      vertex 69.8978 13.7765 3
      vertex 69.7716 14.148 0
      vertex 69.7716 14.148 3
    endloop
  endfacet
  facet normal 0.946858 0.321651 0
    outer loop
      vertex 69.7716 14.148 0
      vertex 69.8978 13.7765 3
      vertex 69.8978 13.7765 0
    endloop
  endfacet
endsolid OpenSCAD_Model
