solid OpenSCAD_Model
  facet normal -1 0 0
    outer loop
      vertex 0 0 0
      vertex 0 10 4.8
      vertex 0 10 0
    endloop
  endfacet
  facet normal -1 -0 0
    outer loop
      vertex 0 10 4.8
      vertex 0 0 0
      vertex 0 0 4.8
    endloop
  endfacet
  facet normal -1 0 0
    outer loop
      vertex 0 70 0
      vertex 0 80 4.8
      vertex 0 80 0
    endloop
  endfacet
  facet normal -1 -0 0
    outer loop
      vertex 0 80 4.8
      vertex 0 70 0
      vertex 0 70 4.8
    endloop
  endfacet
  facet normal 0 0 1
    outer loop
      vertex 21.5863 67.7912 4.8
      vertex 30 80 4.8
      vertex 21.6 68 4.8
    endloop
  endfacet
  facet normal 0 0 1
    outer loop
      vertex 30 80 4.8
      vertex 21.5863 68.2088 4.8
      vertex 21.6 68 4.8
    endloop
  endfacet
  facet normal 0 0 1
    outer loop
      vertex 30 80 4.8
      vertex 21.5455 68.4141 4.8
      vertex 21.5863 68.2088 4.8
    endloop
  endfacet
  facet normal 0 0 1
    outer loop
      vertex 30 80 4.8
      vertex 21.4782 68.6123 4.8
      vertex 21.5455 68.4141 4.8
    endloop
  endfacet
  facet normal 0 0 1
    outer loop
      vertex 30 80 4.8
      vertex 21.3856 68.8 4.8
      vertex 21.4782 68.6123 4.8
    endloop
  endfacet
  facet normal 0 0 1
    outer loop
      vertex 30 80 4.8
      vertex 21.2694 68.974 4.8
      vertex 21.3856 68.8 4.8
    endloop
  endfacet
  facet normal 0 0 1
    outer loop
      vertex 30 80 4.8
      vertex 21.1314 69.1314 4.8
      vertex 21.2694 68.974 4.8
    endloop
  endfacet
  facet normal 0 0 1
    outer loop
      vertex 30 80 4.8
      vertex 20.974 69.2694 4.8
      vertex 21.1314 69.1314 4.8
    endloop
  endfacet
  facet normal 0 0 1
    outer loop
      vertex 30 80 4.8
      vertex 20.8 69.3856 4.8
      vertex 20.974 69.2694 4.8
    endloop
  endfacet
  facet normal 0 0 1
    outer loop
      vertex 30 80 4.8
      vertex 20.6123 69.4782 4.8
      vertex 20.8 69.3856 4.8
    endloop
  endfacet
  facet normal 0 0 1
    outer loop
      vertex 30 80 4.8
      vertex 20.4141 69.5455 4.8
      vertex 20.6123 69.4782 4.8
    endloop
  endfacet
  facet normal 0 0 1
    outer loop
      vertex 30 80 4.8
      vertex 20.2088 69.5863 4.8
      vertex 20.4141 69.5455 4.8
    endloop
  endfacet
  facet normal 0 0 1
    outer loop
      vertex 30 80 4.8
      vertex 20 69.6 4.8
      vertex 20.2088 69.5863 4.8
    endloop
  endfacet
  facet normal 0 0 1
    outer loop
      vertex 30 80 4.8
      vertex 19.7912 69.5863 4.8
      vertex 20 69.6 4.8
    endloop
  endfacet
  facet normal -0 0 1
    outer loop
      vertex 13.25 70 4.8
      vertex 19.7912 69.5863 4.8
      vertex 30 80 4.8
    endloop
  endfacet
  facet normal 0 0 1
    outer loop
      vertex 19.7912 69.5863 4.8
      vertex 13.25 70 4.8
      vertex 19.5859 69.5455 4.8
    endloop
  endfacet
  facet normal 0 0 1
    outer loop
      vertex 19.5859 69.5455 4.8
      vertex 13.25 70 4.8
      vertex 19.3877 69.4782 4.8
    endloop
  endfacet
  facet normal 0 0 1
    outer loop
      vertex 19.3877 69.4782 4.8
      vertex 13.25 70 4.8
      vertex 19.2 69.3856 4.8
    endloop
  endfacet
  facet normal 0 0 1
    outer loop
      vertex 19.2 69.3856 4.8
      vertex 13.25 70 4.8
      vertex 19.026 69.2694 4.8
    endloop
  endfacet
  facet normal 0 0 1
    outer loop
      vertex 18.4137 68.2088 4.8
      vertex 13.25 70 4.8
      vertex 18.4 68 4.8
    endloop
  endfacet
  facet normal 0 0 1
    outer loop
      vertex 18.4545 68.4141 4.8
      vertex 13.25 70 4.8
      vertex 18.4137 68.2088 4.8
    endloop
  endfacet
  facet normal 0 0 1
    outer loop
      vertex 18.5218 68.6123 4.8
      vertex 13.25 70 4.8
      vertex 18.4545 68.4141 4.8
    endloop
  endfacet
  facet normal 0 0 1
    outer loop
      vertex 18.6144 68.8 4.8
      vertex 13.25 70 4.8
      vertex 18.5218 68.6123 4.8
    endloop
  endfacet
  facet normal 0 0 1
    outer loop
      vertex 18.7306 68.974 4.8
      vertex 13.25 70 4.8
      vertex 18.6144 68.8 4.8
    endloop
  endfacet
  facet normal 0 0 1
    outer loop
      vertex 18.8686 69.1314 4.8
      vertex 13.25 70 4.8
      vertex 18.7306 68.974 4.8
    endloop
  endfacet
  facet normal 0 0 1
    outer loop
      vertex 19.026 69.2694 4.8
      vertex 13.25 70 4.8
      vertex 18.8686 69.1314 4.8
    endloop
  endfacet
  facet normal -0 0 1
    outer loop
      vertex 0 80 4.8
      vertex 13.25 70 4.8
      vertex 30 80 4.8
    endloop
  endfacet
  facet normal 0 0 1
    outer loop
      vertex 13.25 70 4.8
      vertex 0 80 4.8
      vertex 0 70 4.8
    endloop
  endfacet
  facet normal 0 0 1
    outer loop
      vertex 21.5455 67.5859 4.8
      vertex 30 80 4.8
      vertex 21.5863 67.7912 4.8
    endloop
  endfacet
  facet normal 0 0 1
    outer loop
      vertex 21.4782 67.3877 4.8
      vertex 30 80 4.8
      vertex 21.5455 67.5859 4.8
    endloop
  endfacet
  facet normal 0 0 1
    outer loop
      vertex 30 80 4.8
      vertex 21.4782 67.3877 4.8
      vertex 30 0 4.8
    endloop
  endfacet
  facet normal -0 0 1
    outer loop
      vertex 21.3856 67.2 4.8
      vertex 30 0 4.8
      vertex 21.4782 67.3877 4.8
    endloop
  endfacet
  facet normal -0 0 1
    outer loop
      vertex 21.2694 67.026 4.8
      vertex 30 0 4.8
      vertex 21.3856 67.2 4.8
    endloop
  endfacet
  facet normal -0 0 1
    outer loop
      vertex 21.1314 66.8686 4.8
      vertex 30 0 4.8
      vertex 21.2694 67.026 4.8
    endloop
  endfacet
  facet normal -0 0 1
    outer loop
      vertex 20.974 66.7306 4.8
      vertex 30 0 4.8
      vertex 21.1314 66.8686 4.8
    endloop
  endfacet
  facet normal -0 0 1
    outer loop
      vertex 20.8 66.6144 4.8
      vertex 30 0 4.8
      vertex 20.974 66.7306 4.8
    endloop
  endfacet
  facet normal 0 0 1
    outer loop
      vertex 13.25 10 4.8
      vertex 20.8 66.6144 4.8
      vertex 20.6123 66.5218 4.8
    endloop
  endfacet
  facet normal 0 0 1
    outer loop
      vertex 13.25 10 4.8
      vertex 20.6123 66.5218 4.8
      vertex 20.4141 66.4545 4.8
    endloop
  endfacet
  facet normal 0 0 1
    outer loop
      vertex 13.25 10 4.8
      vertex 20.4141 66.4545 4.8
      vertex 20.2088 66.4137 4.8
    endloop
  endfacet
  facet normal 0 0 1
    outer loop
      vertex 13.25 10 4.8
      vertex 20.2088 66.4137 4.8
      vertex 20 66.4 4.8
    endloop
  endfacet
  facet normal 0 0 1
    outer loop
      vertex 13.25 10 4.8
      vertex 20 66.4 4.8
      vertex 19.7912 66.4137 4.8
    endloop
  endfacet
  facet normal 0 0 1
    outer loop
      vertex 13.25 10 4.8
      vertex 19.7912 66.4137 4.8
      vertex 19.5859 66.4545 4.8
    endloop
  endfacet
  facet normal 0 0 1
    outer loop
      vertex 13.25 10 4.8
      vertex 19.5859 66.4545 4.8
      vertex 19.3877 66.5218 4.8
    endloop
  endfacet
  facet normal 0 0 1
    outer loop
      vertex 13.25 10 4.8
      vertex 19.3877 66.5218 4.8
      vertex 19.2 66.6144 4.8
    endloop
  endfacet
  facet normal 0 0 1
    outer loop
      vertex 13.25 10 4.8
      vertex 19.2 66.6144 4.8
      vertex 19.026 66.7306 4.8
    endloop
  endfacet
  facet normal 0 0 1
    outer loop
      vertex 13.25 70 4.8
      vertex 19.026 66.7306 4.8
      vertex 18.8686 66.8686 4.8
    endloop
  endfacet
  facet normal 0 0 1
    outer loop
      vertex 13.25 70 4.8
      vertex 18.8686 66.8686 4.8
      vertex 18.7306 67.026 4.8
    endloop
  endfacet
  facet normal 0 0 1
    outer loop
      vertex 13.25 70 4.8
      vertex 18.7306 67.026 4.8
      vertex 18.6144 67.2 4.8
    endloop
  endfacet
  facet normal 0 0 1
    outer loop
      vertex 13.25 70 4.8
      vertex 18.6144 67.2 4.8
      vertex 18.5218 67.3877 4.8
    endloop
  endfacet
  facet normal 0 0 1
    outer loop
      vertex 13.25 70 4.8
      vertex 18.5218 67.3877 4.8
      vertex 18.4545 67.5859 4.8
    endloop
  endfacet
  facet normal 0 0 1
    outer loop
      vertex 13.25 70 4.8
      vertex 18.4545 67.5859 4.8
      vertex 18.4137 67.7912 4.8
    endloop
  endfacet
  facet normal 0 0 1
    outer loop
      vertex 13.25 70 4.8
      vertex 18.4137 67.7912 4.8
      vertex 18.4 68 4.8
    endloop
  endfacet
  facet normal 0 0 1
    outer loop
      vertex 19.026 66.7306 4.8
      vertex 13.25 70 4.8
      vertex 13.25 10 4.8
    endloop
  endfacet
  facet normal 0 0 1
    outer loop
      vertex 20.8 66.6144 4.8
      vertex 13.25 10 4.8
      vertex 30 0 4.8
    endloop
  endfacet
  facet normal 0 0 1
    outer loop
      vertex 0 0 4.8
      vertex 13.25 10 4.8
      vertex 0 10 4.8
    endloop
  endfacet
  facet normal 0 0 1
    outer loop
      vertex 13.25 10 4.8
      vertex 0 0 4.8
      vertex 30 0 4.8
    endloop
  endfacet
  facet normal 1 -0 0
    outer loop
      vertex 30 0 4.8
      vertex 30 80 0
      vertex 30 80 4.8
    endloop
  endfacet
  facet normal 1 0 0
    outer loop
      vertex 30 80 0
      vertex 30 0 4.8
      vertex 30 0 0
    endloop
  endfacet
  facet normal 0 1 -0
    outer loop
      vertex 30 80 0
      vertex 0 80 4.8
      vertex 30 80 4.8
    endloop
  endfacet
  facet normal 0 1 0
    outer loop
      vertex 0 80 4.8
      vertex 30 80 0
      vertex 0 80 0
    endloop
  endfacet
  facet normal 0 0 -1
    outer loop
      vertex 21.4782 67.3877 0
      vertex 30 80 0
      vertex 30 0 0
    endloop
  endfacet
  facet normal 0 0 -1
    outer loop
      vertex 30 80 0
      vertex 21.5863 67.7912 0
      vertex 21.6 68 0
    endloop
  endfacet
  facet normal 0 0 -1
    outer loop
      vertex 30 80 0
      vertex 21.5455 67.5859 0
      vertex 21.5863 67.7912 0
    endloop
  endfacet
  facet normal 0 0 -1
    outer loop
      vertex 30 80 0
      vertex 21.4782 67.3877 0
      vertex 21.5455 67.5859 0
    endloop
  endfacet
  facet normal 0 0 -1
    outer loop
      vertex 30 0 0
      vertex 21.3856 67.2 0
      vertex 21.4782 67.3877 0
    endloop
  endfacet
  facet normal 0 0 -1
    outer loop
      vertex 30 0 0
      vertex 21.2694 67.026 0
      vertex 21.3856 67.2 0
    endloop
  endfacet
  facet normal 0 0 -1
    outer loop
      vertex 30 0 0
      vertex 21.1314 66.8686 0
      vertex 21.2694 67.026 0
    endloop
  endfacet
  facet normal 0 0 -1
    outer loop
      vertex 30 0 0
      vertex 20.974 66.7306 0
      vertex 21.1314 66.8686 0
    endloop
  endfacet
  facet normal 0 0 -1
    outer loop
      vertex 30 0 0
      vertex 20.8 66.6144 0
      vertex 20.974 66.7306 0
    endloop
  endfacet
  facet normal 0 0 -1
    outer loop
      vertex 13.25 10 0
      vertex 20.8 66.6144 0
      vertex 30 0 0
    endloop
  endfacet
  facet normal 0 0 -1
    outer loop
      vertex 20.8 66.6144 0
      vertex 13.25 10 0
      vertex 20.6123 66.5218 0
    endloop
  endfacet
  facet normal 0 0 -1
    outer loop
      vertex 20.6123 66.5218 0
      vertex 13.25 10 0
      vertex 20.4141 66.4545 0
    endloop
  endfacet
  facet normal 0 0 -1
    outer loop
      vertex 20.4141 66.4545 0
      vertex 13.25 10 0
      vertex 20.2088 66.4137 0
    endloop
  endfacet
  facet normal 0 0 -1
    outer loop
      vertex 20.2088 66.4137 0
      vertex 13.25 10 0
      vertex 20 66.4 0
    endloop
  endfacet
  facet normal -0 0 -1
    outer loop
      vertex 20 66.4 0
      vertex 13.25 10 0
      vertex 19.7912 66.4137 0
    endloop
  endfacet
  facet normal -0 0 -1
    outer loop
      vertex 19.7912 66.4137 0
      vertex 13.25 10 0
      vertex 19.5859 66.4545 0
    endloop
  endfacet
  facet normal -0 0 -1
    outer loop
      vertex 19.5859 66.4545 0
      vertex 13.25 10 0
      vertex 19.3877 66.5218 0
    endloop
  endfacet
  facet normal -0 0 -1
    outer loop
      vertex 19.3877 66.5218 0
      vertex 13.25 10 0
      vertex 19.2 66.6144 0
    endloop
  endfacet
  facet normal -0 0 -1
    outer loop
      vertex 19.2 66.6144 0
      vertex 13.25 10 0
      vertex 19.026 66.7306 0
    endloop
  endfacet
  facet normal 0 0 -1
    outer loop
      vertex 13.25 70 0
      vertex 19.026 66.7306 0
      vertex 13.25 10 0
    endloop
  endfacet
  facet normal 0 0 -1
    outer loop
      vertex 19.026 66.7306 0
      vertex 13.25 70 0
      vertex 18.8686 66.8686 0
    endloop
  endfacet
  facet normal 0 0 -1
    outer loop
      vertex 18.8686 66.8686 0
      vertex 13.25 70 0
      vertex 18.7306 67.026 0
    endloop
  endfacet
  facet normal 0 0 -1
    outer loop
      vertex 18.7306 67.026 0
      vertex 13.25 70 0
      vertex 18.6144 67.2 0
    endloop
  endfacet
  facet normal 0 0 -1
    outer loop
      vertex 18.6144 67.2 0
      vertex 13.25 70 0
      vertex 18.5218 67.3877 0
    endloop
  endfacet
  facet normal 0 0 -1
    outer loop
      vertex 18.4545 67.5859 0
      vertex 13.25 70 0
      vertex 18.4137 67.7912 0
    endloop
  endfacet
  facet normal 0 0 -1
    outer loop
      vertex 18.5218 67.3877 0
      vertex 13.25 70 0
      vertex 18.4545 67.5859 0
    endloop
  endfacet
  facet normal 0 0 -1
    outer loop
      vertex 0 0 0
      vertex 13.25 10 0
      vertex 30 0 0
    endloop
  endfacet
  facet normal -0 0 -1
    outer loop
      vertex 13.25 10 0
      vertex 0 0 0
      vertex 0 10 0
    endloop
  endfacet
  facet normal 0 0 -1
    outer loop
      vertex 21.5863 68.2088 0
      vertex 30 80 0
      vertex 21.6 68 0
    endloop
  endfacet
  facet normal 0 0 -1
    outer loop
      vertex 21.5455 68.4141 0
      vertex 30 80 0
      vertex 21.5863 68.2088 0
    endloop
  endfacet
  facet normal 0 0 -1
    outer loop
      vertex 21.4782 68.6123 0
      vertex 30 80 0
      vertex 21.5455 68.4141 0
    endloop
  endfacet
  facet normal 0 0 -1
    outer loop
      vertex 21.3856 68.8 0
      vertex 30 80 0
      vertex 21.4782 68.6123 0
    endloop
  endfacet
  facet normal 0 0 -1
    outer loop
      vertex 21.2694 68.974 0
      vertex 30 80 0
      vertex 21.3856 68.8 0
    endloop
  endfacet
  facet normal 0 0 -1
    outer loop
      vertex 21.1314 69.1314 0
      vertex 30 80 0
      vertex 21.2694 68.974 0
    endloop
  endfacet
  facet normal 0 0 -1
    outer loop
      vertex 20.974 69.2694 0
      vertex 30 80 0
      vertex 21.1314 69.1314 0
    endloop
  endfacet
  facet normal 0 0 -1
    outer loop
      vertex 20.8 69.3856 0
      vertex 30 80 0
      vertex 20.974 69.2694 0
    endloop
  endfacet
  facet normal 0 0 -1
    outer loop
      vertex 20.6123 69.4782 0
      vertex 30 80 0
      vertex 20.8 69.3856 0
    endloop
  endfacet
  facet normal 0 0 -1
    outer loop
      vertex 20.4141 69.5455 0
      vertex 30 80 0
      vertex 20.6123 69.4782 0
    endloop
  endfacet
  facet normal 0 0 -1
    outer loop
      vertex 20.2088 69.5863 0
      vertex 30 80 0
      vertex 20.4141 69.5455 0
    endloop
  endfacet
  facet normal 0 0 -1
    outer loop
      vertex 20 69.6 0
      vertex 30 80 0
      vertex 20.2088 69.5863 0
    endloop
  endfacet
  facet normal 0 0 -1
    outer loop
      vertex 19.7912 69.5863 0
      vertex 30 80 0
      vertex 20 69.6 0
    endloop
  endfacet
  facet normal 0 0 -1
    outer loop
      vertex 13.25 70 0
      vertex 19.7912 69.5863 0
      vertex 19.5859 69.5455 0
    endloop
  endfacet
  facet normal 0 0 -1
    outer loop
      vertex 13.25 70 0
      vertex 19.5859 69.5455 0
      vertex 19.3877 69.4782 0
    endloop
  endfacet
  facet normal 0 0 -1
    outer loop
      vertex 13.25 70 0
      vertex 19.3877 69.4782 0
      vertex 19.2 69.3856 0
    endloop
  endfacet
  facet normal 0 0 -1
    outer loop
      vertex 13.25 70 0
      vertex 19.2 69.3856 0
      vertex 19.026 69.2694 0
    endloop
  endfacet
  facet normal 0 0 -1
    outer loop
      vertex 13.25 70 0
      vertex 19.026 69.2694 0
      vertex 18.8686 69.1314 0
    endloop
  endfacet
  facet normal 0 0 -1
    outer loop
      vertex 18.4137 67.7912 0
      vertex 13.25 70 0
      vertex 18.4 68 0
    endloop
  endfacet
  facet normal 0 0 -1
    outer loop
      vertex 18.4 68 0
      vertex 13.25 70 0
      vertex 18.4137 68.2088 0
    endloop
  endfacet
  facet normal 0 0 -1
    outer loop
      vertex 13.25 70 0
      vertex 18.4545 68.4141 0
      vertex 18.4137 68.2088 0
    endloop
  endfacet
  facet normal 0 0 -1
    outer loop
      vertex 13.25 70 0
      vertex 18.5218 68.6123 0
      vertex 18.4545 68.4141 0
    endloop
  endfacet
  facet normal 0 0 -1
    outer loop
      vertex 13.25 70 0
      vertex 18.6144 68.8 0
      vertex 18.5218 68.6123 0
    endloop
  endfacet
  facet normal 0 0 -1
    outer loop
      vertex 13.25 70 0
      vertex 18.7306 68.974 0
      vertex 18.6144 68.8 0
    endloop
  endfacet
  facet normal 0 0 -1
    outer loop
      vertex 13.25 70 0
      vertex 18.8686 69.1314 0
      vertex 18.7306 68.974 0
    endloop
  endfacet
  facet normal 0 0 -1
    outer loop
      vertex 19.7912 69.5863 0
      vertex 13.25 70 0
      vertex 30 80 0
    endloop
  endfacet
  facet normal 0 0 -1
    outer loop
      vertex 0 80 0
      vertex 13.25 70 0
      vertex 0 70 0
    endloop
  endfacet
  facet normal 0 0 -1
    outer loop
      vertex 13.25 70 0
      vertex 0 80 0
      vertex 30 80 0
    endloop
  endfacet
  facet normal 0 -1 0
    outer loop
      vertex 0 0 0
      vertex 30 0 4.8
      vertex 0 0 4.8
    endloop
  endfacet
  facet normal 0 -1 -0
    outer loop
      vertex 30 0 4.8
      vertex 0 0 0
      vertex 30 0 0
    endloop
  endfacet
  facet normal -1 0 0
    outer loop
      vertex 13.25 10 0
      vertex 13.25 70 4.8
      vertex 13.25 70 0
    endloop
  endfacet
  facet normal -1 -0 0
    outer loop
      vertex 13.25 70 4.8
      vertex 13.25 10 0
      vertex 13.25 10 4.8
    endloop
  endfacet
  facet normal 0 -1 0
    outer loop
      vertex 0 70 0
      vertex 13.25 70 4.8
      vertex 0 70 4.8
    endloop
  endfacet
  facet normal 0 -1 -0
    outer loop
      vertex 13.25 70 4.8
      vertex 0 70 0
      vertex 13.25 70 0
    endloop
  endfacet
  facet normal 0 1 -0
    outer loop
      vertex 13.25 10 0
      vertex 0 10 4.8
      vertex 13.25 10 4.8
    endloop
  endfacet
  facet normal 0 1 0
    outer loop
      vertex 0 10 4.8
      vertex 13.25 10 0
      vertex 0 10 0
    endloop
  endfacet
  facet normal -0.997854 -0.0654722 0
    outer loop
      vertex 21.6 68 0
      vertex 21.5863 68.2088 4.8
      vertex 21.5863 68.2088 0
    endloop
  endfacet
  facet normal -0.997854 -0.0654722 0
    outer loop
      vertex 21.5863 68.2088 4.8
      vertex 21.6 68 0
      vertex 21.6 68 4.8
    endloop
  endfacet
  facet normal 0.0654722 -0.997854 0
    outer loop
      vertex 19.7912 69.5863 0
      vertex 20 69.6 4.8
      vertex 19.7912 69.5863 4.8
    endloop
  endfacet
  facet normal 0.0654722 -0.997854 0
    outer loop
      vertex 20 69.6 4.8
      vertex 19.7912 69.5863 0
      vertex 20 69.6 0
    endloop
  endfacet
  facet normal -0.659248 -0.751925 0
    outer loop
      vertex 20.974 69.2694 0
      vertex 21.1314 69.1314 4.8
      vertex 20.974 69.2694 4.8
    endloop
  endfacet
  facet normal -0.659248 -0.751925 -0
    outer loop
      vertex 21.1314 69.1314 4.8
      vertex 20.974 69.2694 0
      vertex 21.1314 69.1314 0
    endloop
  endfacet
  facet normal 0.751925 -0.659248 0
    outer loop
      vertex 18.7306 68.974 4.8
      vertex 18.8686 69.1314 0
      vertex 18.8686 69.1314 4.8
    endloop
  endfacet
  facet normal 0.751925 -0.659248 0
    outer loop
      vertex 18.8686 69.1314 0
      vertex 18.7306 68.974 4.8
      vertex 18.7306 68.974 0
    endloop
  endfacet
  facet normal 0.442429 -0.896803 0
    outer loop
      vertex 19.2 69.3856 0
      vertex 19.3877 69.4782 4.8
      vertex 19.2 69.3856 4.8
    endloop
  endfacet
  facet normal 0.442429 -0.896803 0
    outer loop
      vertex 19.3877 69.4782 4.8
      vertex 19.2 69.3856 0
      vertex 19.3877 69.4782 0
    endloop
  endfacet
  facet normal -0.896803 -0.442429 0
    outer loop
      vertex 21.4782 68.6123 0
      vertex 21.3856 68.8 4.8
      vertex 21.3856 68.8 0
    endloop
  endfacet
  facet normal -0.896803 -0.442429 0
    outer loop
      vertex 21.3856 68.8 4.8
      vertex 21.4782 68.6123 0
      vertex 21.4782 68.6123 4.8
    endloop
  endfacet
  facet normal -0.831609 -0.555362 0
    outer loop
      vertex 21.3856 68.8 0
      vertex 21.2694 68.974 4.8
      vertex 21.2694 68.974 0
    endloop
  endfacet
  facet normal -0.831609 -0.555362 0
    outer loop
      vertex 21.2694 68.974 4.8
      vertex 21.3856 68.8 0
      vertex 21.3856 68.8 4.8
    endloop
  endfacet
  facet normal -0.321526 -0.946901 0
    outer loop
      vertex 20.4141 69.5455 0
      vertex 20.6123 69.4782 4.8
      vertex 20.4141 69.5455 4.8
    endloop
  endfacet
  facet normal -0.321526 -0.946901 -0
    outer loop
      vertex 20.6123 69.4782 4.8
      vertex 20.4141 69.5455 0
      vertex 20.6123 69.4782 0
    endloop
  endfacet
  facet normal -0.194922 -0.980819 0
    outer loop
      vertex 20.2088 69.5863 0
      vertex 20.4141 69.5455 4.8
      vertex 20.2088 69.5863 4.8
    endloop
  endfacet
  facet normal -0.194922 -0.980819 -0
    outer loop
      vertex 20.4141 69.5455 4.8
      vertex 20.2088 69.5863 0
      vertex 20.4141 69.5455 0
    endloop
  endfacet
  facet normal -0.442429 -0.896803 0
    outer loop
      vertex 20.6123 69.4782 0
      vertex 20.8 69.3856 4.8
      vertex 20.6123 69.4782 4.8
    endloop
  endfacet
  facet normal -0.442429 -0.896803 -0
    outer loop
      vertex 20.8 69.3856 4.8
      vertex 20.6123 69.4782 0
      vertex 20.8 69.3856 0
    endloop
  endfacet
  facet normal 0.946901 -0.321526 0
    outer loop
      vertex 18.4545 68.4141 4.8
      vertex 18.5218 68.6123 0
      vertex 18.5218 68.6123 4.8
    endloop
  endfacet
  facet normal 0.946901 -0.321526 0
    outer loop
      vertex 18.5218 68.6123 0
      vertex 18.4545 68.4141 4.8
      vertex 18.4545 68.4141 0
    endloop
  endfacet
  facet normal 0.980819 -0.194922 0
    outer loop
      vertex 18.4137 68.2088 4.8
      vertex 18.4545 68.4141 0
      vertex 18.4545 68.4141 4.8
    endloop
  endfacet
  facet normal 0.980819 -0.194922 0
    outer loop
      vertex 18.4545 68.4141 0
      vertex 18.4137 68.2088 4.8
      vertex 18.4137 68.2088 0
    endloop
  endfacet
  facet normal 0.555362 -0.831609 0
    outer loop
      vertex 19.026 69.2694 0
      vertex 19.2 69.3856 4.8
      vertex 19.026 69.2694 4.8
    endloop
  endfacet
  facet normal 0.555362 -0.831609 0
    outer loop
      vertex 19.2 69.3856 4.8
      vertex 19.026 69.2694 0
      vertex 19.2 69.3856 0
    endloop
  endfacet
  facet normal 0.321526 -0.946901 0
    outer loop
      vertex 19.3877 69.4782 0
      vertex 19.5859 69.5455 4.8
      vertex 19.3877 69.4782 4.8
    endloop
  endfacet
  facet normal 0.321526 -0.946901 0
    outer loop
      vertex 19.5859 69.5455 4.8
      vertex 19.3877 69.4782 0
      vertex 19.5859 69.5455 0
    endloop
  endfacet
  facet normal -0.555362 0.831609 0
    outer loop
      vertex 20.974 66.7306 0
      vertex 20.8 66.6144 4.8
      vertex 20.974 66.7306 4.8
    endloop
  endfacet
  facet normal -0.555362 0.831609 0
    outer loop
      vertex 20.8 66.6144 4.8
      vertex 20.974 66.7306 0
      vertex 20.8 66.6144 0
    endloop
  endfacet
  facet normal -0.980819 0.194922 0
    outer loop
      vertex 21.5455 67.5859 0
      vertex 21.5863 67.7912 4.8
      vertex 21.5863 67.7912 0
    endloop
  endfacet
  facet normal -0.980819 0.194922 0
    outer loop
      vertex 21.5863 67.7912 4.8
      vertex 21.5455 67.5859 0
      vertex 21.5455 67.5859 4.8
    endloop
  endfacet
  facet normal 0.194922 0.980819 -0
    outer loop
      vertex 19.7912 66.4137 0
      vertex 19.5859 66.4545 4.8
      vertex 19.7912 66.4137 4.8
    endloop
  endfacet
  facet normal 0.194922 0.980819 0
    outer loop
      vertex 19.5859 66.4545 4.8
      vertex 19.7912 66.4137 0
      vertex 19.5859 66.4545 0
    endloop
  endfacet
  facet normal 0.831609 0.555362 0
    outer loop
      vertex 18.7306 67.026 4.8
      vertex 18.6144 67.2 0
      vertex 18.6144 67.2 4.8
    endloop
  endfacet
  facet normal 0.831609 0.555362 0
    outer loop
      vertex 18.6144 67.2 0
      vertex 18.7306 67.026 4.8
      vertex 18.7306 67.026 0
    endloop
  endfacet
  facet normal -0.946901 -0.321526 0
    outer loop
      vertex 21.5455 68.4141 0
      vertex 21.4782 68.6123 4.8
      vertex 21.4782 68.6123 0
    endloop
  endfacet
  facet normal -0.946901 -0.321526 0
    outer loop
      vertex 21.4782 68.6123 4.8
      vertex 21.5455 68.4141 0
      vertex 21.5455 68.4141 4.8
    endloop
  endfacet
  facet normal -0.980819 -0.194922 0
    outer loop
      vertex 21.5863 68.2088 0
      vertex 21.5455 68.4141 4.8
      vertex 21.5455 68.4141 0
    endloop
  endfacet
  facet normal -0.980819 -0.194922 0
    outer loop
      vertex 21.5455 68.4141 4.8
      vertex 21.5863 68.2088 0
      vertex 21.5863 68.2088 4.8
    endloop
  endfacet
  facet normal -0.751925 -0.659248 0
    outer loop
      vertex 21.2694 68.974 0
      vertex 21.1314 69.1314 4.8
      vertex 21.1314 69.1314 0
    endloop
  endfacet
  facet normal -0.751925 -0.659248 0
    outer loop
      vertex 21.1314 69.1314 4.8
      vertex 21.2694 68.974 0
      vertex 21.2694 68.974 4.8
    endloop
  endfacet
  facet normal -0.0654722 -0.997854 0
    outer loop
      vertex 20 69.6 0
      vertex 20.2088 69.5863 4.8
      vertex 20 69.6 4.8
    endloop
  endfacet
  facet normal -0.0654722 -0.997854 -0
    outer loop
      vertex 20.2088 69.5863 4.8
      vertex 20 69.6 0
      vertex 20.2088 69.5863 0
    endloop
  endfacet
  facet normal -0.555362 -0.831609 0
    outer loop
      vertex 20.8 69.3856 0
      vertex 20.974 69.2694 4.8
      vertex 20.8 69.3856 4.8
    endloop
  endfacet
  facet normal -0.555362 -0.831609 -0
    outer loop
      vertex 20.974 69.2694 4.8
      vertex 20.8 69.3856 0
      vertex 20.974 69.2694 0
    endloop
  endfacet
  facet normal 0.896803 -0.442429 0
    outer loop
      vertex 18.5218 68.6123 4.8
      vertex 18.6144 68.8 0
      vertex 18.6144 68.8 4.8
    endloop
  endfacet
  facet normal 0.896803 -0.442429 0
    outer loop
      vertex 18.6144 68.8 0
      vertex 18.5218 68.6123 4.8
      vertex 18.5218 68.6123 0
    endloop
  endfacet
  facet normal 0.831609 -0.555362 0
    outer loop
      vertex 18.6144 68.8 4.8
      vertex 18.7306 68.974 0
      vertex 18.7306 68.974 4.8
    endloop
  endfacet
  facet normal 0.831609 -0.555362 0
    outer loop
      vertex 18.7306 68.974 0
      vertex 18.6144 68.8 4.8
      vertex 18.6144 68.8 0
    endloop
  endfacet
  facet normal 0.997854 -0.0654722 0
    outer loop
      vertex 18.4 68 4.8
      vertex 18.4137 68.2088 0
      vertex 18.4137 68.2088 4.8
    endloop
  endfacet
  facet normal 0.997854 -0.0654722 0
    outer loop
      vertex 18.4137 68.2088 0
      vertex 18.4 68 4.8
      vertex 18.4 68 0
    endloop
  endfacet
  facet normal 0.659248 -0.751925 0
    outer loop
      vertex 18.8686 69.1314 0
      vertex 19.026 69.2694 4.8
      vertex 18.8686 69.1314 4.8
    endloop
  endfacet
  facet normal 0.659248 -0.751925 0
    outer loop
      vertex 19.026 69.2694 4.8
      vertex 18.8686 69.1314 0
      vertex 19.026 69.2694 0
    endloop
  endfacet
  facet normal 0.194922 -0.980819 0
    outer loop
      vertex 19.5859 69.5455 0
      vertex 19.7912 69.5863 4.8
      vertex 19.5859 69.5455 4.8
    endloop
  endfacet
  facet normal 0.194922 -0.980819 0
    outer loop
      vertex 19.7912 69.5863 4.8
      vertex 19.5859 69.5455 0
      vertex 19.7912 69.5863 0
    endloop
  endfacet
  facet normal -0.997854 0.0654722 0
    outer loop
      vertex 21.5863 67.7912 0
      vertex 21.6 68 4.8
      vertex 21.6 68 0
    endloop
  endfacet
  facet normal -0.997854 0.0654722 0
    outer loop
      vertex 21.6 68 4.8
      vertex 21.5863 67.7912 0
      vertex 21.5863 67.7912 4.8
    endloop
  endfacet
  facet normal -0.194922 0.980819 0
    outer loop
      vertex 20.4141 66.4545 0
      vertex 20.2088 66.4137 4.8
      vertex 20.4141 66.4545 4.8
    endloop
  endfacet
  facet normal -0.194922 0.980819 0
    outer loop
      vertex 20.2088 66.4137 4.8
      vertex 20.4141 66.4545 0
      vertex 20.2088 66.4137 0
    endloop
  endfacet
  facet normal -0.442429 0.896803 0
    outer loop
      vertex 20.8 66.6144 0
      vertex 20.6123 66.5218 4.8
      vertex 20.8 66.6144 4.8
    endloop
  endfacet
  facet normal -0.442429 0.896803 0
    outer loop
      vertex 20.6123 66.5218 4.8
      vertex 20.8 66.6144 0
      vertex 20.6123 66.5218 0
    endloop
  endfacet
  facet normal -0.659248 0.751925 0
    outer loop
      vertex 21.1314 66.8686 0
      vertex 20.974 66.7306 4.8
      vertex 21.1314 66.8686 4.8
    endloop
  endfacet
  facet normal -0.659248 0.751925 0
    outer loop
      vertex 20.974 66.7306 4.8
      vertex 21.1314 66.8686 0
      vertex 20.974 66.7306 0
    endloop
  endfacet
  facet normal -0.831609 0.555362 0
    outer loop
      vertex 21.2694 67.026 0
      vertex 21.3856 67.2 4.8
      vertex 21.3856 67.2 0
    endloop
  endfacet
  facet normal -0.831609 0.555362 0
    outer loop
      vertex 21.3856 67.2 4.8
      vertex 21.2694 67.026 0
      vertex 21.2694 67.026 4.8
    endloop
  endfacet
  facet normal -0.946901 0.321526 0
    outer loop
      vertex 21.4782 67.3877 0
      vertex 21.5455 67.5859 4.8
      vertex 21.5455 67.5859 0
    endloop
  endfacet
  facet normal -0.946901 0.321526 0
    outer loop
      vertex 21.5455 67.5859 4.8
      vertex 21.4782 67.3877 0
      vertex 21.4782 67.3877 4.8
    endloop
  endfacet
  facet normal 0.555362 0.831609 -0
    outer loop
      vertex 19.2 66.6144 0
      vertex 19.026 66.7306 4.8
      vertex 19.2 66.6144 4.8
    endloop
  endfacet
  facet normal 0.555362 0.831609 0
    outer loop
      vertex 19.026 66.7306 4.8
      vertex 19.2 66.6144 0
      vertex 19.026 66.7306 0
    endloop
  endfacet
  facet normal 0.321526 0.946901 -0
    outer loop
      vertex 19.5859 66.4545 0
      vertex 19.3877 66.5218 4.8
      vertex 19.5859 66.4545 4.8
    endloop
  endfacet
  facet normal 0.321526 0.946901 0
    outer loop
      vertex 19.3877 66.5218 4.8
      vertex 19.5859 66.4545 0
      vertex 19.3877 66.5218 0
    endloop
  endfacet
  facet normal 0.0654722 0.997854 -0
    outer loop
      vertex 20 66.4 0
      vertex 19.7912 66.4137 4.8
      vertex 20 66.4 4.8
    endloop
  endfacet
  facet normal 0.0654722 0.997854 0
    outer loop
      vertex 19.7912 66.4137 4.8
      vertex 20 66.4 0
      vertex 19.7912 66.4137 0
    endloop
  endfacet
  facet normal 0.751925 0.659248 0
    outer loop
      vertex 18.8686 66.8686 4.8
      vertex 18.7306 67.026 0
      vertex 18.7306 67.026 4.8
    endloop
  endfacet
  facet normal 0.751925 0.659248 0
    outer loop
      vertex 18.7306 67.026 0
      vertex 18.8686 66.8686 4.8
      vertex 18.8686 66.8686 0
    endloop
  endfacet
  facet normal 0.896803 0.442429 0
    outer loop
      vertex 18.6144 67.2 4.8
      vertex 18.5218 67.3877 0
      vertex 18.5218 67.3877 4.8
    endloop
  endfacet
  facet normal 0.896803 0.442429 0
    outer loop
      vertex 18.5218 67.3877 0
      vertex 18.6144 67.2 4.8
      vertex 18.6144 67.2 0
    endloop
  endfacet
  facet normal 0.980819 0.194922 0
    outer loop
      vertex 18.4545 67.5859 4.8
      vertex 18.4137 67.7912 0
      vertex 18.4137 67.7912 4.8
    endloop
  endfacet
  facet normal 0.980819 0.194922 0
    outer loop
      vertex 18.4137 67.7912 0
      vertex 18.4545 67.5859 4.8
      vertex 18.4545 67.5859 0
    endloop
  endfacet
  facet normal 0.997854 0.0654722 0
    outer loop
      vertex 18.4137 67.7912 4.8
      vertex 18.4 68 0
      vertex 18.4 68 4.8
    endloop
  endfacet
  facet normal 0.997854 0.0654722 0
    outer loop
      vertex 18.4 68 0
      vertex 18.4137 67.7912 4.8
      vertex 18.4137 67.7912 0
    endloop
  endfacet
  facet normal -0.321526 0.946901 0
    outer loop
      vertex 20.6123 66.5218 0
      vertex 20.4141 66.4545 4.8
      vertex 20.6123 66.5218 4.8
    endloop
  endfacet
  facet normal -0.321526 0.946901 0
    outer loop
      vertex 20.4141 66.4545 4.8
      vertex 20.6123 66.5218 0
      vertex 20.4141 66.4545 0
    endloop
  endfacet
  facet normal -0.751925 0.659248 0
    outer loop
      vertex 21.1314 66.8686 0
      vertex 21.2694 67.026 4.8
      vertex 21.2694 67.026 0
    endloop
  endfacet
  facet normal -0.751925 0.659248 0
    outer loop
      vertex 21.2694 67.026 4.8
      vertex 21.1314 66.8686 0
      vertex 21.1314 66.8686 4.8
    endloop
  endfacet
  facet normal -0.896803 0.442429 0
    outer loop
      vertex 21.3856 67.2 0
      vertex 21.4782 67.3877 4.8
      vertex 21.4782 67.3877 0
    endloop
  endfacet
  facet normal -0.896803 0.442429 0
    outer loop
      vertex 21.4782 67.3877 4.8
      vertex 21.3856 67.2 0
      vertex 21.3856 67.2 4.8
    endloop
  endfacet
  facet normal 0.442429 0.896803 -0
    outer loop
      vertex 19.3877 66.5218 0
      vertex 19.2 66.6144 4.8
      vertex 19.3877 66.5218 4.8
    endloop
  endfacet
  facet normal 0.442429 0.896803 0
    outer loop
      vertex 19.2 66.6144 4.8
      vertex 19.3877 66.5218 0
      vertex 19.2 66.6144 0
    endloop
  endfacet
  facet normal -0.0654722 0.997854 0
    outer loop
      vertex 20.2088 66.4137 0
      vertex 20 66.4 4.8
      vertex 20.2088 66.4137 4.8
    endloop
  endfacet
  facet normal -0.0654722 0.997854 0
    outer loop
      vertex 20 66.4 4.8
      vertex 20.2088 66.4137 0
      vertex 20 66.4 0
    endloop
  endfacet
  facet normal 0.659248 0.751925 -0
    outer loop
      vertex 19.026 66.7306 0
      vertex 18.8686 66.8686 4.8
      vertex 19.026 66.7306 4.8
    endloop
  endfacet
  facet normal 0.659248 0.751925 0
    outer loop
      vertex 18.8686 66.8686 4.8
      vertex 19.026 66.7306 0
      vertex 18.8686 66.8686 0
    endloop
  endfacet
  facet normal 0.946901 0.321526 0
    outer loop
      vertex 18.5218 67.3877 4.8
      vertex 18.4545 67.5859 0
      vertex 18.4545 67.5859 4.8
    endloop
  endfacet
  facet normal 0.946901 0.321526 0
    outer loop
      vertex 18.4545 67.5859 0
      vertex 18.5218 67.3877 4.8
      vertex 18.5218 67.3877 0
    endloop
  endfacet
endsolid OpenSCAD_Model
