solid OpenSCAD_Model
  facet normal -1 0 0
    outer loop
      vertex 9.9 10 0
      vertex 9.9 70 3.2
      vertex 9.9 70 0
    endloop
  endfacet
  facet normal -1 -0 0
    outer loop
      vertex 9.9 70 3.2
      vertex 9.9 10 0
      vertex 9.9 10 3.2
    endloop
  endfacet
  facet normal 0 0 1
    outer loop
      vertex 26 80 3.2
      vertex 16.1 70 3.2
      vertex 26 70 3.2
    endloop
  endfacet
  facet normal 0 0 1
    outer loop
      vertex 16.1 70 3.2
      vertex 9.9 70 3.2
      vertex 16.1 10 3.2
    endloop
  endfacet
  facet normal 0 0 1
    outer loop
      vertex 26 80 3.2
      vertex 9.9 70 3.2
      vertex 16.1 70 3.2
    endloop
  endfacet
  facet normal -0 0 1
    outer loop
      vertex 0 80 3.2
      vertex 9.9 70 3.2
      vertex 26 80 3.2
    endloop
  endfacet
  facet normal 0 0 1
    outer loop
      vertex 9.9 70 3.2
      vertex 0 80 3.2
      vertex 0 70 3.2
    endloop
  endfacet
  facet normal -0 0 1
    outer loop
      vertex 16.1 10 3.2
      vertex 26 0 3.2
      vertex 26 10 3.2
    endloop
  endfacet
  facet normal 0 0 1
    outer loop
      vertex 9.9 10 3.2
      vertex 16.1 10 3.2
      vertex 9.9 70 3.2
    endloop
  endfacet
  facet normal -0 0 1
    outer loop
      vertex 9.9 10 3.2
      vertex 26 0 3.2
      vertex 16.1 10 3.2
    endloop
  endfacet
  facet normal 0 0 1
    outer loop
      vertex 0 0 3.2
      vertex 9.9 10 3.2
      vertex 0 10 3.2
    endloop
  endfacet
  facet normal 0 0 1
    outer loop
      vertex 9.9 10 3.2
      vertex 0 0 3.2
      vertex 26 0 3.2
    endloop
  endfacet
  facet normal 1 -0 0
    outer loop
      vertex 16.1 10 3.2
      vertex 16.1 70 0
      vertex 16.1 70 3.2
    endloop
  endfacet
  facet normal 1 0 0
    outer loop
      vertex 16.1 70 0
      vertex 16.1 10 3.2
      vertex 16.1 10 0
    endloop
  endfacet
  facet normal 0 -1 0
    outer loop
      vertex 16.1 70 0
      vertex 26 70 3.2
      vertex 16.1 70 3.2
    endloop
  endfacet
  facet normal 0 -1 -0
    outer loop
      vertex 26 70 3.2
      vertex 16.1 70 0
      vertex 26 70 0
    endloop
  endfacet
  facet normal 0 -1 0
    outer loop
      vertex 0 70 0
      vertex 9.9 70 3.2
      vertex 0 70 3.2
    endloop
  endfacet
  facet normal 0 -1 -0
    outer loop
      vertex 9.9 70 3.2
      vertex 0 70 0
      vertex 9.9 70 0
    endloop
  endfacet
  facet normal 0 0 -1
    outer loop
      vertex 26 0 0
      vertex 16.1 10 0
      vertex 26 10 0
    endloop
  endfacet
  facet normal 0 0 -1
    outer loop
      vertex 16.1 10 0
      vertex 9.9 10 0
      vertex 16.1 70 0
    endloop
  endfacet
  facet normal 0 0 -1
    outer loop
      vertex 26 0 0
      vertex 9.9 10 0
      vertex 16.1 10 0
    endloop
  endfacet
  facet normal 0 0 -1
    outer loop
      vertex 0 0 0
      vertex 9.9 10 0
      vertex 26 0 0
    endloop
  endfacet
  facet normal -0 0 -1
    outer loop
      vertex 9.9 10 0
      vertex 0 0 0
      vertex 0 10 0
    endloop
  endfacet
  facet normal 0 0 -1
    outer loop
      vertex 16.1 70 0
      vertex 26 80 0
      vertex 26 70 0
    endloop
  endfacet
  facet normal 0 0 -1
    outer loop
      vertex 9.9 70 0
      vertex 16.1 70 0
      vertex 9.9 10 0
    endloop
  endfacet
  facet normal 0 0 -1
    outer loop
      vertex 9.9 70 0
      vertex 26 80 0
      vertex 16.1 70 0
    endloop
  endfacet
  facet normal 0 0 -1
    outer loop
      vertex 0 80 0
      vertex 9.9 70 0
      vertex 0 70 0
    endloop
  endfacet
  facet normal 0 0 -1
    outer loop
      vertex 9.9 70 0
      vertex 0 80 0
      vertex 26 80 0
    endloop
  endfacet
  facet normal 0 1 -0
    outer loop
      vertex 26 10 0
      vertex 16.1 10 3.2
      vertex 26 10 3.2
    endloop
  endfacet
  facet normal 0 1 0
    outer loop
      vertex 16.1 10 3.2
      vertex 26 10 0
      vertex 16.1 10 0
    endloop
  endfacet
  facet normal 0 1 -0
    outer loop
      vertex 9.9 10 0
      vertex 0 10 3.2
      vertex 9.9 10 3.2
    endloop
  endfacet
  facet normal 0 1 0
    outer loop
      vertex 0 10 3.2
      vertex 9.9 10 0
      vertex 0 10 0
    endloop
  endfacet
  facet normal -1 0 0
    outer loop
      vertex 0 0 0
      vertex 0 10 3.2
      vertex 0 10 0
    endloop
  endfacet
  facet normal -1 -0 0
    outer loop
      vertex 0 10 3.2
      vertex 0 0 0
      vertex 0 0 3.2
    endloop
  endfacet
  facet normal 1 -0 0
    outer loop
      vertex 26 0 3.2
      vertex 26 10 0
      vertex 26 10 3.2
    endloop
  endfacet
  facet normal 1 0 0
    outer loop
      vertex 26 10 0
      vertex 26 0 3.2
      vertex 26 0 0
    endloop
  endfacet
  facet normal 0 -1 0
    outer loop
      vertex 0 0 0
      vertex 26 0 3.2
      vertex 0 0 3.2
    endloop
  endfacet
  facet normal 0 -1 -0
    outer loop
      vertex 26 0 3.2
      vertex 0 0 0
      vertex 26 0 0
    endloop
  endfacet
  facet normal -1 0 0
    outer loop
      vertex 0 70 0
      vertex 0 80 3.2
      vertex 0 80 0
    endloop
  endfacet
  facet normal -1 -0 0
    outer loop
      vertex 0 80 3.2
      vertex 0 70 0
      vertex 0 70 3.2
    endloop
  endfacet
  facet normal 1 -0 0
    outer loop
      vertex 26 70 3.2
      vertex 26 80 0
      vertex 26 80 3.2
    endloop
  endfacet
  facet normal 1 0 0
    outer loop
      vertex 26 80 0
      vertex 26 70 3.2
      vertex 26 70 0
    endloop
  endfacet
  facet normal 0 1 -0
    outer loop
      vertex 26 80 0
      vertex 0 80 3.2
      vertex 26 80 3.2
    endloop
  endfacet
  facet normal 0 1 0
    outer loop
      vertex 0 80 3.2
      vertex 26 80 0
      vertex 0 80 0
    endloop
  endfacet
endsolid OpenSCAD_Model
