solid OpenSCAD_Model
  facet normal 0 0 -1
    outer loop
      vertex -6.10352e-06 -3.05176e-06 0
      vertex 6.19999 203.6 0
      vertex 6.19999 -3.05176e-06 0
    endloop
  endfacet
  facet normal -0 0 -1
    outer loop
      vertex 6.19999 203.6 0
      vertex -6.10352e-06 -3.05176e-06 0
      vertex -6.10352e-06 203.6 0
    endloop
  endfacet
  facet normal -1 0 0
    outer loop
      vertex -6.10352e-06 -3.05176e-06 0
      vertex -6.10352e-06 203.6 1
      vertex -6.10352e-06 203.6 0
    endloop
  endfacet
  facet normal -1 -0 0
    outer loop
      vertex -6.10352e-06 203.6 1
      vertex -6.10352e-06 -3.05176e-06 0
      vertex -6.10352e-06 -3.05176e-06 1
    endloop
  endfacet
  facet normal 1 -0 0
    outer loop
      vertex 6.19999 -3.05176e-06 1
      vertex 6.19999 203.6 0
      vertex 6.19999 203.6 1
    endloop
  endfacet
  facet normal 1 0 0
    outer loop
      vertex 6.19999 203.6 0
      vertex 6.19999 -3.05176e-06 1
      vertex 6.19999 -3.05176e-06 0
    endloop
  endfacet
  facet normal 0 1 -0
    outer loop
      vertex 6.19999 203.6 0
      vertex -6.10352e-06 203.6 1
      vertex 6.19999 203.6 1
    endloop
  endfacet
  facet normal 0 1 0
    outer loop
      vertex -6.10352e-06 203.6 1
      vertex 6.19999 203.6 0
      vertex -6.10352e-06 203.6 0
    endloop
  endfacet
  facet normal 0 -1 0
    outer loop
      vertex -6.10352e-06 -3.05176e-06 0
      vertex 6.19999 -3.05176e-06 1
      vertex -6.10352e-06 -3.05176e-06 1
    endloop
  endfacet
  facet normal 0 -1 -0
    outer loop
      vertex 6.19999 -3.05176e-06 1
      vertex -6.10352e-06 -3.05176e-06 0
      vertex 6.19999 -3.05176e-06 0
    endloop
  endfacet
  facet normal -0 0 1
    outer loop
      vertex -6.10352e-06 203.6 1
      vertex 6.19999 -3.05176e-06 1
      vertex 6.19999 203.6 1
    endloop
  endfacet
  facet normal 0 0 1
    outer loop
      vertex 6.19999 -3.05176e-06 1
      vertex -6.10352e-06 203.6 1
      vertex -6.10352e-06 -3.05176e-06 1
    endloop
  endfacet
endsolid OpenSCAD_Model
