solid OpenSCAD_Model
  facet normal -0.831552 -0.555447 0
    outer loop
      vertex 26.4722 8.85 0
      vertex 26.3487 9.03489 3
      vertex 26.3487 9.03489 0
    endloop
  endfacet
  facet normal -0.831552 -0.555447 0
    outer loop
      vertex 26.3487 9.03489 3
      vertex 26.4722 8.85 0
      vertex 26.4722 8.85 3
    endloop
  endfacet
  facet normal -0.321403 -0.946943 0
    outer loop
      vertex 25.44 9.64207 0
      vertex 25.6506 9.57059 3
      vertex 25.44 9.64207 3
    endloop
  endfacet
  facet normal -0.321403 -0.946943 -0
    outer loop
      vertex 25.6506 9.57059 3
      vertex 25.44 9.64207 0
      vertex 25.6506 9.57059 0
    endloop
  endfacet
  facet normal 0.442349 -0.896843 0
    outer loop
      vertex 24.15 9.47224 0
      vertex 24.3494 9.57059 3
      vertex 24.15 9.47224 3
    endloop
  endfacet
  facet normal 0.442349 -0.896843 0
    outer loop
      vertex 24.3494 9.57059 3
      vertex 24.15 9.47224 0
      vertex 24.3494 9.57059 0
    endloop
  endfacet
  facet normal 0.946901 -0.321525 0
    outer loop
      vertex 23.3579 8.43999 3
      vertex 23.4294 8.65056 0
      vertex 23.4294 8.65056 3
    endloop
  endfacet
  facet normal 0.946901 -0.321525 0
    outer loop
      vertex 23.4294 8.65056 0
      vertex 23.3579 8.43999 3
      vertex 23.3579 8.43999 0
    endloop
  endfacet
  facet normal -0.980769 0.195173 0
    outer loop
      vertex 26.6421 7.56001 0
      vertex 26.6855 7.7781 3
      vertex 26.6855 7.7781 0
    endloop
  endfacet
  facet normal -0.980769 0.195173 0
    outer loop
      vertex 26.6855 7.7781 3
      vertex 26.6421 7.56001 0
      vertex 26.6421 7.56001 3
    endloop
  endfacet
  facet normal -0.98077 -0.195165 0
    outer loop
      vertex 26.6855 8.22189 0
      vertex 26.6421 8.43999 3
      vertex 26.6421 8.43999 0
    endloop
  endfacet
  facet normal -0.98077 -0.195165 0
    outer loop
      vertex 26.6421 8.43999 3
      vertex 26.6855 8.22189 0
      vertex 26.6855 8.22189 3
    endloop
  endfacet
  facet normal 0.0653848 -0.99786 0
    outer loop
      vertex 24.7781 9.68546 0
      vertex 25 9.7 3
      vertex 24.7781 9.68546 3
    endloop
  endfacet
  facet normal 0.0653848 -0.99786 0
    outer loop
      vertex 25 9.7 3
      vertex 24.7781 9.68546 0
      vertex 25 9.7 0
    endloop
  endfacet
  facet normal -0.442349 -0.896843 0
    outer loop
      vertex 25.6506 9.57059 0
      vertex 25.85 9.47224 3
      vertex 25.6506 9.57059 3
    endloop
  endfacet
  facet normal -0.442349 -0.896843 -0
    outer loop
      vertex 25.85 9.47224 3
      vertex 25.6506 9.57059 0
      vertex 25.85 9.47224 0
    endloop
  endfacet
  facet normal 0.997872 0.0652057 0
    outer loop
      vertex 23.3145 7.7781 3
      vertex 23.3 8 0
      vertex 23.3 8 3
    endloop
  endfacet
  facet normal 0.997872 0.0652057 0
    outer loop
      vertex 23.3 8 0
      vertex 23.3145 7.7781 3
      vertex 23.3145 7.7781 0
    endloop
  endfacet
  facet normal 0.831552 -0.555447 0
    outer loop
      vertex 23.5278 8.85 3
      vertex 23.6513 9.03489 0
      vertex 23.6513 9.03489 3
    endloop
  endfacet
  facet normal 0.831552 -0.555447 0
    outer loop
      vertex 23.6513 9.03489 0
      vertex 23.5278 8.85 3
      vertex 23.5278 8.85 0
    endloop
  endfacet
  facet normal 0.555551 -0.831483 0
    outer loop
      vertex 23.9651 9.3487 0
      vertex 24.15 9.47224 3
      vertex 23.9651 9.3487 3
    endloop
  endfacet
  facet normal 0.555551 -0.831483 0
    outer loop
      vertex 24.15 9.47224 3
      vertex 23.9651 9.3487 0
      vertex 24.15 9.47224 0
    endloop
  endfacet
  facet normal 0.195122 -0.980779 0
    outer loop
      vertex 24.56 9.64207 0
      vertex 24.7781 9.68546 3
      vertex 24.56 9.64207 3
    endloop
  endfacet
  facet normal 0.195122 -0.980779 0
    outer loop
      vertex 24.7781 9.68546 3
      vertex 24.56 9.64207 0
      vertex 24.7781 9.68546 0
    endloop
  endfacet
  facet normal -0.997872 -0.0652086 0
    outer loop
      vertex 26.7 8 0
      vertex 26.6855 8.22189 3
      vertex 26.6855 8.22189 0
    endloop
  endfacet
  facet normal -0.997872 -0.0652086 0
    outer loop
      vertex 26.6855 8.22189 3
      vertex 26.7 8 0
      vertex 26.7 8 3
    endloop
  endfacet
  facet normal -0.946901 0.321525 0
    outer loop
      vertex 26.5706 7.34944 0
      vertex 26.6421 7.56001 3
      vertex 26.6421 7.56001 0
    endloop
  endfacet
  facet normal -0.946901 0.321525 0
    outer loop
      vertex 26.6421 7.56001 3
      vertex 26.5706 7.34944 0
      vertex 26.5706 7.34944 3
    endloop
  endfacet
  facet normal 0.555551 0.831483 -0
    outer loop
      vertex 24.15 6.52776 0
      vertex 23.9651 6.6513 3
      vertex 24.15 6.52776 3
    endloop
  endfacet
  facet normal 0.555551 0.831483 0
    outer loop
      vertex 23.9651 6.6513 3
      vertex 24.15 6.52776 0
      vertex 23.9651 6.6513 0
    endloop
  endfacet
  facet normal 0.831552 0.555447 0
    outer loop
      vertex 23.6513 6.96511 3
      vertex 23.5278 7.15 0
      vertex 23.5278 7.15 3
    endloop
  endfacet
  facet normal 0.831552 0.555447 0
    outer loop
      vertex 23.5278 7.15 0
      vertex 23.6513 6.96511 3
      vertex 23.6513 6.96511 0
    endloop
  endfacet
  facet normal -0.555551 0.831483 0
    outer loop
      vertex 26.0349 6.6513 0
      vertex 25.85 6.52776 3
      vertex 26.0349 6.6513 3
    endloop
  endfacet
  facet normal -0.555551 0.831483 0
    outer loop
      vertex 25.85 6.52776 3
      vertex 26.0349 6.6513 0
      vertex 25.85 6.52776 0
    endloop
  endfacet
  facet normal -0.659319 -0.751863 0
    outer loop
      vertex 26.0349 9.3487 0
      vertex 26.2021 9.20208 3
      vertex 26.0349 9.3487 3
    endloop
  endfacet
  facet normal -0.659319 -0.751863 -0
    outer loop
      vertex 26.2021 9.20208 3
      vertex 26.0349 9.3487 0
      vertex 26.2021 9.20208 0
    endloop
  endfacet
  facet normal -0.751888 -0.659291 0
    outer loop
      vertex 26.3487 9.03489 0
      vertex 26.2021 9.20208 3
      vertex 26.2021 9.20208 0
    endloop
  endfacet
  facet normal -0.751888 -0.659291 0
    outer loop
      vertex 26.2021 9.20208 3
      vertex 26.3487 9.03489 0
      vertex 26.3487 9.03489 3
    endloop
  endfacet
  facet normal -0.195122 -0.980779 0
    outer loop
      vertex 25.2219 9.68546 0
      vertex 25.44 9.64207 3
      vertex 25.2219 9.68546 3
    endloop
  endfacet
  facet normal -0.195122 -0.980779 -0
    outer loop
      vertex 25.44 9.64207 3
      vertex 25.2219 9.68546 0
      vertex 25.44 9.64207 0
    endloop
  endfacet
  facet normal -0.0653848 -0.99786 0
    outer loop
      vertex 25 9.7 0
      vertex 25.2219 9.68546 3
      vertex 25 9.7 3
    endloop
  endfacet
  facet normal -0.0653848 -0.99786 -0
    outer loop
      vertex 25.2219 9.68546 3
      vertex 25 9.7 0
      vertex 25.2219 9.68546 0
    endloop
  endfacet
  facet normal -0.555551 -0.831483 0
    outer loop
      vertex 25.85 9.47224 0
      vertex 26.0349 9.3487 3
      vertex 25.85 9.47224 3
    endloop
  endfacet
  facet normal -0.555551 -0.831483 -0
    outer loop
      vertex 26.0349 9.3487 3
      vertex 25.85 9.47224 0
      vertex 26.0349 9.3487 0
    endloop
  endfacet
  facet normal 0.98077 -0.195165 0
    outer loop
      vertex 23.3145 8.22189 3
      vertex 23.3579 8.43999 0
      vertex 23.3579 8.43999 3
    endloop
  endfacet
  facet normal 0.98077 -0.195165 0
    outer loop
      vertex 23.3579 8.43999 0
      vertex 23.3145 8.22189 3
      vertex 23.3145 8.22189 0
    endloop
  endfacet
  facet normal 0.997872 -0.0652086 0
    outer loop
      vertex 23.3 8 3
      vertex 23.3145 8.22189 0
      vertex 23.3145 8.22189 3
    endloop
  endfacet
  facet normal 0.997872 -0.0652086 0
    outer loop
      vertex 23.3145 8.22189 0
      vertex 23.3 8 3
      vertex 23.3 8 0
    endloop
  endfacet
  facet normal 0.896789 -0.442459 0
    outer loop
      vertex 23.4294 8.65056 3
      vertex 23.5278 8.85 0
      vertex 23.5278 8.85 3
    endloop
  endfacet
  facet normal 0.896789 -0.442459 0
    outer loop
      vertex 23.5278 8.85 0
      vertex 23.4294 8.65056 3
      vertex 23.4294 8.65056 0
    endloop
  endfacet
  facet normal 0.321403 -0.946943 0
    outer loop
      vertex 24.3494 9.57059 0
      vertex 24.56 9.64207 3
      vertex 24.3494 9.57059 3
    endloop
  endfacet
  facet normal 0.321403 -0.946943 0
    outer loop
      vertex 24.56 9.64207 3
      vertex 24.3494 9.57059 0
      vertex 24.56 9.64207 0
    endloop
  endfacet
  facet normal 0.659319 -0.751863 0
    outer loop
      vertex 23.7979 9.20208 0
      vertex 23.9651 9.3487 3
      vertex 23.7979 9.20208 3
    endloop
  endfacet
  facet normal 0.659319 -0.751863 0
    outer loop
      vertex 23.9651 9.3487 3
      vertex 23.7979 9.20208 0
      vertex 23.9651 9.3487 0
    endloop
  endfacet
  facet normal 0.751888 -0.659291 0
    outer loop
      vertex 23.6513 9.03489 3
      vertex 23.7979 9.20208 0
      vertex 23.7979 9.20208 3
    endloop
  endfacet
  facet normal 0.751888 -0.659291 0
    outer loop
      vertex 23.7979 9.20208 0
      vertex 23.6513 9.03489 3
      vertex 23.6513 9.03489 0
    endloop
  endfacet
  facet normal -0.0653848 0.99786 0
    outer loop
      vertex 25.2219 6.31454 0
      vertex 25 6.3 3
      vertex 25.2219 6.31454 3
    endloop
  endfacet
  facet normal -0.0653848 0.99786 0
    outer loop
      vertex 25 6.3 3
      vertex 25.2219 6.31454 0
      vertex 25 6.3 0
    endloop
  endfacet
  facet normal 0.751888 0.659291 0
    outer loop
      vertex 23.7979 6.79792 3
      vertex 23.6513 6.96511 0
      vertex 23.6513 6.96511 3
    endloop
  endfacet
  facet normal 0.751888 0.659291 0
    outer loop
      vertex 23.6513 6.96511 0
      vertex 23.7979 6.79792 3
      vertex 23.7979 6.79792 0
    endloop
  endfacet
  facet normal -0.195122 0.980779 0
    outer loop
      vertex 25.44 6.35793 0
      vertex 25.2219 6.31454 3
      vertex 25.44 6.35793 3
    endloop
  endfacet
  facet normal -0.195122 0.980779 0
    outer loop
      vertex 25.2219 6.31454 3
      vertex 25.44 6.35793 0
      vertex 25.2219 6.31454 0
    endloop
  endfacet
  facet normal -0.751888 0.659291 0
    outer loop
      vertex 26.2021 6.79792 0
      vertex 26.3487 6.96511 3
      vertex 26.3487 6.96511 0
    endloop
  endfacet
  facet normal -0.751888 0.659291 0
    outer loop
      vertex 26.3487 6.96511 3
      vertex 26.2021 6.79792 0
      vertex 26.2021 6.79792 3
    endloop
  endfacet
  facet normal -0.896789 -0.442459 0
    outer loop
      vertex 26.5706 8.65056 0
      vertex 26.4722 8.85 3
      vertex 26.4722 8.85 0
    endloop
  endfacet
  facet normal -0.896789 -0.442459 0
    outer loop
      vertex 26.4722 8.85 3
      vertex 26.5706 8.65056 0
      vertex 26.5706 8.65056 3
    endloop
  endfacet
  facet normal -0.946901 -0.321525 0
    outer loop
      vertex 26.6421 8.43999 0
      vertex 26.5706 8.65056 3
      vertex 26.5706 8.65056 0
    endloop
  endfacet
  facet normal -0.946901 -0.321525 0
    outer loop
      vertex 26.5706 8.65056 3
      vertex 26.6421 8.43999 0
      vertex 26.6421 8.43999 3
    endloop
  endfacet
  facet normal -0.997872 0.0652057 0
    outer loop
      vertex 26.6855 7.7781 0
      vertex 26.7 8 3
      vertex 26.7 8 0
    endloop
  endfacet
  facet normal -0.997872 0.0652057 0
    outer loop
      vertex 26.7 8 3
      vertex 26.6855 7.7781 0
      vertex 26.6855 7.7781 3
    endloop
  endfacet
  facet normal 0.195122 0.980779 -0
    outer loop
      vertex 24.7781 6.31454 0
      vertex 24.56 6.35793 3
      vertex 24.7781 6.31454 3
    endloop
  endfacet
  facet normal 0.195122 0.980779 0
    outer loop
      vertex 24.56 6.35793 3
      vertex 24.7781 6.31454 0
      vertex 24.56 6.35793 0
    endloop
  endfacet
  facet normal 0.896789 0.442459 0
    outer loop
      vertex 23.5278 7.15 3
      vertex 23.4294 7.34944 0
      vertex 23.4294 7.34944 3
    endloop
  endfacet
  facet normal 0.896789 0.442459 0
    outer loop
      vertex 23.4294 7.34944 0
      vertex 23.5278 7.15 3
      vertex 23.5278 7.15 0
    endloop
  endfacet
  facet normal 0.946901 0.321525 0
    outer loop
      vertex 23.4294 7.34944 3
      vertex 23.3579 7.56001 0
      vertex 23.3579 7.56001 3
    endloop
  endfacet
  facet normal 0.946901 0.321525 0
    outer loop
      vertex 23.3579 7.56001 0
      vertex 23.4294 7.34944 3
      vertex 23.4294 7.34944 0
    endloop
  endfacet
  facet normal 0.980769 0.195173 0
    outer loop
      vertex 23.3579 7.56001 3
      vertex 23.3145 7.7781 0
      vertex 23.3145 7.7781 3
    endloop
  endfacet
  facet normal 0.980769 0.195173 0
    outer loop
      vertex 23.3145 7.7781 0
      vertex 23.3579 7.56001 3
      vertex 23.3579 7.56001 0
    endloop
  endfacet
  facet normal 0.659319 0.751863 -0
    outer loop
      vertex 23.9651 6.6513 0
      vertex 23.7979 6.79792 3
      vertex 23.9651 6.6513 3
    endloop
  endfacet
  facet normal 0.659319 0.751863 0
    outer loop
      vertex 23.7979 6.79792 3
      vertex 23.9651 6.6513 0
      vertex 23.7979 6.79792 0
    endloop
  endfacet
  facet normal -0.442386 0.896825 0
    outer loop
      vertex 25.85 6.52776 0
      vertex 25.6506 6.4294 3
      vertex 25.85 6.52776 3
    endloop
  endfacet
  facet normal -0.442386 0.896825 0
    outer loop
      vertex 25.6506 6.4294 3
      vertex 25.85 6.52776 0
      vertex 25.6506 6.4294 0
    endloop
  endfacet
  facet normal -0.321363 0.946956 0
    outer loop
      vertex 25.6506 6.4294 0
      vertex 25.44 6.35793 3
      vertex 25.6506 6.4294 3
    endloop
  endfacet
  facet normal -0.321363 0.946956 0
    outer loop
      vertex 25.44 6.35793 3
      vertex 25.6506 6.4294 0
      vertex 25.44 6.35793 0
    endloop
  endfacet
  facet normal -0.659319 0.751863 0
    outer loop
      vertex 26.2021 6.79792 0
      vertex 26.0349 6.6513 3
      vertex 26.2021 6.79792 3
    endloop
  endfacet
  facet normal -0.659319 0.751863 0
    outer loop
      vertex 26.0349 6.6513 3
      vertex 26.2021 6.79792 0
      vertex 26.0349 6.6513 0
    endloop
  endfacet
  facet normal -0.896789 0.442459 0
    outer loop
      vertex 26.4722 7.15 0
      vertex 26.5706 7.34944 3
      vertex 26.5706 7.34944 0
    endloop
  endfacet
  facet normal -0.896789 0.442459 0
    outer loop
      vertex 26.5706 7.34944 3
      vertex 26.4722 7.15 0
      vertex 26.4722 7.15 3
    endloop
  endfacet
  facet normal -0.831552 0.555447 0
    outer loop
      vertex 26.3487 6.96511 0
      vertex 26.4722 7.15 3
      vertex 26.4722 7.15 0
    endloop
  endfacet
  facet normal -0.831552 0.555447 0
    outer loop
      vertex 26.4722 7.15 3
      vertex 26.3487 6.96511 0
      vertex 26.3487 6.96511 3
    endloop
  endfacet
  facet normal 0.0653848 0.99786 -0
    outer loop
      vertex 25 6.3 0
      vertex 24.7781 6.31454 3
      vertex 25 6.3 3
    endloop
  endfacet
  facet normal 0.0653848 0.99786 0
    outer loop
      vertex 24.7781 6.31454 3
      vertex 25 6.3 0
      vertex 24.7781 6.31454 0
    endloop
  endfacet
  facet normal 0.321363 0.946956 -0
    outer loop
      vertex 24.56 6.35793 0
      vertex 24.3494 6.4294 3
      vertex 24.56 6.35793 3
    endloop
  endfacet
  facet normal 0.321363 0.946956 0
    outer loop
      vertex 24.3494 6.4294 3
      vertex 24.56 6.35793 0
      vertex 24.3494 6.4294 0
    endloop
  endfacet
  facet normal 0.442386 0.896825 -0
    outer loop
      vertex 24.3494 6.4294 0
      vertex 24.15 6.52776 3
      vertex 24.3494 6.4294 3
    endloop
  endfacet
  facet normal 0.442386 0.896825 0
    outer loop
      vertex 24.15 6.52776 3
      vertex 24.3494 6.4294 0
      vertex 24.15 6.52776 0
    endloop
  endfacet
  facet normal -0.997872 -0.0652086 0
    outer loop
      vertex 46.7 8 0
      vertex 46.6855 8.22189 3
      vertex 46.6855 8.22189 0
    endloop
  endfacet
  facet normal -0.997872 -0.0652086 0
    outer loop
      vertex 46.6855 8.22189 3
      vertex 46.7 8 0
      vertex 46.7 8 3
    endloop
  endfacet
  facet normal 0.0653848 -0.99786 0
    outer loop
      vertex 44.7781 9.68546 0
      vertex 45 9.7 3
      vertex 44.7781 9.68546 3
    endloop
  endfacet
  facet normal 0.0653848 -0.99786 0
    outer loop
      vertex 45 9.7 3
      vertex 44.7781 9.68546 0
      vertex 45 9.7 0
    endloop
  endfacet
  facet normal -0.0653848 0.99786 0
    outer loop
      vertex 45.2219 6.31454 0
      vertex 45 6.3 3
      vertex 45.2219 6.31454 3
    endloop
  endfacet
  facet normal -0.0653848 0.99786 0
    outer loop
      vertex 45 6.3 3
      vertex 45.2219 6.31454 0
      vertex 45 6.3 0
    endloop
  endfacet
  facet normal -0.751888 0.659291 0
    outer loop
      vertex 46.2021 6.79792 0
      vertex 46.3487 6.96511 3
      vertex 46.3487 6.96511 0
    endloop
  endfacet
  facet normal -0.751888 0.659291 0
    outer loop
      vertex 46.3487 6.96511 3
      vertex 46.2021 6.79792 0
      vertex 46.2021 6.79792 3
    endloop
  endfacet
  facet normal -0.659319 -0.751863 0
    outer loop
      vertex 46.0349 9.3487 0
      vertex 46.2021 9.20208 3
      vertex 46.0349 9.3487 3
    endloop
  endfacet
  facet normal -0.659319 -0.751863 -0
    outer loop
      vertex 46.2021 9.20208 3
      vertex 46.0349 9.3487 0
      vertex 46.2021 9.20208 0
    endloop
  endfacet
  facet normal 0.751888 -0.659291 0
    outer loop
      vertex 43.6513 9.03489 3
      vertex 43.7979 9.20208 0
      vertex 43.7979 9.20208 3
    endloop
  endfacet
  facet normal 0.751888 -0.659291 0
    outer loop
      vertex 43.7979 9.20208 0
      vertex 43.6513 9.03489 3
      vertex 43.6513 9.03489 0
    endloop
  endfacet
  facet normal 0.442349 -0.896843 0
    outer loop
      vertex 44.15 9.47224 0
      vertex 44.3494 9.57059 3
      vertex 44.15 9.47224 3
    endloop
  endfacet
  facet normal 0.442349 -0.896843 0
    outer loop
      vertex 44.3494 9.57059 3
      vertex 44.15 9.47224 0
      vertex 44.3494 9.57059 0
    endloop
  endfacet
  facet normal -0.896789 -0.442459 0
    outer loop
      vertex 46.5706 8.65056 0
      vertex 46.4722 8.85 3
      vertex 46.4722 8.85 0
    endloop
  endfacet
  facet normal -0.896789 -0.442459 0
    outer loop
      vertex 46.4722 8.85 3
      vertex 46.5706 8.65056 0
      vertex 46.5706 8.65056 3
    endloop
  endfacet
  facet normal -0.98077 -0.195165 0
    outer loop
      vertex 46.6855 8.22189 0
      vertex 46.6421 8.43999 3
      vertex 46.6421 8.43999 0
    endloop
  endfacet
  facet normal -0.98077 -0.195165 0
    outer loop
      vertex 46.6421 8.43999 3
      vertex 46.6855 8.22189 0
      vertex 46.6855 8.22189 3
    endloop
  endfacet
  facet normal -0.831552 -0.555447 0
    outer loop
      vertex 46.4722 8.85 0
      vertex 46.3487 9.03489 3
      vertex 46.3487 9.03489 0
    endloop
  endfacet
  facet normal -0.831552 -0.555447 0
    outer loop
      vertex 46.3487 9.03489 3
      vertex 46.4722 8.85 0
      vertex 46.4722 8.85 3
    endloop
  endfacet
  facet normal -0.321403 -0.946943 0
    outer loop
      vertex 45.44 9.64207 0
      vertex 45.6506 9.57059 3
      vertex 45.44 9.64207 3
    endloop
  endfacet
  facet normal -0.321403 -0.946943 -0
    outer loop
      vertex 45.6506 9.57059 3
      vertex 45.44 9.64207 0
      vertex 45.6506 9.57059 0
    endloop
  endfacet
  facet normal -0.442349 -0.896843 0
    outer loop
      vertex 45.6506 9.57059 0
      vertex 45.85 9.47224 3
      vertex 45.6506 9.57059 3
    endloop
  endfacet
  facet normal -0.442349 -0.896843 -0
    outer loop
      vertex 45.85 9.47224 3
      vertex 45.6506 9.57059 0
      vertex 45.85 9.47224 0
    endloop
  endfacet
  facet normal 0.946901 -0.321525 0
    outer loop
      vertex 43.3579 8.43999 3
      vertex 43.4294 8.65056 0
      vertex 43.4294 8.65056 3
    endloop
  endfacet
  facet normal 0.946901 -0.321525 0
    outer loop
      vertex 43.4294 8.65056 0
      vertex 43.3579 8.43999 3
      vertex 43.3579 8.43999 0
    endloop
  endfacet
  facet normal 0.555551 -0.831483 0
    outer loop
      vertex 43.9651 9.3487 0
      vertex 44.15 9.47224 3
      vertex 43.9651 9.3487 3
    endloop
  endfacet
  facet normal 0.555551 -0.831483 0
    outer loop
      vertex 44.15 9.47224 3
      vertex 43.9651 9.3487 0
      vertex 44.15 9.47224 0
    endloop
  endfacet
  facet normal 0.195122 -0.980779 0
    outer loop
      vertex 44.56 9.64207 0
      vertex 44.7781 9.68546 3
      vertex 44.56 9.64207 3
    endloop
  endfacet
  facet normal 0.195122 -0.980779 0
    outer loop
      vertex 44.7781 9.68546 3
      vertex 44.56 9.64207 0
      vertex 44.7781 9.68546 0
    endloop
  endfacet
  facet normal -0.195122 0.980779 0
    outer loop
      vertex 45.44 6.35793 0
      vertex 45.2219 6.31454 3
      vertex 45.44 6.35793 3
    endloop
  endfacet
  facet normal -0.195122 0.980779 0
    outer loop
      vertex 45.2219 6.31454 3
      vertex 45.44 6.35793 0
      vertex 45.2219 6.31454 0
    endloop
  endfacet
  facet normal -0.946901 -0.321525 0
    outer loop
      vertex 46.6421 8.43999 0
      vertex 46.5706 8.65056 3
      vertex 46.5706 8.65056 0
    endloop
  endfacet
  facet normal -0.946901 -0.321525 0
    outer loop
      vertex 46.5706 8.65056 3
      vertex 46.6421 8.43999 0
      vertex 46.6421 8.43999 3
    endloop
  endfacet
  facet normal -0.751888 -0.659291 0
    outer loop
      vertex 46.3487 9.03489 0
      vertex 46.2021 9.20208 3
      vertex 46.2021 9.20208 0
    endloop
  endfacet
  facet normal -0.751888 -0.659291 0
    outer loop
      vertex 46.2021 9.20208 3
      vertex 46.3487 9.03489 0
      vertex 46.3487 9.03489 3
    endloop
  endfacet
  facet normal -0.195122 -0.980779 0
    outer loop
      vertex 45.2219 9.68546 0
      vertex 45.44 9.64207 3
      vertex 45.2219 9.68546 3
    endloop
  endfacet
  facet normal -0.195122 -0.980779 -0
    outer loop
      vertex 45.44 9.64207 3
      vertex 45.2219 9.68546 0
      vertex 45.44 9.64207 0
    endloop
  endfacet
  facet normal -0.0653848 -0.99786 0
    outer loop
      vertex 45 9.7 0
      vertex 45.2219 9.68546 3
      vertex 45 9.7 3
    endloop
  endfacet
  facet normal -0.0653848 -0.99786 -0
    outer loop
      vertex 45.2219 9.68546 3
      vertex 45 9.7 0
      vertex 45.2219 9.68546 0
    endloop
  endfacet
  facet normal -0.555551 -0.831483 0
    outer loop
      vertex 45.85 9.47224 0
      vertex 46.0349 9.3487 3
      vertex 45.85 9.47224 3
    endloop
  endfacet
  facet normal -0.555551 -0.831483 -0
    outer loop
      vertex 46.0349 9.3487 3
      vertex 45.85 9.47224 0
      vertex 46.0349 9.3487 0
    endloop
  endfacet
  facet normal 0.896789 -0.442459 0
    outer loop
      vertex 43.4294 8.65056 3
      vertex 43.5278 8.85 0
      vertex 43.5278 8.85 3
    endloop
  endfacet
  facet normal 0.896789 -0.442459 0
    outer loop
      vertex 43.5278 8.85 0
      vertex 43.4294 8.65056 3
      vertex 43.4294 8.65056 0
    endloop
  endfacet
  facet normal 0.831552 -0.555447 0
    outer loop
      vertex 43.5278 8.85 3
      vertex 43.6513 9.03489 0
      vertex 43.6513 9.03489 3
    endloop
  endfacet
  facet normal 0.831552 -0.555447 0
    outer loop
      vertex 43.6513 9.03489 0
      vertex 43.5278 8.85 3
      vertex 43.5278 8.85 0
    endloop
  endfacet
  facet normal 0.98077 -0.195165 0
    outer loop
      vertex 43.3145 8.22189 3
      vertex 43.3579 8.43999 0
      vertex 43.3579 8.43999 3
    endloop
  endfacet
  facet normal 0.98077 -0.195165 0
    outer loop
      vertex 43.3579 8.43999 0
      vertex 43.3145 8.22189 3
      vertex 43.3145 8.22189 0
    endloop
  endfacet
  facet normal 0.997872 -0.0652086 0
    outer loop
      vertex 43.3 8 3
      vertex 43.3145 8.22189 0
      vertex 43.3145 8.22189 3
    endloop
  endfacet
  facet normal 0.997872 -0.0652086 0
    outer loop
      vertex 43.3145 8.22189 0
      vertex 43.3 8 3
      vertex 43.3 8 0
    endloop
  endfacet
  facet normal 0.997872 0.0652057 0
    outer loop
      vertex 43.3145 7.7781 3
      vertex 43.3 8 0
      vertex 43.3 8 3
    endloop
  endfacet
  facet normal 0.997872 0.0652057 0
    outer loop
      vertex 43.3 8 0
      vertex 43.3145 7.7781 3
      vertex 43.3145 7.7781 0
    endloop
  endfacet
  facet normal 0.659319 -0.751863 0
    outer loop
      vertex 43.7979 9.20208 0
      vertex 43.9651 9.3487 3
      vertex 43.7979 9.20208 3
    endloop
  endfacet
  facet normal 0.659319 -0.751863 0
    outer loop
      vertex 43.9651 9.3487 3
      vertex 43.7979 9.20208 0
      vertex 43.9651 9.3487 0
    endloop
  endfacet
  facet normal 0.321403 -0.946943 0
    outer loop
      vertex 44.3494 9.57059 0
      vertex 44.56 9.64207 3
      vertex 44.3494 9.57059 3
    endloop
  endfacet
  facet normal 0.321403 -0.946943 0
    outer loop
      vertex 44.56 9.64207 3
      vertex 44.3494 9.57059 0
      vertex 44.56 9.64207 0
    endloop
  endfacet
  facet normal -0.997872 0.0652057 0
    outer loop
      vertex 46.6855 7.7781 0
      vertex 46.7 8 3
      vertex 46.7 8 0
    endloop
  endfacet
  facet normal -0.997872 0.0652057 0
    outer loop
      vertex 46.7 8 3
      vertex 46.6855 7.7781 0
      vertex 46.6855 7.7781 3
    endloop
  endfacet
  facet normal -0.946901 0.321525 0
    outer loop
      vertex 46.5706 7.34944 0
      vertex 46.6421 7.56001 3
      vertex 46.6421 7.56001 0
    endloop
  endfacet
  facet normal -0.946901 0.321525 0
    outer loop
      vertex 46.6421 7.56001 3
      vertex 46.5706 7.34944 0
      vertex 46.5706 7.34944 3
    endloop
  endfacet
  facet normal -0.980769 0.195173 0
    outer loop
      vertex 46.6421 7.56001 0
      vertex 46.6855 7.7781 3
      vertex 46.6855 7.7781 0
    endloop
  endfacet
  facet normal -0.980769 0.195173 0
    outer loop
      vertex 46.6855 7.7781 3
      vertex 46.6421 7.56001 0
      vertex 46.6421 7.56001 3
    endloop
  endfacet
  facet normal 0.555551 0.831483 -0
    outer loop
      vertex 44.15 6.52776 0
      vertex 43.9651 6.6513 3
      vertex 44.15 6.52776 3
    endloop
  endfacet
  facet normal 0.555551 0.831483 0
    outer loop
      vertex 43.9651 6.6513 3
      vertex 44.15 6.52776 0
      vertex 43.9651 6.6513 0
    endloop
  endfacet
  facet normal 0.831552 0.555447 0
    outer loop
      vertex 43.6513 6.96511 3
      vertex 43.5278 7.15 0
      vertex 43.5278 7.15 3
    endloop
  endfacet
  facet normal 0.831552 0.555447 0
    outer loop
      vertex 43.5278 7.15 0
      vertex 43.6513 6.96511 3
      vertex 43.6513 6.96511 0
    endloop
  endfacet
  facet normal 0.751888 0.659291 0
    outer loop
      vertex 43.7979 6.79792 3
      vertex 43.6513 6.96511 0
      vertex 43.6513 6.96511 3
    endloop
  endfacet
  facet normal 0.751888 0.659291 0
    outer loop
      vertex 43.6513 6.96511 0
      vertex 43.7979 6.79792 3
      vertex 43.7979 6.79792 0
    endloop
  endfacet
  facet normal -0.555551 0.831483 0
    outer loop
      vertex 46.0349 6.6513 0
      vertex 45.85 6.52776 3
      vertex 46.0349 6.6513 3
    endloop
  endfacet
  facet normal -0.555551 0.831483 0
    outer loop
      vertex 45.85 6.52776 3
      vertex 46.0349 6.6513 0
      vertex 45.85 6.52776 0
    endloop
  endfacet
  facet normal -0.831552 0.555447 0
    outer loop
      vertex 46.3487 6.96511 0
      vertex 46.4722 7.15 3
      vertex 46.4722 7.15 0
    endloop
  endfacet
  facet normal -0.831552 0.555447 0
    outer loop
      vertex 46.4722 7.15 3
      vertex 46.3487 6.96511 0
      vertex 46.3487 6.96511 3
    endloop
  endfacet
  facet normal 0.195122 0.980779 -0
    outer loop
      vertex 44.7781 6.31454 0
      vertex 44.56 6.35793 3
      vertex 44.7781 6.31454 3
    endloop
  endfacet
  facet normal 0.195122 0.980779 0
    outer loop
      vertex 44.56 6.35793 3
      vertex 44.7781 6.31454 0
      vertex 44.56 6.35793 0
    endloop
  endfacet
  facet normal 0.659319 0.751863 -0
    outer loop
      vertex 43.9651 6.6513 0
      vertex 43.7979 6.79792 3
      vertex 43.9651 6.6513 3
    endloop
  endfacet
  facet normal 0.659319 0.751863 0
    outer loop
      vertex 43.7979 6.79792 3
      vertex 43.9651 6.6513 0
      vertex 43.7979 6.79792 0
    endloop
  endfacet
  facet normal 0.946901 0.321525 0
    outer loop
      vertex 43.4294 7.34944 3
      vertex 43.3579 7.56001 0
      vertex 43.3579 7.56001 3
    endloop
  endfacet
  facet normal 0.946901 0.321525 0
    outer loop
      vertex 43.3579 7.56001 0
      vertex 43.4294 7.34944 3
      vertex 43.4294 7.34944 0
    endloop
  endfacet
  facet normal 0.980769 0.195173 0
    outer loop
      vertex 43.3579 7.56001 3
      vertex 43.3145 7.7781 0
      vertex 43.3145 7.7781 3
    endloop
  endfacet
  facet normal 0.980769 0.195173 0
    outer loop
      vertex 43.3145 7.7781 0
      vertex 43.3579 7.56001 3
      vertex 43.3579 7.56001 0
    endloop
  endfacet
  facet normal 0.896789 0.442459 0
    outer loop
      vertex 43.5278 7.15 3
      vertex 43.4294 7.34944 0
      vertex 43.4294 7.34944 3
    endloop
  endfacet
  facet normal 0.896789 0.442459 0
    outer loop
      vertex 43.4294 7.34944 0
      vertex 43.5278 7.15 3
      vertex 43.5278 7.15 0
    endloop
  endfacet
  facet normal -0.659319 0.751863 0
    outer loop
      vertex 46.2021 6.79792 0
      vertex 46.0349 6.6513 3
      vertex 46.2021 6.79792 3
    endloop
  endfacet
  facet normal -0.659319 0.751863 0
    outer loop
      vertex 46.0349 6.6513 3
      vertex 46.2021 6.79792 0
      vertex 46.0349 6.6513 0
    endloop
  endfacet
  facet normal -0.442386 0.896825 0
    outer loop
      vertex 45.85 6.52776 0
      vertex 45.6506 6.4294 3
      vertex 45.85 6.52776 3
    endloop
  endfacet
  facet normal -0.442386 0.896825 0
    outer loop
      vertex 45.6506 6.4294 3
      vertex 45.85 6.52776 0
      vertex 45.6506 6.4294 0
    endloop
  endfacet
  facet normal -0.321363 0.946956 0
    outer loop
      vertex 45.6506 6.4294 0
      vertex 45.44 6.35793 3
      vertex 45.6506 6.4294 3
    endloop
  endfacet
  facet normal -0.321363 0.946956 0
    outer loop
      vertex 45.44 6.35793 3
      vertex 45.6506 6.4294 0
      vertex 45.44 6.35793 0
    endloop
  endfacet
  facet normal -0.896789 0.442459 0
    outer loop
      vertex 46.4722 7.15 0
      vertex 46.5706 7.34944 3
      vertex 46.5706 7.34944 0
    endloop
  endfacet
  facet normal -0.896789 0.442459 0
    outer loop
      vertex 46.5706 7.34944 3
      vertex 46.4722 7.15 0
      vertex 46.4722 7.15 3
    endloop
  endfacet
  facet normal 0.321363 0.946956 -0
    outer loop
      vertex 44.56 6.35793 0
      vertex 44.3494 6.4294 3
      vertex 44.56 6.35793 3
    endloop
  endfacet
  facet normal 0.321363 0.946956 0
    outer loop
      vertex 44.3494 6.4294 3
      vertex 44.56 6.35793 0
      vertex 44.3494 6.4294 0
    endloop
  endfacet
  facet normal 0.0653848 0.99786 -0
    outer loop
      vertex 45 6.3 0
      vertex 44.7781 6.31454 3
      vertex 45 6.3 3
    endloop
  endfacet
  facet normal 0.0653848 0.99786 0
    outer loop
      vertex 44.7781 6.31454 3
      vertex 45 6.3 0
      vertex 44.7781 6.31454 0
    endloop
  endfacet
  facet normal 0.442386 0.896825 -0
    outer loop
      vertex 44.3494 6.4294 0
      vertex 44.15 6.52776 3
      vertex 44.3494 6.4294 3
    endloop
  endfacet
  facet normal 0.442386 0.896825 0
    outer loop
      vertex 44.15 6.52776 3
      vertex 44.3494 6.4294 0
      vertex 44.15 6.52776 0
    endloop
  endfacet
  facet normal -0.997859 0.0653993 0
    outer loop
      vertex 0 13 0
      vertex 0.0256653 13.3916 3
      vertex 0.0256653 13.3916 0
    endloop
  endfacet
  facet normal -0.997859 0.0653993 0
    outer loop
      vertex 0.0256653 13.3916 3
      vertex 0 13 0
      vertex 0 13 3
    endloop
  endfacet
  facet normal 0 -1 0
    outer loop
      vertex 3 0 0
      vertex 67 0 3
      vertex 3 0 3
    endloop
  endfacet
  facet normal 0 -1 -0
    outer loop
      vertex 67 0 3
      vertex 3 0 0
      vertex 67 0 0
    endloop
  endfacet
  facet normal 0.0654873 0.997853 -0
    outer loop
      vertex 67.3916 15.9743 0
      vertex 67 16 3
      vertex 67.3916 15.9743 3
    endloop
  endfacet
  facet normal 0.0654873 0.997853 0
    outer loop
      vertex 67 16 3
      vertex 67.3916 15.9743 0
      vertex 67 16 0
    endloop
  endfacet
  facet normal 0 0 -1
    outer loop
      vertex 67 0 0
      vertex 70 3 0
      vertex 69.9743 2.60842 0
    endloop
  endfacet
  facet normal -0 0 -1
    outer loop
      vertex 70 3 0
      vertex 67 0 0
      vertex 70 13 0
    endloop
  endfacet
  facet normal 0 0 -1
    outer loop
      vertex 67 0 0
      vertex 69.9743 2.60842 0
      vertex 69.8978 2.22354 0
    endloop
  endfacet
  facet normal 0 0 -1
    outer loop
      vertex 67 16 0
      vertex 70 13 0
      vertex 67 0 0
    endloop
  endfacet
  facet normal 0 0 -1
    outer loop
      vertex 67 0 0
      vertex 69.8978 2.22354 0
      vertex 69.7716 1.85195 0
    endloop
  endfacet
  facet normal 0 0 -1
    outer loop
      vertex 70 13 0
      vertex 67 16 0
      vertex 69.9743 13.3916 0
    endloop
  endfacet
  facet normal 0 0 -1
    outer loop
      vertex 67 0 0
      vertex 69.7716 1.85195 0
      vertex 69.5981 1.5 0
    endloop
  endfacet
  facet normal 0 0 -1
    outer loop
      vertex 69.9743 13.3916 0
      vertex 67 16 0
      vertex 69.8978 13.7765 0
    endloop
  endfacet
  facet normal 0 0 -1
    outer loop
      vertex 67 0 0
      vertex 69.5981 1.5 0
      vertex 69.3801 1.17372 0
    endloop
  endfacet
  facet normal 0 0 -1
    outer loop
      vertex 69.8978 13.7765 0
      vertex 67 16 0
      vertex 69.7716 14.148 0
    endloop
  endfacet
  facet normal 0 0 -1
    outer loop
      vertex 67 0 0
      vertex 69.3801 1.17372 0
      vertex 69.1213 0.878679 0
    endloop
  endfacet
  facet normal 0 0 -1
    outer loop
      vertex 69.7716 14.148 0
      vertex 67 16 0
      vertex 69.5981 14.5 0
    endloop
  endfacet
  facet normal 0 0 -1
    outer loop
      vertex 67 0 0
      vertex 69.1213 0.878679 0
      vertex 68.8263 0.61994 0
    endloop
  endfacet
  facet normal 0 0 -1
    outer loop
      vertex 69.5981 14.5 0
      vertex 67 16 0
      vertex 69.3801 14.8263 0
    endloop
  endfacet
  facet normal 0 0 -1
    outer loop
      vertex 67 0 0
      vertex 68.8263 0.61994 0
      vertex 68.5 0.401923 0
    endloop
  endfacet
  facet normal 0 0 -1
    outer loop
      vertex 69.3801 14.8263 0
      vertex 67 16 0
      vertex 69.1213 15.1213 0
    endloop
  endfacet
  facet normal 0 0 -1
    outer loop
      vertex 67 0 0
      vertex 68.5 0.401923 0
      vertex 68.148 0.228361 0
    endloop
  endfacet
  facet normal 0 0 -1
    outer loop
      vertex 69.1213 15.1213 0
      vertex 67 16 0
      vertex 68.8263 15.3801 0
    endloop
  endfacet
  facet normal 0 0 -1
    outer loop
      vertex 67 0 0
      vertex 68.148 0.228361 0
      vertex 67.7765 0.102222 0
    endloop
  endfacet
  facet normal 0 0 -1
    outer loop
      vertex 68.8263 15.3801 0
      vertex 67 16 0
      vertex 68.5 15.5981 0
    endloop
  endfacet
  facet normal 0 0 -1
    outer loop
      vertex 67 0 0
      vertex 67.7765 0.102222 0
      vertex 67.3916 0.0256653 0
    endloop
  endfacet
  facet normal 0 0 -1
    outer loop
      vertex 68.5 15.5981 0
      vertex 67 16 0
      vertex 68.148 15.7716 0
    endloop
  endfacet
  facet normal 0 0 -1
    outer loop
      vertex 68.148 15.7716 0
      vertex 67 16 0
      vertex 67.7765 15.8978 0
    endloop
  endfacet
  facet normal 0 0 -1
    outer loop
      vertex 67.7765 15.8978 0
      vertex 67 16 0
      vertex 67.3916 15.9743 0
    endloop
  endfacet
  facet normal 0 0 -1
    outer loop
      vertex 67 0 0
      vertex 46.7 8 0
      vertex 67 16 0
    endloop
  endfacet
  facet normal 0 0 -1
    outer loop
      vertex 67 0 0
      vertex 46.6855 7.7781 0
      vertex 46.7 8 0
    endloop
  endfacet
  facet normal 0 0 -1
    outer loop
      vertex 67 0 0
      vertex 46.6421 7.56001 0
      vertex 46.6855 7.7781 0
    endloop
  endfacet
  facet normal 0 0 -1
    outer loop
      vertex 67 0 0
      vertex 46.5706 7.34944 0
      vertex 46.6421 7.56001 0
    endloop
  endfacet
  facet normal 0 0 -1
    outer loop
      vertex 67 0 0
      vertex 46.4722 7.15 0
      vertex 46.5706 7.34944 0
    endloop
  endfacet
  facet normal 0 0 -1
    outer loop
      vertex 67 0 0
      vertex 46.3487 6.96511 0
      vertex 46.4722 7.15 0
    endloop
  endfacet
  facet normal 0 0 -1
    outer loop
      vertex 67 0 0
      vertex 46.2021 6.79792 0
      vertex 46.3487 6.96511 0
    endloop
  endfacet
  facet normal 0 0 -1
    outer loop
      vertex 67 0 0
      vertex 46.0349 6.6513 0
      vertex 46.2021 6.79792 0
    endloop
  endfacet
  facet normal 0 0 -1
    outer loop
      vertex 67 0 0
      vertex 45.85 6.52776 0
      vertex 46.0349 6.6513 0
    endloop
  endfacet
  facet normal 0 0 -1
    outer loop
      vertex 67 0 0
      vertex 45.6506 6.4294 0
      vertex 45.85 6.52776 0
    endloop
  endfacet
  facet normal 0 0 -1
    outer loop
      vertex 67 0 0
      vertex 45.44 6.35793 0
      vertex 45.6506 6.4294 0
    endloop
  endfacet
  facet normal 0 0 -1
    outer loop
      vertex 67 0 0
      vertex 45.2219 6.31454 0
      vertex 45.44 6.35793 0
    endloop
  endfacet
  facet normal 0 0 -1
    outer loop
      vertex 67 0 0
      vertex 45 6.3 0
      vertex 45.2219 6.31454 0
    endloop
  endfacet
  facet normal 0 0 -1
    outer loop
      vertex 67 0 0
      vertex 44.7781 6.31454 0
      vertex 45 6.3 0
    endloop
  endfacet
  facet normal 0 0 -1
    outer loop
      vertex 25.2219 6.31454 0
      vertex 44.7781 6.31454 0
      vertex 67 0 0
    endloop
  endfacet
  facet normal 0 0 -1
    outer loop
      vertex 43.3145 7.7781 0
      vertex 26.7 8 0
      vertex 43.3 8 0
    endloop
  endfacet
  facet normal 0 0 -1
    outer loop
      vertex 26.6855 7.7781 0
      vertex 43.3145 7.7781 0
      vertex 43.3579 7.56001 0
    endloop
  endfacet
  facet normal 0 0 -1
    outer loop
      vertex 26.6421 7.56001 0
      vertex 43.3579 7.56001 0
      vertex 43.4294 7.34944 0
    endloop
  endfacet
  facet normal 0 0 -1
    outer loop
      vertex 26.5706 7.34944 0
      vertex 43.4294 7.34944 0
      vertex 43.5278 7.15 0
    endloop
  endfacet
  facet normal 0 0 -1
    outer loop
      vertex 26.4722 7.15 0
      vertex 43.5278 7.15 0
      vertex 43.6513 6.96511 0
    endloop
  endfacet
  facet normal 0 0 -1
    outer loop
      vertex 26.3487 6.96511 0
      vertex 43.6513 6.96511 0
      vertex 43.7979 6.79792 0
    endloop
  endfacet
  facet normal 0 0 -1
    outer loop
      vertex 26.2021 6.79792 0
      vertex 43.7979 6.79792 0
      vertex 43.9651 6.6513 0
    endloop
  endfacet
  facet normal 0 0 -1
    outer loop
      vertex 26.0349 6.6513 0
      vertex 43.9651 6.6513 0
      vertex 44.15 6.52776 0
    endloop
  endfacet
  facet normal 0 0 -1
    outer loop
      vertex 25.85 6.52776 0
      vertex 44.15 6.52776 0
      vertex 44.3494 6.4294 0
    endloop
  endfacet
  facet normal 0 0 -1
    outer loop
      vertex 25.6506 6.4294 0
      vertex 44.3494 6.4294 0
      vertex 44.56 6.35793 0
    endloop
  endfacet
  facet normal 0 0 -1
    outer loop
      vertex 44.7781 6.31454 0
      vertex 25.2219 6.31454 0
      vertex 44.56 6.35793 0
    endloop
  endfacet
  facet normal 0 0 -1
    outer loop
      vertex 43.3145 7.7781 0
      vertex 26.6855 7.7781 0
      vertex 26.7 8 0
    endloop
  endfacet
  facet normal 0 0 -1
    outer loop
      vertex 43.3579 7.56001 0
      vertex 26.6421 7.56001 0
      vertex 26.6855 7.7781 0
    endloop
  endfacet
  facet normal 0 0 -1
    outer loop
      vertex 43.4294 7.34944 0
      vertex 26.5706 7.34944 0
      vertex 26.6421 7.56001 0
    endloop
  endfacet
  facet normal 0 0 -1
    outer loop
      vertex 43.5278 7.15 0
      vertex 26.4722 7.15 0
      vertex 26.5706 7.34944 0
    endloop
  endfacet
  facet normal 0 0 -1
    outer loop
      vertex 43.6513 6.96511 0
      vertex 26.3487 6.96511 0
      vertex 26.4722 7.15 0
    endloop
  endfacet
  facet normal 0 0 -1
    outer loop
      vertex 43.7979 6.79792 0
      vertex 26.2021 6.79792 0
      vertex 26.3487 6.96511 0
    endloop
  endfacet
  facet normal 0 0 -1
    outer loop
      vertex 43.9651 6.6513 0
      vertex 26.0349 6.6513 0
      vertex 26.2021 6.79792 0
    endloop
  endfacet
  facet normal 0 0 -1
    outer loop
      vertex 44.15 6.52776 0
      vertex 25.85 6.52776 0
      vertex 26.0349 6.6513 0
    endloop
  endfacet
  facet normal 0 0 -1
    outer loop
      vertex 44.3494 6.4294 0
      vertex 25.6506 6.4294 0
      vertex 25.85 6.52776 0
    endloop
  endfacet
  facet normal 0 0 -1
    outer loop
      vertex 44.56 6.35793 0
      vertex 25.44 6.35793 0
      vertex 25.6506 6.4294 0
    endloop
  endfacet
  facet normal -0 0 -1
    outer loop
      vertex 44.56 6.35793 0
      vertex 25.2219 6.31454 0
      vertex 25.44 6.35793 0
    endloop
  endfacet
  facet normal 0 0 -1
    outer loop
      vertex 3 0 0
      vertex 25.2219 6.31454 0
      vertex 67 0 0
    endloop
  endfacet
  facet normal 0 0 -1
    outer loop
      vertex 25.2219 6.31454 0
      vertex 3 0 0
      vertex 25 6.3 0
    endloop
  endfacet
  facet normal -0 0 -1
    outer loop
      vertex 23.3145 7.7781 0
      vertex 3 0 0
      vertex 23.3 8 0
    endloop
  endfacet
  facet normal -0 0 -1
    outer loop
      vertex 23.3579 7.56001 0
      vertex 3 0 0
      vertex 23.3145 7.7781 0
    endloop
  endfacet
  facet normal -0 0 -1
    outer loop
      vertex 23.4294 7.34944 0
      vertex 3 0 0
      vertex 23.3579 7.56001 0
    endloop
  endfacet
  facet normal -0 0 -1
    outer loop
      vertex 23.5278 7.15 0
      vertex 3 0 0
      vertex 23.4294 7.34944 0
    endloop
  endfacet
  facet normal -0 0 -1
    outer loop
      vertex 23.6513 6.96511 0
      vertex 3 0 0
      vertex 23.5278 7.15 0
    endloop
  endfacet
  facet normal -0 0 -1
    outer loop
      vertex 23.7979 6.79792 0
      vertex 3 0 0
      vertex 23.6513 6.96511 0
    endloop
  endfacet
  facet normal -0 0 -1
    outer loop
      vertex 23.9651 6.6513 0
      vertex 3 0 0
      vertex 23.7979 6.79792 0
    endloop
  endfacet
  facet normal -0 0 -1
    outer loop
      vertex 24.15 6.52776 0
      vertex 3 0 0
      vertex 23.9651 6.6513 0
    endloop
  endfacet
  facet normal -0 0 -1
    outer loop
      vertex 24.3494 6.4294 0
      vertex 3 0 0
      vertex 24.15 6.52776 0
    endloop
  endfacet
  facet normal -0 0 -1
    outer loop
      vertex 24.56 6.35793 0
      vertex 3 0 0
      vertex 24.3494 6.4294 0
    endloop
  endfacet
  facet normal -0 0 -1
    outer loop
      vertex 24.7781 6.31454 0
      vertex 3 0 0
      vertex 24.56 6.35793 0
    endloop
  endfacet
  facet normal -0 0 -1
    outer loop
      vertex 25 6.3 0
      vertex 3 0 0
      vertex 24.7781 6.31454 0
    endloop
  endfacet
  facet normal 0 0 -1
    outer loop
      vertex 46.6855 8.22189 0
      vertex 67 16 0
      vertex 46.7 8 0
    endloop
  endfacet
  facet normal 0 0 -1
    outer loop
      vertex 46.6421 8.43999 0
      vertex 67 16 0
      vertex 46.6855 8.22189 0
    endloop
  endfacet
  facet normal 0 0 -1
    outer loop
      vertex 46.5706 8.65056 0
      vertex 67 16 0
      vertex 46.6421 8.43999 0
    endloop
  endfacet
  facet normal 0 0 -1
    outer loop
      vertex 46.4722 8.85 0
      vertex 67 16 0
      vertex 46.5706 8.65056 0
    endloop
  endfacet
  facet normal 0 0 -1
    outer loop
      vertex 46.3487 9.03489 0
      vertex 67 16 0
      vertex 46.4722 8.85 0
    endloop
  endfacet
  facet normal 0 0 -1
    outer loop
      vertex 46.2021 9.20208 0
      vertex 67 16 0
      vertex 46.3487 9.03489 0
    endloop
  endfacet
  facet normal 0 0 -1
    outer loop
      vertex 46.0349 9.3487 0
      vertex 67 16 0
      vertex 46.2021 9.20208 0
    endloop
  endfacet
  facet normal 0 0 -1
    outer loop
      vertex 45.85 9.47224 0
      vertex 67 16 0
      vertex 46.0349 9.3487 0
    endloop
  endfacet
  facet normal 0 0 -1
    outer loop
      vertex 45.6506 9.57059 0
      vertex 67 16 0
      vertex 45.85 9.47224 0
    endloop
  endfacet
  facet normal 0 0 -1
    outer loop
      vertex 45.44 9.64207 0
      vertex 67 16 0
      vertex 45.6506 9.57059 0
    endloop
  endfacet
  facet normal 0 0 -1
    outer loop
      vertex 45.2219 9.68546 0
      vertex 67 16 0
      vertex 45.44 9.64207 0
    endloop
  endfacet
  facet normal 0 0 -1
    outer loop
      vertex 45 9.7 0
      vertex 67 16 0
      vertex 45.2219 9.68546 0
    endloop
  endfacet
  facet normal 0 0 -1
    outer loop
      vertex 44.7781 9.68546 0
      vertex 67 16 0
      vertex 45 9.7 0
    endloop
  endfacet
  facet normal 0 0 -1
    outer loop
      vertex 25.2219 9.68546 0
      vertex 44.7781 9.68546 0
      vertex 44.56 9.64207 0
    endloop
  endfacet
  facet normal 0 0 -1
    outer loop
      vertex 26.7 8 0
      vertex 43.3145 8.22189 0
      vertex 43.3 8 0
    endloop
  endfacet
  facet normal 0 0 -1
    outer loop
      vertex 26.6855 8.22189 0
      vertex 43.3145 8.22189 0
      vertex 26.7 8 0
    endloop
  endfacet
  facet normal 0 0 -1
    outer loop
      vertex 43.3145 8.22189 0
      vertex 26.6855 8.22189 0
      vertex 43.3579 8.43999 0
    endloop
  endfacet
  facet normal 0 0 -1
    outer loop
      vertex 26.6421 8.43999 0
      vertex 43.3579 8.43999 0
      vertex 26.6855 8.22189 0
    endloop
  endfacet
  facet normal 0 0 -1
    outer loop
      vertex 43.3579 8.43999 0
      vertex 26.6421 8.43999 0
      vertex 43.4294 8.65056 0
    endloop
  endfacet
  facet normal 0 0 -1
    outer loop
      vertex 26.5706 8.65056 0
      vertex 43.4294 8.65056 0
      vertex 26.6421 8.43999 0
    endloop
  endfacet
  facet normal 0 0 -1
    outer loop
      vertex 43.4294 8.65056 0
      vertex 26.5706 8.65056 0
      vertex 43.5278 8.85 0
    endloop
  endfacet
  facet normal 0 0 -1
    outer loop
      vertex 26.4722 8.85 0
      vertex 43.5278 8.85 0
      vertex 26.5706 8.65056 0
    endloop
  endfacet
  facet normal 0 0 -1
    outer loop
      vertex 43.5278 8.85 0
      vertex 26.4722 8.85 0
      vertex 43.6513 9.03489 0
    endloop
  endfacet
  facet normal 0 0 -1
    outer loop
      vertex 26.3487 9.03489 0
      vertex 43.6513 9.03489 0
      vertex 26.4722 8.85 0
    endloop
  endfacet
  facet normal 0 0 -1
    outer loop
      vertex 43.6513 9.03489 0
      vertex 26.3487 9.03489 0
      vertex 43.7979 9.20208 0
    endloop
  endfacet
  facet normal 0 0 -1
    outer loop
      vertex 26.2021 9.20208 0
      vertex 43.7979 9.20208 0
      vertex 26.3487 9.03489 0
    endloop
  endfacet
  facet normal 0 0 -1
    outer loop
      vertex 43.7979 9.20208 0
      vertex 26.2021 9.20208 0
      vertex 43.9651 9.3487 0
    endloop
  endfacet
  facet normal 0 0 -1
    outer loop
      vertex 26.0349 9.3487 0
      vertex 43.9651 9.3487 0
      vertex 26.2021 9.20208 0
    endloop
  endfacet
  facet normal 0 0 -1
    outer loop
      vertex 43.9651 9.3487 0
      vertex 26.0349 9.3487 0
      vertex 44.15 9.47224 0
    endloop
  endfacet
  facet normal 0 0 -1
    outer loop
      vertex 25.85 9.47224 0
      vertex 44.15 9.47224 0
      vertex 26.0349 9.3487 0
    endloop
  endfacet
  facet normal 0 0 -1
    outer loop
      vertex 44.15 9.47224 0
      vertex 25.85 9.47224 0
      vertex 44.3494 9.57059 0
    endloop
  endfacet
  facet normal 0 0 -1
    outer loop
      vertex 25.6506 9.57059 0
      vertex 44.3494 9.57059 0
      vertex 25.85 9.47224 0
    endloop
  endfacet
  facet normal 0 0 -1
    outer loop
      vertex 44.3494 9.57059 0
      vertex 25.6506 9.57059 0
      vertex 44.56 9.64207 0
    endloop
  endfacet
  facet normal 0 0 -1
    outer loop
      vertex 25.44 9.64207 0
      vertex 44.56 9.64207 0
      vertex 25.6506 9.57059 0
    endloop
  endfacet
  facet normal 0 0 -1
    outer loop
      vertex 25.2219 9.68546 0
      vertex 44.56 9.64207 0
      vertex 25.44 9.64207 0
    endloop
  endfacet
  facet normal 0 0 -1
    outer loop
      vertex 44.7781 9.68546 0
      vertex 25.2219 9.68546 0
      vertex 67 16 0
    endloop
  endfacet
  facet normal 0 0 -1
    outer loop
      vertex 3 16 0
      vertex 25.2219 9.68546 0
      vertex 25 9.7 0
    endloop
  endfacet
  facet normal 0 0 -1
    outer loop
      vertex 3 16 0
      vertex 25 9.7 0
      vertex 24.7781 9.68546 0
    endloop
  endfacet
  facet normal 0 0 -1
    outer loop
      vertex 3 16 0
      vertex 23.3 8 0
      vertex 3 0 0
    endloop
  endfacet
  facet normal 0 0 -1
    outer loop
      vertex 23.3 8 0
      vertex 3 16 0
      vertex 23.3145 8.22189 0
    endloop
  endfacet
  facet normal 0 0 -1
    outer loop
      vertex 23.3145 8.22189 0
      vertex 3 16 0
      vertex 23.3579 8.43999 0
    endloop
  endfacet
  facet normal 0 0 -1
    outer loop
      vertex 23.3579 8.43999 0
      vertex 3 16 0
      vertex 23.4294 8.65056 0
    endloop
  endfacet
  facet normal 0 0 -1
    outer loop
      vertex 23.4294 8.65056 0
      vertex 3 16 0
      vertex 23.5278 8.85 0
    endloop
  endfacet
  facet normal 0 0 -1
    outer loop
      vertex 23.5278 8.85 0
      vertex 3 16 0
      vertex 23.6513 9.03489 0
    endloop
  endfacet
  facet normal 0 0 -1
    outer loop
      vertex 23.6513 9.03489 0
      vertex 3 16 0
      vertex 23.7979 9.20208 0
    endloop
  endfacet
  facet normal 0 0 -1
    outer loop
      vertex 23.7979 9.20208 0
      vertex 3 16 0
      vertex 23.9651 9.3487 0
    endloop
  endfacet
  facet normal 0 0 -1
    outer loop
      vertex 23.9651 9.3487 0
      vertex 3 16 0
      vertex 24.15 9.47224 0
    endloop
  endfacet
  facet normal 0 0 -1
    outer loop
      vertex 25.2219 9.68546 0
      vertex 3 16 0
      vertex 67 16 0
    endloop
  endfacet
  facet normal 0 0 -1
    outer loop
      vertex 24.56 9.64207 0
      vertex 3 16 0
      vertex 24.7781 9.68546 0
    endloop
  endfacet
  facet normal 0 0 -1
    outer loop
      vertex 24.3494 9.57059 0
      vertex 3 16 0
      vertex 24.56 9.64207 0
    endloop
  endfacet
  facet normal 0 0 -1
    outer loop
      vertex 24.15 9.47224 0
      vertex 3 16 0
      vertex 24.3494 9.57059 0
    endloop
  endfacet
  facet normal 0 0 -1
    outer loop
      vertex 0 3 0
      vertex 3 0 0
      vertex 2.60842 0.0256653 0
    endloop
  endfacet
  facet normal 0 0 -1
    outer loop
      vertex 3 0 0
      vertex 0 3 0
      vertex 3 16 0
    endloop
  endfacet
  facet normal 0 0 -1
    outer loop
      vertex 0 3 0
      vertex 2.60842 0.0256653 0
      vertex 2.22354 0.102222 0
    endloop
  endfacet
  facet normal 0 0 -1
    outer loop
      vertex 0 13 0
      vertex 3 16 0
      vertex 0 3 0
    endloop
  endfacet
  facet normal 0 0 -1
    outer loop
      vertex 0 3 0
      vertex 2.22354 0.102222 0
      vertex 1.85195 0.228361 0
    endloop
  endfacet
  facet normal 0 0 -1
    outer loop
      vertex 3 16 0
      vertex 0 13 0
      vertex 2.60842 15.9743 0
    endloop
  endfacet
  facet normal 0 0 -1
    outer loop
      vertex 0 3 0
      vertex 1.85195 0.228361 0
      vertex 1.5 0.401923 0
    endloop
  endfacet
  facet normal 0 0 -1
    outer loop
      vertex 2.60842 15.9743 0
      vertex 0 13 0
      vertex 2.22354 15.8978 0
    endloop
  endfacet
  facet normal 0 0 -1
    outer loop
      vertex 0 3 0
      vertex 1.5 0.401923 0
      vertex 1.17372 0.61994 0
    endloop
  endfacet
  facet normal 0 0 -1
    outer loop
      vertex 2.22354 15.8978 0
      vertex 0 13 0
      vertex 1.85195 15.7716 0
    endloop
  endfacet
  facet normal 0 0 -1
    outer loop
      vertex 0 3 0
      vertex 1.17372 0.61994 0
      vertex 0.878679 0.878679 0
    endloop
  endfacet
  facet normal 0 0 -1
    outer loop
      vertex 1.85195 15.7716 0
      vertex 0 13 0
      vertex 1.5 15.5981 0
    endloop
  endfacet
  facet normal 0 0 -1
    outer loop
      vertex 0 3 0
      vertex 0.878679 0.878679 0
      vertex 0.61994 1.17372 0
    endloop
  endfacet
  facet normal 0 0 -1
    outer loop
      vertex 1.5 15.5981 0
      vertex 0 13 0
      vertex 1.17372 15.3801 0
    endloop
  endfacet
  facet normal 0 0 -1
    outer loop
      vertex 0 3 0
      vertex 0.61994 1.17372 0
      vertex 0.401923 1.5 0
    endloop
  endfacet
  facet normal 0 0 -1
    outer loop
      vertex 1.17372 15.3801 0
      vertex 0 13 0
      vertex 0.878679 15.1213 0
    endloop
  endfacet
  facet normal 0 0 -1
    outer loop
      vertex 0 3 0
      vertex 0.401923 1.5 0
      vertex 0.228361 1.85195 0
    endloop
  endfacet
  facet normal 0 0 -1
    outer loop
      vertex 0.878679 15.1213 0
      vertex 0 13 0
      vertex 0.61994 14.8263 0
    endloop
  endfacet
  facet normal 0 0 -1
    outer loop
      vertex 0 3 0
      vertex 0.228361 1.85195 0
      vertex 0.102222 2.22354 0
    endloop
  endfacet
  facet normal 0 0 -1
    outer loop
      vertex 0.61994 14.8263 0
      vertex 0 13 0
      vertex 0.401923 14.5 0
    endloop
  endfacet
  facet normal 0 0 -1
    outer loop
      vertex 0 3 0
      vertex 0.102222 2.22354 0
      vertex 0.0256653 2.60842 0
    endloop
  endfacet
  facet normal 0 0 -1
    outer loop
      vertex 0.401923 14.5 0
      vertex 0 13 0
      vertex 0.228361 14.148 0
    endloop
  endfacet
  facet normal 0 0 -1
    outer loop
      vertex 0.228361 14.148 0
      vertex 0 13 0
      vertex 0.102222 13.7765 0
    endloop
  endfacet
  facet normal 0 0 -1
    outer loop
      vertex 0.102222 13.7765 0
      vertex 0 13 0
      vertex 0.0256653 13.3916 0
    endloop
  endfacet
  facet normal -0.980788 0.195079 0
    outer loop
      vertex 0.0256653 13.3916 0
      vertex 0.102222 13.7765 3
      vertex 0.102222 13.7765 0
    endloop
  endfacet
  facet normal -0.980788 0.195079 0
    outer loop
      vertex 0.102222 13.7765 3
      vertex 0.0256653 13.3916 0
      vertex 0.0256653 13.3916 3
    endloop
  endfacet
  facet normal -0.751846 -0.659339 0
    outer loop
      vertex 0.878679 0.878679 0
      vertex 0.61994 1.17372 3
      vertex 0.61994 1.17372 0
    endloop
  endfacet
  facet normal -0.751846 -0.659339 0
    outer loop
      vertex 0.61994 1.17372 3
      vertex 0.878679 0.878679 0
      vertex 0.878679 0.878679 3
    endloop
  endfacet
  facet normal -0.831465 -0.555577 0
    outer loop
      vertex 0.61994 1.17372 0
      vertex 0.401923 1.5 3
      vertex 0.401923 1.5 0
    endloop
  endfacet
  facet normal -0.831465 -0.555577 0
    outer loop
      vertex 0.401923 1.5 3
      vertex 0.61994 1.17372 0
      vertex 0.61994 1.17372 3
    endloop
  endfacet
  facet normal -0.0654906 0.997853 0
    outer loop
      vertex 3 16 0
      vertex 2.60842 15.9743 3
      vertex 3 16 3
    endloop
  endfacet
  facet normal -0.0654906 0.997853 0
    outer loop
      vertex 2.60842 15.9743 3
      vertex 3 16 0
      vertex 2.60842 15.9743 0
    endloop
  endfacet
  facet normal 0 1 -0
    outer loop
      vertex 67 16 0
      vertex 3 16 3
      vertex 67 16 3
    endloop
  endfacet
  facet normal 0 1 0
    outer loop
      vertex 3 16 3
      vertex 67 16 0
      vertex 3 16 0
    endloop
  endfacet
  facet normal 0.980815 0.19494 0
    outer loop
      vertex 69.9743 13.3916 3
      vertex 69.8978 13.7765 0
      vertex 69.8978 13.7765 3
    endloop
  endfacet
  facet normal 0.980815 0.19494 0
    outer loop
      vertex 69.8978 13.7765 0
      vertex 69.9743 13.3916 3
      vertex 69.9743 13.3916 0
    endloop
  endfacet
  facet normal 0.0653993 -0.997859 0
    outer loop
      vertex 67 0 0
      vertex 67.3916 0.0256653 3
      vertex 67 0 3
    endloop
  endfacet
  facet normal 0.0653993 -0.997859 0
    outer loop
      vertex 67.3916 0.0256653 3
      vertex 67 0 0
      vertex 67.3916 0.0256653 0
    endloop
  endfacet
  facet normal -0.997859 -0.0654026 0
    outer loop
      vertex 0.0256653 2.60842 0
      vertex 0 3 3
      vertex 0 3 0
    endloop
  endfacet
  facet normal -0.997859 -0.0654026 0
    outer loop
      vertex 0 3 3
      vertex 0.0256653 2.60842 0
      vertex 0.0256653 2.60842 3
    endloop
  endfacet
  facet normal -1 0 0
    outer loop
      vertex 0 3 0
      vertex 0 13 3
      vertex 0 13 0
    endloop
  endfacet
  facet normal -1 -0 0
    outer loop
      vertex 0 13 3
      vertex 0 3 0
      vertex 0 3 3
    endloop
  endfacet
  facet normal 0 0 1
    outer loop
      vertex 67 16 3
      vertex 70 13 3
      vertex 69.9743 13.3916 3
    endloop
  endfacet
  facet normal 0 0 1
    outer loop
      vertex 70 13 3
      vertex 67 16 3
      vertex 70 3 3
    endloop
  endfacet
  facet normal 0 0 1
    outer loop
      vertex 67 16 3
      vertex 69.9743 13.3916 3
      vertex 69.8978 13.7765 3
    endloop
  endfacet
  facet normal 0 0 1
    outer loop
      vertex 67 0 3
      vertex 70 3 3
      vertex 67 16 3
    endloop
  endfacet
  facet normal 0 0 1
    outer loop
      vertex 67 16 3
      vertex 69.8978 13.7765 3
      vertex 69.7716 14.148 3
    endloop
  endfacet
  facet normal 0 0 1
    outer loop
      vertex 70 3 3
      vertex 67 0 3
      vertex 69.9743 2.60842 3
    endloop
  endfacet
  facet normal 0 0 1
    outer loop
      vertex 67 16 3
      vertex 69.7716 14.148 3
      vertex 69.5981 14.5 3
    endloop
  endfacet
  facet normal 0 0 1
    outer loop
      vertex 69.9743 2.60842 3
      vertex 67 0 3
      vertex 69.8978 2.22354 3
    endloop
  endfacet
  facet normal 0 0 1
    outer loop
      vertex 67 16 3
      vertex 69.5981 14.5 3
      vertex 69.3801 14.8263 3
    endloop
  endfacet
  facet normal 0 0 1
    outer loop
      vertex 69.8978 2.22354 3
      vertex 67 0 3
      vertex 69.7716 1.85195 3
    endloop
  endfacet
  facet normal 0 0 1
    outer loop
      vertex 67 16 3
      vertex 69.3801 14.8263 3
      vertex 69.1213 15.1213 3
    endloop
  endfacet
  facet normal 0 0 1
    outer loop
      vertex 69.7716 1.85195 3
      vertex 67 0 3
      vertex 69.5981 1.5 3
    endloop
  endfacet
  facet normal 0 0 1
    outer loop
      vertex 67 16 3
      vertex 69.1213 15.1213 3
      vertex 68.8263 15.3801 3
    endloop
  endfacet
  facet normal 0 0 1
    outer loop
      vertex 69.5981 1.5 3
      vertex 67 0 3
      vertex 69.3801 1.17372 3
    endloop
  endfacet
  facet normal 0 0 1
    outer loop
      vertex 67 16 3
      vertex 68.8263 15.3801 3
      vertex 68.5 15.5981 3
    endloop
  endfacet
  facet normal 0 0 1
    outer loop
      vertex 69.3801 1.17372 3
      vertex 67 0 3
      vertex 69.1213 0.878679 3
    endloop
  endfacet
  facet normal 0 0 1
    outer loop
      vertex 67 16 3
      vertex 68.5 15.5981 3
      vertex 68.148 15.7716 3
    endloop
  endfacet
  facet normal 0 0 1
    outer loop
      vertex 69.1213 0.878679 3
      vertex 67 0 3
      vertex 68.8263 0.61994 3
    endloop
  endfacet
  facet normal 0 0 1
    outer loop
      vertex 67 16 3
      vertex 68.148 15.7716 3
      vertex 67.7765 15.8978 3
    endloop
  endfacet
  facet normal 0 0 1
    outer loop
      vertex 68.8263 0.61994 3
      vertex 67 0 3
      vertex 68.5 0.401923 3
    endloop
  endfacet
  facet normal 0 0 1
    outer loop
      vertex 67 16 3
      vertex 67.7765 15.8978 3
      vertex 67.3916 15.9743 3
    endloop
  endfacet
  facet normal 0 0 1
    outer loop
      vertex 68.5 0.401923 3
      vertex 67 0 3
      vertex 68.148 0.228361 3
    endloop
  endfacet
  facet normal 0 0 1
    outer loop
      vertex 68.148 0.228361 3
      vertex 67 0 3
      vertex 67.7765 0.102222 3
    endloop
  endfacet
  facet normal 0 0 1
    outer loop
      vertex 67.7765 0.102222 3
      vertex 67 0 3
      vertex 67.3916 0.0256653 3
    endloop
  endfacet
  facet normal 0 0 1
    outer loop
      vertex 67 16 3
      vertex 46.7 8 3
      vertex 67 0 3
    endloop
  endfacet
  facet normal 0 0 1
    outer loop
      vertex 67 16 3
      vertex 46.6855 8.22189 3
      vertex 46.7 8 3
    endloop
  endfacet
  facet normal 0 0 1
    outer loop
      vertex 67 16 3
      vertex 46.6421 8.43999 3
      vertex 46.6855 8.22189 3
    endloop
  endfacet
  facet normal 0 0 1
    outer loop
      vertex 67 16 3
      vertex 46.5706 8.65056 3
      vertex 46.6421 8.43999 3
    endloop
  endfacet
  facet normal 0 0 1
    outer loop
      vertex 67 16 3
      vertex 46.4722 8.85 3
      vertex 46.5706 8.65056 3
    endloop
  endfacet
  facet normal 0 0 1
    outer loop
      vertex 67 16 3
      vertex 46.3487 9.03489 3
      vertex 46.4722 8.85 3
    endloop
  endfacet
  facet normal 0 0 1
    outer loop
      vertex 67 16 3
      vertex 46.2021 9.20208 3
      vertex 46.3487 9.03489 3
    endloop
  endfacet
  facet normal 0 0 1
    outer loop
      vertex 67 16 3
      vertex 46.0349 9.3487 3
      vertex 46.2021 9.20208 3
    endloop
  endfacet
  facet normal 0 0 1
    outer loop
      vertex 67 16 3
      vertex 45.85 9.47224 3
      vertex 46.0349 9.3487 3
    endloop
  endfacet
  facet normal 0 0 1
    outer loop
      vertex 67 16 3
      vertex 45.6506 9.57059 3
      vertex 45.85 9.47224 3
    endloop
  endfacet
  facet normal 0 0 1
    outer loop
      vertex 67 16 3
      vertex 45.44 9.64207 3
      vertex 45.6506 9.57059 3
    endloop
  endfacet
  facet normal 0 0 1
    outer loop
      vertex 67 16 3
      vertex 45.2219 9.68546 3
      vertex 45.44 9.64207 3
    endloop
  endfacet
  facet normal 0 0 1
    outer loop
      vertex 67 16 3
      vertex 45 9.7 3
      vertex 45.2219 9.68546 3
    endloop
  endfacet
  facet normal 0 0 1
    outer loop
      vertex 67 16 3
      vertex 44.7781 9.68546 3
      vertex 45 9.7 3
    endloop
  endfacet
  facet normal 0 0 1
    outer loop
      vertex 25.2219 9.68546 3
      vertex 44.7781 9.68546 3
      vertex 67 16 3
    endloop
  endfacet
  facet normal 0 0 1
    outer loop
      vertex 43.3145 8.22189 3
      vertex 26.7 8 3
      vertex 43.3 8 3
    endloop
  endfacet
  facet normal 0 0 1
    outer loop
      vertex 26.6855 8.22189 3
      vertex 43.3145 8.22189 3
      vertex 43.3579 8.43999 3
    endloop
  endfacet
  facet normal 0 0 1
    outer loop
      vertex 26.6421 8.43999 3
      vertex 43.3579 8.43999 3
      vertex 43.4294 8.65056 3
    endloop
  endfacet
  facet normal 0 0 1
    outer loop
      vertex 26.5706 8.65056 3
      vertex 43.4294 8.65056 3
      vertex 43.5278 8.85 3
    endloop
  endfacet
  facet normal 0 0 1
    outer loop
      vertex 26.4722 8.85 3
      vertex 43.5278 8.85 3
      vertex 43.6513 9.03489 3
    endloop
  endfacet
  facet normal 0 0 1
    outer loop
      vertex 26.3487 9.03489 3
      vertex 43.6513 9.03489 3
      vertex 43.7979 9.20208 3
    endloop
  endfacet
  facet normal 0 0 1
    outer loop
      vertex 26.2021 9.20208 3
      vertex 43.7979 9.20208 3
      vertex 43.9651 9.3487 3
    endloop
  endfacet
  facet normal 0 0 1
    outer loop
      vertex 26.0349 9.3487 3
      vertex 43.9651 9.3487 3
      vertex 44.15 9.47224 3
    endloop
  endfacet
  facet normal 0 0 1
    outer loop
      vertex 25.85 9.47224 3
      vertex 44.15 9.47224 3
      vertex 44.3494 9.57059 3
    endloop
  endfacet
  facet normal 0 0 1
    outer loop
      vertex 25.6506 9.57059 3
      vertex 44.3494 9.57059 3
      vertex 44.56 9.64207 3
    endloop
  endfacet
  facet normal 0 0 1
    outer loop
      vertex 44.7781 9.68546 3
      vertex 25.2219 9.68546 3
      vertex 44.56 9.64207 3
    endloop
  endfacet
  facet normal 0 0 1
    outer loop
      vertex 43.3145 8.22189 3
      vertex 26.6855 8.22189 3
      vertex 26.7 8 3
    endloop
  endfacet
  facet normal 0 0 1
    outer loop
      vertex 43.3579 8.43999 3
      vertex 26.6421 8.43999 3
      vertex 26.6855 8.22189 3
    endloop
  endfacet
  facet normal 0 0 1
    outer loop
      vertex 43.4294 8.65056 3
      vertex 26.5706 8.65056 3
      vertex 26.6421 8.43999 3
    endloop
  endfacet
  facet normal 0 0 1
    outer loop
      vertex 43.5278 8.85 3
      vertex 26.4722 8.85 3
      vertex 26.5706 8.65056 3
    endloop
  endfacet
  facet normal 0 0 1
    outer loop
      vertex 43.6513 9.03489 3
      vertex 26.3487 9.03489 3
      vertex 26.4722 8.85 3
    endloop
  endfacet
  facet normal 0 0 1
    outer loop
      vertex 43.7979 9.20208 3
      vertex 26.2021 9.20208 3
      vertex 26.3487 9.03489 3
    endloop
  endfacet
  facet normal 0 0 1
    outer loop
      vertex 43.9651 9.3487 3
      vertex 26.0349 9.3487 3
      vertex 26.2021 9.20208 3
    endloop
  endfacet
  facet normal 0 0 1
    outer loop
      vertex 44.15 9.47224 3
      vertex 25.85 9.47224 3
      vertex 26.0349 9.3487 3
    endloop
  endfacet
  facet normal 0 0 1
    outer loop
      vertex 44.3494 9.57059 3
      vertex 25.6506 9.57059 3
      vertex 25.85 9.47224 3
    endloop
  endfacet
  facet normal 0 0 1
    outer loop
      vertex 44.56 9.64207 3
      vertex 25.44 9.64207 3
      vertex 25.6506 9.57059 3
    endloop
  endfacet
  facet normal 0 0 1
    outer loop
      vertex 44.56 9.64207 3
      vertex 25.2219 9.68546 3
      vertex 25.44 9.64207 3
    endloop
  endfacet
  facet normal -0 0 1
    outer loop
      vertex 3 16 3
      vertex 25.2219 9.68546 3
      vertex 67 16 3
    endloop
  endfacet
  facet normal 0 0 1
    outer loop
      vertex 25.2219 9.68546 3
      vertex 3 16 3
      vertex 25 9.7 3
    endloop
  endfacet
  facet normal 0 0 1
    outer loop
      vertex 23.3145 8.22189 3
      vertex 3 16 3
      vertex 23.3 8 3
    endloop
  endfacet
  facet normal 0 0 1
    outer loop
      vertex 23.3579 8.43999 3
      vertex 3 16 3
      vertex 23.3145 8.22189 3
    endloop
  endfacet
  facet normal 0 0 1
    outer loop
      vertex 23.4294 8.65056 3
      vertex 3 16 3
      vertex 23.3579 8.43999 3
    endloop
  endfacet
  facet normal 0 0 1
    outer loop
      vertex 23.5278 8.85 3
      vertex 3 16 3
      vertex 23.4294 8.65056 3
    endloop
  endfacet
  facet normal 0 0 1
    outer loop
      vertex 23.6513 9.03489 3
      vertex 3 16 3
      vertex 23.5278 8.85 3
    endloop
  endfacet
  facet normal 0 0 1
    outer loop
      vertex 23.7979 9.20208 3
      vertex 3 16 3
      vertex 23.6513 9.03489 3
    endloop
  endfacet
  facet normal 0 0 1
    outer loop
      vertex 23.9651 9.3487 3
      vertex 3 16 3
      vertex 23.7979 9.20208 3
    endloop
  endfacet
  facet normal 0 0 1
    outer loop
      vertex 24.15 9.47224 3
      vertex 3 16 3
      vertex 23.9651 9.3487 3
    endloop
  endfacet
  facet normal 0 0 1
    outer loop
      vertex 24.3494 9.57059 3
      vertex 3 16 3
      vertex 24.15 9.47224 3
    endloop
  endfacet
  facet normal 0 0 1
    outer loop
      vertex 24.56 9.64207 3
      vertex 3 16 3
      vertex 24.3494 9.57059 3
    endloop
  endfacet
  facet normal 0 0 1
    outer loop
      vertex 24.7781 9.68546 3
      vertex 3 16 3
      vertex 24.56 9.64207 3
    endloop
  endfacet
  facet normal 0 0 1
    outer loop
      vertex 25 9.7 3
      vertex 3 16 3
      vertex 24.7781 9.68546 3
    endloop
  endfacet
  facet normal -0 0 1
    outer loop
      vertex 46.6855 7.7781 3
      vertex 67 0 3
      vertex 46.7 8 3
    endloop
  endfacet
  facet normal -0 0 1
    outer loop
      vertex 46.6421 7.56001 3
      vertex 67 0 3
      vertex 46.6855 7.7781 3
    endloop
  endfacet
  facet normal -0 0 1
    outer loop
      vertex 46.5706 7.34944 3
      vertex 67 0 3
      vertex 46.6421 7.56001 3
    endloop
  endfacet
  facet normal -0 0 1
    outer loop
      vertex 46.4722 7.15 3
      vertex 67 0 3
      vertex 46.5706 7.34944 3
    endloop
  endfacet
  facet normal -0 0 1
    outer loop
      vertex 46.3487 6.96511 3
      vertex 67 0 3
      vertex 46.4722 7.15 3
    endloop
  endfacet
  facet normal -0 0 1
    outer loop
      vertex 46.2021 6.79792 3
      vertex 67 0 3
      vertex 46.3487 6.96511 3
    endloop
  endfacet
  facet normal -0 0 1
    outer loop
      vertex 46.0349 6.6513 3
      vertex 67 0 3
      vertex 46.2021 6.79792 3
    endloop
  endfacet
  facet normal -0 0 1
    outer loop
      vertex 45.85 6.52776 3
      vertex 67 0 3
      vertex 46.0349 6.6513 3
    endloop
  endfacet
  facet normal -0 0 1
    outer loop
      vertex 45.6506 6.4294 3
      vertex 67 0 3
      vertex 45.85 6.52776 3
    endloop
  endfacet
  facet normal -0 0 1
    outer loop
      vertex 45.44 6.35793 3
      vertex 67 0 3
      vertex 45.6506 6.4294 3
    endloop
  endfacet
  facet normal -0 0 1
    outer loop
      vertex 45.2219 6.31454 3
      vertex 67 0 3
      vertex 45.44 6.35793 3
    endloop
  endfacet
  facet normal -0 0 1
    outer loop
      vertex 45 6.3 3
      vertex 67 0 3
      vertex 45.2219 6.31454 3
    endloop
  endfacet
  facet normal 0 0 1
    outer loop
      vertex 44.7781 6.31454 3
      vertex 67 0 3
      vertex 45 6.3 3
    endloop
  endfacet
  facet normal 0 0 1
    outer loop
      vertex 25.2219 6.31454 3
      vertex 44.7781 6.31454 3
      vertex 44.56 6.35793 3
    endloop
  endfacet
  facet normal -0 0 1
    outer loop
      vertex 26.7 8 3
      vertex 43.3145 7.7781 3
      vertex 43.3 8 3
    endloop
  endfacet
  facet normal 0 0 1
    outer loop
      vertex 26.6855 7.7781 3
      vertex 43.3145 7.7781 3
      vertex 26.7 8 3
    endloop
  endfacet
  facet normal 0 0 1
    outer loop
      vertex 43.3145 7.7781 3
      vertex 26.6855 7.7781 3
      vertex 43.3579 7.56001 3
    endloop
  endfacet
  facet normal 0 0 1
    outer loop
      vertex 26.6421 7.56001 3
      vertex 43.3579 7.56001 3
      vertex 26.6855 7.7781 3
    endloop
  endfacet
  facet normal 0 0 1
    outer loop
      vertex 43.3579 7.56001 3
      vertex 26.6421 7.56001 3
      vertex 43.4294 7.34944 3
    endloop
  endfacet
  facet normal 0 0 1
    outer loop
      vertex 26.5706 7.34944 3
      vertex 43.4294 7.34944 3
      vertex 26.6421 7.56001 3
    endloop
  endfacet
  facet normal 0 0 1
    outer loop
      vertex 43.4294 7.34944 3
      vertex 26.5706 7.34944 3
      vertex 43.5278 7.15 3
    endloop
  endfacet
  facet normal 0 0 1
    outer loop
      vertex 26.4722 7.15 3
      vertex 43.5278 7.15 3
      vertex 26.5706 7.34944 3
    endloop
  endfacet
  facet normal 0 0 1
    outer loop
      vertex 43.5278 7.15 3
      vertex 26.4722 7.15 3
      vertex 43.6513 6.96511 3
    endloop
  endfacet
  facet normal 0 0 1
    outer loop
      vertex 26.3487 6.96511 3
      vertex 43.6513 6.96511 3
      vertex 26.4722 7.15 3
    endloop
  endfacet
  facet normal 0 0 1
    outer loop
      vertex 43.6513 6.96511 3
      vertex 26.3487 6.96511 3
      vertex 43.7979 6.79792 3
    endloop
  endfacet
  facet normal 0 0 1
    outer loop
      vertex 26.2021 6.79792 3
      vertex 43.7979 6.79792 3
      vertex 26.3487 6.96511 3
    endloop
  endfacet
  facet normal 0 0 1
    outer loop
      vertex 43.7979 6.79792 3
      vertex 26.2021 6.79792 3
      vertex 43.9651 6.6513 3
    endloop
  endfacet
  facet normal 0 0 1
    outer loop
      vertex 26.0349 6.6513 3
      vertex 43.9651 6.6513 3
      vertex 26.2021 6.79792 3
    endloop
  endfacet
  facet normal 0 0 1
    outer loop
      vertex 43.9651 6.6513 3
      vertex 26.0349 6.6513 3
      vertex 44.15 6.52776 3
    endloop
  endfacet
  facet normal 0 0 1
    outer loop
      vertex 25.85 6.52776 3
      vertex 44.15 6.52776 3
      vertex 26.0349 6.6513 3
    endloop
  endfacet
  facet normal 0 0 1
    outer loop
      vertex 44.15 6.52776 3
      vertex 25.85 6.52776 3
      vertex 44.3494 6.4294 3
    endloop
  endfacet
  facet normal 0 0 1
    outer loop
      vertex 25.6506 6.4294 3
      vertex 44.3494 6.4294 3
      vertex 25.85 6.52776 3
    endloop
  endfacet
  facet normal 0 0 1
    outer loop
      vertex 44.3494 6.4294 3
      vertex 25.6506 6.4294 3
      vertex 44.56 6.35793 3
    endloop
  endfacet
  facet normal 0 0 1
    outer loop
      vertex 25.44 6.35793 3
      vertex 44.56 6.35793 3
      vertex 25.6506 6.4294 3
    endloop
  endfacet
  facet normal 0 0 1
    outer loop
      vertex 25.2219 6.31454 3
      vertex 44.56 6.35793 3
      vertex 25.44 6.35793 3
    endloop
  endfacet
  facet normal 0 0 1
    outer loop
      vertex 44.7781 6.31454 3
      vertex 25.2219 6.31454 3
      vertex 67 0 3
    endloop
  endfacet
  facet normal 0 0 1
    outer loop
      vertex 3 0 3
      vertex 25.2219 6.31454 3
      vertex 25 6.3 3
    endloop
  endfacet
  facet normal 0 0 1
    outer loop
      vertex 3 0 3
      vertex 25 6.3 3
      vertex 24.7781 6.31454 3
    endloop
  endfacet
  facet normal 0 0 1
    outer loop
      vertex 3 0 3
      vertex 23.3 8 3
      vertex 3 16 3
    endloop
  endfacet
  facet normal 0 0 1
    outer loop
      vertex 23.3 8 3
      vertex 3 0 3
      vertex 23.3145 7.7781 3
    endloop
  endfacet
  facet normal 0 0 1
    outer loop
      vertex 23.3145 7.7781 3
      vertex 3 0 3
      vertex 23.3579 7.56001 3
    endloop
  endfacet
  facet normal 0 0 1
    outer loop
      vertex 23.3579 7.56001 3
      vertex 3 0 3
      vertex 23.4294 7.34944 3
    endloop
  endfacet
  facet normal 0 0 1
    outer loop
      vertex 23.4294 7.34944 3
      vertex 3 0 3
      vertex 23.5278 7.15 3
    endloop
  endfacet
  facet normal 0 0 1
    outer loop
      vertex 23.5278 7.15 3
      vertex 3 0 3
      vertex 23.6513 6.96511 3
    endloop
  endfacet
  facet normal 0 0 1
    outer loop
      vertex 23.6513 6.96511 3
      vertex 3 0 3
      vertex 23.7979 6.79792 3
    endloop
  endfacet
  facet normal 0 0 1
    outer loop
      vertex 23.7979 6.79792 3
      vertex 3 0 3
      vertex 23.9651 6.6513 3
    endloop
  endfacet
  facet normal 0 0 1
    outer loop
      vertex 23.9651 6.6513 3
      vertex 3 0 3
      vertex 24.15 6.52776 3
    endloop
  endfacet
  facet normal 0 0 1
    outer loop
      vertex 25.2219 6.31454 3
      vertex 3 0 3
      vertex 67 0 3
    endloop
  endfacet
  facet normal 0 0 1
    outer loop
      vertex 24.56 6.35793 3
      vertex 3 0 3
      vertex 24.7781 6.31454 3
    endloop
  endfacet
  facet normal 0 0 1
    outer loop
      vertex 24.3494 6.4294 3
      vertex 3 0 3
      vertex 24.56 6.35793 3
    endloop
  endfacet
  facet normal 0 0 1
    outer loop
      vertex 24.15 6.52776 3
      vertex 3 0 3
      vertex 24.3494 6.4294 3
    endloop
  endfacet
  facet normal 0 0 1
    outer loop
      vertex 0 13 3
      vertex 3 16 3
      vertex 2.60842 15.9743 3
    endloop
  endfacet
  facet normal 0 0 1
    outer loop
      vertex 3 16 3
      vertex 0 13 3
      vertex 3 0 3
    endloop
  endfacet
  facet normal 0 0 1
    outer loop
      vertex 0 13 3
      vertex 2.60842 15.9743 3
      vertex 2.22354 15.8978 3
    endloop
  endfacet
  facet normal -0 0 1
    outer loop
      vertex 0 3 3
      vertex 3 0 3
      vertex 0 13 3
    endloop
  endfacet
  facet normal 0 0 1
    outer loop
      vertex 0 13 3
      vertex 2.22354 15.8978 3
      vertex 1.85195 15.7716 3
    endloop
  endfacet
  facet normal 0 0 1
    outer loop
      vertex 3 0 3
      vertex 0 3 3
      vertex 2.60842 0.0256653 3
    endloop
  endfacet
  facet normal 0 0 1
    outer loop
      vertex 0 13 3
      vertex 1.85195 15.7716 3
      vertex 1.5 15.5981 3
    endloop
  endfacet
  facet normal 0 0 1
    outer loop
      vertex 2.60842 0.0256653 3
      vertex 0 3 3
      vertex 2.22354 0.102222 3
    endloop
  endfacet
  facet normal 0 0 1
    outer loop
      vertex 0 13 3
      vertex 1.5 15.5981 3
      vertex 1.17372 15.3801 3
    endloop
  endfacet
  facet normal 0 0 1
    outer loop
      vertex 2.22354 0.102222 3
      vertex 0 3 3
      vertex 1.85195 0.228361 3
    endloop
  endfacet
  facet normal 0 0 1
    outer loop
      vertex 0 13 3
      vertex 1.17372 15.3801 3
      vertex 0.878679 15.1213 3
    endloop
  endfacet
  facet normal 0 0 1
    outer loop
      vertex 1.85195 0.228361 3
      vertex 0 3 3
      vertex 1.5 0.401923 3
    endloop
  endfacet
  facet normal 0 0 1
    outer loop
      vertex 0 13 3
      vertex 0.878679 15.1213 3
      vertex 0.61994 14.8263 3
    endloop
  endfacet
  facet normal 0 0 1
    outer loop
      vertex 1.5 0.401923 3
      vertex 0 3 3
      vertex 1.17372 0.61994 3
    endloop
  endfacet
  facet normal 0 0 1
    outer loop
      vertex 0 13 3
      vertex 0.61994 14.8263 3
      vertex 0.401923 14.5 3
    endloop
  endfacet
  facet normal 0 0 1
    outer loop
      vertex 1.17372 0.61994 3
      vertex 0 3 3
      vertex 0.878679 0.878679 3
    endloop
  endfacet
  facet normal 0 0 1
    outer loop
      vertex 0 13 3
      vertex 0.401923 14.5 3
      vertex 0.228361 14.148 3
    endloop
  endfacet
  facet normal 0 0 1
    outer loop
      vertex 0.878679 0.878679 3
      vertex 0 3 3
      vertex 0.61994 1.17372 3
    endloop
  endfacet
  facet normal 0 0 1
    outer loop
      vertex 0 13 3
      vertex 0.228361 14.148 3
      vertex 0.102222 13.7765 3
    endloop
  endfacet
  facet normal 0 0 1
    outer loop
      vertex 0.61994 1.17372 3
      vertex 0 3 3
      vertex 0.401923 1.5 3
    endloop
  endfacet
  facet normal 0 0 1
    outer loop
      vertex 0 13 3
      vertex 0.102222 13.7765 3
      vertex 0.0256653 13.3916 3
    endloop
  endfacet
  facet normal 0 0 1
    outer loop
      vertex 0.401923 1.5 3
      vertex 0 3 3
      vertex 0.228361 1.85195 3
    endloop
  endfacet
  facet normal 0 0 1
    outer loop
      vertex 0.228361 1.85195 3
      vertex 0 3 3
      vertex 0.102222 2.22354 3
    endloop
  endfacet
  facet normal 0 0 1
    outer loop
      vertex 0.102222 2.22354 3
      vertex 0 3 3
      vertex 0.0256653 2.60842 3
    endloop
  endfacet
  facet normal -0.0654026 -0.997859 0
    outer loop
      vertex 2.60842 0.0256653 0
      vertex 3 0 3
      vertex 2.60842 0.0256653 3
    endloop
  endfacet
  facet normal -0.0654026 -0.997859 -0
    outer loop
      vertex 3 0 3
      vertex 2.60842 0.0256653 0
      vertex 3 0 0
    endloop
  endfacet
  facet normal -0.980786 -0.195089 0
    outer loop
      vertex 0.102222 2.22354 0
      vertex 0.0256653 2.60842 3
      vertex 0.0256653 2.60842 0
    endloop
  endfacet
  facet normal -0.980786 -0.195089 0
    outer loop
      vertex 0.0256653 2.60842 3
      vertex 0.102222 2.22354 0
      vertex 0.102222 2.22354 3
    endloop
  endfacet
  facet normal -0.946929 -0.321442 0
    outer loop
      vertex 0.228361 1.85195 0
      vertex 0.102222 2.22354 3
      vertex 0.102222 2.22354 0
    endloop
  endfacet
  facet normal -0.946929 -0.321442 0
    outer loop
      vertex 0.102222 2.22354 3
      vertex 0.228361 1.85195 0
      vertex 0.228361 1.85195 3
    endloop
  endfacet
  facet normal 1 -0 0
    outer loop
      vertex 70 3 3
      vertex 70 13 0
      vertex 70 13 3
    endloop
  endfacet
  facet normal 1 0 0
    outer loop
      vertex 70 13 0
      vertex 70 3 3
      vertex 70 3 0
    endloop
  endfacet
  facet normal 0.442237 -0.896898 0
    outer loop
      vertex 68.148 0.228361 0
      vertex 68.5 0.401923 3
      vertex 68.148 0.228361 3
    endloop
  endfacet
  facet normal 0.442237 -0.896898 0
    outer loop
      vertex 68.5 0.401923 3
      vertex 68.148 0.228361 0
      vertex 68.5 0.401923 0
    endloop
  endfacet
  facet normal 0.896936 -0.44216 0
    outer loop
      vertex 69.5981 1.5 3
      vertex 69.7716 1.85195 0
      vertex 69.7716 1.85195 3
    endloop
  endfacet
  facet normal 0.896936 -0.44216 0
    outer loop
      vertex 69.7716 1.85195 0
      vertex 69.5981 1.5 3
      vertex 69.5981 1.5 0
    endloop
  endfacet
  facet normal -0.442288 -0.896873 0
    outer loop
      vertex 1.5 0.401923 0
      vertex 1.85195 0.228361 3
      vertex 1.5 0.401923 3
    endloop
  endfacet
  facet normal -0.442288 -0.896873 -0
    outer loop
      vertex 1.85195 0.228361 3
      vertex 1.5 0.401923 0
      vertex 1.85195 0.228361 0
    endloop
  endfacet
  facet normal -0.321442 -0.946929 0
    outer loop
      vertex 1.85195 0.228361 0
      vertex 2.22354 0.102222 3
      vertex 1.85195 0.228361 3
    endloop
  endfacet
  facet normal -0.321442 -0.946929 -0
    outer loop
      vertex 2.22354 0.102222 3
      vertex 1.85195 0.228361 0
      vertex 2.22354 0.102222 0
    endloop
  endfacet
  facet normal -0.195089 -0.980786 0
    outer loop
      vertex 2.22354 0.102222 0
      vertex 2.60842 0.0256653 3
      vertex 2.22354 0.102222 3
    endloop
  endfacet
  facet normal -0.195089 -0.980786 -0
    outer loop
      vertex 2.60842 0.0256653 3
      vertex 2.22354 0.102222 0
      vertex 2.60842 0.0256653 0
    endloop
  endfacet
  facet normal 0.997853 0.0654873 0
    outer loop
      vertex 70 13 3
      vertex 69.9743 13.3916 0
      vertex 69.9743 13.3916 3
    endloop
  endfacet
  facet normal 0.997853 0.0654873 0
    outer loop
      vertex 69.9743 13.3916 0
      vertex 70 13 3
      vertex 70 13 0
    endloop
  endfacet
  facet normal 0.946858 0.321651 0
    outer loop
      vertex 69.8978 13.7765 3
      vertex 69.7716 14.148 0
      vertex 69.7716 14.148 3
    endloop
  endfacet
  facet normal 0.946858 0.321651 0
    outer loop
      vertex 69.7716 14.148 0
      vertex 69.8978 13.7765 3
      vertex 69.8978 13.7765 0
    endloop
  endfacet
  facet normal 0.321651 0.946858 -0
    outer loop
      vertex 68.148 15.7716 0
      vertex 67.7765 15.8978 3
      vertex 68.148 15.7716 3
    endloop
  endfacet
  facet normal 0.321651 0.946858 0
    outer loop
      vertex 67.7765 15.8978 3
      vertex 68.148 15.7716 0
      vertex 67.7765 15.8978 0
    endloop
  endfacet
  facet normal 0.44211 0.896961 -0
    outer loop
      vertex 68.5 15.5981 0
      vertex 68.148 15.7716 3
      vertex 68.5 15.5981 3
    endloop
  endfacet
  facet normal 0.44211 0.896961 0
    outer loop
      vertex 68.148 15.7716 3
      vertex 68.5 15.5981 0
      vertex 68.148 15.7716 0
    endloop
  endfacet
  facet normal 0.751724 0.659478 0
    outer loop
      vertex 69.3801 14.8263 3
      vertex 69.1213 15.1213 0
      vertex 69.1213 15.1213 3
    endloop
  endfacet
  facet normal 0.751724 0.659478 0
    outer loop
      vertex 69.1213 15.1213 0
      vertex 69.3801 14.8263 3
      vertex 69.3801 14.8263 0
    endloop
  endfacet
  facet normal 0.997853 -0.0654906 0
    outer loop
      vertex 69.9743 2.60842 3
      vertex 70 3 0
      vertex 70 3 3
    endloop
  endfacet
  facet normal 0.997853 -0.0654906 0
    outer loop
      vertex 70 3 0
      vertex 69.9743 2.60842 3
      vertex 69.9743 2.60842 0
    endloop
  endfacet
  facet normal 0.555553 -0.831481 0
    outer loop
      vertex 68.5 0.401923 0
      vertex 68.8263 0.61994 3
      vertex 68.5 0.401923 3
    endloop
  endfacet
  facet normal 0.555553 -0.831481 0
    outer loop
      vertex 68.8263 0.61994 3
      vertex 68.5 0.401923 0
      vertex 68.8263 0.61994 0
    endloop
  endfacet
  facet normal 0.195079 -0.980788 0
    outer loop
      vertex 67.3916 0.0256653 0
      vertex 67.7765 0.102222 3
      vertex 67.3916 0.0256653 3
    endloop
  endfacet
  facet normal 0.195079 -0.980788 0
    outer loop
      vertex 67.7765 0.102222 3
      vertex 67.3916 0.0256653 0
      vertex 67.7765 0.102222 0
    endloop
  endfacet
  facet normal 0.751769 -0.659426 0
    outer loop
      vertex 69.1213 0.878679 3
      vertex 69.3801 1.17372 0
      vertex 69.3801 1.17372 3
    endloop
  endfacet
  facet normal 0.751769 -0.659426 0
    outer loop
      vertex 69.3801 1.17372 0
      vertex 69.1213 0.878679 3
      vertex 69.1213 0.878679 0
    endloop
  endfacet
  facet normal 0.980813 -0.19495 0
    outer loop
      vertex 69.8978 2.22354 3
      vertex 69.9743 2.60842 0
      vertex 69.9743 2.60842 3
    endloop
  endfacet
  facet normal 0.980813 -0.19495 0
    outer loop
      vertex 69.9743 2.60842 0
      vertex 69.8978 2.22354 3
      vertex 69.8978 2.22354 0
    endloop
  endfacet
  facet normal -0.896898 0.442237 0
    outer loop
      vertex 0.228361 14.148 0
      vertex 0.401923 14.5 3
      vertex 0.401923 14.5 0
    endloop
  endfacet
  facet normal -0.896898 0.442237 0
    outer loop
      vertex 0.401923 14.5 3
      vertex 0.228361 14.148 0
      vertex 0.228361 14.148 3
    endloop
  endfacet
  facet normal -0.555547 0.831485 0
    outer loop
      vertex 1.5 15.5981 0
      vertex 1.17372 15.3801 3
      vertex 1.5 15.5981 3
    endloop
  endfacet
  facet normal -0.555547 0.831485 0
    outer loop
      vertex 1.17372 15.3801 3
      vertex 1.5 15.5981 0
      vertex 1.17372 15.3801 0
    endloop
  endfacet
  facet normal -0.555577 -0.831465 0
    outer loop
      vertex 1.17372 0.61994 0
      vertex 1.5 0.401923 3
      vertex 1.17372 0.61994 3
    endloop
  endfacet
  facet normal -0.555577 -0.831465 -0
    outer loop
      vertex 1.5 0.401923 3
      vertex 1.17372 0.61994 0
      vertex 1.5 0.401923 0
    endloop
  endfacet
  facet normal -0.659339 -0.751846 0
    outer loop
      vertex 0.878679 0.878679 0
      vertex 1.17372 0.61994 3
      vertex 0.878679 0.878679 3
    endloop
  endfacet
  facet normal -0.659339 -0.751846 -0
    outer loop
      vertex 1.17372 0.61994 3
      vertex 0.878679 0.878679 0
      vertex 1.17372 0.61994 0
    endloop
  endfacet
  facet normal -0.896873 -0.442288 0
    outer loop
      vertex 0.401923 1.5 0
      vertex 0.228361 1.85195 3
      vertex 0.228361 1.85195 0
    endloop
  endfacet
  facet normal -0.896873 -0.442288 0
    outer loop
      vertex 0.228361 1.85195 3
      vertex 0.401923 1.5 0
      vertex 0.401923 1.5 3
    endloop
  endfacet
  facet normal 0.896961 0.44211 0
    outer loop
      vertex 69.7716 14.148 3
      vertex 69.5981 14.5 0
      vertex 69.5981 14.5 3
    endloop
  endfacet
  facet normal 0.896961 0.44211 0
    outer loop
      vertex 69.5981 14.5 0
      vertex 69.7716 14.148 3
      vertex 69.7716 14.148 0
    endloop
  endfacet
  facet normal 0.19494 0.980815 -0
    outer loop
      vertex 67.7765 15.8978 0
      vertex 67.3916 15.9743 3
      vertex 67.7765 15.8978 3
    endloop
  endfacet
  facet normal 0.19494 0.980815 0
    outer loop
      vertex 67.3916 15.9743 3
      vertex 67.7765 15.8978 0
      vertex 67.3916 15.9743 0
    endloop
  endfacet
  facet normal 0.555523 0.831501 -0
    outer loop
      vertex 68.8263 15.3801 0
      vertex 68.5 15.5981 3
      vertex 68.8263 15.3801 3
    endloop
  endfacet
  facet normal 0.555523 0.831501 0
    outer loop
      vertex 68.5 15.5981 3
      vertex 68.8263 15.3801 0
      vertex 68.5 15.5981 0
    endloop
  endfacet
  facet normal 0.659478 0.751724 -0
    outer loop
      vertex 69.1213 15.1213 0
      vertex 68.8263 15.3801 3
      vertex 69.1213 15.1213 3
    endloop
  endfacet
  facet normal 0.659478 0.751724 0
    outer loop
      vertex 68.8263 15.3801 3
      vertex 69.1213 15.1213 0
      vertex 68.8263 15.3801 0
    endloop
  endfacet
  facet normal 0.65939 -0.751801 0
    outer loop
      vertex 68.8263 0.61994 0
      vertex 69.1213 0.878679 3
      vertex 68.8263 0.61994 3
    endloop
  endfacet
  facet normal 0.65939 -0.751801 0
    outer loop
      vertex 69.1213 0.878679 3
      vertex 68.8263 0.61994 0
      vertex 69.1213 0.878679 0
    endloop
  endfacet
  facet normal 0.321512 -0.946905 0
    outer loop
      vertex 67.7765 0.102222 0
      vertex 68.148 0.228361 3
      vertex 67.7765 0.102222 3
    endloop
  endfacet
  facet normal 0.321512 -0.946905 0
    outer loop
      vertex 68.148 0.228361 3
      vertex 67.7765 0.102222 0
      vertex 68.148 0.228361 0
    endloop
  endfacet
  facet normal 0.831485 -0.555547 0
    outer loop
      vertex 69.3801 1.17372 3
      vertex 69.5981 1.5 0
      vertex 69.5981 1.5 3
    endloop
  endfacet
  facet normal 0.831485 -0.555547 0
    outer loop
      vertex 69.5981 1.5 0
      vertex 69.3801 1.17372 3
      vertex 69.3801 1.17372 0
    endloop
  endfacet
  facet normal -0.946905 0.321512 0
    outer loop
      vertex 0.102222 13.7765 0
      vertex 0.228361 14.148 3
      vertex 0.228361 14.148 0
    endloop
  endfacet
  facet normal -0.946905 0.321512 0
    outer loop
      vertex 0.228361 14.148 3
      vertex 0.102222 13.7765 0
      vertex 0.102222 13.7765 3
    endloop
  endfacet
  facet normal -0.831481 0.555553 0
    outer loop
      vertex 0.401923 14.5 0
      vertex 0.61994 14.8263 3
      vertex 0.61994 14.8263 0
    endloop
  endfacet
  facet normal -0.831481 0.555553 0
    outer loop
      vertex 0.61994 14.8263 3
      vertex 0.401923 14.5 0
      vertex 0.401923 14.5 3
    endloop
  endfacet
  facet normal -0.659426 0.751769 0
    outer loop
      vertex 1.17372 15.3801 0
      vertex 0.878679 15.1213 3
      vertex 1.17372 15.3801 3
    endloop
  endfacet
  facet normal -0.659426 0.751769 0
    outer loop
      vertex 0.878679 15.1213 3
      vertex 1.17372 15.3801 0
      vertex 0.878679 15.1213 0
    endloop
  endfacet
  facet normal -0.321582 0.946882 0
    outer loop
      vertex 2.22354 15.8978 0
      vertex 1.85195 15.7716 3
      vertex 2.22354 15.8978 3
    endloop
  endfacet
  facet normal -0.321582 0.946882 0
    outer loop
      vertex 1.85195 15.7716 3
      vertex 2.22354 15.8978 0
      vertex 1.85195 15.7716 0
    endloop
  endfacet
  facet normal -0.44216 0.896936 0
    outer loop
      vertex 1.85195 15.7716 0
      vertex 1.5 15.5981 3
      vertex 1.85195 15.7716 3
    endloop
  endfacet
  facet normal -0.44216 0.896936 0
    outer loop
      vertex 1.5 15.5981 3
      vertex 1.85195 15.7716 0
      vertex 1.5 15.5981 0
    endloop
  endfacet
  facet normal -0.19495 0.980813 0
    outer loop
      vertex 2.60842 15.9743 0
      vertex 2.22354 15.8978 3
      vertex 2.60842 15.9743 3
    endloop
  endfacet
  facet normal -0.19495 0.980813 0
    outer loop
      vertex 2.22354 15.8978 3
      vertex 2.60842 15.9743 0
      vertex 2.22354 15.8978 0
    endloop
  endfacet
  facet normal 0.831501 0.555523 0
    outer loop
      vertex 69.5981 14.5 3
      vertex 69.3801 14.8263 0
      vertex 69.3801 14.8263 3
    endloop
  endfacet
  facet normal 0.831501 0.555523 0
    outer loop
      vertex 69.3801 14.8263 0
      vertex 69.5981 14.5 3
      vertex 69.5981 14.5 0
    endloop
  endfacet
  facet normal 0.946882 -0.321582 0
    outer loop
      vertex 69.7716 1.85195 3
      vertex 69.8978 2.22354 0
      vertex 69.8978 2.22354 3
    endloop
  endfacet
  facet normal 0.946882 -0.321582 0
    outer loop
      vertex 69.8978 2.22354 0
      vertex 69.7716 1.85195 3
      vertex 69.7716 1.85195 0
    endloop
  endfacet
  facet normal -0.751801 0.65939 0
    outer loop
      vertex 0.61994 14.8263 0
      vertex 0.878679 15.1213 3
      vertex 0.878679 15.1213 0
    endloop
  endfacet
  facet normal -0.751801 0.65939 0
    outer loop
      vertex 0.878679 15.1213 3
      vertex 0.61994 14.8263 0
      vertex 0.61994 14.8263 3
    endloop
  endfacet
endsolid OpenSCAD_Model
