solid OpenSCAD_Model
  facet normal -1 0 0
    outer loop
      vertex 9.9 70.1 0
      vertex 9.9 70 4.8
      vertex 9.9 70.1 4.8
    endloop
  endfacet
  facet normal -1 0 0
    outer loop
      vertex 9.9 70 4.8
      vertex 9.9 10 4.8
      vertex 9.9 70 8
    endloop
  endfacet
  facet normal -1 0 0
    outer loop
      vertex 9.9 70.1 0
      vertex 9.9 10 4.8
      vertex 9.9 70 4.8
    endloop
  endfacet
  facet normal -1 0 0
    outer loop
      vertex 9.9 9.9 0
      vertex 9.9 10 4.8
      vertex 9.9 70.1 0
    endloop
  endfacet
  facet normal -1 -0 0
    outer loop
      vertex 9.9 10 4.8
      vertex 9.9 9.9 0
      vertex 9.9 9.9 4.8
    endloop
  endfacet
  facet normal -1 -0 0
    outer loop
      vertex 9.9 70 8
      vertex 9.9 10 4.8
      vertex 9.9 10 8
    endloop
  endfacet
  facet normal 0 0 1
    outer loop
      vertex 26 80 8
      vertex 16.1 70 8
      vertex 26 70 8
    endloop
  endfacet
  facet normal 0 0 1
    outer loop
      vertex 16.1 70 8
      vertex 9.9 70 8
      vertex 16.1 10 8
    endloop
  endfacet
  facet normal 0 0 1
    outer loop
      vertex 26 80 8
      vertex 9.9 70 8
      vertex 16.1 70 8
    endloop
  endfacet
  facet normal -0 0 1
    outer loop
      vertex 0 80 8
      vertex 9.9 70 8
      vertex 26 80 8
    endloop
  endfacet
  facet normal 0 0 1
    outer loop
      vertex 9.9 70 8
      vertex 0 80 8
      vertex 0 70 8
    endloop
  endfacet
  facet normal -0 0 1
    outer loop
      vertex 16.1 10 8
      vertex 26 0 8
      vertex 26 10 8
    endloop
  endfacet
  facet normal 0 0 1
    outer loop
      vertex 9.9 10 8
      vertex 16.1 10 8
      vertex 9.9 70 8
    endloop
  endfacet
  facet normal -0 0 1
    outer loop
      vertex 9.9 10 8
      vertex 26 0 8
      vertex 16.1 10 8
    endloop
  endfacet
  facet normal 0 0 1
    outer loop
      vertex 0 0 8
      vertex 9.9 10 8
      vertex 0 10 8
    endloop
  endfacet
  facet normal 0 0 1
    outer loop
      vertex 9.9 10 8
      vertex 0 0 8
      vertex 26 0 8
    endloop
  endfacet
  facet normal 1 0 0
    outer loop
      vertex 16.1 70 8
      vertex 16.1 10 8
      vertex 16.1 70 4.8
    endloop
  endfacet
  facet normal 1 -0 0
    outer loop
      vertex 16.1 70 4.8
      vertex 16.1 70.1 0
      vertex 16.1 70.1 4.8
    endloop
  endfacet
  facet normal 1 0 0
    outer loop
      vertex 16.1 10 4.8
      vertex 16.1 70 4.8
      vertex 16.1 10 8
    endloop
  endfacet
  facet normal 1 0 0
    outer loop
      vertex 16.1 70 4.8
      vertex 16.1 10 4.8
      vertex 16.1 70.1 0
    endloop
  endfacet
  facet normal 1 0 0
    outer loop
      vertex 16.1 9.9 0
      vertex 16.1 10 4.8
      vertex 16.1 9.9 4.8
    endloop
  endfacet
  facet normal 1 0 0
    outer loop
      vertex 16.1 10 4.8
      vertex 16.1 9.9 0
      vertex 16.1 70.1 0
    endloop
  endfacet
  facet normal 0 1 -0
    outer loop
      vertex 16.1 70.1 0
      vertex 9.9 70.1 4.8
      vertex 16.1 70.1 4.8
    endloop
  endfacet
  facet normal 0 1 0
    outer loop
      vertex 9.9 70.1 4.8
      vertex 16.1 70.1 0
      vertex 9.9 70.1 0
    endloop
  endfacet
  facet normal 0 0 -1
    outer loop
      vertex 9.9 9.9 0
      vertex 16.1 70.1 0
      vertex 16.1 9.9 0
    endloop
  endfacet
  facet normal -0 0 -1
    outer loop
      vertex 16.1 70.1 0
      vertex 9.9 9.9 0
      vertex 9.9 70.1 0
    endloop
  endfacet
  facet normal 0 -1 0
    outer loop
      vertex 9.9 9.9 0
      vertex 16.1 9.9 4.8
      vertex 9.9 9.9 4.8
    endloop
  endfacet
  facet normal 0 -1 -0
    outer loop
      vertex 16.1 9.9 4.8
      vertex 9.9 9.9 0
      vertex 16.1 9.9 0
    endloop
  endfacet
  facet normal -1 0 0
    outer loop
      vertex 0 0 4.8
      vertex 0 10 8
      vertex 0 10 4.8
    endloop
  endfacet
  facet normal -1 -0 0
    outer loop
      vertex 0 10 8
      vertex 0 0 4.8
      vertex 0 0 8
    endloop
  endfacet
  facet normal 1 -0 0
    outer loop
      vertex 26 0 8
      vertex 26 10 4.8
      vertex 26 10 8
    endloop
  endfacet
  facet normal 1 0 0
    outer loop
      vertex 26 10 4.8
      vertex 26 0 8
      vertex 26 0 4.8
    endloop
  endfacet
  facet normal 0 1 -0
    outer loop
      vertex 26 10 4.8
      vertex 16.1 10 8
      vertex 26 10 8
    endloop
  endfacet
  facet normal 0 1 0
    outer loop
      vertex 16.1 10 8
      vertex 26 10 4.8
      vertex 16.1 10 4.8
    endloop
  endfacet
  facet normal 0 1 -0
    outer loop
      vertex 9.9 10 4.8
      vertex 0 10 8
      vertex 9.9 10 8
    endloop
  endfacet
  facet normal 0 1 0
    outer loop
      vertex 0 10 8
      vertex 9.9 10 4.8
      vertex 0 10 4.8
    endloop
  endfacet
  facet normal 0 0 -1
    outer loop
      vertex 26 0 4.8
      vertex 16.1 9.9 4.8
      vertex 26 10 4.8
    endloop
  endfacet
  facet normal 0 0 -1
    outer loop
      vertex 26 0 4.8
      vertex 9.9 9.9 4.8
      vertex 16.1 9.9 4.8
    endloop
  endfacet
  facet normal 0 0 -1
    outer loop
      vertex 0 0 4.8
      vertex 9.9 9.9 4.8
      vertex 26 0 4.8
    endloop
  endfacet
  facet normal 0 0 -1
    outer loop
      vertex 0 10 4.8
      vertex 9.9 9.9 4.8
      vertex 0 0 4.8
    endloop
  endfacet
  facet normal 0 0 -1
    outer loop
      vertex 9.9 9.9 4.8
      vertex 0 10 4.8
      vertex 9.9 10 4.8
    endloop
  endfacet
  facet normal -0 0 -1
    outer loop
      vertex 26 10 4.8
      vertex 16.1 9.9 4.8
      vertex 16.1 10 4.8
    endloop
  endfacet
  facet normal 0 -1 0
    outer loop
      vertex 0 0 4.8
      vertex 26 0 8
      vertex 0 0 8
    endloop
  endfacet
  facet normal 0 -1 -0
    outer loop
      vertex 26 0 8
      vertex 0 0 4.8
      vertex 26 0 4.8
    endloop
  endfacet
  facet normal -1 0 0
    outer loop
      vertex 0 70 4.8
      vertex 0 80 8
      vertex 0 80 4.8
    endloop
  endfacet
  facet normal -1 -0 0
    outer loop
      vertex 0 80 8
      vertex 0 70 4.8
      vertex 0 70 8
    endloop
  endfacet
  facet normal 1 -0 0
    outer loop
      vertex 26 70 8
      vertex 26 80 4.8
      vertex 26 80 8
    endloop
  endfacet
  facet normal 1 0 0
    outer loop
      vertex 26 80 4.8
      vertex 26 70 8
      vertex 26 70 4.8
    endloop
  endfacet
  facet normal 0 0 -1
    outer loop
      vertex 9.9 70 4.8
      vertex 0 70 4.8
      vertex 9.9 70.1 4.8
    endloop
  endfacet
  facet normal 0 0 -1
    outer loop
      vertex 16.1 70.1 4.8
      vertex 26 70 4.8
      vertex 16.1 70 4.8
    endloop
  endfacet
  facet normal 0 0 -1
    outer loop
      vertex 26 70 4.8
      vertex 16.1 70.1 4.8
      vertex 26 80 4.8
    endloop
  endfacet
  facet normal 0 0 -1
    outer loop
      vertex 9.9 70.1 4.8
      vertex 26 80 4.8
      vertex 16.1 70.1 4.8
    endloop
  endfacet
  facet normal 0 0 -1
    outer loop
      vertex 0 80 4.8
      vertex 9.9 70.1 4.8
      vertex 0 70 4.8
    endloop
  endfacet
  facet normal 0 0 -1
    outer loop
      vertex 9.9 70.1 4.8
      vertex 0 80 4.8
      vertex 26 80 4.8
    endloop
  endfacet
  facet normal 0 -1 0
    outer loop
      vertex 16.1 70 4.8
      vertex 26 70 8
      vertex 16.1 70 8
    endloop
  endfacet
  facet normal 0 -1 -0
    outer loop
      vertex 26 70 8
      vertex 16.1 70 4.8
      vertex 26 70 4.8
    endloop
  endfacet
  facet normal 0 -1 0
    outer loop
      vertex 0 70 4.8
      vertex 9.9 70 8
      vertex 0 70 8
    endloop
  endfacet
  facet normal 0 -1 -0
    outer loop
      vertex 9.9 70 8
      vertex 0 70 4.8
      vertex 9.9 70 4.8
    endloop
  endfacet
  facet normal 0 1 -0
    outer loop
      vertex 26 80 4.8
      vertex 0 80 8
      vertex 26 80 8
    endloop
  endfacet
  facet normal 0 1 0
    outer loop
      vertex 0 80 8
      vertex 26 80 4.8
      vertex 0 80 4.8
    endloop
  endfacet
endsolid OpenSCAD_Model
